$MeshFormat
2.2 0 8
$EndMeshFormat
$PhysicalNames
4
1 2 "boundary::domain"
1 3 "geology::active_interfaces"
1 4 "river::trace"
2 1 "zone::domain"
$EndPhysicalNames
$Nodes
283
1 461737.5 6863512.5 0
2 461737.5 6870037.5 0
3 469462.5 6870037.5 0
4 469462.5 6863512.5 0
5 467666.16569592 6865758.834304079 0
6 467625 6865800 0
7 467550 6865875 0
8 467475 6865875 0
9 467400 6865875 0
10 467325 6865950 0
11 467250 6866025 0
12 467175 6866025 0
13 467100 6866100 0
14 467025 6866175 0
15 467025 6866250 0
16 467025 6866325 0
17 467025 6866400 0
18 467025 6866475 0
19 467025 6866550 0
20 466950 6866625 0
21 466875 6866700 0
22 466800 6866700 0
23 466725 6866775 0
24 466650 6866850 0
25 466575 6866850 0
26 466500 6866925 0
27 466500 6867000 0
28 466425 6867075 0
29 466350 6867150 0
30 466275 6867225 0
31 466200 6867300 0
32 466125 6867375 0
33 466050 6867450 0
34 465975 6867525 0
35 465900 6867600 0
36 465900 6867675 0
37 465825 6867750 0
38 465900 6867825 0
39 465900 6867900 0
40 465825 6867975 0
41 465825 6868050 0
42 465900 6868125 0
43 465900 6868200 0
44 465900 6868275 0
45 465900 6868350 0
46 465900 6868425 0
47 465900 6868500 0
48 465825 6868500 0
49 465750 6868425 0
50 465675 6868425 0
51 465600 6868425 0
52 465525 6868425 0
53 465450 6868500 0
54 465375 6868575 0
55 465300 6868575 0
56 465225 6868650 0
57 465150 6868575 0
58 465075 6868575 0
59 465000 6868500 0
60 464925 6868500 0
61 464850 6868500 0
62 464775 6868425 0
63 464775 6868350 0
64 464740.7929751085 6868315.792975108 0
65 465276.4620116113 6867771.768194449 0
66 465433.2953002153 6867399.697974525 0
67 465430.6112408161 6867159.066038731 0
68 465308.0216024121 6866969.393991333 0
69 464840.6044130977 6866629.660715676 0
70 465181.4564185746 6866418.873524258 0
71 466459.0035653682 6865587.022052867 0
72 467937.344119029 6864733.322785952 0
73 468409.309380242 6864679.654390565 0
74 468453.4597235749 6865040.370343487 0
75 467817.2738149455 6865697.129859153 0
76 467216.7684214558 6865942.344029111 0
77 466427.5457891586 6866389.494893485 0
78 465959.9749101405 6866909.97491014 0
79 465975 6866925 0
80 465975 6867000 0
81 466050 6867075 0
82 466125 6867150 0
83 466200 6867225 0
84 465593.2244728372 6867318.225898989 0
85 464975.8259361351 6869664.258750885 0
86 464940.3287114049 6869257.744258828 0
87 465018.9527075714 6869096.792370205 0
88 465338.0539066717 6868853.904115005 0
89 465780.0722024063 6868840.560089352 0
90 466104.2377097289 6869078.637570642 0
91 466457.1906632076 6869196.150059273 0
92 467081.0386004448 6868777.716329629 0
93 462034.3303974794 6867976.637995292 0
94 462260.779371594 6867683.824379596 0
95 462700.7300241082 6867480.115487433 0
96 463753.9160221301 6867301.927000585 0
97 464600.2417438992 6868458.536623742 0
98 463891.8866860507 6868944.891425501 0
99 463729.1959338685 6869031.952610156 0
100 466895.0809419021 6869325.993888549 0
101 466830.3307431192 6869313.595705252 0
102 461737.5 6865435.073247282 0
103 461737.5 6867138.14692481 0
104 461737.5 6868449.477571706 0
105 463668.75 6870037.5 0
106 465600 6870037.5 0
107 467531.25 6870037.5 0
108 469462.5 6868406.25 0
109 469462.5 6866775 0
110 469462.5 6865143.75 0
111 468000.6788862308 6863512.5 0
112 466803.3377314598 6863512.5 0
113 465285.0461598034 6863512.5 0
114 463511.5043299295 6863512.5 0
115 464919.3493206095 6868134.451381555 0
116 465097.9056661104 6867953.109788002 0
117 465350.0877274677 6867597.099050324 0
118 465607.3054675058 6866141.589700461 0
119 466033.154516437 6865864.305876664 0
120 466951.7837499218 6865302.455630562 0
121 467444.5639344754 6865017.889208257 0
122 468191.9248954235 6865310.36294272 0
123 467985.5123566975 6865523.450653596 0
124 467441.4670586879 6865850.589166596 0
125 466965.8684236678 6866084.496758 0
126 466691.4606464891 6866239.968319173 0
127 466271.6888294859 6866562.98823237 0
128 466115.8318698132 6866736.481571255 0
129 465776.5996914888 6867114.100404564 0
130 466764.3109759587 6868990.155152111 0
131 463223.97354772 6867391.587941586 0
132 464296.8509770252 6868666.843961487 0
133 467670.8311789988 6866549.812497527 0
134 466537.5 6867862.5 0
135 466923.5875163472 6867063.556702523 0
136 466452.4341179811 6868411.503739718 0
137 467287.5 6866287.5 0
138 464854.7565268087 6868796.581398439 0
139 467512.5 6866137.5 0
140 462926.3898072831 6868420.711758951 0
141 464714.3869430869 6867440.983261467 0
142 467843.0883542522 6866050.517890316 0
143 464291.4078807824 6869519.21570263 0
144 468788.5265932429 6865913.219914316 0
145 464122.8778616364 6867927.723393225 0
146 465597.1244766298 6869477.394061399 0
147 464558.8916098758 6864784.524175815 0
148 467663.6353722391 6868109.261126184 0
149 463456.7749083716 6868421.445397633 0
150 463375.1103131743 6866006.551209454 0
151 466750.1872993154 6867462.38567631 0
152 462803.3642138123 6869480.889053836 0
153 467662.0027354299 6869280.434327015 0
154 466645.5507824418 6866965.546380467 0
155 465964.4610341676 6868044.642857143 0
156 466212.1875 6867823.125 0
157 465719.3951226945 6868544.515384398 0
158 464941.1552594639 6868595.715957399 0
159 466095.2580510781 6864488.181007323 0
160 467278.8571340919 6866856.10409568 0
161 466199.4996358854 6868110.639958863 0
162 464728.356941713 6868555.390642568 0
163 467442.7605432641 6865978.815460858 0
164 467192.4107142857 6866170.3125 0
165 466817.8232214057 6866829.554321835 0
166 466031.30859375 6867659.53125 0
167 466223.6281866776 6867596.821546053 0
168 465529.0197528368 6868586.739248996 0
169 465343.2998294102 6868673.151848688 0
170 465076.3688897522 6868684.300616779 0
171 464598.7350122076 6869058.540303917 0
172 466974.1966975859 6869134.433344928 0
173 466089.9935808801 6868758.302249764 0
174 464361.0752031464 6866982.035845382 0
175 467214.5718997662 6866554.492266313 0
176 466071.1202962743 6868398.992278335 0
177 464573.2154508237 6867906.18292483 0
178 467339.8542135437 6864089.265184333 0
179 468187.7257083248 6865775.725146684 0
180 468678.8133536759 6865329.203667948 0
181 465862.700092447 6868652.927854769 0
182 462524.7929539436 6868121.970263891 0
183 466057.1839936466 6869482.870423487 0
184 465838.1723838327 6865196.97159652 0
185 468367.6381711524 6866397.133257074 0
186 468354.4070710862 6867265.263148025 0
187 463220.378550243 6868886.737728841 0
188 466925.1750104983 6864675.375230874 0
189 468934.0761176662 6864711.00277206 0
190 466377.7262066769 6867439.925026159 0
191 466532.7679607453 6867257.767960745 0
192 463585.4564137219 6867913.921978738 0
193 465178.6023419845 6867300.257741994 0
194 464569.0403011385 6865803.385286883 0
195 463905.6878217289 6868476.690803874 0
196 466453.8785521399 6865050.001103629 0
197 464250.7735387898 6868274.642599798 0
198 465156.2932538858 6865490.979774169 0
199 463047.9177445144 6867912.446138452 0
200 464294.8008010049 6866390.71816498 0
201 468034.2895500602 6864238.133206178 0
202 468568.1707868399 6864130.75807376 0
203 466439.4475979786 6868848.141847832 0
204 462426.3222746802 6868767.703481788 0
205 462494.7726684469 6866558.534997056 0
206 465074.1950023579 6867654.812491737 0
207 467012.119967373 6866739.815340907 0
208 463842.2352499698 6866731.51449025 0
209 465940.79296875 6867754.40625 0
210 463944.0789751721 6869319.900176775 0
211 463673.0260593065 6868731.448032763 0
212 465109.186543728 6868841.890592949 0
213 466561.8393903126 6869565.601679427 0
214 464501.9963526796 6868221.23212767 0
215 465239.4615623225 6869240.521830545 0
216 464862.0718615374 6867831.550525138 0
217 465157.081810134 6865957.718612015 0
218 467652.3349905355 6865911.621634007 0
219 464880.5381007455 6867064.466311171 0
220 464204.5919062476 6869101.878314062 0
221 464678.6857615326 6868395.207741953 0
222 466015.3664732923 6868225.967572474 0
223 463420.884554644 6866927.218295523 0
224 462883.3187326302 6866968.725546192 0
225 467527.8814170448 6864564.183636734 0
226 463472.6707580996 6869399.868558199 0
227 465566.4836355223 6869093.037426949 0
228 466911.7531222238 6868214.258201065 0
229 467469.1913901232 6867284.534524546 0
230 466021.1785332218 6867873.906473715 0
231 462881.3586547013 6864599.817411405 0
232 464803.42977224 6866199.799713985 0
233 467113.4975162931 6866351.757823759 0
234 465591.8949531152 6865718.334025355 0
235 464701.5743851325 6869374.939754065 0
236 466729.7968829174 6868648.355054071 0
237 464615.7882403308 6868707.17858603 0
238 466489.7342332767 6864055.564284506 0
239 464216.5421540095 6867456.789146261 0
240 466245.0274005264 6866904.157340814 0
241 466551.7310251651 6866595.714709779 0
242 466098.8121704428 6866979.401929803 0
243 466777.1724209951 6866442.068361694 0
244 466919.0358907431 6866534.698860181 0
245 466612.5 6866737.5 0
246 466381.5645442189 6866980.455354452 0
247 466237.5 6867112.5 0
248 466406.6679586511 6866786.537151084 0
249 466933.5002130217 6866273.790491267 0
250 465539.3877853032 6868179.193637702 0
251 465225 6868255.590401794 0
252 465579.3954373379 6867523.801259628 0
253 465955.6446751356 6867220.228127315 0
254 464909.4501330453 6868388.754636632 0
255 465774.2055420551 6868174.360918424 0
256 465780.243648865 6868330.787081011 0
257 465126.2194013312 6868472.127044737 0
258 466087.5 6867262.5 0
259 465752.7767601409 6867623.180982259 0
260 465771.5351749829 6867872.1693791 0
261 465332.4321488565 6868467.714250258 0
262 465829.9375837365 6868391.566113777 0
263 465822.8301296175 6867421.817084095 0
264 465570.1393135109 6867770.938296502 0
265 465226.7303100376 6868547.968258999 0
266 465380.5419676486 6867998.0798016 0
267 465669.401397643 6868002.820290475 0
268 465648.9728293706 6868326.556939523 0
269 465840.9875167473 6868448.313222756 0
270 465604.0892104845 6866611.51880187 0
271 467586.5377630603 6865399.614928221 0
272 466124.4163075005 6866243.902894138 0
273 466388.5166780124 6866012.939844781 0
274 466910.5399464056 6865694.345834649 0
275 465604.487020191 6866934.499153749 0
276 467241.3414689348 6865629.105548402 0
277 467879.8214687991 6865162.716908795 0
278 467483.8779966508 6865659.535986825 0
279 468162.5644393267 6864987.107034223 0
280 466683.0778519886 6865923.754561894 0
281 465934.8620775825 6866497.184113426 0
282 465874.9099802409 6866699.979433613 0
283 465604.5675528283 6867143.986005675 0
$EndNodes
$Elements
678
1 1 2 2 1 1 102
2 1 2 2 1 102 103
3 1 2 2 1 103 104
4 1 2 2 1 104 2
5 1 2 2 2 2 105
6 1 2 2 2 105 106
7 1 2 2 2 106 107
8 1 2 2 2 107 3
9 1 2 2 3 3 108
10 1 2 2 3 108 109
11 1 2 2 3 109 110
12 1 2 2 3 110 4
13 1 2 2 4 4 111
14 1 2 2 4 111 112
15 1 2 2 4 112 113
16 1 2 2 4 113 114
17 1 2 2 4 114 1
18 1 2 4 5 5 6
19 1 2 4 6 6 7
20 1 2 4 7 7 8
21 1 2 4 8 8 9
22 1 2 4 9 9 10
23 1 2 4 10 10 11
24 1 2 4 11 11 12
25 1 2 4 12 12 13
26 1 2 4 13 13 14
27 1 2 4 14 14 15
28 1 2 4 15 15 16
29 1 2 4 16 16 17
30 1 2 4 17 17 18
31 1 2 4 18 18 19
32 1 2 4 19 19 20
33 1 2 4 20 20 21
34 1 2 4 21 21 22
35 1 2 4 22 22 23
36 1 2 4 23 23 24
37 1 2 4 24 24 25
38 1 2 4 25 25 26
39 1 2 4 26 26 27
40 1 2 4 27 27 28
41 1 2 4 28 28 29
42 1 2 4 29 29 30
43 1 2 4 30 30 31
44 1 2 4 31 31 32
45 1 2 4 32 32 33
46 1 2 4 33 33 34
47 1 2 4 34 34 35
48 1 2 4 35 35 36
49 1 2 4 36 36 37
50 1 2 4 37 37 38
51 1 2 4 38 38 39
52 1 2 4 39 39 40
53 1 2 4 40 40 41
54 1 2 4 41 41 42
55 1 2 4 42 42 43
56 1 2 4 43 43 44
57 1 2 4 44 44 45
58 1 2 4 45 45 46
59 1 2 4 46 46 47
60 1 2 4 47 47 48
61 1 2 4 48 48 49
62 1 2 4 49 49 50
63 1 2 4 50 50 51
64 1 2 4 51 51 52
65 1 2 4 52 52 53
66 1 2 4 53 53 54
67 1 2 4 54 54 55
68 1 2 4 55 55 56
69 1 2 4 56 56 57
70 1 2 4 57 57 58
71 1 2 4 58 58 59
72 1 2 4 59 59 60
73 1 2 4 60 60 61
74 1 2 4 61 61 62
75 1 2 4 62 62 63
76 1 2 4 63 63 64
77 1 2 4 64 64 115
78 1 2 4 64 115 116
79 1 2 4 64 116 65
80 1 2 3 65 65 117
81 1 2 3 65 117 66
82 1 2 3 66 66 67
83 1 2 3 67 67 68
84 1 2 3 68 68 69
85 1 2 3 69 69 70
86 1 2 3 70 70 118
87 1 2 3 70 118 119
88 1 2 3 70 119 71
89 1 2 3 71 71 120
90 1 2 3 71 120 121
91 1 2 3 71 121 72
92 1 2 3 72 72 73
93 1 2 3 73 73 74
94 1 2 3 74 74 122
95 1 2 3 74 122 123
96 1 2 3 74 123 75
97 1 2 4 75 75 5
98 1 2 4 76 5 124
99 1 2 4 76 124 76
100 1 2 3 77 76 125
101 1 2 3 77 125 126
102 1 2 3 77 126 77
103 1 2 4 78 77 127
104 1 2 4 78 127 128
105 1 2 4 78 128 78
106 1 2 4 79 78 79
107 1 2 4 80 79 80
108 1 2 4 81 80 81
109 1 2 4 82 81 82
110 1 2 4 83 82 83
111 1 2 4 84 83 31
112 1 2 4 85 78 129
113 1 2 4 85 129 84
114 1 2 3 86 84 66
115 1 2 3 87 85 86
116 1 2 3 88 86 87
117 1 2 3 89 87 88
118 1 2 3 90 88 89
119 1 2 3 91 89 90
120 1 2 3 92 90 91
121 1 2 3 93 91 130
122 1 2 3 93 130 92
123 1 2 3 94 93 94
124 1 2 3 95 94 95
125 1 2 3 96 95 131
126 1 2 3 96 131 96
127 1 2 3 97 97 132
128 1 2 3 97 132 98
129 1 2 3 98 98 99
130 1 2 3 99 100 101
131 1 2 3 100 101 91
132 2 2 1 1 101 213 100
133 2 2 1 1 115 177 64
134 2 2 1 1 147 184 159
135 2 2 1 1 28 191 27
136 2 2 1 1 87 171 86
137 2 2 1 1 47 176 46
138 2 2 1 1 148 153 108
139 2 2 1 1 20 207 19
140 2 2 1 1 15 164 14
141 2 2 1 1 134 228 151
142 2 2 1 1 69 219 68
143 2 2 1 1 3 153 107
144 2 2 1 1 32 190 31
145 2 2 1 1 179 180 122
146 2 2 1 1 93 204 182
147 2 2 1 1 108 186 148
148 2 2 1 1 159 238 113
149 2 2 1 1 30 191 29
150 2 2 1 1 94 182 95
151 2 2 1 1 71 184 119
152 2 2 1 1 148 228 92
153 2 2 1 1 73 201 72
154 2 2 1 1 147 198 184
155 2 2 1 1 113 238 112
156 2 2 1 1 87 215 88
157 2 2 1 1 108 153 3
158 2 2 1 1 46 176 45
159 2 2 1 1 65 206 116
160 2 2 1 1 104 204 93
161 2 2 1 1 151 229 135
162 2 2 1 1 111 202 4
163 2 2 1 1 144 185 109
164 2 2 1 1 92 153 148
165 2 2 1 1 19 175 18
166 2 2 1 1 154 165 24
167 2 2 1 1 54 169 168
168 2 2 1 1 132 195 98
169 2 2 1 1 33 167 32
170 2 2 1 1 69 200 174
171 2 2 1 1 11 163 10
172 2 2 1 1 14 164 13
173 2 2 1 1 24 165 23
174 2 2 1 1 54 168 53
175 2 2 1 1 180 189 74
176 2 2 1 1 147 159 113
177 2 2 1 1 66 193 117
178 2 2 1 1 19 207 175
179 2 2 1 1 140 204 187
180 2 2 1 1 90 227 146
181 2 2 1 1 122 180 74
182 2 2 1 1 195 197 145
183 2 2 1 1 103 205 102
184 2 2 1 1 89 227 90
185 2 2 1 1 6 218 5
186 2 2 1 1 73 202 201
187 2 2 1 1 201 225 72
188 2 2 1 1 173 176 47
189 2 2 1 1 112 178 111
190 2 2 1 1 178 225 201
191 2 2 1 1 192 195 145
192 2 2 1 1 138 171 87
193 2 2 1 1 160 229 133
194 2 2 1 1 96 192 145
195 2 2 1 1 98 220 132
196 2 2 1 1 145 239 96
197 2 2 1 1 97 197 132
198 2 2 1 1 132 237 97
199 2 2 1 1 43 222 42
200 2 2 1 1 45 222 44
201 2 2 1 1 34 166 33
202 2 2 1 1 75 179 123
203 2 2 1 1 93 182 94
204 2 2 1 1 74 189 73
205 2 2 1 1 27 191 154
206 2 2 1 1 114 147 113
207 2 2 1 1 121 188 120
208 2 2 1 1 71 196 184
209 2 2 1 1 131 192 96
210 2 2 1 1 95 205 103
211 2 2 1 1 151 228 148
212 2 2 1 1 174 219 69
213 2 2 1 1 178 201 111
214 2 2 1 1 177 214 64
215 2 2 1 1 149 195 192
216 2 2 1 1 120 196 71
217 2 2 1 1 182 199 95
218 2 2 1 1 154 191 135
219 2 2 1 1 157 168 89
220 2 2 1 1 184 234 119
221 2 2 1 1 117 206 65
222 2 2 1 1 16 233 15
223 2 2 1 1 18 233 17
224 2 2 1 1 149 199 140
225 2 2 1 1 141 239 177
226 2 2 1 1 21 207 20
227 2 2 1 1 152 204 2
228 2 2 1 1 144 180 179
229 2 2 1 1 150 200 194
230 2 2 1 1 69 232 200
231 2 2 1 1 192 199 149
232 2 2 1 1 31 190 30
233 2 2 1 1 88 227 89
234 2 2 1 1 67 193 66
235 2 2 1 1 95 199 131
236 2 2 1 1 106 146 85
237 2 2 1 1 56 212 88
238 2 2 1 1 189 202 73
239 2 2 1 1 85 215 86
240 2 2 1 1 88 169 56
241 2 2 1 1 29 191 28
242 2 2 1 1 133 142 139
243 2 2 1 1 163 218 7
244 2 2 1 1 201 202 111
245 2 2 1 1 174 208 96
246 2 2 1 1 61 162 158
247 2 2 1 1 206 216 116
248 2 2 1 1 11 164 139
249 2 2 1 1 48 181 47
250 2 2 1 1 188 196 120
251 2 2 1 1 114 231 147
252 2 2 1 1 90 183 91
253 2 2 1 1 95 224 205
254 2 2 1 1 109 186 108
255 2 2 1 1 102 231 1
256 2 2 1 1 110 189 180
257 2 2 1 1 47 181 173
258 2 2 1 1 141 219 174
259 2 2 1 1 68 193 67
260 2 2 1 1 148 229 151
261 2 2 1 1 139 163 11
262 2 2 1 1 177 216 141
263 2 2 1 1 90 173 89
264 2 2 1 1 177 239 145
265 2 2 1 1 146 183 90
266 2 2 1 1 42 222 155
267 2 2 1 1 133 185 142
268 2 2 1 1 150 208 200
269 2 2 1 1 142 218 139
270 2 2 1 1 8 163 7
271 2 2 1 1 51 157 50
272 2 2 1 1 61 158 60
273 2 2 1 1 7 218 6
274 2 2 1 1 147 231 150
275 2 2 1 1 142 185 179
276 2 2 1 1 179 185 144
277 2 2 1 1 107 153 100
278 2 2 1 1 121 225 188
279 2 2 1 1 118 217 70
280 2 2 1 1 87 212 138
281 2 2 1 1 131 199 192
282 2 2 1 1 146 215 85
283 2 2 1 1 116 216 115
284 2 2 1 1 96 239 174
285 2 2 1 1 70 232 69
286 2 2 1 1 159 196 188
287 2 2 1 1 72 225 121
288 2 2 1 1 133 175 160
289 2 2 1 1 150 223 208
290 2 2 1 1 115 216 177
291 2 2 1 1 134 161 136
292 2 2 1 1 97 214 197
293 2 2 1 1 185 186 109
294 2 2 1 1 135 165 154
295 2 2 1 1 198 234 184
296 2 2 1 1 174 239 141
297 2 2 1 1 182 204 140
298 2 2 1 1 150 194 147
299 2 2 1 1 142 179 75
300 2 2 1 1 200 208 174
301 2 2 1 1 62 162 61
302 2 2 1 1 193 206 117
303 2 2 1 1 44 222 43
304 2 2 1 1 101 172 130
305 2 2 1 1 134 190 167
306 2 2 1 1 136 176 173
307 2 2 1 1 188 225 178
308 2 2 1 1 91 213 101
309 2 2 1 1 15 233 164
310 2 2 1 1 135 191 151
311 2 2 1 1 170 212 56
312 2 2 1 1 1 231 114
313 2 2 1 1 166 167 33
314 2 2 1 1 99 211 187
315 2 2 1 1 119 234 118
316 2 2 1 1 150 224 223
317 2 2 1 1 136 228 134
318 2 2 1 1 178 238 188
319 2 2 1 1 187 204 152
320 2 2 1 1 86 235 85
321 2 2 1 1 162 237 138
322 2 2 1 1 140 199 182
323 2 2 1 1 39 230 38
324 2 2 1 1 188 238 159
325 2 2 1 1 91 203 90
326 2 2 1 1 133 186 185
327 2 2 1 1 151 190 134
328 2 2 1 1 167 190 32
329 2 2 1 1 228 236 92
330 2 2 1 1 98 211 99
331 2 2 1 1 89 181 157
332 2 2 1 1 184 196 159
333 2 2 1 1 86 215 87
334 2 2 1 1 75 218 142
335 2 2 1 1 96 223 131
336 2 2 1 1 130 203 91
337 2 2 1 1 215 227 88
338 2 2 1 1 112 238 178
339 2 2 1 1 194 217 198
340 2 2 1 1 137 175 133
341 2 2 1 1 17 233 16
342 2 2 1 1 190 191 30
343 2 2 1 1 150 231 102
344 2 2 1 1 140 187 149
345 2 2 1 1 138 237 171
346 2 2 1 1 133 139 137
347 2 2 1 1 131 224 95
348 2 2 1 1 171 235 86
349 2 2 1 1 153 172 100
350 2 2 1 1 99 210 98
351 2 2 1 1 135 229 160
352 2 2 1 1 92 236 130
353 2 2 1 1 171 237 132
354 2 2 1 1 161 230 155
355 2 2 1 1 102 205 150
356 2 2 1 1 145 214 177
357 2 2 1 1 217 232 70
358 2 2 1 1 143 210 105
359 2 2 1 1 132 197 195
360 2 2 1 1 214 221 64
361 2 2 1 1 133 229 186
362 2 2 1 1 118 234 217
363 2 2 1 1 105 226 152
364 2 2 1 1 208 223 96
365 2 2 1 1 187 226 99
366 2 2 1 1 156 161 134
367 2 2 1 1 176 222 45
368 2 2 1 1 90 203 173
369 2 2 1 1 130 172 92
370 2 2 1 1 175 233 18
371 2 2 1 1 197 214 145
372 2 2 1 1 141 216 206
373 2 2 1 1 200 232 194
374 2 2 1 1 175 207 160
375 2 2 1 1 193 219 141
376 2 2 1 1 173 203 136
377 2 2 1 1 161 176 136
378 2 2 1 1 97 221 214
379 2 2 1 1 135 207 165
380 2 2 1 1 165 207 21
381 2 2 1 1 194 198 147
382 2 2 1 1 26 154 25
383 2 2 1 1 40 155 39
384 2 2 1 1 42 155 41
385 2 2 1 1 49 157 48
386 2 2 1 1 59 158 58
387 2 2 1 1 173 181 89
388 2 2 1 1 194 232 217
389 2 2 1 1 92 172 153
390 2 2 1 1 136 236 228
391 2 2 1 1 68 219 193
392 2 2 1 1 156 230 161
393 2 2 1 1 195 211 98
394 2 2 1 1 157 181 48
395 2 2 1 1 106 183 146
396 2 2 1 1 156 167 166
397 2 2 1 1 155 222 161
398 2 2 1 1 132 220 171
399 2 2 1 1 160 207 135
400 2 2 1 1 166 230 156
401 2 2 1 1 9 163 8
402 2 2 1 1 12 164 11
403 2 2 1 1 22 165 21
404 2 2 1 1 25 154 24
405 2 2 1 1 27 154 26
406 2 2 1 1 36 166 35
407 2 2 1 1 41 155 40
408 2 2 1 1 50 157 49
409 2 2 1 1 52 168 51
410 2 2 1 1 55 169 54
411 2 2 1 1 58 170 57
412 2 2 1 1 60 158 59
413 2 2 1 1 10 163 9
414 2 2 1 1 13 164 12
415 2 2 1 1 23 165 22
416 2 2 1 1 35 166 34
417 2 2 1 1 53 168 52
418 2 2 1 1 56 169 55
419 2 2 1 1 57 170 56
420 2 2 1 1 217 234 198
421 2 2 1 1 134 167 156
422 2 2 1 1 139 164 137
423 2 2 1 1 205 224 150
424 2 2 1 1 38 230 209
425 2 2 1 1 223 224 131
426 2 2 1 1 187 211 149
427 2 2 1 1 139 218 163
428 2 2 1 1 158 162 138
429 2 2 1 1 130 236 203
430 2 2 1 1 186 229 148
431 2 2 1 1 171 220 143
432 2 2 1 1 155 230 39
433 2 2 1 1 183 213 91
434 2 2 1 1 63 221 62
435 2 2 1 1 138 212 170
436 2 2 1 1 210 226 105
437 2 2 1 1 210 220 98
438 2 2 1 1 99 226 210
439 2 2 1 1 100 172 101
440 2 2 1 1 97 237 162
441 2 2 1 1 62 221 162
442 2 2 1 1 151 191 190
443 2 2 1 1 143 235 171
444 2 2 1 1 209 230 166
445 2 2 1 1 36 209 166
446 2 2 1 1 51 168 157
447 2 2 1 1 158 170 58
448 2 2 1 1 141 206 193
449 2 2 1 1 152 226 187
450 2 2 1 1 138 170 158
451 2 2 1 1 143 220 210
452 2 2 1 1 64 221 63
453 2 2 1 1 203 236 136
454 2 2 1 1 164 233 137
455 2 2 1 1 37 209 36
456 2 2 1 1 38 209 37
457 2 2 1 1 162 221 97
458 2 2 1 1 149 211 195
459 2 2 1 1 146 227 215
460 2 2 1 1 137 233 175
461 2 2 1 1 161 222 176
462 2 2 1 1 2 204 104
463 2 2 1 1 105 152 2
464 2 2 1 1 4 189 110
465 2 2 1 1 4 202 189
466 2 2 1 1 105 106 85
467 2 2 1 1 85 143 105
468 2 2 1 1 85 235 143
469 2 2 1 1 88 212 87
470 2 2 1 1 103 104 93
471 2 2 1 1 107 213 106
472 2 2 1 1 106 213 183
473 2 2 1 1 110 144 109
474 2 2 1 1 5 218 75
475 2 2 1 1 89 168 88
476 2 2 1 1 168 169 88
477 2 2 1 1 101 130 91
478 2 2 1 1 94 103 93
479 2 2 1 1 95 103 94
480 2 2 1 1 100 213 107
481 2 2 1 1 110 180 144
482 2 2 1 1 123 179 122
483 2 2 1 2 22 244 21
484 2 2 1 2 21 244 20
485 2 2 1 2 23 245 22
486 2 2 1 2 13 14 125
487 2 2 1 2 126 243 77
488 2 2 1 2 26 248 25
489 2 2 1 2 128 242 79
490 2 2 1 2 15 249 14
491 2 2 1 2 17 249 16
492 2 2 1 2 125 249 126
493 2 2 1 2 29 246 28
494 2 2 1 2 81 242 82
495 2 2 1 2 14 249 125
496 2 2 1 2 9 124 8
497 2 2 1 2 241 243 22
498 2 2 1 2 11 76 10
499 2 2 1 2 77 243 241
500 2 2 1 2 18 244 17
501 2 2 1 2 12 76 11
502 2 2 1 2 22 245 241
503 2 2 1 2 127 248 128
504 2 2 1 2 77 241 127
505 2 2 1 2 16 249 15
506 2 2 1 2 243 244 22
507 2 2 1 2 128 248 240
508 2 2 1 2 17 244 243
509 2 2 1 2 79 242 80
510 2 2 1 2 243 249 17
511 2 2 1 2 246 248 26
512 2 2 1 2 25 248 245
513 2 2 1 2 29 247 246
514 2 2 1 2 242 247 82
515 2 2 1 2 241 248 127
516 2 2 1 2 240 242 128
517 2 2 1 2 19 244 18
518 2 2 1 2 25 245 24
519 2 2 1 2 27 246 26
520 2 2 1 2 83 247 30
521 2 2 1 2 20 244 19
522 2 2 1 2 24 245 23
523 2 2 1 2 28 246 27
524 2 2 1 2 30 247 29
525 2 2 1 2 80 242 81
526 2 2 1 2 82 247 83
527 2 2 1 2 240 248 246
528 2 2 1 2 126 249 243
529 2 2 1 2 245 248 241
530 2 2 1 2 240 247 242
531 2 2 1 2 246 247 240
532 2 2 1 2 5 6 124
533 2 2 1 2 6 7 124
534 2 2 1 2 124 7 8
535 2 2 1 2 10 76 9
536 2 2 1 2 9 76 124
537 2 2 1 2 12 13 125
538 2 2 1 2 125 76 12
539 2 2 1 2 83 30 31
540 2 2 1 2 78 128 79
541 2 2 1 3 80 253 81
542 2 2 1 3 33 263 34
543 2 2 1 3 63 254 115
544 2 2 1 3 251 261 52
545 2 2 1 3 52 261 53
546 2 2 1 3 84 263 129
547 2 2 1 3 129 253 80
548 2 2 1 3 250 251 52
549 2 2 1 3 117 252 66
550 2 2 1 3 32 258 33
551 2 2 1 3 81 258 82
552 2 2 1 3 51 268 52
553 2 2 1 3 34 263 35
554 2 2 1 3 115 251 116
555 2 2 1 3 259 264 37
556 2 2 1 3 66 252 84
557 2 2 1 3 37 264 260
558 2 2 1 3 115 254 251
559 2 2 1 3 59 257 254
560 2 2 1 3 52 268 250
561 2 2 1 3 116 266 65
562 2 2 1 3 43 255 44
563 2 2 1 3 49 256 50
564 2 2 1 3 59 254 60
565 2 2 1 3 40 267 41
566 2 2 1 3 65 264 117
567 2 2 1 3 254 257 251
568 2 2 1 3 50 268 51
569 2 2 1 3 65 266 264
570 2 2 1 3 129 263 253
571 2 2 1 3 253 263 33
572 2 2 1 3 251 266 116
573 2 2 1 3 117 264 252
574 2 2 1 3 266 267 264
575 2 2 1 3 35 263 259
576 2 2 1 3 39 260 40
577 2 2 1 3 41 255 42
578 2 2 1 3 58 257 59
579 2 2 1 3 61 254 62
580 2 2 1 3 250 266 251
581 2 2 1 3 62 254 63
582 2 2 1 3 252 263 84
583 2 2 1 3 264 267 260
584 2 2 1 3 33 258 253
585 2 2 1 3 253 258 81
586 2 2 1 3 250 267 266
587 2 2 1 3 83 258 31
588 2 2 1 3 35 259 36
589 2 2 1 3 38 260 39
590 2 2 1 3 42 255 43
591 2 2 1 3 44 256 45
592 2 2 1 3 54 261 55
593 2 2 1 3 57 257 58
594 2 2 1 3 60 254 61
595 2 2 1 3 31 258 32
596 2 2 1 3 36 259 37
597 2 2 1 3 37 260 38
598 2 2 1 3 53 261 54
599 2 2 1 3 82 258 83
600 2 2 1 3 252 264 259
601 2 2 1 3 41 267 255
602 2 2 1 3 260 267 40
603 2 2 1 3 48 269 49
604 2 2 1 3 257 261 251
605 2 2 1 3 256 268 50
606 2 2 1 3 255 256 44
607 2 2 1 3 261 265 55
608 2 2 1 3 57 265 257
609 2 2 1 3 257 265 261
610 2 2 1 3 55 265 56
611 2 2 1 3 56 265 57
612 2 2 1 3 255 267 250
613 2 2 1 3 250 268 255
614 2 2 1 3 259 263 252
615 2 2 1 3 45 262 46
616 2 2 1 3 255 268 256
617 2 2 1 3 256 262 45
618 2 2 1 3 49 262 256
619 2 2 1 3 49 269 262
620 2 2 1 3 46 269 47
621 2 2 1 3 47 269 48
622 2 2 1 3 262 269 46
623 2 2 1 3 80 78 129
624 2 2 1 3 115 64 63
625 2 2 1 3 79 78 80
626 2 2 1 4 75 271 5
627 2 2 1 4 68 270 70
628 2 2 1 4 123 271 75
629 2 2 1 4 84 67 66
630 2 2 1 4 120 276 271
631 2 2 1 4 77 272 127
632 2 2 1 4 276 278 271
633 2 2 1 4 78 275 129
634 2 2 1 4 76 274 125
635 2 2 1 4 120 271 121
636 2 2 1 4 126 273 77
637 2 2 1 4 78 282 275
638 2 2 1 4 118 281 272
639 2 2 1 4 270 281 118
640 2 2 1 4 70 270 118
641 2 2 1 4 121 277 72
642 2 2 1 4 68 275 270
643 2 2 1 4 124 276 76
644 2 2 1 4 271 278 5
645 2 2 1 4 71 274 120
646 2 2 1 4 129 283 84
647 2 2 1 4 5 278 124
648 2 2 1 4 118 272 119
649 2 2 1 4 77 273 272
650 2 2 1 4 119 273 71
651 2 2 1 4 127 281 128
652 2 2 1 4 270 282 281
653 2 2 1 4 76 276 274
654 2 2 1 4 272 281 127
655 2 2 1 4 122 277 123
656 2 2 1 4 125 280 126
657 2 2 1 4 72 279 73
658 2 2 1 4 128 282 78
659 2 2 1 4 67 275 68
660 2 2 1 4 123 277 271
661 2 2 1 4 84 283 67
662 2 2 1 4 73 279 74
663 2 2 1 4 71 280 274
664 2 2 1 4 274 280 125
665 2 2 1 4 74 279 122
666 2 2 1 4 124 278 276
667 2 2 1 4 273 280 71
668 2 2 1 4 126 280 273
669 2 2 1 4 271 277 121
670 2 2 1 4 272 273 119
671 2 2 1 4 274 276 120
672 2 2 1 4 275 282 270
673 2 2 1 4 277 279 72
674 2 2 1 4 281 282 128
675 2 2 1 4 67 283 275
676 2 2 1 4 275 283 129
677 2 2 1 4 122 279 277
678 2 2 1 4 70 69 68
$EndElements
