$MeshFormat
2.2 0 8
$EndMeshFormat
$PhysicalNames
4
1 2 "boundary::domain"
1 3 "geology::active_interfaces"
1 4 "river::trace"
2 1 "zone::domain"
$EndPhysicalNames
$Nodes
229
1 148837.5 6770062.5 0
2 148837.5 6776437.5 0
3 156637.5 6776437.5 0
4 156637.5 6770062.5 0
5 151575 6772275 0
6 151650 6772200 0
7 151725 6772200 0
8 151800 6772125 0
9 151800.1307807127 6772125 0
10 153367.7554484909 6773025 0
11 153300 6773025 0
12 153225 6772950 0
13 153150 6772950 0
14 153075 6772950 0
15 153000 6772875 0
16 152925 6772875 0
17 152850 6772800 0
18 152775 6772875 0
19 152700 6772950 0
20 152625 6772875 0
21 152550 6772875 0
22 152475 6772800 0
23 152475 6772725 0
24 152400 6772650 0
25 152325 6772650 0
26 152250 6772650 0
27 152175 6772725 0
28 152100 6772725 0
29 152025 6772725 0
30 151950 6772725 0
31 151875 6772725 0
32 151800 6772650 0
33 151725 6772650 0
34 151650 6772575 0
35 151575 6772500 0
36 151575 6772425 0
37 151575 6772350 0
38 153375 6773025 0
39 153384.76611062 6773034.76611062 0
40 153522.3680728425 6773113.765738877 0
41 154017.3487724013 6773592.264017677 0
42 154019.5529895518 6773969.552989552 0
43 153975 6773925 0
44 153900 6773925 0
45 153825 6773925 0
46 153750 6773850 0
47 153750 6773775 0
48 153750 6773700 0
49 153825 6773625 0
50 153750 6773550 0
51 153750 6773475 0
52 153675 6773400 0
53 153600 6773325 0
54 153600 6773250 0
55 153525 6773175 0
56 153450 6773100 0
57 150787.5 6772162.5 0
58 150750 6772200 0
59 150712.5 6772162.5 0
60 149136.3696773988 6772596.844731423 0
61 150266.3955343178 6772764.771311717 0
62 150569.5750952435 6773063.932884433 0
63 151026.1467969411 6773812.747914985 0
64 151025.0119220827 6773839.065932881 0
65 153195.5885455483 6774935.847389142 0
66 153502.0898116967 6774724.885266427 0
67 154020.8561452926 6774192.6100915 0
68 151184.2843021202 6771771.432056011 0
69 150097.2872343254 6771425.07654107 0
70 149942.928808958 6771344.502370243 0
71 148837.5 6771748.646828197 0
72 148837.5 6773029.776999505 0
73 148837.5 6774564.795121199 0
74 150787.5 6776437.5 0
75 152737.5 6776437.5 0
76 154687.5 6776437.5 0
77 156637.5 6774843.75 0
78 156637.5 6773250 0
79 156637.5 6771656.25 0
80 154837.8199892334 6770062.5 0
81 153038.4912099223 6770062.5 0
82 151500.6039748862 6770062.5 0
83 150302.5141840105 6770062.5 0
84 152061.4015586757 6772275 0
85 152322.6723366388 6772425 0
86 152583.9431146018 6772575 0
87 152845.2138925648 6772725 0
88 153106.4846705279 6772875 0
89 153687.0600212152 6773272.973590614 0
90 153851.7519695879 6773432.181442353 0
91 154018.4508809766 6773780.908503614 0
92 149713.8030740125 6772682.653755214 0
93 150781.0574339321 6773410.781261845 0
94 153792.7245426924 6774426.682314034 0
95 150667.2503560358 6771606.686847451 0
96 152213.8266741826 6773973.687987378 0
97 151474.1315477741 6773278.454191426 0
98 152850.7945937103 6773771.032761619 0
99 151107.6061979273 6772540.65481635 0
100 152257.689761899 6773083.907542297 0
101 153296.8054793786 6773596.695781533 0
102 153703.2748606093 6772805.978910176 0
103 153095.0666983028 6773241.416605351 0
104 153226.6866868116 6771699.025845684 0
105 154685.3049374312 6772807.741986798 0
106 155336.4419129985 6773826.578363338 0
107 150620.7386732404 6773785.937712145 0
108 151800.0653903568 6771411.987630043 0
109 150053.67332685 6772135.703826149 0
110 153517.5725417332 6774223.674620944 0
111 151576.552334421 6774127.030119483 0
112 152114.1796324222 6775111.858706592 0
113 152313.8504497348 6772793.288834065 0
114 150439.6829899754 6772412.976230731 0
115 154677.5364399159 6773834.460282736 0
116 152502.7897722381 6771589.695285561 0
117 152818.7086515159 6773028.476175147 0
118 153215.8954435953 6772301.647843112 0
119 151559.3440951975 6771831.188190395 0
120 153349.6985321767 6773118.897839497 0
121 153171.6597173959 6773040.593310699 0
122 152999.4565556208 6772997.676915619 0
123 151795.3867039981 6772779.222671002 0
124 151859.9174409375 6773019.460136605 0
125 154752.7292147339 6775320.02725482 0
126 153877.7566166435 6775561.053021733 0
127 154338.7298308011 6774804.37828957 0
128 151304.5283004056 6772815.274790063 0
129 153791.4917668915 6774132.453774067 0
130 154090.9634592594 6772895.876974613 0
131 154285.3927681563 6772225.112259227 0
132 152566.8707038576 6773017.391427349 0
133 153619.7615407195 6773530.18842017 0
134 153463.7268404211 6773303.877452373 0
135 150343.4229191468 6770765.405129829 0
136 155338.1675880459 6771662.685116586 0
137 150767.4166581174 6771882.410800195 0
138 152687.4807939396 6774370.850098473 0
139 151007.3984257259 6770949.996279118 0
140 149876.7547409824 6771686.997101689 0
141 152117.6562248106 6771816.034228472 0
142 151430.0485310682 6772097.574663602 0
143 153921.9834836227 6774011.602809186 0
144 149695.968590714 6773603.082994728 0
145 151251.3910735446 6772307.556164254 0
146 153371.3777242455 6772783.284649518 0
147 151163.1660131045 6773905.92758127 0
148 154347.6522579637 6774195.776120264 0
149 152665.923861645 6772129.664111556 0
150 149821.1731583616 6770787.956243646 0
151 153564.1783536158 6773834.925422324 0
152 154296.9410454872 6771017.074678645 0
153 155667.9180935498 6772918.492950948 0
154 150906.4246022313 6772330.178023747 0
155 154914.0289836641 6774479.65459919 0
156 154486.048929384 6773336.073330401 0
157 153557.1346184331 6775186.703151129 0
158 151821.0656003882 6771907.487984799 0
159 150517.5685739983 6774645.855352033 0
160 151119.7395453217 6773475.223175612 0
161 149468.3042427562 6771301.137109142 0
162 154262.094268715 6773618.410673321 0
163 151016.5301002089 6773042.723863913 0
164 155779.9707714628 6775128.249504927 0
165 155675.3533020354 6774458.375855216 0
166 153863.2703102163 6774868.759480993 0
167 152461.2288534443 6770775.741869544 0
168 153735.1066583929 6773034.750602833 0
169 152432.6821830983 6772913.917560742 0
170 150498.8276305977 6772009.910183255 0
171 151011.0093095831 6772082.176753642 0
172 152091.9939503673 6772849.187537567 0
173 150677.7513006104 6772305.051727566 0
174 151398.005328228 6772462.5 0
175 151664.2430377757 6772060.208473133 0
176 151692.3241611033 6770800.056444676 0
177 149508.5631021147 6772068.441859334 0
178 153215.3443176764 6774447.879860512 0
179 152538.9787046245 6773367.86525352 0
180 154135.3834593308 6773306.829136989 0
181 154265.0573674246 6773879.821713897 0
182 153029.1812705435 6775603.848460256 0
183 151547.3202239883 6772752.679776012 0
184 150470.4275046497 6771181.672916606 0
185 150135.0479250883 6771100.922640279 0
186 153509.8696009207 6772951.18731625 0
187 153736.1903851799 6773601.297105042 0
188 153689.6485324481 6773993.210763467 0
189 152309.637599916 6772070.115266721 0
190 152883.5231767881 6772460.700149847 0
191 153090.8248643984 6772612.858604516 0
192 154862.6243160821 6772212.91912773 0
193 149345.9103355313 6772978.089620218 0
194 150238.7586577583 6771772.874899923 0
195 154083.6579955755 6774500.845140356 0
196 150711.9951172164 6772637.184122637 0
197 151986.8494106398 6773475.067538451 0
198 152842.177162879 6772894.619043787 0
199 155990.9426617167 6773859.439433901 0
200 153520.2109627912 6770825.076244543 0
201 153919.1044671394 6771633.924334826 0
202 153906.8319268037 6773199.882893891 0
203 150751.9864138701 6772036.819525314 0
204 152927.7290688213 6771222.384811333 0
205 154540.4460369822 6771750.343103403 0
206 153729.1132713015 6772351.450542171 0
207 151932.8830158838 6772803.811724195 0
208 155270.502605071 6774980.173572314 0
209 155317.0220973952 6775540.107132037 0
210 155991.4526034573 6775777.309817654 0
211 154970.6500626559 6773344.669382844 0
212 155922.0730991653 6770860.195805687 0
213 152023.8461730235 6772037.872767449 0
214 153188.6960133423 6774040.843090901 0
215 151467.4074888068 6772319.605137976 0
216 151857.8600647488 6772400.602537935 0
217 151698.2198537272 6772331.701903451 0
218 152587.5 6772762.5 0
219 152129.0505754602 6772601.567055394 0
220 151917.7325918525 6772604.029232394 0
221 151724.8515637911 6772517.041709223 0
222 152723.6095011944 6772768.75 0
223 152374.9230347542 6772558.630780807 0
224 152488.17156218 6772646.470856414 0
225 152682.2219002389 6772846.25 0
226 151828.5224515729 6772266.460888277 0
227 153862.5 6773812.5 0
228 153852.1021869786 6773551.486377542 0
229 153920.6357997522 6773676.61508869 0
$EndNodes
$Elements
532
1 1 2 2 1 1 71
2 1 2 2 1 71 72
3 1 2 2 1 72 73
4 1 2 2 1 73 2
5 1 2 2 2 2 74
6 1 2 2 2 74 75
7 1 2 2 2 75 76
8 1 2 2 2 76 3
9 1 2 2 3 3 77
10 1 2 2 3 77 78
11 1 2 2 3 78 79
12 1 2 2 3 79 4
13 1 2 2 4 4 80
14 1 2 2 4 80 81
15 1 2 2 4 81 82
16 1 2 2 4 82 83
17 1 2 2 4 83 1
18 1 2 4 5 5 6
19 1 2 4 6 6 7
20 1 2 4 7 7 8
21 1 2 4 8 8 9
22 1 2 4 9 9 84
23 1 2 4 9 84 85
24 1 2 4 9 85 86
25 1 2 4 9 86 87
26 1 2 4 9 87 88
27 1 2 4 9 88 10
28 1 2 4 10 10 11
29 1 2 4 11 11 12
30 1 2 4 12 12 13
31 1 2 4 13 13 14
32 1 2 4 14 14 15
33 1 2 4 15 15 16
34 1 2 4 16 16 17
35 1 2 4 17 17 18
36 1 2 4 18 18 19
37 1 2 4 19 19 20
38 1 2 4 20 20 21
39 1 2 4 21 21 22
40 1 2 4 22 22 23
41 1 2 4 23 23 24
42 1 2 4 24 24 25
43 1 2 4 25 25 26
44 1 2 4 26 26 27
45 1 2 4 27 27 28
46 1 2 4 28 28 29
47 1 2 4 29 29 30
48 1 2 4 30 30 31
49 1 2 4 31 31 32
50 1 2 4 32 32 33
51 1 2 4 33 33 34
52 1 2 4 34 34 35
53 1 2 4 35 35 36
54 1 2 4 36 36 37
55 1 2 4 37 37 5
56 1 2 4 38 10 38
57 1 2 4 39 38 39
58 1 2 4 40 39 10
59 1 2 4 41 39 40
60 1 2 3 42 40 89
61 1 2 3 42 89 90
62 1 2 3 42 90 41
63 1 2 4 43 41 91
64 1 2 4 43 91 42
65 1 2 4 44 42 43
66 1 2 4 45 43 44
67 1 2 4 46 44 45
68 1 2 4 47 45 46
69 1 2 4 48 46 47
70 1 2 4 49 47 48
71 1 2 4 50 48 49
72 1 2 4 51 49 50
73 1 2 4 52 50 51
74 1 2 4 53 51 52
75 1 2 4 54 52 53
76 1 2 4 55 53 54
77 1 2 4 56 54 55
78 1 2 4 57 55 56
79 1 2 4 58 56 39
80 1 2 4 59 57 58
81 1 2 4 60 58 59
82 1 2 3 61 60 92
83 1 2 3 61 92 61
84 1 2 3 62 61 62
85 1 2 3 63 62 93
86 1 2 3 63 93 63
87 1 2 3 64 63 64
88 1 2 3 65 65 66
89 1 2 3 66 66 94
90 1 2 3 66 94 67
91 1 2 3 67 68 95
92 1 2 3 67 95 69
93 1 2 3 68 69 70
94 2 2 1 1 104 149 118
95 2 2 1 1 68 139 95
96 2 2 1 1 94 110 66
97 2 2 1 1 98 179 96
98 2 2 1 1 3 210 76
99 2 2 1 1 19 132 117
100 2 2 1 1 116 149 104
101 2 2 1 1 76 126 75
102 2 2 1 1 48 151 47
103 2 2 1 1 65 178 138
104 2 2 1 1 65 138 112
105 2 2 1 1 61 144 62
106 2 2 1 1 35 183 34
107 2 2 1 1 108 141 116
108 2 2 1 1 152 205 136
109 2 2 1 1 108 139 68
110 2 2 1 1 6 142 5
111 2 2 1 1 67 148 42
112 2 2 1 1 104 206 201
113 2 2 1 1 58 154 57
114 2 2 1 1 61 109 92
115 2 2 1 1 123 183 124
116 2 2 1 1 2 159 73
117 2 2 1 1 64 159 147
118 2 2 1 1 116 167 108
119 2 2 1 1 127 155 148
120 2 2 1 1 105 131 130
121 2 2 1 1 201 206 131
122 2 2 1 1 96 138 98
123 2 2 1 1 61 114 109
124 2 2 1 1 68 119 108
125 2 2 1 1 83 139 82
126 2 2 1 1 111 112 96
127 2 2 1 1 80 152 136
128 2 2 1 1 118 206 104
129 2 2 1 1 147 159 111
130 2 2 1 1 38 146 10
131 2 2 1 1 153 192 105
132 2 2 1 1 60 177 71
133 2 2 1 1 117 179 103
134 2 2 1 1 62 107 93
135 2 2 1 1 103 134 120
136 2 2 1 1 131 206 130
137 2 2 1 1 95 184 69
138 2 2 1 1 92 144 61
139 2 2 1 1 148 155 115
140 2 2 1 1 47 151 46
141 2 2 1 1 112 138 96
142 2 2 1 1 105 192 131
143 2 2 1 1 170 173 59
144 2 2 1 1 82 167 81
145 2 2 1 1 91 162 41
146 2 2 1 1 28 172 27
147 2 2 1 1 86 149 85
148 2 2 1 1 77 210 3
149 2 2 1 1 63 160 93
150 2 2 1 1 136 192 153
151 2 2 1 1 74 159 2
152 2 2 1 1 53 134 133
153 2 2 1 1 8 175 7
154 2 2 1 1 53 133 52
155 2 2 1 1 58 173 154
156 2 2 1 1 48 187 133
157 2 2 1 1 136 153 79
158 2 2 1 1 108 176 139
159 2 2 1 1 59 203 170
160 2 2 1 1 81 200 80
161 2 2 1 1 139 184 95
162 2 2 1 1 130 206 102
163 2 2 1 1 167 176 108
164 2 2 1 1 156 211 105
165 2 2 1 1 102 168 130
166 2 2 1 1 209 210 164
167 2 2 1 1 149 190 118
168 2 2 1 1 115 155 106
169 2 2 1 1 105 211 153
170 2 2 1 1 132 179 117
171 2 2 1 1 9 158 8
172 2 2 1 1 171 203 57
173 2 2 1 1 7 175 6
174 2 2 1 1 56 120 55
175 2 2 1 1 139 176 82
176 2 2 1 1 133 151 48
177 2 2 1 1 174 183 35
178 2 2 1 1 59 173 58
179 2 2 1 1 116 204 167
180 2 2 1 1 125 126 76
181 2 2 1 1 126 166 157
182 2 2 1 1 155 165 106
183 2 2 1 1 41 180 90
184 2 2 1 1 162 180 41
185 2 2 1 1 73 144 72
186 2 2 1 1 80 200 152
187 2 2 1 1 125 155 127
188 2 2 1 1 126 182 75
189 2 2 1 1 101 134 103
190 2 2 1 1 78 199 77
191 2 2 1 1 124 183 97
192 2 2 1 1 76 209 125
193 2 2 1 1 70 140 69
194 2 2 1 1 30 207 29
195 2 2 1 1 46 188 45
196 2 2 1 1 135 184 139
197 2 2 1 1 77 199 165
198 2 2 1 1 65 157 66
199 2 2 1 1 10 146 88
200 2 2 1 1 110 178 66
201 2 2 1 1 153 211 106
202 2 2 1 1 24 113 23
203 2 2 1 1 148 195 127
204 2 2 1 1 167 204 200
205 2 2 1 1 34 183 33
206 2 2 1 1 67 129 94
207 2 2 1 1 79 153 78
208 2 2 1 1 84 213 9
209 2 2 1 1 37 215 36
210 2 2 1 1 73 159 144
211 2 2 1 1 42 181 91
212 2 2 1 1 92 177 60
213 2 2 1 1 102 206 146
214 2 2 1 1 104 201 200
215 2 2 1 1 39 186 38
216 2 2 1 1 67 195 148
217 2 2 1 1 104 204 116
218 2 2 1 1 164 210 77
219 2 2 1 1 138 214 98
220 2 2 1 1 29 172 28
221 2 2 1 1 109 177 92
222 2 2 1 1 148 181 42
223 2 2 1 1 89 168 40
224 2 2 1 1 154 171 57
225 2 2 1 1 23 113 22
226 2 2 1 1 25 113 24
227 2 2 1 1 155 208 165
228 2 2 1 1 165 208 164
229 2 2 1 1 112 182 65
230 2 2 1 1 66 166 94
231 2 2 1 1 132 169 100
232 2 2 1 1 77 165 164
233 2 2 1 1 208 209 164
234 2 2 1 1 125 209 208
235 2 2 1 1 62 196 61
236 2 2 1 1 136 205 192
237 2 2 1 1 165 199 106
238 2 2 1 1 75 112 74
239 2 2 1 1 103 179 98
240 2 2 1 1 95 137 68
241 2 2 1 1 36 174 35
242 2 2 1 1 144 159 107
243 2 2 1 1 14 122 121
244 2 2 1 1 85 189 84
245 2 2 1 1 87 190 86
246 2 2 1 1 62 144 107
247 2 2 1 1 97 183 128
248 2 2 1 1 27 113 26
249 2 2 1 1 114 173 170
250 2 2 1 1 149 189 85
251 2 2 1 1 86 190 149
252 2 2 1 1 107 159 64
253 2 2 1 1 40 186 39
254 2 2 1 1 118 191 146
255 2 2 1 1 125 208 155
256 2 2 1 1 106 199 153
257 2 2 1 1 136 212 80
258 2 2 1 1 14 121 13
259 2 2 1 1 63 107 64
260 2 2 1 1 64 147 63
261 2 2 1 1 26 113 25
262 2 2 1 1 100 179 132
263 2 2 1 1 146 206 118
264 2 2 1 1 66 178 65
265 2 2 1 1 42 143 67
266 2 2 1 1 94 129 110
267 2 2 1 1 22 169 21
268 2 2 1 1 92 193 144
269 2 2 1 1 88 191 87
270 2 2 1 1 192 205 131
271 2 2 1 1 1 161 150
272 2 2 1 1 80 212 4
273 2 2 1 1 130 156 105
274 2 2 1 1 108 158 141
275 2 2 1 1 91 181 162
276 2 2 1 1 200 204 104
277 2 2 1 1 27 172 113
278 2 2 1 1 200 201 152
279 2 2 1 1 114 170 109
280 2 2 1 1 179 197 96
281 2 2 1 1 57 203 59
282 2 2 1 1 1 150 83
283 2 2 1 1 173 196 154
284 2 2 1 1 100 197 179
285 2 2 1 1 93 163 62
286 2 2 1 1 124 207 123
287 2 2 1 1 101 103 98
288 2 2 1 1 61 196 114
289 2 2 1 1 111 159 112
290 2 2 1 1 94 195 67
291 2 2 1 1 131 205 201
292 2 2 1 1 140 194 69
293 2 2 1 1 168 186 40
294 2 2 1 1 144 193 72
295 2 2 1 1 146 191 88
296 2 2 1 1 128 163 97
297 2 2 1 1 157 166 66
298 2 2 1 1 142 215 5
299 2 2 1 1 106 211 115
300 2 2 1 1 38 186 146
301 2 2 1 1 133 134 101
302 2 2 1 1 45 143 44
303 2 2 1 1 93 107 63
304 2 2 1 1 137 171 68
305 2 2 1 1 31 207 30
306 2 2 1 1 4 212 79
307 2 2 1 1 137 203 171
308 2 2 1 1 69 185 70
309 2 2 1 1 9 213 158
310 2 2 1 1 19 117 18
311 2 2 1 1 189 213 84
312 2 2 1 1 97 197 124
313 2 2 1 1 95 170 137
314 2 2 1 1 201 205 152
315 2 2 1 1 111 197 97
316 2 2 1 1 65 182 157
317 2 2 1 1 99 163 128
318 2 2 1 1 119 158 108
319 2 2 1 1 151 188 46
320 2 2 1 1 130 180 156
321 2 2 1 1 167 200 81
322 2 2 1 1 87 191 190
323 2 2 1 1 156 162 115
324 2 2 1 1 6 175 142
325 2 2 1 1 129 188 110
326 2 2 1 1 178 214 138
327 2 2 1 1 71 177 161
328 2 2 1 1 157 182 126
329 2 2 1 1 5 215 37
330 2 2 1 1 110 214 178
331 2 2 1 1 96 197 111
332 2 2 1 1 103 122 117
333 2 2 1 1 60 193 92
334 2 2 1 1 141 189 116
335 2 2 1 1 116 189 149
336 2 2 1 1 70 185 150
337 2 2 1 1 115 211 156
338 2 2 1 1 158 175 8
339 2 2 1 1 161 177 140
340 2 2 1 1 90 202 89
341 2 2 1 1 170 194 109
342 2 2 1 1 145 171 154
343 2 2 1 1 70 161 140
344 2 2 1 1 99 196 163
345 2 2 1 1 114 196 173
346 2 2 1 1 124 197 100
347 2 2 1 1 156 180 162
348 2 2 1 1 75 182 112
349 2 2 1 1 170 203 137
350 2 2 1 1 79 212 136
351 2 2 1 1 140 177 109
352 2 2 1 1 45 188 129
353 2 2 1 1 39 120 56
354 2 2 1 1 68 171 142
355 2 2 1 1 180 202 90
356 2 2 1 1 147 160 63
357 2 2 1 1 163 196 62
358 2 2 1 1 184 185 69
359 2 2 1 1 128 183 174
360 2 2 1 1 190 191 118
361 2 2 1 1 97 147 111
362 2 2 1 1 166 195 94
363 2 2 1 1 12 121 11
364 2 2 1 1 33 183 123
365 2 2 1 1 142 171 145
366 2 2 1 1 68 142 119
367 2 2 1 1 112 159 74
368 2 2 1 1 128 174 99
369 2 2 1 1 15 122 14
370 2 2 1 1 32 123 31
371 2 2 1 1 120 134 55
372 2 2 1 1 97 163 160
373 2 2 1 1 109 194 140
374 2 2 1 1 162 181 115
375 2 2 1 1 151 214 110
376 2 2 1 1 110 188 151
377 2 2 1 1 115 181 148
378 2 2 1 1 160 163 93
379 2 2 1 1 95 194 170
380 2 2 1 1 97 160 147
381 2 2 1 1 153 199 78
382 2 2 1 1 101 151 133
383 2 2 1 1 154 196 99
384 2 2 1 1 113 172 100
385 2 2 1 1 72 193 60
386 2 2 1 1 158 213 141
387 2 2 1 1 13 121 12
388 2 2 1 1 16 122 15
389 2 2 1 1 21 132 20
390 2 2 1 1 33 123 32
391 2 2 1 1 51 133 50
392 2 2 1 1 54 134 53
393 2 2 1 1 101 214 151
394 2 2 1 1 150 161 70
395 2 2 1 1 20 132 19
396 2 2 1 1 52 133 51
397 2 2 1 1 55 134 54
398 2 2 1 1 29 207 172
399 2 2 1 1 89 202 168
400 2 2 1 1 100 169 113
401 2 2 1 1 11 120 10
402 2 2 1 1 145 154 99
403 2 2 1 1 141 213 189
404 2 2 1 1 36 215 174
405 2 2 1 1 83 150 135
406 2 2 1 1 100 172 124
407 2 2 1 1 21 169 132
408 2 2 1 1 121 122 103
409 2 2 1 1 10 120 39
410 2 2 1 1 98 214 101
411 2 2 1 1 123 207 31
412 2 2 1 1 150 185 135
413 2 2 1 1 168 202 130
414 2 2 1 1 145 215 142
415 2 2 1 1 113 169 22
416 2 2 1 1 102 186 168
417 2 2 1 1 129 143 45
418 2 2 1 1 11 121 120
419 2 2 1 1 127 195 166
420 2 2 1 1 133 187 50
421 2 2 1 1 130 202 180
422 2 2 1 1 67 143 129
423 2 2 1 1 99 174 145
424 2 2 1 1 117 122 16
425 2 2 1 1 16 198 117
426 2 2 1 1 44 143 43
427 2 2 1 1 117 198 18
428 2 2 1 1 17 198 16
429 2 2 1 1 49 187 48
430 2 2 1 1 50 187 49
431 2 2 1 1 135 185 184
432 2 2 1 1 120 121 103
433 2 2 1 1 142 175 119
434 2 2 1 1 146 186 102
435 2 2 1 1 43 143 42
436 2 2 1 1 18 198 17
437 2 2 1 1 119 175 158
438 2 2 1 1 172 207 124
439 2 2 1 1 174 215 145
440 2 2 1 1 71 161 1
441 2 2 1 1 71 72 60
442 2 2 1 1 69 194 95
443 2 2 1 1 58 57 59
444 2 2 1 1 76 210 209
445 2 2 1 1 82 176 167
446 2 2 1 1 135 139 83
447 2 2 1 1 125 127 126
448 2 2 1 1 127 166 126
449 2 2 1 2 86 222 87
450 2 2 1 2 85 223 86
451 2 2 1 2 35 221 36
452 2 2 1 2 9 226 84
453 2 2 1 2 84 219 85
454 2 2 1 2 85 219 26
455 2 2 1 2 34 221 35
456 2 2 1 2 26 223 85
457 2 2 1 2 84 220 219
458 2 2 1 2 14 88 15
459 2 2 1 2 216 220 84
460 2 2 1 2 25 223 26
461 2 2 1 2 28 219 29
462 2 2 1 2 29 220 30
463 2 2 1 2 36 217 37
464 2 2 1 2 36 221 217
465 2 2 1 2 13 88 14
466 2 2 1 2 219 220 29
467 2 2 1 2 7 226 9
468 2 2 1 2 218 222 86
469 2 2 1 2 223 224 86
470 2 2 1 2 5 217 6
471 2 2 1 2 21 218 22
472 2 2 1 2 26 219 27
473 2 2 1 2 31 220 32
474 2 2 1 2 84 226 216
475 2 2 1 2 24 223 25
476 2 2 1 2 37 217 5
477 2 2 1 2 6 217 7
478 2 2 1 2 20 218 21
479 2 2 1 2 22 218 23
480 2 2 1 2 27 219 28
481 2 2 1 2 30 220 31
482 2 2 1 2 32 221 33
483 2 2 1 2 33 221 34
484 2 2 1 2 217 226 7
485 2 2 1 2 23 224 24
486 2 2 1 2 17 222 18
487 2 2 1 2 20 225 218
488 2 2 1 2 220 221 32
489 2 2 1 2 217 221 216
490 2 2 1 2 86 224 218
491 2 2 1 2 24 224 223
492 2 2 1 2 218 224 23
493 2 2 1 2 87 222 17
494 2 2 1 2 19 225 20
495 2 2 1 2 216 221 220
496 2 2 1 2 18 225 19
497 2 2 1 2 216 226 217
498 2 2 1 2 218 225 222
499 2 2 1 2 222 225 18
500 2 2 1 2 11 10 12
501 2 2 1 2 10 88 12
502 2 2 1 2 12 88 13
503 2 2 1 2 15 17 16
504 2 2 1 2 15 87 17
505 2 2 1 2 15 88 87
506 2 2 1 2 7 9 8
507 2 2 1 3 53 89 52
508 2 2 1 3 56 40 55
509 2 2 1 3 54 89 53
510 2 2 1 3 41 228 90
511 2 2 1 3 49 227 48
512 2 2 1 3 44 227 43
513 2 2 1 3 48 227 47
514 2 2 1 3 43 227 91
515 2 2 1 3 91 229 41
516 2 2 1 3 46 227 45
517 2 2 1 3 45 227 44
518 2 2 1 3 47 227 46
519 2 2 1 3 49 229 227
520 2 2 1 3 228 229 49
521 2 2 1 3 90 228 51
522 2 2 1 3 51 228 50
523 2 2 1 3 41 229 228
524 2 2 1 3 50 228 49
525 2 2 1 3 227 229 91
526 2 2 1 3 39 40 56
527 2 2 1 3 55 40 54
528 2 2 1 3 40 89 54
529 2 2 1 3 91 42 43
530 2 2 1 3 89 90 52
531 2 2 1 3 52 90 51
532 2 2 1 4 10 39 38
$EndElements
