<?xml version="1.0" encoding="UTF-8" standalone="no"?>
<!DOCTYPE svg PUBLIC "-//W3C//DTD SVG 1.1//EN"
 "http://www.w3.org/Graphics/SVG/1.1/DTD/svg11.dtd">
<!-- Generated by graphviz version 14.1.2 (20260126.1125)
 -->
<!-- Title: Entity Relationship Diagram created by erdantic Pages: 1 -->
<svg width="1300pt" height="1013pt"
 viewBox="0.00 0.00 1300.00 1013.00" xmlns="http://www.w3.org/2000/svg" xmlns:xlink="http://www.w3.org/1999/xlink">
<g id="graph0" class="graph" transform="scale(1 1) rotate(0) translate(4 1008.75)">
<title>Entity Relationship Diagram created by erdantic</title>
<polygon fill="white" stroke="none" points="-4,4 -4,-1008.75 1296.25,-1008.75 1296.25,4 -4,4"/>
<text xml:space="preserve" text-anchor="middle" x="646.12" y="-5.95" font-family="Times New Roman,Times,Liberation Serif,serif" font-size="9.00" fill="#a8a8a8">Created by erdantic v1.2.1 &lt;https://github.com/drivendataorg/erdantic&gt;</text>
<!-- hydromodpy.discretization.time.tmesh_config.TMeshConfig -->
<g id="node1" class="node">
<title>hydromodpy.discretization.time.tmesh_config.TMeshConfig</title>
<g id="a_node1"><a xlink:title="hydromodpy.discretization.time.tmesh_config.TMeshConfig&#10;&#10;Validated input model for ``TmeshGenerator`` settings.&#10;">
<polygon fill="none" stroke="black" points="471,-311 471,-333.5 799.5,-333.5 799.5,-311 471,-311"/>
<text xml:space="preserve" text-anchor="start" x="595.12" y="-318.2" font-family="Times New Roman,Times,Liberation Serif,serif" font-weight="bold" font-size="14.00">TMeshConfig</text>
<polygon fill="none" stroke="black" points="471,-288.5 471,-311 573.75,-311 573.75,-288.5 471,-288.5"/>
<text xml:space="preserve" text-anchor="start" x="504.38" y="-294.7" font-family="Times New Roman,Times,Liberation Serif,serif" font-size="14.00">itmuni</text>
<polygon fill="none" stroke="black" points="573.75,-288.5 573.75,-311 799.5,-311 799.5,-288.5 573.75,-288.5"/>
<text xml:space="preserve" text-anchor="start" x="679.88" y="-294.7" font-family="Times New Roman,Times,Liberation Serif,serif" font-size="14.00">str</text>
<polygon fill="none" stroke="black" points="471,-266 471,-288.5 573.75,-288.5 573.75,-266 471,-266"/>
<text xml:space="preserve" text-anchor="start" x="501.75" y="-272.2" font-family="Times New Roman,Times,Liberation Serif,serif" font-size="14.00">genmtd</text>
<polygon fill="none" stroke="black" points="573.75,-266 573.75,-288.5 799.5,-288.5 799.5,-266 573.75,-266"/>
<text xml:space="preserve" text-anchor="start" x="576.75" y="-272.2" font-family="Times New Roman,Times,Liberation Serif,serif" font-size="14.00">Literal[&#39;synthetic_regular&#39;, &#39;from_chron&#39;]</text>
<polygon fill="none" stroke="black" points="471,-243.5 471,-266 573.75,-266 573.75,-243.5 471,-243.5"/>
<text xml:space="preserve" text-anchor="start" x="510.38" y="-249.7" font-family="Times New Roman,Times,Liberation Serif,serif" font-size="14.00">nper</text>
<polygon fill="none" stroke="black" points="573.75,-243.5 573.75,-266 799.5,-266 799.5,-243.5 573.75,-243.5"/>
<text xml:space="preserve" text-anchor="start" x="679.5" y="-249.7" font-family="Times New Roman,Times,Liberation Serif,serif" font-size="14.00">int</text>
<polygon fill="none" stroke="black" points="471,-221 471,-243.5 573.75,-243.5 573.75,-221 471,-221"/>
<text xml:space="preserve" text-anchor="start" x="505.5" y="-227.2" font-family="Times New Roman,Times,Liberation Serif,serif" font-size="14.00">lenper</text>
<polygon fill="none" stroke="black" points="573.75,-221 573.75,-243.5 799.5,-243.5 799.5,-221 573.75,-221"/>
<text xml:space="preserve" text-anchor="start" x="586.5" y="-227.2" font-family="Times New Roman,Times,Liberation Serif,serif" font-size="14.00">float | int | list[int] | list[float] | None</text>
<polygon fill="none" stroke="black" points="471,-198.5 471,-221 573.75,-221 573.75,-198.5 471,-198.5"/>
<text xml:space="preserve" text-anchor="start" x="492" y="-204.7" font-family="Times New Roman,Times,Liberation Serif,serif" font-size="14.00">chron_path</text>
<polygon fill="none" stroke="black" points="573.75,-198.5 573.75,-221 799.5,-221 799.5,-198.5 573.75,-198.5"/>
<text xml:space="preserve" text-anchor="start" x="660" y="-204.7" font-family="Times New Roman,Times,Liberation Serif,serif" font-size="14.00">str | None</text>
<polygon fill="none" stroke="black" points="471,-176 471,-198.5 573.75,-198.5 573.75,-176 471,-176"/>
<text xml:space="preserve" text-anchor="start" x="474" y="-182.2" font-family="Times New Roman,Times,Liberation Serif,serif" font-size="14.00">chron_dateformat</text>
<polygon fill="none" stroke="black" points="573.75,-176 573.75,-198.5 799.5,-198.5 799.5,-176 573.75,-176"/>
<text xml:space="preserve" text-anchor="start" x="679.88" y="-182.2" font-family="Times New Roman,Times,Liberation Serif,serif" font-size="14.00">str</text>
<polygon fill="none" stroke="black" points="471,-153.5 471,-176 573.75,-176 573.75,-153.5 471,-153.5"/>
<text xml:space="preserve" text-anchor="start" x="486.38" y="-159.7" font-family="Times New Roman,Times,Liberation Serif,serif" font-size="14.00">chron_colsep</text>
<polygon fill="none" stroke="black" points="573.75,-153.5 573.75,-176 799.5,-176 799.5,-153.5 573.75,-153.5"/>
<text xml:space="preserve" text-anchor="start" x="679.88" y="-159.7" font-family="Times New Roman,Times,Liberation Serif,serif" font-size="14.00">str</text>
<polygon fill="none" stroke="black" points="471,-131 471,-153.5 573.75,-153.5 573.75,-131 471,-131"/>
<text xml:space="preserve" text-anchor="start" x="479.62" y="-137.2" font-family="Times New Roman,Times,Liberation Serif,serif" font-size="14.00">chron_time_col</text>
<polygon fill="none" stroke="black" points="573.75,-131 573.75,-153.5 799.5,-153.5 799.5,-131 573.75,-131"/>
<text xml:space="preserve" text-anchor="start" x="679.88" y="-137.2" font-family="Times New Roman,Times,Liberation Serif,serif" font-size="14.00">str</text>
<polygon fill="none" stroke="black" points="471,-108.5 471,-131 573.75,-131 573.75,-108.5 471,-108.5"/>
<text xml:space="preserve" text-anchor="start" x="483.75" y="-114.7" font-family="Times New Roman,Times,Liberation Serif,serif" font-size="14.00">start_datetime</text>
<polygon fill="none" stroke="black" points="573.75,-108.5 573.75,-131 799.5,-131 799.5,-108.5 573.75,-108.5"/>
<text xml:space="preserve" text-anchor="start" x="655.12" y="-114.7" font-family="Times New Roman,Times,Liberation Serif,serif" font-size="14.00">Any | None</text>
<polygon fill="none" stroke="black" points="471,-86 471,-108.5 573.75,-108.5 573.75,-86 471,-86"/>
<text xml:space="preserve" text-anchor="start" x="485.62" y="-92.2" font-family="Times New Roman,Times,Liberation Serif,serif" font-size="14.00">end_datetime</text>
<polygon fill="none" stroke="black" points="573.75,-86 573.75,-108.5 799.5,-108.5 799.5,-86 573.75,-86"/>
<text xml:space="preserve" text-anchor="start" x="655.12" y="-92.2" font-family="Times New Roman,Times,Liberation Serif,serif" font-size="14.00">Any | None</text>
<polygon fill="none" stroke="black" points="471,-63.5 471,-86 573.75,-86 573.75,-63.5 471,-63.5"/>
<text xml:space="preserve" text-anchor="start" x="505.12" y="-69.7" font-family="Times New Roman,Times,Liberation Serif,serif" font-size="14.00">tsmult</text>
<polygon fill="none" stroke="black" points="573.75,-63.5 573.75,-86 799.5,-86 799.5,-63.5 573.75,-63.5"/>
<text xml:space="preserve" text-anchor="start" x="606.38" y="-69.7" font-family="Times New Roman,Times,Liberation Serif,serif" font-size="14.00">int | float | list[int] | list[float]</text>
<polygon fill="none" stroke="black" points="471,-41 471,-63.5 573.75,-63.5 573.75,-41 471,-41"/>
<text xml:space="preserve" text-anchor="start" x="511.12" y="-47.2" font-family="Times New Roman,Times,Liberation Serif,serif" font-size="14.00">ntsp</text>
<polygon fill="none" stroke="black" points="573.75,-41 573.75,-63.5 799.5,-63.5 799.5,-41 573.75,-41"/>
<text xml:space="preserve" text-anchor="start" x="654.38" y="-47.2" font-family="Times New Roman,Times,Liberation Serif,serif" font-size="14.00">int | list[int]</text>
<polygon fill="none" stroke="black" points="471,-18.5 471,-41 573.75,-41 573.75,-18.5 471,-18.5"/>
<text xml:space="preserve" text-anchor="start" x="476.62" y="-24.7" font-family="Times New Roman,Times,Liberation Serif,serif" font-size="14.00">temporal_nodata</text>
<polygon fill="none" stroke="black" points="573.75,-18.5 573.75,-41 799.5,-41 799.5,-18.5 573.75,-18.5"/>
<text xml:space="preserve" text-anchor="start" x="674.25" y="-24.7" font-family="Times New Roman,Times,Liberation Serif,serif" font-size="14.00">float</text>
</a>
</g>
</g>
<!-- hydromodpy.solver.modflow6.modflow6_config.Modflow6Config -->
<g id="node2" class="node">
<title>hydromodpy.solver.modflow6.modflow6_config.Modflow6Config</title>
<g id="a_node2"><a xlink:title="hydromodpy.solver.modflow6.modflow6_config.Modflow6Config&#10;&#10;Expert&#45;level MODFLOW 6 configuration organized by concern.&#10;">
<polygon fill="none" stroke="black" points="0,-521.75 0,-544.25 282,-544.25 282,-521.75 0,-521.75"/>
<text xml:space="preserve" text-anchor="start" x="91.88" y="-528.95" font-family="Times New Roman,Times,Liberation Serif,serif" font-weight="bold" font-size="14.00">Modflow6Config</text>
<polygon fill="none" stroke="black" points="0,-499.25 0,-521.75 95.25,-521.75 95.25,-499.25 0,-499.25"/>
<text xml:space="preserve" text-anchor="start" x="26.25" y="-505.45" font-family="Times New Roman,Times,Liberation Serif,serif" font-size="14.00">runtime</text>
<polygon fill="none" stroke="black" points="95.25,-499.25 95.25,-521.75 282,-521.75 282,-499.25 95.25,-499.25"/>
<text xml:space="preserve" text-anchor="start" x="117.38" y="-505.45" font-family="Times New Roman,Times,Liberation Serif,serif" font-size="14.00">Modflow6RuntimeConfig</text>
<polygon fill="none" stroke="black" points="0,-476.75 0,-499.25 95.25,-499.25 95.25,-476.75 0,-476.75"/>
<text xml:space="preserve" text-anchor="start" x="3" y="-482.95" font-family="Times New Roman,Times,Liberation Serif,serif" font-size="14.00">process_specific</text>
<polygon fill="none" stroke="black" points="95.25,-476.75 95.25,-499.25 282,-499.25 282,-476.75 95.25,-476.75"/>
<text xml:space="preserve" text-anchor="start" x="98.25" y="-482.95" font-family="Times New Roman,Times,Liberation Serif,serif" font-size="14.00">Modflow6ProcessSpecificConfig</text>
<polygon fill="none" stroke="black" points="0,-454.25 0,-476.75 95.25,-476.75 95.25,-454.25 0,-454.25"/>
<text xml:space="preserve" text-anchor="start" x="34.12" y="-460.45" font-family="Times New Roman,Times,Liberation Serif,serif" font-size="14.00">sgrid</text>
<polygon fill="none" stroke="black" points="95.25,-454.25 95.25,-476.75 282,-476.75 282,-454.25 95.25,-454.25"/>
<text xml:space="preserve" text-anchor="start" x="136.12" y="-460.45" font-family="Times New Roman,Times,Liberation Serif,serif" font-size="14.00">SolverSGridConfig</text>
<polygon fill="none" stroke="black" points="0,-431.75 0,-454.25 95.25,-454.25 95.25,-431.75 0,-431.75"/>
<text xml:space="preserve" text-anchor="start" x="34.88" y="-437.95" font-family="Times New Roman,Times,Liberation Serif,serif" font-size="14.00">tgrid</text>
<polygon fill="none" stroke="black" points="95.25,-431.75 95.25,-454.25 282,-454.25 282,-431.75 95.25,-431.75"/>
<text xml:space="preserve" text-anchor="start" x="130.5" y="-437.95" font-family="Times New Roman,Times,Liberation Serif,serif" font-size="14.00">TMeshConfig | None</text>
</a>
</g>
</g>
<!-- hydromodpy.solver.modflow6.modflow6_config.Modflow6Config&#45;&gt;hydromodpy.discretization.time.tmesh_config.TMeshConfig -->
<g id="edge1" class="edge">
<title>hydromodpy.solver.modflow6.modflow6_config.Modflow6Config:e&#45;&gt;hydromodpy.discretization.time.tmesh_config.TMeshConfig:w</title>
<path fill="none" stroke="black" d="M291.72,-442.47C344.2,-436.48 338.43,-380.89 390,-351 417.96,-334.79 428.98,-325.27 455.23,-322.86"/>
<polyline fill="none" stroke="black" points="282,-443 286.99,-442.73"/>
<polyline fill="none" stroke="black" points="286.99,-442.73 291.99,-442.46"/>
<polyline fill="none" stroke="black" points="470,-322.25 465,-322.46"/>
<polygon fill="black" stroke="black" points="463.8,-317.5 464.21,-327.49 462.21,-327.58 461.8,-317.59 463.8,-317.5"/>
<polyline fill="none" stroke="black" points="465,-322.46 460.01,-322.66"/>
<polygon fill="black" stroke="black" points="458.8,-317.71 459.22,-327.7 457.22,-327.78 456.8,-317.79 458.8,-317.71"/>
<polyline fill="none" stroke="black" points="460.01,-322.66 455.01,-322.87"/>
</g>
<!-- hydromodpy.solver.modflow6.modflow6_config.Modflow6ProcessSpecificConfig -->
<g id="node3" class="node">
<title>hydromodpy.solver.modflow6.modflow6_config.Modflow6ProcessSpecificConfig</title>
<g id="a_node3"><a xlink:title="hydromodpy.solver.modflow6.modflow6_config.Modflow6ProcessSpecificConfig&#10;&#10;Process&#45;specific parameters used by selected MODFLOW 6 packages.&#10;">
<polygon fill="none" stroke="black" points="538.88,-518.25 538.88,-540.75 731.62,-540.75 731.62,-518.25 538.88,-518.25"/>
<text xml:space="preserve" text-anchor="start" x="541.88" y="-525.45" font-family="Times New Roman,Times,Liberation Serif,serif" font-weight="bold" font-size="14.00">Modflow6ProcessSpecificConfig</text>
<polygon fill="none" stroke="black" points="538.88,-495.75 538.88,-518.25 679.88,-518.25 679.88,-495.75 538.88,-495.75"/>
<text xml:space="preserve" text-anchor="start" x="599.62" y="-501.95" font-family="Times New Roman,Times,Liberation Serif,serif" font-size="14.00">vka</text>
<polygon fill="none" stroke="black" points="679.88,-495.75 679.88,-518.25 731.62,-518.25 731.62,-495.75 679.88,-495.75"/>
<text xml:space="preserve" text-anchor="start" x="693.38" y="-501.95" font-family="Times New Roman,Times,Liberation Serif,serif" font-size="14.00">float</text>
<polygon fill="none" stroke="black" points="538.88,-473.25 538.88,-495.75 679.88,-495.75 679.88,-473.25 538.88,-473.25"/>
<text xml:space="preserve" text-anchor="start" x="552.38" y="-479.45" font-family="Times New Roman,Times,Liberation Serif,serif" font-size="14.00">evt_extinction_depth</text>
<polygon fill="none" stroke="black" points="679.88,-473.25 679.88,-495.75 731.62,-495.75 731.62,-473.25 679.88,-473.25"/>
<text xml:space="preserve" text-anchor="start" x="693.38" y="-479.45" font-family="Times New Roman,Times,Liberation Serif,serif" font-size="14.00">float</text>
</a>
</g>
</g>
<!-- hydromodpy.solver.modflow6.modflow6_config.Modflow6Config&#45;&gt;hydromodpy.solver.modflow6.modflow6_config.Modflow6ProcessSpecificConfig -->
<g id="edge2" class="edge">
<title>hydromodpy.solver.modflow6.modflow6_config.Modflow6Config:e&#45;&gt;hydromodpy.solver.modflow6.modflow6_config.Modflow6ProcessSpecificConfig:w</title>
<path fill="none" stroke="black" d="M291.9,-488.1C393.87,-490.29 423.37,-525.99 522.99,-529.26"/>
<polyline fill="none" stroke="black" points="282,-488 287,-488.05"/>
<polyline fill="none" stroke="black" points="287,-488.05 292,-488.11"/>
<polyline fill="none" stroke="black" points="537.88,-529.5 532.88,-529.42"/>
<polygon fill="black" stroke="black" points="531.96,-524.4 531.8,-534.4 529.8,-534.37 529.96,-524.37 531.96,-524.4"/>
<polyline fill="none" stroke="black" points="532.88,-529.42 527.88,-529.34"/>
<polygon fill="black" stroke="black" points="526.96,-524.32 526.8,-534.32 524.8,-534.29 524.96,-524.29 526.96,-524.32"/>
<polyline fill="none" stroke="black" points="527.88,-529.34 522.88,-529.26"/>
</g>
<!-- hydromodpy.solver.modflow6.modflow6_config.Modflow6RuntimeConfig -->
<g id="node4" class="node">
<title>hydromodpy.solver.modflow6.modflow6_config.Modflow6RuntimeConfig</title>
<g id="a_node4"><a xlink:title="hydromodpy.solver.modflow6.modflow6_config.Modflow6RuntimeConfig&#10;&#10;Expert runtime settings used to build and solve MODFLOW 6 packages.&#10;">
<polygon fill="none" stroke="black" points="390,-982.25 390,-1004.75 880.5,-1004.75 880.5,-982.25 390,-982.25"/>
<text xml:space="preserve" text-anchor="start" x="560.62" y="-989.45" font-family="Times New Roman,Times,Liberation Serif,serif" font-weight="bold" font-size="14.00">Modflow6RuntimeConfig</text>
<polygon fill="none" stroke="black" points="390,-959.75 390,-982.25 563.25,-982.25 563.25,-959.75 390,-959.75"/>
<text xml:space="preserve" text-anchor="start" x="414.75" y="-965.95" font-family="Times New Roman,Times,Liberation Serif,serif" font-size="14.00">mf6_executable_name</text>
<polygon fill="none" stroke="black" points="563.25,-959.75 563.25,-982.25 880.5,-982.25 880.5,-959.75 563.25,-959.75"/>
<text xml:space="preserve" text-anchor="start" x="715.12" y="-965.95" font-family="Times New Roman,Times,Liberation Serif,serif" font-size="14.00">str</text>
<polygon fill="none" stroke="black" points="390,-937.25 390,-959.75 563.25,-959.75 563.25,-937.25 390,-937.25"/>
<text xml:space="preserve" text-anchor="start" x="417.75" y="-943.45" font-family="Times New Roman,Times,Liberation Serif,serif" font-size="14.00">mf6_ims_complexity</text>
<polygon fill="none" stroke="black" points="563.25,-937.25 563.25,-959.75 880.5,-959.75 880.5,-937.25 563.25,-937.25"/>
<text xml:space="preserve" text-anchor="start" x="591" y="-943.45" font-family="Times New Roman,Times,Liberation Serif,serif" font-size="14.00">Literal[&#39;SIMPLE&#39;, &#39;MODERATE&#39;, &#39;COMPLEX&#39;]</text>
<polygon fill="none" stroke="black" points="390,-914.75 390,-937.25 563.25,-937.25 563.25,-914.75 390,-914.75"/>
<text xml:space="preserve" text-anchor="start" x="444.38" y="-920.95" font-family="Times New Roman,Times,Liberation Serif,serif" font-size="14.00">mf_verbose</text>
<polygon fill="none" stroke="black" points="563.25,-914.75 563.25,-937.25 880.5,-937.25 880.5,-914.75 563.25,-914.75"/>
<text xml:space="preserve" text-anchor="start" x="709.88" y="-920.95" font-family="Times New Roman,Times,Liberation Serif,serif" font-size="14.00">bool</text>
<polygon fill="none" stroke="black" points="390,-892.25 390,-914.75 563.25,-914.75 563.25,-892.25 390,-892.25"/>
<text xml:space="preserve" text-anchor="start" x="424.12" y="-898.45" font-family="Times New Roman,Times,Liberation Serif,serif" font-size="14.00">mf6_outer_dvclose</text>
<polygon fill="none" stroke="black" points="563.25,-892.25 563.25,-914.75 880.5,-914.75 880.5,-892.25 563.25,-892.25"/>
<text xml:space="preserve" text-anchor="start" x="709.5" y="-898.45" font-family="Times New Roman,Times,Liberation Serif,serif" font-size="14.00">float</text>
<polygon fill="none" stroke="black" points="390,-869.75 390,-892.25 563.25,-892.25 563.25,-869.75 390,-869.75"/>
<text xml:space="preserve" text-anchor="start" x="424.12" y="-875.95" font-family="Times New Roman,Times,Liberation Serif,serif" font-size="14.00">mf6_inner_dvclose</text>
<polygon fill="none" stroke="black" points="563.25,-869.75 563.25,-892.25 880.5,-892.25 880.5,-869.75 563.25,-869.75"/>
<text xml:space="preserve" text-anchor="start" x="709.5" y="-875.95" font-family="Times New Roman,Times,Liberation Serif,serif" font-size="14.00">float</text>
<polygon fill="none" stroke="black" points="390,-847.25 390,-869.75 563.25,-869.75 563.25,-847.25 390,-847.25"/>
<text xml:space="preserve" text-anchor="start" x="416.25" y="-853.45" font-family="Times New Roman,Times,Liberation Serif,serif" font-size="14.00">mf6_outer_maximum</text>
<polygon fill="none" stroke="black" points="563.25,-847.25 563.25,-869.75 880.5,-869.75 880.5,-847.25 563.25,-847.25"/>
<text xml:space="preserve" text-anchor="start" x="714.75" y="-853.45" font-family="Times New Roman,Times,Liberation Serif,serif" font-size="14.00">int</text>
<polygon fill="none" stroke="black" points="390,-824.75 390,-847.25 563.25,-847.25 563.25,-824.75 390,-824.75"/>
<text xml:space="preserve" text-anchor="start" x="416.25" y="-830.95" font-family="Times New Roman,Times,Liberation Serif,serif" font-size="14.00">mf6_inner_maximum</text>
<polygon fill="none" stroke="black" points="563.25,-824.75 563.25,-847.25 880.5,-847.25 880.5,-824.75 563.25,-824.75"/>
<text xml:space="preserve" text-anchor="start" x="714.75" y="-830.95" font-family="Times New Roman,Times,Liberation Serif,serif" font-size="14.00">int</text>
<polygon fill="none" stroke="black" points="390,-802.25 390,-824.75 563.25,-824.75 563.25,-802.25 390,-802.25"/>
<text xml:space="preserve" text-anchor="start" x="428.62" y="-808.45" font-family="Times New Roman,Times,Liberation Serif,serif" font-size="14.00">mf6_inner_rclose</text>
<polygon fill="none" stroke="black" points="563.25,-802.25 563.25,-824.75 880.5,-824.75 880.5,-802.25 563.25,-802.25"/>
<text xml:space="preserve" text-anchor="start" x="681.38" y="-808.45" font-family="Times New Roman,Times,Liberation Serif,serif" font-size="14.00">Optional[float]</text>
<polygon fill="none" stroke="black" points="390,-779.75 390,-802.25 563.25,-802.25 563.25,-779.75 390,-779.75"/>
<text xml:space="preserve" text-anchor="start" x="410.62" y="-785.95" font-family="Times New Roman,Times,Liberation Serif,serif" font-size="14.00">mf6_linear_acceleration</text>
<polygon fill="none" stroke="black" points="563.25,-779.75 563.25,-802.25 880.5,-802.25 880.5,-779.75 563.25,-779.75"/>
<text xml:space="preserve" text-anchor="start" x="620.62" y="-785.95" font-family="Times New Roman,Times,Liberation Serif,serif" font-size="14.00">Optional[Literal[&#39;CG&#39;, &#39;BICGSTAB&#39;]]</text>
<polygon fill="none" stroke="black" points="390,-757.25 390,-779.75 563.25,-779.75 563.25,-757.25 390,-757.25"/>
<text xml:space="preserve" text-anchor="start" x="416.25" y="-763.45" font-family="Times New Roman,Times,Liberation Serif,serif" font-size="14.00">mf6_under_relaxation</text>
<polygon fill="none" stroke="black" points="563.25,-757.25 563.25,-779.75 880.5,-779.75 880.5,-757.25 563.25,-757.25"/>
<text xml:space="preserve" text-anchor="start" x="566.25" y="-763.45" font-family="Times New Roman,Times,Liberation Serif,serif" font-size="14.00">Optional[Literal[&#39;NONE&#39;, &#39;SIMPLE&#39;, &#39;COOLEY&#39;, &#39;DBD&#39;]]</text>
<polygon fill="none" stroke="black" points="390,-734.75 390,-757.25 563.25,-757.25 563.25,-734.75 390,-734.75"/>
<text xml:space="preserve" text-anchor="start" x="426" y="-740.95" font-family="Times New Roman,Times,Liberation Serif,serif" font-size="14.00">mf6_enable_rewet</text>
<polygon fill="none" stroke="black" points="563.25,-734.75 563.25,-757.25 880.5,-757.25 880.5,-734.75 563.25,-734.75"/>
<text xml:space="preserve" text-anchor="start" x="690" y="-740.95" font-family="Times New Roman,Times,Liberation Serif,serif" font-size="14.00">bool | None</text>
<polygon fill="none" stroke="black" points="390,-712.25 390,-734.75 563.25,-734.75 563.25,-712.25 390,-712.25"/>
<text xml:space="preserve" text-anchor="start" x="442.12" y="-718.45" font-family="Times New Roman,Times,Liberation Serif,serif" font-size="14.00">mf6_newton</text>
<polygon fill="none" stroke="black" points="563.25,-712.25 563.25,-734.75 880.5,-734.75 880.5,-712.25 563.25,-712.25"/>
<text xml:space="preserve" text-anchor="start" x="709.88" y="-718.45" font-family="Times New Roman,Times,Liberation Serif,serif" font-size="14.00">bool</text>
<polygon fill="none" stroke="black" points="390,-689.75 390,-712.25 563.25,-712.25 563.25,-689.75 390,-689.75"/>
<text xml:space="preserve" text-anchor="start" x="393" y="-695.95" font-family="Times New Roman,Times,Liberation Serif,serif" font-size="14.00">mf6_newton_under_relaxation</text>
<polygon fill="none" stroke="black" points="563.25,-689.75 563.25,-712.25 880.5,-712.25 880.5,-689.75 563.25,-689.75"/>
<text xml:space="preserve" text-anchor="start" x="709.88" y="-695.95" font-family="Times New Roman,Times,Liberation Serif,serif" font-size="14.00">bool</text>
<polygon fill="none" stroke="black" points="390,-667.25 390,-689.75 563.25,-689.75 563.25,-667.25 390,-667.25"/>
<text xml:space="preserve" text-anchor="start" x="429" y="-673.45" font-family="Times New Roman,Times,Liberation Serif,serif" font-size="14.00">mf6_enable_xt3d</text>
<polygon fill="none" stroke="black" points="563.25,-667.25 563.25,-689.75 880.5,-689.75 880.5,-667.25 563.25,-667.25"/>
<text xml:space="preserve" text-anchor="start" x="690" y="-673.45" font-family="Times New Roman,Times,Liberation Serif,serif" font-size="14.00">bool | None</text>
<polygon fill="none" stroke="black" points="390,-644.75 390,-667.25 563.25,-667.25 563.25,-644.75 390,-644.75"/>
<text xml:space="preserve" text-anchor="start" x="426.75" y="-650.95" font-family="Times New Roman,Times,Liberation Serif,serif" font-size="14.00">mf6_rewet_wetfct</text>
<polygon fill="none" stroke="black" points="563.25,-644.75 563.25,-667.25 880.5,-667.25 880.5,-644.75 563.25,-644.75"/>
<text xml:space="preserve" text-anchor="start" x="709.5" y="-650.95" font-family="Times New Roman,Times,Liberation Serif,serif" font-size="14.00">float</text>
<polygon fill="none" stroke="black" points="390,-622.25 390,-644.75 563.25,-644.75 563.25,-622.25 390,-622.25"/>
<text xml:space="preserve" text-anchor="start" x="428.25" y="-628.45" font-family="Times New Roman,Times,Liberation Serif,serif" font-size="14.00">mf6_rewet_iwetit</text>
<polygon fill="none" stroke="black" points="563.25,-622.25 563.25,-644.75 880.5,-644.75 880.5,-622.25 563.25,-622.25"/>
<text xml:space="preserve" text-anchor="start" x="714.75" y="-628.45" font-family="Times New Roman,Times,Liberation Serif,serif" font-size="14.00">int</text>
<polygon fill="none" stroke="black" points="390,-599.75 390,-622.25 563.25,-622.25 563.25,-599.75 390,-599.75"/>
<text xml:space="preserve" text-anchor="start" x="425.25" y="-605.95" font-family="Times New Roman,Times,Liberation Serif,serif" font-size="14.00">mf6_rewet_ihdwet</text>
<polygon fill="none" stroke="black" points="563.25,-599.75 563.25,-622.25 880.5,-622.25 880.5,-599.75 563.25,-599.75"/>
<text xml:space="preserve" text-anchor="start" x="714.75" y="-605.95" font-family="Times New Roman,Times,Liberation Serif,serif" font-size="14.00">int</text>
<polygon fill="none" stroke="black" points="390,-577.25 390,-599.75 563.25,-599.75 563.25,-577.25 390,-577.25"/>
<text xml:space="preserve" text-anchor="start" x="424.88" y="-583.45" font-family="Times New Roman,Times,Liberation Serif,serif" font-size="14.00">mf6_rewet_wetdry</text>
<polygon fill="none" stroke="black" points="563.25,-577.25 563.25,-599.75 880.5,-599.75 880.5,-577.25 563.25,-577.25"/>
<text xml:space="preserve" text-anchor="start" x="709.5" y="-583.45" font-family="Times New Roman,Times,Liberation Serif,serif" font-size="14.00">float</text>
</a>
</g>
</g>
<!-- hydromodpy.solver.modflow6.modflow6_config.Modflow6Config&#45;&gt;hydromodpy.solver.modflow6.modflow6_config.Modflow6RuntimeConfig -->
<g id="edge3" class="edge">
<title>hydromodpy.solver.modflow6.modflow6_config.Modflow6Config:e&#45;&gt;hydromodpy.solver.modflow6.modflow6_config.Modflow6RuntimeConfig:w</title>
<path fill="none" stroke="black" d="M291.91,-510.85C486.85,-525.12 188.7,-970.92 375.08,-992.68"/>
<polyline fill="none" stroke="black" points="282,-510.5 287,-510.68"/>
<polyline fill="none" stroke="black" points="287,-510.68 291.99,-510.85"/>
<polyline fill="none" stroke="black" points="390,-993.5 385.01,-993.22"/>
<polygon fill="black" stroke="black" points="384.28,-988.18 383.73,-998.16 381.74,-998.05 382.29,-988.07 384.28,-988.18"/>
<polyline fill="none" stroke="black" points="385.01,-993.22 380.02,-992.95"/>
<polygon fill="black" stroke="black" points="379.29,-987.9 378.74,-997.89 376.74,-997.78 377.3,-987.79 379.29,-987.9"/>
<polyline fill="none" stroke="black" points="380.02,-992.95 375.02,-992.67"/>
</g>
<!-- hydromodpy.spatial.mesh.cartesian_grid.sgrid_config.SolverSGridConfig -->
<g id="node5" class="node">
<title>hydromodpy.spatial.mesh.cartesian_grid.sgrid_config.SolverSGridConfig</title>
<g id="a_node5"><a xlink:title="hydromodpy.spatial.mesh.cartesian_grid.sgrid_config.SolverSGridConfig&#10;&#10;Solver&#45;facing grid configuration split into explicit planar and vertical parts.&#10;">
<polygon fill="none" stroke="black" points="556.88,-414.25 556.88,-436.75 713.62,-436.75 713.62,-414.25 556.88,-414.25"/>
<text xml:space="preserve" text-anchor="start" x="579.38" y="-421.45" font-family="Times New Roman,Times,Liberation Serif,serif" font-weight="bold" font-size="14.00">SolverSGridConfig</text>
<polygon fill="none" stroke="black" points="556.88,-391.75 556.88,-414.25 603.38,-414.25 603.38,-391.75 556.88,-391.75"/>
<text xml:space="preserve" text-anchor="start" x="563.25" y="-397.95" font-family="Times New Roman,Times,Liberation Serif,serif" font-size="14.00">planar</text>
<polygon fill="none" stroke="black" points="603.38,-391.75 603.38,-414.25 713.62,-414.25 713.62,-391.75 603.38,-391.75"/>
<text xml:space="preserve" text-anchor="start" x="610.12" y="-397.95" font-family="Times New Roman,Times,Liberation Serif,serif" font-size="14.00">PlanarGridConfig</text>
<polygon fill="none" stroke="black" points="556.88,-369.25 556.88,-391.75 603.38,-391.75 603.38,-369.25 556.88,-369.25"/>
<text xml:space="preserve" text-anchor="start" x="559.88" y="-375.45" font-family="Times New Roman,Times,Liberation Serif,serif" font-size="14.00">vertical</text>
<polygon fill="none" stroke="black" points="603.38,-369.25 603.38,-391.75 713.62,-391.75 713.62,-369.25 603.38,-369.25"/>
<text xml:space="preserve" text-anchor="start" x="606.38" y="-375.45" font-family="Times New Roman,Times,Liberation Serif,serif" font-size="14.00">VerticalGridConfig</text>
</a>
</g>
</g>
<!-- hydromodpy.solver.modflow6.modflow6_config.Modflow6Config&#45;&gt;hydromodpy.spatial.mesh.cartesian_grid.sgrid_config.SolverSGridConfig -->
<g id="edge4" class="edge">
<title>hydromodpy.solver.modflow6.modflow6_config.Modflow6Config:e&#45;&gt;hydromodpy.spatial.mesh.cartesian_grid.sgrid_config.SolverSGridConfig:w</title>
<path fill="none" stroke="black" d="M291.88,-465.41C401.68,-463.43 433.52,-428.69 540.94,-425.7"/>
<polyline fill="none" stroke="black" points="282,-465.5 287,-465.46"/>
<polyline fill="none" stroke="black" points="287,-465.46 292,-465.41"/>
<polyline fill="none" stroke="black" points="555.88,-425.5 550.88,-425.57"/>
<polygon fill="black" stroke="black" points="549.81,-420.58 549.94,-430.58 547.94,-430.61 547.81,-420.61 549.81,-420.58"/>
<polyline fill="none" stroke="black" points="550.88,-425.57 545.88,-425.64"/>
<polygon fill="black" stroke="black" points="544.81,-420.65 544.94,-430.65 542.94,-430.68 542.81,-420.68 544.81,-420.65"/>
<polyline fill="none" stroke="black" points="545.88,-425.64 540.88,-425.7"/>
</g>
<!-- hydromodpy.spatial.mesh.cartesian_grid.sgrid_config.PlanarGridConfig -->
<g id="node6" class="node">
<title>hydromodpy.spatial.mesh.cartesian_grid.sgrid_config.PlanarGridConfig</title>
<g id="a_node6"><a xlink:title="hydromodpy.spatial.mesh.cartesian_grid.sgrid_config.PlanarGridConfig&#10;&#10;Planar discretization contract for solver&#45;facing grids.&#10;">
<polygon fill="none" stroke="black" points="988.5,-454.75 988.5,-477.25 1292.25,-477.25 1292.25,-454.75 988.5,-454.75"/>
<text xml:space="preserve" text-anchor="start" x="1087.12" y="-461.95" font-family="Times New Roman,Times,Liberation Serif,serif" font-weight="bold" font-size="14.00">PlanarGridConfig</text>
<polygon fill="none" stroke="black" points="988.5,-432.25 988.5,-454.75 1055.25,-454.75 1055.25,-432.25 988.5,-432.25"/>
<text xml:space="preserve" text-anchor="start" x="1006.5" y="-438.45" font-family="Times New Roman,Times,Liberation Serif,serif" font-size="14.00">mode</text>
<polygon fill="none" stroke="black" points="1055.25,-432.25 1055.25,-454.75 1292.25,-454.75 1292.25,-432.25 1055.25,-432.25"/>
<text xml:space="preserve" text-anchor="start" x="1058.25" y="-438.45" font-family="Times New Roman,Times,Liberation Serif,serif" font-size="14.00">Literal[&#39;keep_native&#39;, &#39;resample_to_shape&#39;]</text>
<polygon fill="none" stroke="black" points="988.5,-409.75 988.5,-432.25 1055.25,-432.25 1055.25,-409.75 988.5,-409.75"/>
<text xml:space="preserve" text-anchor="start" x="1015.12" y="-415.95" font-family="Times New Roman,Times,Liberation Serif,serif" font-size="14.00">nx</text>
<polygon fill="none" stroke="black" points="1055.25,-409.75 1055.25,-432.25 1292.25,-432.25 1292.25,-409.75 1055.25,-409.75"/>
<text xml:space="preserve" text-anchor="start" x="1138.5" y="-415.95" font-family="Times New Roman,Times,Liberation Serif,serif" font-size="14.00">Optional[int]</text>
<polygon fill="none" stroke="black" points="988.5,-387.25 988.5,-409.75 1055.25,-409.75 1055.25,-387.25 988.5,-387.25"/>
<text xml:space="preserve" text-anchor="start" x="1015.12" y="-393.45" font-family="Times New Roman,Times,Liberation Serif,serif" font-size="14.00">ny</text>
<polygon fill="none" stroke="black" points="1055.25,-387.25 1055.25,-409.75 1292.25,-409.75 1292.25,-387.25 1055.25,-387.25"/>
<text xml:space="preserve" text-anchor="start" x="1138.5" y="-393.45" font-family="Times New Roman,Times,Liberation Serif,serif" font-size="14.00">Optional[int]</text>
<polygon fill="none" stroke="black" points="988.5,-364.75 988.5,-387.25 1055.25,-387.25 1055.25,-364.75 988.5,-364.75"/>
<text xml:space="preserve" text-anchor="start" x="991.5" y="-370.95" font-family="Times New Roman,Times,Liberation Serif,serif" font-size="14.00">resampling</text>
<polygon fill="none" stroke="black" points="1055.25,-364.75 1055.25,-387.25 1292.25,-387.25 1292.25,-364.75 1055.25,-364.75"/>
<text xml:space="preserve" text-anchor="start" x="1076.25" y="-370.95" font-family="Times New Roman,Times,Liberation Serif,serif" font-size="14.00">Literal[&#39;bilinear&#39;, &#39;average&#39;, &#39;nearest&#39;]</text>
</a>
</g>
</g>
<!-- hydromodpy.spatial.mesh.cartesian_grid.sgrid_config.SolverSGridConfig&#45;&gt;hydromodpy.spatial.mesh.cartesian_grid.sgrid_config.PlanarGridConfig -->
<g id="edge5" class="edge">
<title>hydromodpy.spatial.mesh.cartesian_grid.sgrid_config.SolverSGridConfig:e&#45;&gt;hydromodpy.spatial.mesh.cartesian_grid.sgrid_config.PlanarGridConfig:w</title>
<path fill="none" stroke="black" d="M724.3,-403.13C835.97,-406.15 864.55,-461.08 973.67,-465.69"/>
<polyline fill="none" stroke="black" points="714.62,-403 719.62,-403.07"/>
<polyline fill="none" stroke="black" points="719.62,-403.07 724.62,-403.13"/>
<polyline fill="none" stroke="black" points="988.5,-466 983.5,-465.9"/>
<polygon fill="black" stroke="black" points="982.6,-460.88 982.4,-470.87 980.4,-470.83 980.61,-460.84 982.6,-460.88"/>
<polyline fill="none" stroke="black" points="983.5,-465.9 978.5,-465.79"/>
<polygon fill="black" stroke="black" points="977.61,-460.77 977.4,-470.77 975.4,-470.73 975.61,-460.73 977.61,-460.77"/>
<polyline fill="none" stroke="black" points="978.5,-465.79 973.5,-465.69"/>
</g>
<!-- hydromodpy.spatial.mesh.cartesian_grid.sgrid_config.VerticalGridConfig -->
<g id="node7" class="node">
<title>hydromodpy.spatial.mesh.cartesian_grid.sgrid_config.VerticalGridConfig</title>
<g id="a_node7"><a xlink:title="hydromodpy.spatial.mesh.cartesian_grid.sgrid_config.VerticalGridConfig&#10;&#10;Single source of truth for vertical&#45;grid validation.&#10;&#10;This model is used by surface&#45;driven SGrid generation:&#10;&#45; layering strategy (`genmtd_lay`),&#10;&#45; layer count or proportions,&#10;&#45; nodata masking metadata.&#10;&#10;All geometric quantities are interpreted in SI metres.&#10;">
<polygon fill="none" stroke="black" points="1008.38,-306 1008.38,-328.5 1272.38,-328.5 1272.38,-306 1008.38,-306"/>
<text xml:space="preserve" text-anchor="start" x="1083.75" y="-313.2" font-family="Times New Roman,Times,Liberation Serif,serif" font-weight="bold" font-size="14.00">VerticalGridConfig</text>
<polygon fill="none" stroke="black" points="1008.38,-283.5 1008.38,-306 1099.88,-306 1099.88,-283.5 1008.38,-283.5"/>
<text xml:space="preserve" text-anchor="start" x="1021.88" y="-289.7" font-family="Times New Roman,Times,Liberation Serif,serif" font-size="14.00">genmtd_lay</text>
<polygon fill="none" stroke="black" points="1099.88,-283.5 1099.88,-306 1272.38,-306 1272.38,-283.5 1099.88,-283.5"/>
<text xml:space="preserve" text-anchor="start" x="1102.88" y="-289.7" font-family="Times New Roman,Times,Liberation Serif,serif" font-size="14.00">Literal[&#39;constant&#39;, &#39;decay&#39;, &#39;list&#39;]</text>
<polygon fill="none" stroke="black" points="1008.38,-261 1008.38,-283.5 1099.88,-283.5 1099.88,-261 1008.38,-261"/>
<text xml:space="preserve" text-anchor="start" x="1042.5" y="-267.2" font-family="Times New Roman,Times,Liberation Serif,serif" font-size="14.00">nlay</text>
<polygon fill="none" stroke="black" points="1099.88,-261 1099.88,-283.5 1272.38,-283.5 1272.38,-261 1099.88,-261"/>
<text xml:space="preserve" text-anchor="start" x="1159.12" y="-267.2" font-family="Times New Roman,Times,Liberation Serif,serif" font-size="14.00">int | None</text>
<polygon fill="none" stroke="black" points="1008.38,-238.5 1008.38,-261 1099.88,-261 1099.88,-238.5 1008.38,-238.5"/>
<text xml:space="preserve" text-anchor="start" x="1026.75" y="-244.7" font-family="Times New Roman,Times,Liberation Serif,serif" font-size="14.00">lay_decay</text>
<polygon fill="none" stroke="black" points="1099.88,-238.5 1099.88,-261 1272.38,-261 1272.38,-238.5 1099.88,-238.5"/>
<text xml:space="preserve" text-anchor="start" x="1153.88" y="-244.7" font-family="Times New Roman,Times,Liberation Serif,serif" font-size="14.00">float | None</text>
<polygon fill="none" stroke="black" points="1008.38,-216 1008.38,-238.5 1099.88,-238.5 1099.88,-216 1008.38,-216"/>
<text xml:space="preserve" text-anchor="start" x="1011.38" y="-222.2" font-family="Times New Roman,Times,Liberation Serif,serif" font-size="14.00">lay_proportions</text>
<polygon fill="none" stroke="black" points="1099.88,-216 1099.88,-238.5 1272.38,-238.5 1272.38,-216 1099.88,-216"/>
<text xml:space="preserve" text-anchor="start" x="1141.12" y="-222.2" font-family="Times New Roman,Times,Liberation Serif,serif" font-size="14.00">list[float] | None</text>
<polygon fill="none" stroke="black" points="1008.38,-193.5 1008.38,-216 1099.88,-216 1099.88,-193.5 1008.38,-193.5"/>
<text xml:space="preserve" text-anchor="start" x="1036.12" y="-199.7" font-family="Times New Roman,Times,Liberation Serif,serif" font-size="14.00">nodata</text>
<polygon fill="none" stroke="black" points="1099.88,-193.5 1099.88,-216 1272.38,-216 1272.38,-193.5 1099.88,-193.5"/>
<text xml:space="preserve" text-anchor="start" x="1173.75" y="-199.7" font-family="Times New Roman,Times,Liberation Serif,serif" font-size="14.00">float</text>
</a>
</g>
</g>
<!-- hydromodpy.spatial.mesh.cartesian_grid.sgrid_config.SolverSGridConfig&#45;&gt;hydromodpy.spatial.mesh.cartesian_grid.sgrid_config.VerticalGridConfig -->
<g id="edge6" class="edge">
<title>hydromodpy.spatial.mesh.cartesian_grid.sgrid_config.SolverSGridConfig:e&#45;&gt;hydromodpy.spatial.mesh.cartesian_grid.sgrid_config.VerticalGridConfig:w</title>
<path fill="none" stroke="black" d="M724.37,-380.43C791.16,-379.39 810.76,-367.5 880.5,-352 932.33,-340.48 946.44,-321.22 992.39,-317.78"/>
<polyline fill="none" stroke="black" points="714.62,-380.5 719.62,-380.46"/>
<polyline fill="none" stroke="black" points="719.62,-380.46 724.62,-380.42"/>
<polyline fill="none" stroke="black" points="1007.38,-317.25 1002.38,-317.43"/>
<polygon fill="black" stroke="black" points="1001.2,-312.47 1001.56,-322.46 999.56,-322.53 999.2,-312.54 1001.2,-312.47"/>
<polyline fill="none" stroke="black" points="1002.38,-317.43 997.38,-317.61"/>
<polygon fill="black" stroke="black" points="996.2,-312.64 996.56,-322.64 994.56,-322.71 994.21,-312.72 996.2,-312.64"/>
<polyline fill="none" stroke="black" points="997.38,-317.61 992.38,-317.78"/>
</g>
</g>
</svg>
