<?xml version="1.0" encoding="UTF-8" standalone="no"?>
<!DOCTYPE svg PUBLIC "-//W3C//DTD SVG 1.1//EN"
 "http://www.w3.org/Graphics/SVG/1.1/DTD/svg11.dtd">
<!-- Generated by graphviz version 14.1.4 (20260321.0153)
 -->
<!-- Title: Entity Relationship Diagram created by erdantic Pages: 1 -->
<svg width="1300pt" height="926pt"
 viewBox="0.00 0.00 1300.00 926.00" xmlns="http://www.w3.org/2000/svg" xmlns:xlink="http://www.w3.org/1999/xlink">
<g id="graph0" class="graph" transform="scale(1 1) rotate(0) translate(4 922.25)">
<title>Entity Relationship Diagram created by erdantic</title>
<polygon fill="white" stroke="none" points="-4,4 -4,-922.25 1296.25,-922.25 1296.25,4 -4,4"/>
<text xml:space="preserve" text-anchor="middle" x="646.12" y="-5.95" font-family="Times New Roman,Times,Liberation Serif,serif" font-size="9.00" fill="#a8a8a8">Created by erdantic v1.2.1 &lt;https://github.com/drivendataorg/erdantic&gt;</text>
<!-- hydromodpy.solver.modflow6.modflow6_config.Modflow6Config -->
<g id="node1" class="node">
<title>hydromodpy.solver.modflow6.modflow6_config.Modflow6Config</title>
<g id="a_node1"><a xlink:title="hydromodpy.solver.modflow6.modflow6_config.Modflow6Config&#10;&#10;Expert&#45;level MODFLOW 6 configuration organized by concern.&#10;">
<polygon fill="none" stroke="black" points="0,-431.5 0,-454 282,-454 282,-431.5 0,-431.5"/>
<text xml:space="preserve" text-anchor="start" x="91.88" y="-438.7" font-family="Times New Roman,Times,Liberation Serif,serif" font-weight="bold" font-size="14.00">Modflow6Config</text>
<polygon fill="none" stroke="black" points="0,-409 0,-431.5 95.25,-431.5 95.25,-409 0,-409"/>
<text xml:space="preserve" text-anchor="start" x="26.25" y="-415.75" font-family="Times New Roman,Times,Liberation Serif,serif" font-size="14.00">runtime</text>
<polygon fill="none" stroke="black" points="95.25,-409 95.25,-431.5 282,-431.5 282,-409 95.25,-409"/>
<text xml:space="preserve" text-anchor="start" x="117.38" y="-415.75" font-family="Times New Roman,Times,Liberation Serif,serif" font-size="14.00">Modflow6RuntimeConfig</text>
<polygon fill="none" stroke="black" points="0,-386.5 0,-409 95.25,-409 95.25,-386.5 0,-386.5"/>
<text xml:space="preserve" text-anchor="start" x="3" y="-393.25" font-family="Times New Roman,Times,Liberation Serif,serif" font-size="14.00">process_specific</text>
<polygon fill="none" stroke="black" points="95.25,-386.5 95.25,-409 282,-409 282,-386.5 95.25,-386.5"/>
<text xml:space="preserve" text-anchor="start" x="98.25" y="-393.25" font-family="Times New Roman,Times,Liberation Serif,serif" font-size="14.00">Modflow6ProcessSpecificConfig</text>
<polygon fill="none" stroke="black" points="0,-364 0,-386.5 95.25,-386.5 95.25,-364 0,-364"/>
<text xml:space="preserve" text-anchor="start" x="34.12" y="-370.75" font-family="Times New Roman,Times,Liberation Serif,serif" font-size="14.00">sgrid</text>
<polygon fill="none" stroke="black" points="95.25,-364 95.25,-386.5 282,-386.5 282,-364 95.25,-364"/>
<text xml:space="preserve" text-anchor="start" x="136.12" y="-370.75" font-family="Times New Roman,Times,Liberation Serif,serif" font-size="14.00">SolverSGridConfig</text>
</a>
</g>
</g>
<!-- hydromodpy.solver.modflow6.modflow6_config.Modflow6ProcessSpecificConfig -->
<g id="node2" class="node">
<title>hydromodpy.solver.modflow6.modflow6_config.Modflow6ProcessSpecificConfig</title>
<g id="a_node2"><a xlink:title="hydromodpy.solver.modflow6.modflow6_config.Modflow6ProcessSpecificConfig&#10;&#10;Process&#45;specific parameters used by selected MODFLOW 6 packages.&#10;">
<polygon fill="none" stroke="black" points="500.62,-386.75 500.62,-409.25 769.88,-409.25 769.88,-386.75 500.62,-386.75"/>
<text xml:space="preserve" text-anchor="start" x="541.88" y="-393.95" font-family="Times New Roman,Times,Liberation Serif,serif" font-weight="bold" font-size="14.00">Modflow6ProcessSpecificConfig</text>
<polygon fill="none" stroke="black" points="500.62,-364.25 500.62,-386.75 620.62,-386.75 620.62,-364.25 500.62,-364.25"/>
<text xml:space="preserve" text-anchor="start" x="550.88" y="-371" font-family="Times New Roman,Times,Liberation Serif,serif" font-size="14.00">vka</text>
<polygon fill="none" stroke="black" points="620.62,-364.25 620.62,-386.75 769.88,-386.75 769.88,-364.25 620.62,-364.25"/>
<text xml:space="preserve" text-anchor="start" x="682.88" y="-371" font-family="Times New Roman,Times,Liberation Serif,serif" font-size="14.00">float</text>
<polygon fill="none" stroke="black" points="500.62,-341.75 500.62,-364.25 620.62,-364.25 620.62,-341.75 500.62,-341.75"/>
<text xml:space="preserve" text-anchor="start" x="503.62" y="-348.5" font-family="Times New Roman,Times,Liberation Serif,serif" font-size="14.00">evt_extinction_depth</text>
<polygon fill="none" stroke="black" points="620.62,-341.75 620.62,-364.25 769.88,-364.25 769.88,-341.75 620.62,-341.75"/>
<text xml:space="preserve" text-anchor="start" x="682.88" y="-348.5" font-family="Times New Roman,Times,Liberation Serif,serif" font-size="14.00">float</text>
<polygon fill="none" stroke="black" points="500.62,-319.25 500.62,-341.75 620.62,-341.75 620.62,-319.25 500.62,-319.25"/>
<text xml:space="preserve" text-anchor="start" x="510.75" y="-326" font-family="Times New Roman,Times,Liberation Serif,serif" font-size="14.00">lak_forcing_mode</text>
<polygon fill="none" stroke="black" points="620.62,-319.25 620.62,-341.75 769.88,-341.75 769.88,-319.25 620.62,-319.25"/>
<text xml:space="preserve" text-anchor="start" x="623.62" y="-326" font-family="Times New Roman,Times,Liberation Serif,serif" font-size="14.00">Literal[&#39;auto&#39;, &#39;inline&#39;, &#39;ts6&#39;]</text>
<polygon fill="none" stroke="black" points="500.62,-296.75 500.62,-319.25 620.62,-319.25 620.62,-296.75 500.62,-296.75"/>
<text xml:space="preserve" text-anchor="start" x="515.25" y="-303.5" font-family="Times New Roman,Times,Liberation Serif,serif" font-size="14.00">ts6_min_periods</text>
<polygon fill="none" stroke="black" points="620.62,-296.75 620.62,-319.25 769.88,-319.25 769.88,-296.75 620.62,-296.75"/>
<text xml:space="preserve" text-anchor="start" x="688.12" y="-303.5" font-family="Times New Roman,Times,Liberation Serif,serif" font-size="14.00">int</text>
</a>
</g>
</g>
<!-- hydromodpy.solver.modflow6.modflow6_config.Modflow6Config&#45;&gt;hydromodpy.solver.modflow6.modflow6_config.Modflow6ProcessSpecificConfig -->
<g id="edge1" class="edge">
<title>hydromodpy.solver.modflow6.modflow6_config.Modflow6Config:e&#45;&gt;hydromodpy.solver.modflow6.modflow6_config.Modflow6ProcessSpecificConfig:w</title>
<path fill="none" stroke="black" d="M291.94,-397.75C375.58,-397.77 403.24,-397.97 484.65,-398"/>
<polyline fill="none" stroke="black" points="282,-397.75 287,-397.75"/>
<polyline fill="none" stroke="black" points="287,-397.75 292,-397.75"/>
<polyline fill="none" stroke="black" points="499.62,-398 494.63,-398"/>
<polygon fill="black" stroke="black" points="493.63,-393 493.62,-403 491.62,-403 491.63,-393 493.63,-393"/>
<polyline fill="none" stroke="black" points="494.63,-398 489.63,-398"/>
<polygon fill="black" stroke="black" points="488.63,-393 488.62,-403 486.62,-403 486.63,-393 488.63,-393"/>
<polyline fill="none" stroke="black" points="489.63,-398 484.63,-398"/>
</g>
<!-- hydromodpy.solver.modflow6.modflow6_config.Modflow6RuntimeConfig -->
<g id="node3" class="node">
<title>hydromodpy.solver.modflow6.modflow6_config.Modflow6RuntimeConfig</title>
<g id="a_node3"><a xlink:title="hydromodpy.solver.modflow6.modflow6_config.Modflow6RuntimeConfig&#10;&#10;Expert runtime settings used to build and solve MODFLOW 6 packages.&#10;">
<polygon fill="none" stroke="black" points="390,-895.75 390,-918.25 880.5,-918.25 880.5,-895.75 390,-895.75"/>
<text xml:space="preserve" text-anchor="start" x="560.62" y="-902.95" font-family="Times New Roman,Times,Liberation Serif,serif" font-weight="bold" font-size="14.00">Modflow6RuntimeConfig</text>
<polygon fill="none" stroke="black" points="390,-873.25 390,-895.75 563.25,-895.75 563.25,-873.25 390,-873.25"/>
<text xml:space="preserve" text-anchor="start" x="414.75" y="-880" font-family="Times New Roman,Times,Liberation Serif,serif" font-size="14.00">mf6_executable_name</text>
<polygon fill="none" stroke="black" points="563.25,-873.25 563.25,-895.75 880.5,-895.75 880.5,-873.25 563.25,-873.25"/>
<text xml:space="preserve" text-anchor="start" x="715.12" y="-880" font-family="Times New Roman,Times,Liberation Serif,serif" font-size="14.00">str</text>
<polygon fill="none" stroke="black" points="390,-850.75 390,-873.25 563.25,-873.25 563.25,-850.75 390,-850.75"/>
<text xml:space="preserve" text-anchor="start" x="444.38" y="-857.5" font-family="Times New Roman,Times,Liberation Serif,serif" font-size="14.00">mf6_runner</text>
<polygon fill="none" stroke="black" points="563.25,-850.75 563.25,-873.25 880.5,-873.25 880.5,-850.75 563.25,-850.75"/>
<text xml:space="preserve" text-anchor="start" x="653.25" y="-857.5" font-family="Times New Roman,Times,Liberation Serif,serif" font-size="14.00">Literal[&#39;subprocess&#39;, &#39;api&#39;]</text>
<polygon fill="none" stroke="black" points="390,-828.25 390,-850.75 563.25,-850.75 563.25,-828.25 390,-828.25"/>
<text xml:space="preserve" text-anchor="start" x="423.38" y="-835" font-family="Times New Roman,Times,Liberation Serif,serif" font-size="14.00">mf6_api_timeout_s</text>
<polygon fill="none" stroke="black" points="563.25,-828.25 563.25,-850.75 880.5,-850.75 880.5,-828.25 563.25,-828.25"/>
<text xml:space="preserve" text-anchor="start" x="681.38" y="-835" font-family="Times New Roman,Times,Liberation Serif,serif" font-size="14.00">Optional[float]</text>
<polygon fill="none" stroke="black" points="390,-805.75 390,-828.25 563.25,-828.25 563.25,-805.75 390,-805.75"/>
<text xml:space="preserve" text-anchor="start" x="417.75" y="-812.5" font-family="Times New Roman,Times,Liberation Serif,serif" font-size="14.00">mf6_ims_complexity</text>
<polygon fill="none" stroke="black" points="563.25,-805.75 563.25,-828.25 880.5,-828.25 880.5,-805.75 563.25,-805.75"/>
<text xml:space="preserve" text-anchor="start" x="591" y="-812.5" font-family="Times New Roman,Times,Liberation Serif,serif" font-size="14.00">Literal[&#39;SIMPLE&#39;, &#39;MODERATE&#39;, &#39;COMPLEX&#39;]</text>
<polygon fill="none" stroke="black" points="390,-783.25 390,-805.75 563.25,-805.75 563.25,-783.25 390,-783.25"/>
<text xml:space="preserve" text-anchor="start" x="444.38" y="-790" font-family="Times New Roman,Times,Liberation Serif,serif" font-size="14.00">mf_verbose</text>
<polygon fill="none" stroke="black" points="563.25,-783.25 563.25,-805.75 880.5,-805.75 880.5,-783.25 563.25,-783.25"/>
<text xml:space="preserve" text-anchor="start" x="709.88" y="-790" font-family="Times New Roman,Times,Liberation Serif,serif" font-size="14.00">bool</text>
<polygon fill="none" stroke="black" points="390,-760.75 390,-783.25 563.25,-783.25 563.25,-760.75 390,-760.75"/>
<text xml:space="preserve" text-anchor="start" x="424.12" y="-767.5" font-family="Times New Roman,Times,Liberation Serif,serif" font-size="14.00">mf6_outer_dvclose</text>
<polygon fill="none" stroke="black" points="563.25,-760.75 563.25,-783.25 880.5,-783.25 880.5,-760.75 563.25,-760.75"/>
<text xml:space="preserve" text-anchor="start" x="709.5" y="-767.5" font-family="Times New Roman,Times,Liberation Serif,serif" font-size="14.00">float</text>
<polygon fill="none" stroke="black" points="390,-738.25 390,-760.75 563.25,-760.75 563.25,-738.25 390,-738.25"/>
<text xml:space="preserve" text-anchor="start" x="424.12" y="-745" font-family="Times New Roman,Times,Liberation Serif,serif" font-size="14.00">mf6_inner_dvclose</text>
<polygon fill="none" stroke="black" points="563.25,-738.25 563.25,-760.75 880.5,-760.75 880.5,-738.25 563.25,-738.25"/>
<text xml:space="preserve" text-anchor="start" x="709.5" y="-745" font-family="Times New Roman,Times,Liberation Serif,serif" font-size="14.00">float</text>
<polygon fill="none" stroke="black" points="390,-715.75 390,-738.25 563.25,-738.25 563.25,-715.75 390,-715.75"/>
<text xml:space="preserve" text-anchor="start" x="416.25" y="-722.5" font-family="Times New Roman,Times,Liberation Serif,serif" font-size="14.00">mf6_outer_maximum</text>
<polygon fill="none" stroke="black" points="563.25,-715.75 563.25,-738.25 880.5,-738.25 880.5,-715.75 563.25,-715.75"/>
<text xml:space="preserve" text-anchor="start" x="714.75" y="-722.5" font-family="Times New Roman,Times,Liberation Serif,serif" font-size="14.00">int</text>
<polygon fill="none" stroke="black" points="390,-693.25 390,-715.75 563.25,-715.75 563.25,-693.25 390,-693.25"/>
<text xml:space="preserve" text-anchor="start" x="416.25" y="-700" font-family="Times New Roman,Times,Liberation Serif,serif" font-size="14.00">mf6_inner_maximum</text>
<polygon fill="none" stroke="black" points="563.25,-693.25 563.25,-715.75 880.5,-715.75 880.5,-693.25 563.25,-693.25"/>
<text xml:space="preserve" text-anchor="start" x="714.75" y="-700" font-family="Times New Roman,Times,Liberation Serif,serif" font-size="14.00">int</text>
<polygon fill="none" stroke="black" points="390,-670.75 390,-693.25 563.25,-693.25 563.25,-670.75 390,-670.75"/>
<text xml:space="preserve" text-anchor="start" x="428.62" y="-677.5" font-family="Times New Roman,Times,Liberation Serif,serif" font-size="14.00">mf6_inner_rclose</text>
<polygon fill="none" stroke="black" points="563.25,-670.75 563.25,-693.25 880.5,-693.25 880.5,-670.75 563.25,-670.75"/>
<text xml:space="preserve" text-anchor="start" x="681.38" y="-677.5" font-family="Times New Roman,Times,Liberation Serif,serif" font-size="14.00">Optional[float]</text>
<polygon fill="none" stroke="black" points="390,-648.25 390,-670.75 563.25,-670.75 563.25,-648.25 390,-648.25"/>
<text xml:space="preserve" text-anchor="start" x="410.62" y="-655" font-family="Times New Roman,Times,Liberation Serif,serif" font-size="14.00">mf6_linear_acceleration</text>
<polygon fill="none" stroke="black" points="563.25,-648.25 563.25,-670.75 880.5,-670.75 880.5,-648.25 563.25,-648.25"/>
<text xml:space="preserve" text-anchor="start" x="620.62" y="-655" font-family="Times New Roman,Times,Liberation Serif,serif" font-size="14.00">Optional[Literal[&#39;CG&#39;, &#39;BICGSTAB&#39;]]</text>
<polygon fill="none" stroke="black" points="390,-625.75 390,-648.25 563.25,-648.25 563.25,-625.75 390,-625.75"/>
<text xml:space="preserve" text-anchor="start" x="416.25" y="-632.5" font-family="Times New Roman,Times,Liberation Serif,serif" font-size="14.00">mf6_under_relaxation</text>
<polygon fill="none" stroke="black" points="563.25,-625.75 563.25,-648.25 880.5,-648.25 880.5,-625.75 563.25,-625.75"/>
<text xml:space="preserve" text-anchor="start" x="566.25" y="-632.5" font-family="Times New Roman,Times,Liberation Serif,serif" font-size="14.00">Optional[Literal[&#39;NONE&#39;, &#39;SIMPLE&#39;, &#39;COOLEY&#39;, &#39;DBD&#39;]]</text>
<polygon fill="none" stroke="black" points="390,-603.25 390,-625.75 563.25,-625.75 563.25,-603.25 390,-603.25"/>
<text xml:space="preserve" text-anchor="start" x="426" y="-610" font-family="Times New Roman,Times,Liberation Serif,serif" font-size="14.00">mf6_enable_rewet</text>
<polygon fill="none" stroke="black" points="563.25,-603.25 563.25,-625.75 880.5,-625.75 880.5,-603.25 563.25,-603.25"/>
<text xml:space="preserve" text-anchor="start" x="690" y="-610" font-family="Times New Roman,Times,Liberation Serif,serif" font-size="14.00">bool | None</text>
<polygon fill="none" stroke="black" points="390,-580.75 390,-603.25 563.25,-603.25 563.25,-580.75 390,-580.75"/>
<text xml:space="preserve" text-anchor="start" x="442.12" y="-587.5" font-family="Times New Roman,Times,Liberation Serif,serif" font-size="14.00">mf6_newton</text>
<polygon fill="none" stroke="black" points="563.25,-580.75 563.25,-603.25 880.5,-603.25 880.5,-580.75 563.25,-580.75"/>
<text xml:space="preserve" text-anchor="start" x="709.88" y="-587.5" font-family="Times New Roman,Times,Liberation Serif,serif" font-size="14.00">bool</text>
<polygon fill="none" stroke="black" points="390,-558.25 390,-580.75 563.25,-580.75 563.25,-558.25 390,-558.25"/>
<text xml:space="preserve" text-anchor="start" x="393" y="-565" font-family="Times New Roman,Times,Liberation Serif,serif" font-size="14.00">mf6_newton_under_relaxation</text>
<polygon fill="none" stroke="black" points="563.25,-558.25 563.25,-580.75 880.5,-580.75 880.5,-558.25 563.25,-558.25"/>
<text xml:space="preserve" text-anchor="start" x="709.88" y="-565" font-family="Times New Roman,Times,Liberation Serif,serif" font-size="14.00">bool</text>
<polygon fill="none" stroke="black" points="390,-535.75 390,-558.25 563.25,-558.25 563.25,-535.75 390,-535.75"/>
<text xml:space="preserve" text-anchor="start" x="429" y="-542.5" font-family="Times New Roman,Times,Liberation Serif,serif" font-size="14.00">mf6_enable_xt3d</text>
<polygon fill="none" stroke="black" points="563.25,-535.75 563.25,-558.25 880.5,-558.25 880.5,-535.75 563.25,-535.75"/>
<text xml:space="preserve" text-anchor="start" x="690" y="-542.5" font-family="Times New Roman,Times,Liberation Serif,serif" font-size="14.00">bool | None</text>
<polygon fill="none" stroke="black" points="390,-513.25 390,-535.75 563.25,-535.75 563.25,-513.25 390,-513.25"/>
<text xml:space="preserve" text-anchor="start" x="426.75" y="-520" font-family="Times New Roman,Times,Liberation Serif,serif" font-size="14.00">mf6_rewet_wetfct</text>
<polygon fill="none" stroke="black" points="563.25,-513.25 563.25,-535.75 880.5,-535.75 880.5,-513.25 563.25,-513.25"/>
<text xml:space="preserve" text-anchor="start" x="709.5" y="-520" font-family="Times New Roman,Times,Liberation Serif,serif" font-size="14.00">float</text>
<polygon fill="none" stroke="black" points="390,-490.75 390,-513.25 563.25,-513.25 563.25,-490.75 390,-490.75"/>
<text xml:space="preserve" text-anchor="start" x="428.25" y="-497.5" font-family="Times New Roman,Times,Liberation Serif,serif" font-size="14.00">mf6_rewet_iwetit</text>
<polygon fill="none" stroke="black" points="563.25,-490.75 563.25,-513.25 880.5,-513.25 880.5,-490.75 563.25,-490.75"/>
<text xml:space="preserve" text-anchor="start" x="714.75" y="-497.5" font-family="Times New Roman,Times,Liberation Serif,serif" font-size="14.00">int</text>
<polygon fill="none" stroke="black" points="390,-468.25 390,-490.75 563.25,-490.75 563.25,-468.25 390,-468.25"/>
<text xml:space="preserve" text-anchor="start" x="425.25" y="-475" font-family="Times New Roman,Times,Liberation Serif,serif" font-size="14.00">mf6_rewet_ihdwet</text>
<polygon fill="none" stroke="black" points="563.25,-468.25 563.25,-490.75 880.5,-490.75 880.5,-468.25 563.25,-468.25"/>
<text xml:space="preserve" text-anchor="start" x="714.75" y="-475" font-family="Times New Roman,Times,Liberation Serif,serif" font-size="14.00">int</text>
<polygon fill="none" stroke="black" points="390,-445.75 390,-468.25 563.25,-468.25 563.25,-445.75 390,-445.75"/>
<text xml:space="preserve" text-anchor="start" x="424.88" y="-452.5" font-family="Times New Roman,Times,Liberation Serif,serif" font-size="14.00">mf6_rewet_wetdry</text>
<polygon fill="none" stroke="black" points="563.25,-445.75 563.25,-468.25 880.5,-468.25 880.5,-445.75 563.25,-445.75"/>
<text xml:space="preserve" text-anchor="start" x="709.5" y="-452.5" font-family="Times New Roman,Times,Liberation Serif,serif" font-size="14.00">float</text>
</a>
</g>
</g>
<!-- hydromodpy.solver.modflow6.modflow6_config.Modflow6Config&#45;&gt;hydromodpy.solver.modflow6.modflow6_config.Modflow6RuntimeConfig -->
<g id="edge2" class="edge">
<title>hydromodpy.solver.modflow6.modflow6_config.Modflow6Config:e&#45;&gt;hydromodpy.solver.modflow6.modflow6_config.Modflow6RuntimeConfig:w</title>
<path fill="none" stroke="black" d="M291.98,-420.6C488.44,-434.99 186.95,-884.69 375.26,-906.2"/>
<polyline fill="none" stroke="black" points="282,-420.25 287,-420.43"/>
<polyline fill="none" stroke="black" points="287,-420.43 291.99,-420.6"/>
<polyline fill="none" stroke="black" points="390,-907 385.01,-906.73"/>
<polygon fill="black" stroke="black" points="384.28,-901.68 383.74,-911.67 381.74,-911.56 382.28,-901.58 384.28,-901.68"/>
<polyline fill="none" stroke="black" points="385.01,-906.73 380.01,-906.46"/>
<polygon fill="black" stroke="black" points="379.29,-901.41 378.75,-911.4 376.75,-911.29 377.29,-901.31 379.29,-901.41"/>
<polyline fill="none" stroke="black" points="380.01,-906.46 375.02,-906.19"/>
</g>
<!-- hydromodpy.spatial.mesh.cartesian_grid.sgrid_config.SolverSGridConfig -->
<g id="node4" class="node">
<title>hydromodpy.spatial.mesh.cartesian_grid.sgrid_config.SolverSGridConfig</title>
<g id="a_node4"><a xlink:title="hydromodpy.spatial.mesh.cartesian_grid.sgrid_config.SolverSGridConfig&#10;&#10;Solver&#45;facing grid configuration split into explicit planar and vertical parts.&#10;">
<polygon fill="none" stroke="black" points="531,-238.5 531,-261 739.5,-261 739.5,-238.5 531,-238.5"/>
<text xml:space="preserve" text-anchor="start" x="579.38" y="-245.7" font-family="Times New Roman,Times,Liberation Serif,serif" font-weight="bold" font-size="14.00">SolverSGridConfig</text>
<polygon fill="none" stroke="black" points="531,-216 531,-238.5 588.75,-238.5 588.75,-216 531,-216"/>
<text xml:space="preserve" text-anchor="start" x="543" y="-222.75" font-family="Times New Roman,Times,Liberation Serif,serif" font-size="14.00">planar</text>
<polygon fill="none" stroke="black" points="588.75,-216 588.75,-238.5 739.5,-238.5 739.5,-216 588.75,-216"/>
<text xml:space="preserve" text-anchor="start" x="615.75" y="-222.75" font-family="Times New Roman,Times,Liberation Serif,serif" font-size="14.00">PlanarGridConfig</text>
<polygon fill="none" stroke="black" points="531,-193.5 531,-216 588.75,-216 588.75,-193.5 531,-193.5"/>
<text xml:space="preserve" text-anchor="start" x="539.62" y="-200.25" font-family="Times New Roman,Times,Liberation Serif,serif" font-size="14.00">vertical</text>
<polygon fill="none" stroke="black" points="588.75,-193.5 588.75,-216 739.5,-216 739.5,-193.5 588.75,-193.5"/>
<text xml:space="preserve" text-anchor="start" x="612" y="-200.25" font-family="Times New Roman,Times,Liberation Serif,serif" font-size="14.00">VerticalGridConfig</text>
<polygon fill="none" stroke="black" points="531,-171 531,-193.5 588.75,-193.5 588.75,-171 531,-171"/>
<text xml:space="preserve" text-anchor="start" x="534" y="-177.75" font-family="Times New Roman,Times,Liberation Serif,serif" font-size="14.00">grid_dual</text>
<polygon fill="none" stroke="black" points="588.75,-171 588.75,-193.5 739.5,-193.5 739.5,-171 588.75,-171"/>
<text xml:space="preserve" text-anchor="start" x="591.75" y="-177.75" font-family="Times New Roman,Times,Liberation Serif,serif" font-size="14.00">Literal[&#39;voronoi&#39;, &#39;triangle&#39;]</text>
</a>
</g>
</g>
<!-- hydromodpy.solver.modflow6.modflow6_config.Modflow6Config&#45;&gt;hydromodpy.spatial.mesh.cartesian_grid.sgrid_config.SolverSGridConfig -->
<g id="edge3" class="edge">
<title>hydromodpy.solver.modflow6.modflow6_config.Modflow6Config:e&#45;&gt;hydromodpy.spatial.mesh.cartesian_grid.sgrid_config.SolverSGridConfig:w</title>
<path fill="none" stroke="black" d="M291.87,-374.66C345.01,-368 335.73,-306.36 390,-279 442.1,-252.73 462.96,-250.04 515.2,-249.78"/>
<polyline fill="none" stroke="black" points="282,-375.25 286.99,-374.95"/>
<polyline fill="none" stroke="black" points="286.99,-374.95 291.98,-374.66"/>
<polyline fill="none" stroke="black" points="530,-249.75 525,-249.76"/>
<polygon fill="black" stroke="black" points="523.99,-244.76 524.01,-254.76 522.01,-254.77 521.99,-244.77 523.99,-244.76"/>
<polyline fill="none" stroke="black" points="525,-249.76 520,-249.77"/>
<polygon fill="black" stroke="black" points="518.99,-244.77 519.01,-254.77 517.01,-254.77 516.99,-244.77 518.99,-244.77"/>
<polyline fill="none" stroke="black" points="520,-249.77 515,-249.78"/>
</g>
<!-- hydromodpy.spatial.mesh.cartesian_grid.sgrid_config.PlanarGridConfig -->
<g id="node5" class="node">
<title>hydromodpy.spatial.mesh.cartesian_grid.sgrid_config.PlanarGridConfig</title>
<g id="a_node5"><a xlink:title="hydromodpy.spatial.mesh.cartesian_grid.sgrid_config.PlanarGridConfig&#10;&#10;Planar discretization contract for solver&#45;facing grids.&#10;">
<polygon fill="none" stroke="black" points="988.5,-279.75 988.5,-302.25 1292.25,-302.25 1292.25,-279.75 988.5,-279.75"/>
<text xml:space="preserve" text-anchor="start" x="1087.12" y="-286.95" font-family="Times New Roman,Times,Liberation Serif,serif" font-weight="bold" font-size="14.00">PlanarGridConfig</text>
<polygon fill="none" stroke="black" points="988.5,-257.25 988.5,-279.75 1055.25,-279.75 1055.25,-257.25 988.5,-257.25"/>
<text xml:space="preserve" text-anchor="start" x="1006.5" y="-264" font-family="Times New Roman,Times,Liberation Serif,serif" font-size="14.00">mode</text>
<polygon fill="none" stroke="black" points="1055.25,-257.25 1055.25,-279.75 1292.25,-279.75 1292.25,-257.25 1055.25,-257.25"/>
<text xml:space="preserve" text-anchor="start" x="1058.25" y="-264" font-family="Times New Roman,Times,Liberation Serif,serif" font-size="14.00">Literal[&#39;keep_native&#39;, &#39;resample_to_shape&#39;]</text>
<polygon fill="none" stroke="black" points="988.5,-234.75 988.5,-257.25 1055.25,-257.25 1055.25,-234.75 988.5,-234.75"/>
<text xml:space="preserve" text-anchor="start" x="1015.12" y="-241.5" font-family="Times New Roman,Times,Liberation Serif,serif" font-size="14.00">nx</text>
<polygon fill="none" stroke="black" points="1055.25,-234.75 1055.25,-257.25 1292.25,-257.25 1292.25,-234.75 1055.25,-234.75"/>
<text xml:space="preserve" text-anchor="start" x="1138.5" y="-241.5" font-family="Times New Roman,Times,Liberation Serif,serif" font-size="14.00">Optional[int]</text>
<polygon fill="none" stroke="black" points="988.5,-212.25 988.5,-234.75 1055.25,-234.75 1055.25,-212.25 988.5,-212.25"/>
<text xml:space="preserve" text-anchor="start" x="1015.12" y="-219" font-family="Times New Roman,Times,Liberation Serif,serif" font-size="14.00">ny</text>
<polygon fill="none" stroke="black" points="1055.25,-212.25 1055.25,-234.75 1292.25,-234.75 1292.25,-212.25 1055.25,-212.25"/>
<text xml:space="preserve" text-anchor="start" x="1138.5" y="-219" font-family="Times New Roman,Times,Liberation Serif,serif" font-size="14.00">Optional[int]</text>
<polygon fill="none" stroke="black" points="988.5,-189.75 988.5,-212.25 1055.25,-212.25 1055.25,-189.75 988.5,-189.75"/>
<text xml:space="preserve" text-anchor="start" x="991.5" y="-196.5" font-family="Times New Roman,Times,Liberation Serif,serif" font-size="14.00">resampling</text>
<polygon fill="none" stroke="black" points="1055.25,-189.75 1055.25,-212.25 1292.25,-212.25 1292.25,-189.75 1055.25,-189.75"/>
<text xml:space="preserve" text-anchor="start" x="1076.25" y="-196.5" font-family="Times New Roman,Times,Liberation Serif,serif" font-size="14.00">Literal[&#39;bilinear&#39;, &#39;average&#39;, &#39;nearest&#39;]</text>
</a>
</g>
</g>
<!-- hydromodpy.spatial.mesh.cartesian_grid.sgrid_config.SolverSGridConfig&#45;&gt;hydromodpy.spatial.mesh.cartesian_grid.sgrid_config.PlanarGridConfig -->
<g id="edge4" class="edge">
<title>hydromodpy.spatial.mesh.cartesian_grid.sgrid_config.SolverSGridConfig:e&#45;&gt;hydromodpy.spatial.mesh.cartesian_grid.sgrid_config.PlanarGridConfig:w</title>
<path fill="none" stroke="black" d="M750.27,-227.41C850.64,-230.77 875.74,-285.49 973.53,-290.62"/>
<polyline fill="none" stroke="black" points="740.5,-227.25 745.5,-227.33"/>
<polyline fill="none" stroke="black" points="745.5,-227.33 750.5,-227.41"/>
<polyline fill="none" stroke="black" points="988.5,-291 983.5,-290.87"/>
<polygon fill="black" stroke="black" points="982.63,-285.85 982.37,-295.84 980.37,-295.79 980.63,-285.8 982.63,-285.85"/>
<polyline fill="none" stroke="black" points="983.5,-290.87 978.5,-290.74"/>
<polygon fill="black" stroke="black" points="977.63,-285.72 977.38,-295.72 975.38,-295.67 975.63,-285.67 977.63,-285.72"/>
<polyline fill="none" stroke="black" points="978.5,-290.74 973.5,-290.62"/>
</g>
<!-- hydromodpy.spatial.mesh.cartesian_grid.sgrid_config.VerticalGridConfig -->
<g id="node6" class="node">
<title>hydromodpy.spatial.mesh.cartesian_grid.sgrid_config.VerticalGridConfig</title>
<g id="a_node6"><a xlink:title="hydromodpy.spatial.mesh.cartesian_grid.sgrid_config.VerticalGridConfig&#10;&#10;Single source of truth for vertical&#45;grid validation.&#10;&#10;This model is used by surface&#45;driven SGrid generation:&#10;&#45; layering strategy (`genmtd_lay`),&#10;&#45; layer count or proportions,&#10;&#45; nodata masking metadata.&#10;&#10;All geometric quantities are interpreted in SI metres.&#10;">
<polygon fill="none" stroke="black" points="1008.38,-131 1008.38,-153.5 1272.38,-153.5 1272.38,-131 1008.38,-131"/>
<text xml:space="preserve" text-anchor="start" x="1083.75" y="-138.2" font-family="Times New Roman,Times,Liberation Serif,serif" font-weight="bold" font-size="14.00">VerticalGridConfig</text>
<polygon fill="none" stroke="black" points="1008.38,-108.5 1008.38,-131 1099.88,-131 1099.88,-108.5 1008.38,-108.5"/>
<text xml:space="preserve" text-anchor="start" x="1021.88" y="-115.25" font-family="Times New Roman,Times,Liberation Serif,serif" font-size="14.00">genmtd_lay</text>
<polygon fill="none" stroke="black" points="1099.88,-108.5 1099.88,-131 1272.38,-131 1272.38,-108.5 1099.88,-108.5"/>
<text xml:space="preserve" text-anchor="start" x="1102.88" y="-115.25" font-family="Times New Roman,Times,Liberation Serif,serif" font-size="14.00">Literal[&#39;constant&#39;, &#39;decay&#39;, &#39;list&#39;]</text>
<polygon fill="none" stroke="black" points="1008.38,-86 1008.38,-108.5 1099.88,-108.5 1099.88,-86 1008.38,-86"/>
<text xml:space="preserve" text-anchor="start" x="1042.5" y="-92.75" font-family="Times New Roman,Times,Liberation Serif,serif" font-size="14.00">nlay</text>
<polygon fill="none" stroke="black" points="1099.88,-86 1099.88,-108.5 1272.38,-108.5 1272.38,-86 1099.88,-86"/>
<text xml:space="preserve" text-anchor="start" x="1159.12" y="-92.75" font-family="Times New Roman,Times,Liberation Serif,serif" font-size="14.00">int | None</text>
<polygon fill="none" stroke="black" points="1008.38,-63.5 1008.38,-86 1099.88,-86 1099.88,-63.5 1008.38,-63.5"/>
<text xml:space="preserve" text-anchor="start" x="1026.75" y="-70.25" font-family="Times New Roman,Times,Liberation Serif,serif" font-size="14.00">lay_decay</text>
<polygon fill="none" stroke="black" points="1099.88,-63.5 1099.88,-86 1272.38,-86 1272.38,-63.5 1099.88,-63.5"/>
<text xml:space="preserve" text-anchor="start" x="1153.88" y="-70.25" font-family="Times New Roman,Times,Liberation Serif,serif" font-size="14.00">float | None</text>
<polygon fill="none" stroke="black" points="1008.38,-41 1008.38,-63.5 1099.88,-63.5 1099.88,-41 1008.38,-41"/>
<text xml:space="preserve" text-anchor="start" x="1011.38" y="-47.75" font-family="Times New Roman,Times,Liberation Serif,serif" font-size="14.00">lay_proportions</text>
<polygon fill="none" stroke="black" points="1099.88,-41 1099.88,-63.5 1272.38,-63.5 1272.38,-41 1099.88,-41"/>
<text xml:space="preserve" text-anchor="start" x="1141.12" y="-47.75" font-family="Times New Roman,Times,Liberation Serif,serif" font-size="14.00">list[float] | None</text>
<polygon fill="none" stroke="black" points="1008.38,-18.5 1008.38,-41 1099.88,-41 1099.88,-18.5 1008.38,-18.5"/>
<text xml:space="preserve" text-anchor="start" x="1036.12" y="-25.25" font-family="Times New Roman,Times,Liberation Serif,serif" font-size="14.00">nodata</text>
<polygon fill="none" stroke="black" points="1099.88,-18.5 1099.88,-41 1272.38,-41 1272.38,-18.5 1099.88,-18.5"/>
<text xml:space="preserve" text-anchor="start" x="1173.75" y="-25.25" font-family="Times New Roman,Times,Liberation Serif,serif" font-size="14.00">float</text>
</a>
</g>
</g>
<!-- hydromodpy.spatial.mesh.cartesian_grid.sgrid_config.SolverSGridConfig&#45;&gt;hydromodpy.spatial.mesh.cartesian_grid.sgrid_config.VerticalGridConfig -->
<g id="edge5" class="edge">
<title>hydromodpy.spatial.mesh.cartesian_grid.sgrid_config.SolverSGridConfig:e&#45;&gt;hydromodpy.spatial.mesh.cartesian_grid.sgrid_config.VerticalGridConfig:w</title>
<path fill="none" stroke="black" d="M750.28,-204.61C858.79,-201.52 886.56,-147.23 992.6,-142.57"/>
<polyline fill="none" stroke="black" points="740.5,-204.75 745.5,-204.68"/>
<polyline fill="none" stroke="black" points="745.5,-204.68 750.5,-204.61"/>
<polyline fill="none" stroke="black" points="1007.38,-142.25 1002.38,-142.36"/>
<polygon fill="black" stroke="black" points="1001.27,-137.38 1001.48,-147.38 999.48,-147.42 999.27,-137.42 1001.27,-137.38"/>
<polyline fill="none" stroke="black" points="1002.38,-142.36 997.38,-142.47"/>
<polygon fill="black" stroke="black" points="996.27,-137.49 996.49,-147.49 994.49,-147.53 994.27,-137.53 996.27,-137.49"/>
<polyline fill="none" stroke="black" points="997.38,-142.47 992.38,-142.57"/>
</g>
</g>
</svg>
