<?xml version="1.0" encoding="UTF-8" standalone="no"?>
<!DOCTYPE svg PUBLIC "-//W3C//DTD SVG 1.1//EN"
 "http://www.w3.org/Graphics/SVG/1.1/DTD/svg11.dtd">
<!-- Generated by graphviz version 14.1.2 (0)
 -->
<!-- Title: Entity Relationship Diagram created by erdantic Pages: 1 -->
<svg width="1138pt" height="945pt"
 viewBox="0.00 0.00 1138.00 945.00" xmlns="http://www.w3.org/2000/svg" xmlns:xlink="http://www.w3.org/1999/xlink">
<g id="graph0" class="graph" transform="scale(1 1) rotate(0) translate(4 941)">
<title>Entity Relationship Diagram created by erdantic</title>
<polygon fill="white" stroke="none" points="-4,4 -4,-941 1134.25,-941 1134.25,4 -4,4"/>
<text xml:space="preserve" text-anchor="middle" x="565.12" y="-5.95" font-family="Times New Roman,Times,Liberation Serif,serif" font-size="9.00" fill="#a8a8a8">Created by erdantic v1.2.1 &lt;https://github.com/drivendataorg/erdantic&gt;</text>
<!-- hydromodpy.discretization.time.tmesh_config.TMeshConfig -->
<g id="node1" class="node">
<title>hydromodpy.discretization.time.tmesh_config.TMeshConfig</title>
<g id="a_node1"><a xlink:title="hydromodpy.discretization.time.tmesh_config.TMeshConfig&#10;&#10;Validated input model for ``TmeshGenerator`` settings.&#10;">
<polygon fill="none" stroke="black" points="390,-311 390,-333.5 718.5,-333.5 718.5,-311 390,-311"/>
<text xml:space="preserve" text-anchor="start" x="514.12" y="-318.2" font-family="Times New Roman,Times,Liberation Serif,serif" font-weight="bold" font-size="14.00">TMeshConfig</text>
<polygon fill="none" stroke="black" points="390,-288.5 390,-311 492.75,-311 492.75,-288.5 390,-288.5"/>
<text xml:space="preserve" text-anchor="start" x="423.38" y="-294.7" font-family="Times New Roman,Times,Liberation Serif,serif" font-size="14.00">itmuni</text>
<polygon fill="none" stroke="black" points="492.75,-288.5 492.75,-311 718.5,-311 718.5,-288.5 492.75,-288.5"/>
<text xml:space="preserve" text-anchor="start" x="598.88" y="-294.7" font-family="Times New Roman,Times,Liberation Serif,serif" font-size="14.00">str</text>
<polygon fill="none" stroke="black" points="390,-266 390,-288.5 492.75,-288.5 492.75,-266 390,-266"/>
<text xml:space="preserve" text-anchor="start" x="420.75" y="-272.2" font-family="Times New Roman,Times,Liberation Serif,serif" font-size="14.00">genmtd</text>
<polygon fill="none" stroke="black" points="492.75,-266 492.75,-288.5 718.5,-288.5 718.5,-266 492.75,-266"/>
<text xml:space="preserve" text-anchor="start" x="495.75" y="-272.2" font-family="Times New Roman,Times,Liberation Serif,serif" font-size="14.00">Literal[&#39;synthetic_regular&#39;, &#39;from_chron&#39;]</text>
<polygon fill="none" stroke="black" points="390,-243.5 390,-266 492.75,-266 492.75,-243.5 390,-243.5"/>
<text xml:space="preserve" text-anchor="start" x="429.38" y="-249.7" font-family="Times New Roman,Times,Liberation Serif,serif" font-size="14.00">nper</text>
<polygon fill="none" stroke="black" points="492.75,-243.5 492.75,-266 718.5,-266 718.5,-243.5 492.75,-243.5"/>
<text xml:space="preserve" text-anchor="start" x="598.5" y="-249.7" font-family="Times New Roman,Times,Liberation Serif,serif" font-size="14.00">int</text>
<polygon fill="none" stroke="black" points="390,-221 390,-243.5 492.75,-243.5 492.75,-221 390,-221"/>
<text xml:space="preserve" text-anchor="start" x="424.5" y="-227.2" font-family="Times New Roman,Times,Liberation Serif,serif" font-size="14.00">lenper</text>
<polygon fill="none" stroke="black" points="492.75,-221 492.75,-243.5 718.5,-243.5 718.5,-221 492.75,-221"/>
<text xml:space="preserve" text-anchor="start" x="505.5" y="-227.2" font-family="Times New Roman,Times,Liberation Serif,serif" font-size="14.00">float | int | list[int] | list[float] | None</text>
<polygon fill="none" stroke="black" points="390,-198.5 390,-221 492.75,-221 492.75,-198.5 390,-198.5"/>
<text xml:space="preserve" text-anchor="start" x="411" y="-204.7" font-family="Times New Roman,Times,Liberation Serif,serif" font-size="14.00">chron_path</text>
<polygon fill="none" stroke="black" points="492.75,-198.5 492.75,-221 718.5,-221 718.5,-198.5 492.75,-198.5"/>
<text xml:space="preserve" text-anchor="start" x="579" y="-204.7" font-family="Times New Roman,Times,Liberation Serif,serif" font-size="14.00">str | None</text>
<polygon fill="none" stroke="black" points="390,-176 390,-198.5 492.75,-198.5 492.75,-176 390,-176"/>
<text xml:space="preserve" text-anchor="start" x="393" y="-182.2" font-family="Times New Roman,Times,Liberation Serif,serif" font-size="14.00">chron_dateformat</text>
<polygon fill="none" stroke="black" points="492.75,-176 492.75,-198.5 718.5,-198.5 718.5,-176 492.75,-176"/>
<text xml:space="preserve" text-anchor="start" x="598.88" y="-182.2" font-family="Times New Roman,Times,Liberation Serif,serif" font-size="14.00">str</text>
<polygon fill="none" stroke="black" points="390,-153.5 390,-176 492.75,-176 492.75,-153.5 390,-153.5"/>
<text xml:space="preserve" text-anchor="start" x="405.38" y="-159.7" font-family="Times New Roman,Times,Liberation Serif,serif" font-size="14.00">chron_colsep</text>
<polygon fill="none" stroke="black" points="492.75,-153.5 492.75,-176 718.5,-176 718.5,-153.5 492.75,-153.5"/>
<text xml:space="preserve" text-anchor="start" x="598.88" y="-159.7" font-family="Times New Roman,Times,Liberation Serif,serif" font-size="14.00">str</text>
<polygon fill="none" stroke="black" points="390,-131 390,-153.5 492.75,-153.5 492.75,-131 390,-131"/>
<text xml:space="preserve" text-anchor="start" x="398.62" y="-137.2" font-family="Times New Roman,Times,Liberation Serif,serif" font-size="14.00">chron_time_col</text>
<polygon fill="none" stroke="black" points="492.75,-131 492.75,-153.5 718.5,-153.5 718.5,-131 492.75,-131"/>
<text xml:space="preserve" text-anchor="start" x="598.88" y="-137.2" font-family="Times New Roman,Times,Liberation Serif,serif" font-size="14.00">str</text>
<polygon fill="none" stroke="black" points="390,-108.5 390,-131 492.75,-131 492.75,-108.5 390,-108.5"/>
<text xml:space="preserve" text-anchor="start" x="402.75" y="-114.7" font-family="Times New Roman,Times,Liberation Serif,serif" font-size="14.00">start_datetime</text>
<polygon fill="none" stroke="black" points="492.75,-108.5 492.75,-131 718.5,-131 718.5,-108.5 492.75,-108.5"/>
<text xml:space="preserve" text-anchor="start" x="574.12" y="-114.7" font-family="Times New Roman,Times,Liberation Serif,serif" font-size="14.00">Any | None</text>
<polygon fill="none" stroke="black" points="390,-86 390,-108.5 492.75,-108.5 492.75,-86 390,-86"/>
<text xml:space="preserve" text-anchor="start" x="404.62" y="-92.2" font-family="Times New Roman,Times,Liberation Serif,serif" font-size="14.00">end_datetime</text>
<polygon fill="none" stroke="black" points="492.75,-86 492.75,-108.5 718.5,-108.5 718.5,-86 492.75,-86"/>
<text xml:space="preserve" text-anchor="start" x="574.12" y="-92.2" font-family="Times New Roman,Times,Liberation Serif,serif" font-size="14.00">Any | None</text>
<polygon fill="none" stroke="black" points="390,-63.5 390,-86 492.75,-86 492.75,-63.5 390,-63.5"/>
<text xml:space="preserve" text-anchor="start" x="424.12" y="-69.7" font-family="Times New Roman,Times,Liberation Serif,serif" font-size="14.00">tsmult</text>
<polygon fill="none" stroke="black" points="492.75,-63.5 492.75,-86 718.5,-86 718.5,-63.5 492.75,-63.5"/>
<text xml:space="preserve" text-anchor="start" x="525.38" y="-69.7" font-family="Times New Roman,Times,Liberation Serif,serif" font-size="14.00">int | float | list[int] | list[float]</text>
<polygon fill="none" stroke="black" points="390,-41 390,-63.5 492.75,-63.5 492.75,-41 390,-41"/>
<text xml:space="preserve" text-anchor="start" x="430.12" y="-47.2" font-family="Times New Roman,Times,Liberation Serif,serif" font-size="14.00">ntsp</text>
<polygon fill="none" stroke="black" points="492.75,-41 492.75,-63.5 718.5,-63.5 718.5,-41 492.75,-41"/>
<text xml:space="preserve" text-anchor="start" x="573.38" y="-47.2" font-family="Times New Roman,Times,Liberation Serif,serif" font-size="14.00">int | list[int]</text>
<polygon fill="none" stroke="black" points="390,-18.5 390,-41 492.75,-41 492.75,-18.5 390,-18.5"/>
<text xml:space="preserve" text-anchor="start" x="395.62" y="-24.7" font-family="Times New Roman,Times,Liberation Serif,serif" font-size="14.00">temporal_nodata</text>
<polygon fill="none" stroke="black" points="492.75,-18.5 492.75,-41 718.5,-41 718.5,-18.5 492.75,-18.5"/>
<text xml:space="preserve" text-anchor="start" x="593.25" y="-24.7" font-family="Times New Roman,Times,Liberation Serif,serif" font-size="14.00">float</text>
</a>
</g>
</g>
<!-- hydromodpy.solver.modflow6.modflow6_config.Modflow6Config -->
<g id="node2" class="node">
<title>hydromodpy.solver.modflow6.modflow6_config.Modflow6Config</title>
<g id="a_node2"><a xlink:title="hydromodpy.solver.modflow6.modflow6_config.Modflow6Config&#10;&#10;Expert&#45;level MODFLOW 6 configuration organized by concern.&#10;">
<polygon fill="none" stroke="black" points="0,-521.75 0,-544.25 282,-544.25 282,-521.75 0,-521.75"/>
<text xml:space="preserve" text-anchor="start" x="91.88" y="-528.95" font-family="Times New Roman,Times,Liberation Serif,serif" font-weight="bold" font-size="14.00">Modflow6Config</text>
<polygon fill="none" stroke="black" points="0,-499.25 0,-521.75 95.25,-521.75 95.25,-499.25 0,-499.25"/>
<text xml:space="preserve" text-anchor="start" x="26.25" y="-505.45" font-family="Times New Roman,Times,Liberation Serif,serif" font-size="14.00">runtime</text>
<polygon fill="none" stroke="black" points="95.25,-499.25 95.25,-521.75 282,-521.75 282,-499.25 95.25,-499.25"/>
<text xml:space="preserve" text-anchor="start" x="117.38" y="-505.45" font-family="Times New Roman,Times,Liberation Serif,serif" font-size="14.00">Modflow6RuntimeConfig</text>
<polygon fill="none" stroke="black" points="0,-476.75 0,-499.25 95.25,-499.25 95.25,-476.75 0,-476.75"/>
<text xml:space="preserve" text-anchor="start" x="3" y="-482.95" font-family="Times New Roman,Times,Liberation Serif,serif" font-size="14.00">process_specific</text>
<polygon fill="none" stroke="black" points="95.25,-476.75 95.25,-499.25 282,-499.25 282,-476.75 95.25,-476.75"/>
<text xml:space="preserve" text-anchor="start" x="98.25" y="-482.95" font-family="Times New Roman,Times,Liberation Serif,serif" font-size="14.00">Modflow6ProcessSpecificConfig</text>
<polygon fill="none" stroke="black" points="0,-454.25 0,-476.75 95.25,-476.75 95.25,-454.25 0,-454.25"/>
<text xml:space="preserve" text-anchor="start" x="34.12" y="-460.45" font-family="Times New Roman,Times,Liberation Serif,serif" font-size="14.00">sgrid</text>
<polygon fill="none" stroke="black" points="95.25,-454.25 95.25,-476.75 282,-476.75 282,-454.25 95.25,-454.25"/>
<text xml:space="preserve" text-anchor="start" x="136.12" y="-460.45" font-family="Times New Roman,Times,Liberation Serif,serif" font-size="14.00">SolverSGridConfig</text>
<polygon fill="none" stroke="black" points="0,-431.75 0,-454.25 95.25,-454.25 95.25,-431.75 0,-431.75"/>
<text xml:space="preserve" text-anchor="start" x="34.88" y="-437.95" font-family="Times New Roman,Times,Liberation Serif,serif" font-size="14.00">tgrid</text>
<polygon fill="none" stroke="black" points="95.25,-431.75 95.25,-454.25 282,-454.25 282,-431.75 95.25,-431.75"/>
<text xml:space="preserve" text-anchor="start" x="130.5" y="-437.95" font-family="Times New Roman,Times,Liberation Serif,serif" font-size="14.00">TMeshConfig | None</text>
</a>
</g>
</g>
<!-- hydromodpy.solver.modflow6.modflow6_config.Modflow6Config&#45;&gt;hydromodpy.discretization.time.tmesh_config.TMeshConfig -->
<g id="edge1" class="edge">
<title>hydromodpy.solver.modflow6.modflow6_config.Modflow6Config:e&#45;&gt;hydromodpy.discretization.time.tmesh_config.TMeshConfig:w</title>
<path fill="none" stroke="black" d="M291.8,-442.16C346.02,-432.35 325.63,-339.11 375.33,-324.24"/>
<polyline fill="none" stroke="black" points="282,-443 286.98,-442.58"/>
<polyline fill="none" stroke="black" points="286.98,-442.58 291.96,-442.15"/>
<polyline fill="none" stroke="black" points="390,-322.25 385.05,-322.92"/>
<polygon fill="black" stroke="black" points="383.38,-318.1 384.73,-328.01 382.75,-328.28 381.4,-318.37 383.38,-318.1"/>
<polyline fill="none" stroke="black" points="385.05,-322.92 380.09,-323.6"/>
<polygon fill="black" stroke="black" points="378.43,-318.78 379.77,-328.69 377.79,-328.96 376.44,-319.05 378.43,-318.78"/>
<polyline fill="none" stroke="black" points="380.09,-323.6 375.14,-324.27"/>
</g>
<!-- hydromodpy.solver.modflow6.modflow6_config.Modflow6ProcessSpecificConfig -->
<g id="node3" class="node">
<title>hydromodpy.solver.modflow6.modflow6_config.Modflow6ProcessSpecificConfig</title>
<g id="a_node3"><a xlink:title="hydromodpy.solver.modflow6.modflow6_config.Modflow6ProcessSpecificConfig&#10;&#10;Process&#45;specific parameters used by selected MODFLOW 6 packages.&#10;">
<polygon fill="none" stroke="black" points="457.88,-518.25 457.88,-540.75 650.62,-540.75 650.62,-518.25 457.88,-518.25"/>
<text xml:space="preserve" text-anchor="start" x="460.88" y="-525.45" font-family="Times New Roman,Times,Liberation Serif,serif" font-weight="bold" font-size="14.00">Modflow6ProcessSpecificConfig</text>
<polygon fill="none" stroke="black" points="457.88,-495.75 457.88,-518.25 598.88,-518.25 598.88,-495.75 457.88,-495.75"/>
<text xml:space="preserve" text-anchor="start" x="518.62" y="-501.95" font-family="Times New Roman,Times,Liberation Serif,serif" font-size="14.00">vka</text>
<polygon fill="none" stroke="black" points="598.88,-495.75 598.88,-518.25 650.62,-518.25 650.62,-495.75 598.88,-495.75"/>
<text xml:space="preserve" text-anchor="start" x="612.38" y="-501.95" font-family="Times New Roman,Times,Liberation Serif,serif" font-size="14.00">float</text>
<polygon fill="none" stroke="black" points="457.88,-473.25 457.88,-495.75 598.88,-495.75 598.88,-473.25 457.88,-473.25"/>
<text xml:space="preserve" text-anchor="start" x="471.38" y="-479.45" font-family="Times New Roman,Times,Liberation Serif,serif" font-size="14.00">evt_extinction_depth</text>
<polygon fill="none" stroke="black" points="598.88,-473.25 598.88,-495.75 650.62,-495.75 650.62,-473.25 598.88,-473.25"/>
<text xml:space="preserve" text-anchor="start" x="612.38" y="-479.45" font-family="Times New Roman,Times,Liberation Serif,serif" font-size="14.00">float</text>
</a>
</g>
</g>
<!-- hydromodpy.solver.modflow6.modflow6_config.Modflow6Config&#45;&gt;hydromodpy.solver.modflow6.modflow6_config.Modflow6ProcessSpecificConfig -->
<g id="edge2" class="edge">
<title>hydromodpy.solver.modflow6.modflow6_config.Modflow6Config:e&#45;&gt;hydromodpy.solver.modflow6.modflow6_config.Modflow6ProcessSpecificConfig:w</title>
<path fill="none" stroke="black" d="M291.95,-488.22C358.42,-491.27 377.83,-524.47 441.99,-528.99"/>
<polyline fill="none" stroke="black" points="282,-488 287,-488.11"/>
<polyline fill="none" stroke="black" points="287,-488.11 292,-488.22"/>
<polyline fill="none" stroke="black" points="456.88,-529.5 451.88,-529.33"/>
<polygon fill="black" stroke="black" points="451.05,-524.3 450.71,-534.29 448.71,-534.22 449.05,-524.23 451.05,-524.3"/>
<polyline fill="none" stroke="black" points="451.88,-529.33 446.88,-529.16"/>
<polygon fill="black" stroke="black" points="446.05,-524.13 445.71,-534.12 443.71,-534.05 444.05,-524.06 446.05,-524.13"/>
<polyline fill="none" stroke="black" points="446.88,-529.16 441.88,-528.99"/>
</g>
<!-- hydromodpy.solver.modflow6.modflow6_config.Modflow6RuntimeConfig -->
<g id="node4" class="node">
<title>hydromodpy.solver.modflow6.modflow6_config.Modflow6RuntimeConfig</title>
<g id="a_node4"><a xlink:title="hydromodpy.solver.modflow6.modflow6_config.Modflow6RuntimeConfig&#10;&#10;Expert runtime settings used to build and solve MODFLOW 6 packages.&#10;">
<polygon fill="none" stroke="black" points="432.75,-914.5 432.75,-937 675.75,-937 675.75,-914.5 432.75,-914.5"/>
<text xml:space="preserve" text-anchor="start" x="479.62" y="-921.7" font-family="Times New Roman,Times,Liberation Serif,serif" font-weight="bold" font-size="14.00">Modflow6RuntimeConfig</text>
<polygon fill="none" stroke="black" points="432.75,-892 432.75,-914.5 606,-914.5 606,-892 432.75,-892"/>
<text xml:space="preserve" text-anchor="start" x="457.5" y="-898.2" font-family="Times New Roman,Times,Liberation Serif,serif" font-size="14.00">mf6_executable_name</text>
<polygon fill="none" stroke="black" points="606,-892 606,-914.5 675.75,-914.5 675.75,-892 606,-892"/>
<text xml:space="preserve" text-anchor="start" x="634.12" y="-898.2" font-family="Times New Roman,Times,Liberation Serif,serif" font-size="14.00">str</text>
<polygon fill="none" stroke="black" points="432.75,-869.5 432.75,-892 606,-892 606,-869.5 432.75,-869.5"/>
<text xml:space="preserve" text-anchor="start" x="460.5" y="-875.7" font-family="Times New Roman,Times,Liberation Serif,serif" font-size="14.00">mf6_ims_complexity</text>
<polygon fill="none" stroke="black" points="606,-869.5 606,-892 675.75,-892 675.75,-869.5 606,-869.5"/>
<text xml:space="preserve" text-anchor="start" x="634.12" y="-875.7" font-family="Times New Roman,Times,Liberation Serif,serif" font-size="14.00">str</text>
<polygon fill="none" stroke="black" points="432.75,-847 432.75,-869.5 606,-869.5 606,-847 432.75,-847"/>
<text xml:space="preserve" text-anchor="start" x="487.12" y="-853.2" font-family="Times New Roman,Times,Liberation Serif,serif" font-size="14.00">mf_verbose</text>
<polygon fill="none" stroke="black" points="606,-847 606,-869.5 675.75,-869.5 675.75,-847 606,-847"/>
<text xml:space="preserve" text-anchor="start" x="628.88" y="-853.2" font-family="Times New Roman,Times,Liberation Serif,serif" font-size="14.00">bool</text>
<polygon fill="none" stroke="black" points="432.75,-824.5 432.75,-847 606,-847 606,-824.5 432.75,-824.5"/>
<text xml:space="preserve" text-anchor="start" x="466.88" y="-830.7" font-family="Times New Roman,Times,Liberation Serif,serif" font-size="14.00">mf6_outer_dvclose</text>
<polygon fill="none" stroke="black" points="606,-824.5 606,-847 675.75,-847 675.75,-824.5 606,-824.5"/>
<text xml:space="preserve" text-anchor="start" x="628.5" y="-830.7" font-family="Times New Roman,Times,Liberation Serif,serif" font-size="14.00">float</text>
<polygon fill="none" stroke="black" points="432.75,-802 432.75,-824.5 606,-824.5 606,-802 432.75,-802"/>
<text xml:space="preserve" text-anchor="start" x="466.88" y="-808.2" font-family="Times New Roman,Times,Liberation Serif,serif" font-size="14.00">mf6_inner_dvclose</text>
<polygon fill="none" stroke="black" points="606,-802 606,-824.5 675.75,-824.5 675.75,-802 606,-802"/>
<text xml:space="preserve" text-anchor="start" x="628.5" y="-808.2" font-family="Times New Roman,Times,Liberation Serif,serif" font-size="14.00">float</text>
<polygon fill="none" stroke="black" points="432.75,-779.5 432.75,-802 606,-802 606,-779.5 432.75,-779.5"/>
<text xml:space="preserve" text-anchor="start" x="459" y="-785.7" font-family="Times New Roman,Times,Liberation Serif,serif" font-size="14.00">mf6_outer_maximum</text>
<polygon fill="none" stroke="black" points="606,-779.5 606,-802 675.75,-802 675.75,-779.5 606,-779.5"/>
<text xml:space="preserve" text-anchor="start" x="633.75" y="-785.7" font-family="Times New Roman,Times,Liberation Serif,serif" font-size="14.00">int</text>
<polygon fill="none" stroke="black" points="432.75,-757 432.75,-779.5 606,-779.5 606,-757 432.75,-757"/>
<text xml:space="preserve" text-anchor="start" x="459" y="-763.2" font-family="Times New Roman,Times,Liberation Serif,serif" font-size="14.00">mf6_inner_maximum</text>
<polygon fill="none" stroke="black" points="606,-757 606,-779.5 675.75,-779.5 675.75,-757 606,-757"/>
<text xml:space="preserve" text-anchor="start" x="633.75" y="-763.2" font-family="Times New Roman,Times,Liberation Serif,serif" font-size="14.00">int</text>
<polygon fill="none" stroke="black" points="432.75,-734.5 432.75,-757 606,-757 606,-734.5 432.75,-734.5"/>
<text xml:space="preserve" text-anchor="start" x="468.75" y="-740.7" font-family="Times New Roman,Times,Liberation Serif,serif" font-size="14.00">mf6_enable_rewet</text>
<polygon fill="none" stroke="black" points="606,-734.5 606,-757 675.75,-757 675.75,-734.5 606,-734.5"/>
<text xml:space="preserve" text-anchor="start" x="609" y="-740.7" font-family="Times New Roman,Times,Liberation Serif,serif" font-size="14.00">bool | None</text>
<polygon fill="none" stroke="black" points="432.75,-712 432.75,-734.5 606,-734.5 606,-712 432.75,-712"/>
<text xml:space="preserve" text-anchor="start" x="484.88" y="-718.2" font-family="Times New Roman,Times,Liberation Serif,serif" font-size="14.00">mf6_newton</text>
<polygon fill="none" stroke="black" points="606,-712 606,-734.5 675.75,-734.5 675.75,-712 606,-712"/>
<text xml:space="preserve" text-anchor="start" x="628.88" y="-718.2" font-family="Times New Roman,Times,Liberation Serif,serif" font-size="14.00">bool</text>
<polygon fill="none" stroke="black" points="432.75,-689.5 432.75,-712 606,-712 606,-689.5 432.75,-689.5"/>
<text xml:space="preserve" text-anchor="start" x="435.75" y="-695.7" font-family="Times New Roman,Times,Liberation Serif,serif" font-size="14.00">mf6_newton_under_relaxation</text>
<polygon fill="none" stroke="black" points="606,-689.5 606,-712 675.75,-712 675.75,-689.5 606,-689.5"/>
<text xml:space="preserve" text-anchor="start" x="628.88" y="-695.7" font-family="Times New Roman,Times,Liberation Serif,serif" font-size="14.00">bool</text>
<polygon fill="none" stroke="black" points="432.75,-667 432.75,-689.5 606,-689.5 606,-667 432.75,-667"/>
<text xml:space="preserve" text-anchor="start" x="471.75" y="-673.2" font-family="Times New Roman,Times,Liberation Serif,serif" font-size="14.00">mf6_enable_xt3d</text>
<polygon fill="none" stroke="black" points="606,-667 606,-689.5 675.75,-689.5 675.75,-667 606,-667"/>
<text xml:space="preserve" text-anchor="start" x="609" y="-673.2" font-family="Times New Roman,Times,Liberation Serif,serif" font-size="14.00">bool | None</text>
<polygon fill="none" stroke="black" points="432.75,-644.5 432.75,-667 606,-667 606,-644.5 432.75,-644.5"/>
<text xml:space="preserve" text-anchor="start" x="469.5" y="-650.7" font-family="Times New Roman,Times,Liberation Serif,serif" font-size="14.00">mf6_rewet_wetfct</text>
<polygon fill="none" stroke="black" points="606,-644.5 606,-667 675.75,-667 675.75,-644.5 606,-644.5"/>
<text xml:space="preserve" text-anchor="start" x="628.5" y="-650.7" font-family="Times New Roman,Times,Liberation Serif,serif" font-size="14.00">float</text>
<polygon fill="none" stroke="black" points="432.75,-622 432.75,-644.5 606,-644.5 606,-622 432.75,-622"/>
<text xml:space="preserve" text-anchor="start" x="471" y="-628.2" font-family="Times New Roman,Times,Liberation Serif,serif" font-size="14.00">mf6_rewet_iwetit</text>
<polygon fill="none" stroke="black" points="606,-622 606,-644.5 675.75,-644.5 675.75,-622 606,-622"/>
<text xml:space="preserve" text-anchor="start" x="633.75" y="-628.2" font-family="Times New Roman,Times,Liberation Serif,serif" font-size="14.00">int</text>
<polygon fill="none" stroke="black" points="432.75,-599.5 432.75,-622 606,-622 606,-599.5 432.75,-599.5"/>
<text xml:space="preserve" text-anchor="start" x="468" y="-605.7" font-family="Times New Roman,Times,Liberation Serif,serif" font-size="14.00">mf6_rewet_ihdwet</text>
<polygon fill="none" stroke="black" points="606,-599.5 606,-622 675.75,-622 675.75,-599.5 606,-599.5"/>
<text xml:space="preserve" text-anchor="start" x="633.75" y="-605.7" font-family="Times New Roman,Times,Liberation Serif,serif" font-size="14.00">int</text>
<polygon fill="none" stroke="black" points="432.75,-577 432.75,-599.5 606,-599.5 606,-577 432.75,-577"/>
<text xml:space="preserve" text-anchor="start" x="467.62" y="-583.2" font-family="Times New Roman,Times,Liberation Serif,serif" font-size="14.00">mf6_rewet_wetdry</text>
<polygon fill="none" stroke="black" points="606,-577 606,-599.5 675.75,-599.5 675.75,-577 606,-577"/>
<text xml:space="preserve" text-anchor="start" x="628.5" y="-583.2" font-family="Times New Roman,Times,Liberation Serif,serif" font-size="14.00">float</text>
</a>
</g>
</g>
<!-- hydromodpy.solver.modflow6.modflow6_config.Modflow6Config&#45;&gt;hydromodpy.solver.modflow6.modflow6_config.Modflow6RuntimeConfig -->
<g id="edge3" class="edge">
<title>hydromodpy.solver.modflow6.modflow6_config.Modflow6Config:e&#45;&gt;hydromodpy.solver.modflow6.modflow6_config.Modflow6RuntimeConfig:w</title>
<path fill="none" stroke="black" d="M291.94,-510.88C464.93,-524.59 251.32,-904.12 416.87,-924.87"/>
<polyline fill="none" stroke="black" points="282,-510.5 287,-510.69"/>
<polyline fill="none" stroke="black" points="287,-510.69 291.99,-510.88"/>
<polyline fill="none" stroke="black" points="431.75,-925.75 426.76,-925.45"/>
<polygon fill="black" stroke="black" points="426.06,-920.4 425.46,-930.39 423.47,-930.27 424.06,-920.28 426.06,-920.4"/>
<polyline fill="none" stroke="black" points="426.76,-925.45 421.77,-925.16"/>
<polygon fill="black" stroke="black" points="421.07,-920.11 420.47,-930.09 418.48,-929.97 419.07,-919.99 421.07,-920.11"/>
<polyline fill="none" stroke="black" points="421.77,-925.16 416.78,-924.86"/>
</g>
<!-- hydromodpy.spatial.mesh.cartesian_grid.sgrid_config.SolverSGridConfig -->
<g id="node5" class="node">
<title>hydromodpy.spatial.mesh.cartesian_grid.sgrid_config.SolverSGridConfig</title>
<g id="a_node5"><a xlink:title="hydromodpy.spatial.mesh.cartesian_grid.sgrid_config.SolverSGridConfig&#10;&#10;Solver&#45;facing grid configuration split into explicit planar and vertical parts.&#10;">
<polygon fill="none" stroke="black" points="475.88,-414.25 475.88,-436.75 632.62,-436.75 632.62,-414.25 475.88,-414.25"/>
<text xml:space="preserve" text-anchor="start" x="498.38" y="-421.45" font-family="Times New Roman,Times,Liberation Serif,serif" font-weight="bold" font-size="14.00">SolverSGridConfig</text>
<polygon fill="none" stroke="black" points="475.88,-391.75 475.88,-414.25 522.38,-414.25 522.38,-391.75 475.88,-391.75"/>
<text xml:space="preserve" text-anchor="start" x="482.25" y="-397.95" font-family="Times New Roman,Times,Liberation Serif,serif" font-size="14.00">planar</text>
<polygon fill="none" stroke="black" points="522.38,-391.75 522.38,-414.25 632.62,-414.25 632.62,-391.75 522.38,-391.75"/>
<text xml:space="preserve" text-anchor="start" x="529.12" y="-397.95" font-family="Times New Roman,Times,Liberation Serif,serif" font-size="14.00">PlanarGridConfig</text>
<polygon fill="none" stroke="black" points="475.88,-369.25 475.88,-391.75 522.38,-391.75 522.38,-369.25 475.88,-369.25"/>
<text xml:space="preserve" text-anchor="start" x="478.88" y="-375.45" font-family="Times New Roman,Times,Liberation Serif,serif" font-size="14.00">vertical</text>
<polygon fill="none" stroke="black" points="522.38,-369.25 522.38,-391.75 632.62,-391.75 632.62,-369.25 522.38,-369.25"/>
<text xml:space="preserve" text-anchor="start" x="525.38" y="-375.45" font-family="Times New Roman,Times,Liberation Serif,serif" font-size="14.00">VerticalGridConfig</text>
</a>
</g>
</g>
<!-- hydromodpy.solver.modflow6.modflow6_config.Modflow6Config&#45;&gt;hydromodpy.spatial.mesh.cartesian_grid.sgrid_config.SolverSGridConfig -->
<g id="edge4" class="edge">
<title>hydromodpy.solver.modflow6.modflow6_config.Modflow6Config:e&#45;&gt;hydromodpy.spatial.mesh.cartesian_grid.sgrid_config.SolverSGridConfig:w</title>
<path fill="none" stroke="black" d="M291.95,-465.32C366.25,-462.61 388.14,-429.85 460.28,-425.89"/>
<polyline fill="none" stroke="black" points="282,-465.5 287,-465.41"/>
<polyline fill="none" stroke="black" points="287,-465.41 292,-465.32"/>
<polyline fill="none" stroke="black" points="474.88,-425.5 469.88,-425.63"/>
<polygon fill="black" stroke="black" points="468.74,-420.66 469.01,-430.66 467.01,-430.71 466.74,-420.72 468.74,-420.66"/>
<polyline fill="none" stroke="black" points="469.88,-425.63 464.88,-425.77"/>
<polygon fill="black" stroke="black" points="463.75,-420.8 464.01,-430.79 462.01,-430.85 461.75,-420.85 463.75,-420.8"/>
<polyline fill="none" stroke="black" points="464.88,-425.77 459.88,-425.9"/>
</g>
<!-- hydromodpy.spatial.mesh.cartesian_grid.sgrid_config.PlanarGridConfig -->
<g id="node6" class="node">
<title>hydromodpy.spatial.mesh.cartesian_grid.sgrid_config.PlanarGridConfig</title>
<g id="a_node6"><a xlink:title="hydromodpy.spatial.mesh.cartesian_grid.sgrid_config.PlanarGridConfig&#10;&#10;Planar discretization contract for solver&#45;facing grids.&#10;">
<polygon fill="none" stroke="black" points="826.5,-454.75 826.5,-477.25 1130.25,-477.25 1130.25,-454.75 826.5,-454.75"/>
<text xml:space="preserve" text-anchor="start" x="925.12" y="-461.95" font-family="Times New Roman,Times,Liberation Serif,serif" font-weight="bold" font-size="14.00">PlanarGridConfig</text>
<polygon fill="none" stroke="black" points="826.5,-432.25 826.5,-454.75 893.25,-454.75 893.25,-432.25 826.5,-432.25"/>
<text xml:space="preserve" text-anchor="start" x="844.5" y="-438.45" font-family="Times New Roman,Times,Liberation Serif,serif" font-size="14.00">mode</text>
<polygon fill="none" stroke="black" points="893.25,-432.25 893.25,-454.75 1130.25,-454.75 1130.25,-432.25 893.25,-432.25"/>
<text xml:space="preserve" text-anchor="start" x="896.25" y="-438.45" font-family="Times New Roman,Times,Liberation Serif,serif" font-size="14.00">Literal[&#39;keep_native&#39;, &#39;resample_to_shape&#39;]</text>
<polygon fill="none" stroke="black" points="826.5,-409.75 826.5,-432.25 893.25,-432.25 893.25,-409.75 826.5,-409.75"/>
<text xml:space="preserve" text-anchor="start" x="853.12" y="-415.95" font-family="Times New Roman,Times,Liberation Serif,serif" font-size="14.00">nx</text>
<polygon fill="none" stroke="black" points="893.25,-409.75 893.25,-432.25 1130.25,-432.25 1130.25,-409.75 893.25,-409.75"/>
<text xml:space="preserve" text-anchor="start" x="976.5" y="-415.95" font-family="Times New Roman,Times,Liberation Serif,serif" font-size="14.00">Optional[int]</text>
<polygon fill="none" stroke="black" points="826.5,-387.25 826.5,-409.75 893.25,-409.75 893.25,-387.25 826.5,-387.25"/>
<text xml:space="preserve" text-anchor="start" x="853.12" y="-393.45" font-family="Times New Roman,Times,Liberation Serif,serif" font-size="14.00">ny</text>
<polygon fill="none" stroke="black" points="893.25,-387.25 893.25,-409.75 1130.25,-409.75 1130.25,-387.25 893.25,-387.25"/>
<text xml:space="preserve" text-anchor="start" x="976.5" y="-393.45" font-family="Times New Roman,Times,Liberation Serif,serif" font-size="14.00">Optional[int]</text>
<polygon fill="none" stroke="black" points="826.5,-364.75 826.5,-387.25 893.25,-387.25 893.25,-364.75 826.5,-364.75"/>
<text xml:space="preserve" text-anchor="start" x="829.5" y="-370.95" font-family="Times New Roman,Times,Liberation Serif,serif" font-size="14.00">resampling</text>
<polygon fill="none" stroke="black" points="893.25,-364.75 893.25,-387.25 1130.25,-387.25 1130.25,-364.75 893.25,-364.75"/>
<text xml:space="preserve" text-anchor="start" x="914.25" y="-370.95" font-family="Times New Roman,Times,Liberation Serif,serif" font-size="14.00">Literal[&#39;bilinear&#39;, &#39;average&#39;, &#39;nearest&#39;]</text>
</a>
</g>
</g>
<!-- hydromodpy.spatial.mesh.cartesian_grid.sgrid_config.SolverSGridConfig&#45;&gt;hydromodpy.spatial.mesh.cartesian_grid.sgrid_config.PlanarGridConfig -->
<g id="edge5" class="edge">
<title>hydromodpy.spatial.mesh.cartesian_grid.sgrid_config.SolverSGridConfig:e&#45;&gt;hydromodpy.spatial.mesh.cartesian_grid.sgrid_config.PlanarGridConfig:w</title>
<path fill="none" stroke="black" d="M643.35,-403.25C720.07,-407.34 737.7,-459.34 811.95,-465.42"/>
<polyline fill="none" stroke="black" points="633.62,-403 638.62,-403.13"/>
<polyline fill="none" stroke="black" points="638.62,-403.13 643.62,-403.26"/>
<polyline fill="none" stroke="black" points="826.5,-466 821.5,-465.8"/>
<polygon fill="black" stroke="black" points="820.7,-460.77 820.31,-470.76 818.31,-470.68 818.71,-460.69 820.7,-460.77"/>
<polyline fill="none" stroke="black" points="821.5,-465.8 816.51,-465.6"/>
<polygon fill="black" stroke="black" points="815.71,-460.57 815.31,-470.56 813.31,-470.48 813.71,-460.49 815.71,-460.57"/>
<polyline fill="none" stroke="black" points="816.51,-465.6 811.51,-465.4"/>
</g>
<!-- hydromodpy.spatial.mesh.cartesian_grid.sgrid_config.VerticalGridConfig -->
<g id="node7" class="node">
<title>hydromodpy.spatial.mesh.cartesian_grid.sgrid_config.VerticalGridConfig</title>
<g id="a_node7"><a xlink:title="hydromodpy.spatial.mesh.cartesian_grid.sgrid_config.VerticalGridConfig&#10;&#10;Single source of truth for vertical&#45;grid validation.&#10;&#10;This model is used by surface&#45;driven SGrid generation:&#10;&#45; layering strategy (`genmtd_lay`),&#10;&#45; layer count or proportions,&#10;&#45; nodata masking metadata.&#10;&#10;All geometric quantities are interpreted in SI metres.&#10;">
<polygon fill="none" stroke="black" points="846.38,-306 846.38,-328.5 1110.38,-328.5 1110.38,-306 846.38,-306"/>
<text xml:space="preserve" text-anchor="start" x="921.75" y="-313.2" font-family="Times New Roman,Times,Liberation Serif,serif" font-weight="bold" font-size="14.00">VerticalGridConfig</text>
<polygon fill="none" stroke="black" points="846.38,-283.5 846.38,-306 937.88,-306 937.88,-283.5 846.38,-283.5"/>
<text xml:space="preserve" text-anchor="start" x="859.88" y="-289.7" font-family="Times New Roman,Times,Liberation Serif,serif" font-size="14.00">genmtd_lay</text>
<polygon fill="none" stroke="black" points="937.88,-283.5 937.88,-306 1110.38,-306 1110.38,-283.5 937.88,-283.5"/>
<text xml:space="preserve" text-anchor="start" x="940.88" y="-289.7" font-family="Times New Roman,Times,Liberation Serif,serif" font-size="14.00">Literal[&#39;constant&#39;, &#39;decay&#39;, &#39;list&#39;]</text>
<polygon fill="none" stroke="black" points="846.38,-261 846.38,-283.5 937.88,-283.5 937.88,-261 846.38,-261"/>
<text xml:space="preserve" text-anchor="start" x="880.5" y="-267.2" font-family="Times New Roman,Times,Liberation Serif,serif" font-size="14.00">nlay</text>
<polygon fill="none" stroke="black" points="937.88,-261 937.88,-283.5 1110.38,-283.5 1110.38,-261 937.88,-261"/>
<text xml:space="preserve" text-anchor="start" x="997.12" y="-267.2" font-family="Times New Roman,Times,Liberation Serif,serif" font-size="14.00">int | None</text>
<polygon fill="none" stroke="black" points="846.38,-238.5 846.38,-261 937.88,-261 937.88,-238.5 846.38,-238.5"/>
<text xml:space="preserve" text-anchor="start" x="864.75" y="-244.7" font-family="Times New Roman,Times,Liberation Serif,serif" font-size="14.00">lay_decay</text>
<polygon fill="none" stroke="black" points="937.88,-238.5 937.88,-261 1110.38,-261 1110.38,-238.5 937.88,-238.5"/>
<text xml:space="preserve" text-anchor="start" x="991.88" y="-244.7" font-family="Times New Roman,Times,Liberation Serif,serif" font-size="14.00">float | None</text>
<polygon fill="none" stroke="black" points="846.38,-216 846.38,-238.5 937.88,-238.5 937.88,-216 846.38,-216"/>
<text xml:space="preserve" text-anchor="start" x="849.38" y="-222.2" font-family="Times New Roman,Times,Liberation Serif,serif" font-size="14.00">lay_proportions</text>
<polygon fill="none" stroke="black" points="937.88,-216 937.88,-238.5 1110.38,-238.5 1110.38,-216 937.88,-216"/>
<text xml:space="preserve" text-anchor="start" x="979.12" y="-222.2" font-family="Times New Roman,Times,Liberation Serif,serif" font-size="14.00">list[float] | None</text>
<polygon fill="none" stroke="black" points="846.38,-193.5 846.38,-216 937.88,-216 937.88,-193.5 846.38,-193.5"/>
<text xml:space="preserve" text-anchor="start" x="874.12" y="-199.7" font-family="Times New Roman,Times,Liberation Serif,serif" font-size="14.00">nodata</text>
<polygon fill="none" stroke="black" points="937.88,-193.5 937.88,-216 1110.38,-216 1110.38,-193.5 937.88,-193.5"/>
<text xml:space="preserve" text-anchor="start" x="1011.75" y="-199.7" font-family="Times New Roman,Times,Liberation Serif,serif" font-size="14.00">float</text>
</a>
</g>
</g>
<!-- hydromodpy.spatial.mesh.cartesian_grid.sgrid_config.SolverSGridConfig&#45;&gt;hydromodpy.spatial.mesh.cartesian_grid.sgrid_config.VerticalGridConfig -->
<g id="edge6" class="edge">
<title>hydromodpy.spatial.mesh.cartesian_grid.sgrid_config.SolverSGridConfig:e&#45;&gt;hydromodpy.spatial.mesh.cartesian_grid.sgrid_config.VerticalGridConfig:w</title>
<path fill="none" stroke="black" d="M643.41,-380.28C728.09,-376.47 748.38,-323.54 830.48,-317.76"/>
<polyline fill="none" stroke="black" points="633.62,-380.5 638.62,-380.39"/>
<polyline fill="none" stroke="black" points="638.62,-380.39 643.62,-380.28"/>
<polyline fill="none" stroke="black" points="845.38,-317.25 840.38,-317.42"/>
<polygon fill="black" stroke="black" points="839.21,-312.46 839.55,-322.45 837.55,-322.52 837.21,-312.53 839.21,-312.46"/>
<polyline fill="none" stroke="black" points="840.38,-317.42 835.38,-317.59"/>
<polygon fill="black" stroke="black" points="834.21,-312.63 834.55,-322.62 832.55,-322.69 832.21,-312.7 834.21,-312.63"/>
<polyline fill="none" stroke="black" points="835.38,-317.59 830.38,-317.76"/>
</g>
</g>
</svg>
