<?xml version="1.0" encoding="UTF-8" standalone="no"?>
<!DOCTYPE svg PUBLIC "-//W3C//DTD SVG 1.1//EN"
 "http://www.w3.org/Graphics/SVG/1.1/DTD/svg11.dtd">
<!-- Generated by graphviz version 14.1.2 (20260126.1125)
 -->
<!-- Title: Entity Relationship Diagram created by erdantic Pages: 1 -->
<svg width="1465pt" height="1073pt"
 viewBox="0.00 0.00 1465.00 1073.00" xmlns="http://www.w3.org/2000/svg" xmlns:xlink="http://www.w3.org/1999/xlink">
<g id="graph0" class="graph" transform="scale(1 1) rotate(0) translate(4 1068.75)">
<title>Entity Relationship Diagram created by erdantic</title>
<polygon fill="white" stroke="none" points="-4,4 -4,-1068.75 1461.25,-1068.75 1461.25,4 -4,4"/>
<text xml:space="preserve" text-anchor="middle" x="728.62" y="-5.95" font-family="Times New Roman,Times,Liberation Serif,serif" font-size="9.00" fill="#a8a8a8">Created by erdantic v1.2.1 &lt;https://github.com/drivendataorg/erdantic&gt;</text>
<!-- hydromodpy.core.config_kit.persistence.PersistenceConfig -->
<g id="node1" class="node">
<title>hydromodpy.core.config_kit.persistence.PersistenceConfig</title>
<g id="a_node1"><a xlink:title="hydromodpy.core.config_kit.persistence.PersistenceConfig&#10;&#10;Orthogonal switch governing every persistence sink.&#10;&#10;Toggles are independent: disabling ``save_zarr`` does not silence the&#10;catalog, and vice versa. ``save_catalog`` is the master switch for the&#10;project DuckDB; when False, every write through&#10;:class:`SimulationCatalog` becomes a no&#45;op.&#10;">
<polygon fill="none" stroke="black" points="871.5,-870.25 871.5,-892.75 1209,-892.75 1209,-870.25 871.5,-870.25"/>
<text xml:space="preserve" text-anchor="start" x="988.5" y="-877.45" font-family="Times New Roman,Times,Liberation Serif,serif" font-weight="bold" font-size="14.00">PersistenceConfig</text>
<polygon fill="none" stroke="black" points="871.5,-847.75 871.5,-870.25 979.5,-870.25 979.5,-847.75 871.5,-847.75"/>
<text xml:space="preserve" text-anchor="start" x="890.62" y="-853.95" font-family="Times New Roman,Times,Liberation Serif,serif" font-size="14.00">save_catalog</text>
<polygon fill="none" stroke="black" points="979.5,-847.75 979.5,-870.25 1209,-870.25 1209,-847.75 979.5,-847.75"/>
<text xml:space="preserve" text-anchor="start" x="1082.25" y="-853.95" font-family="Times New Roman,Times,Liberation Serif,serif" font-size="14.00">bool</text>
<polygon fill="none" stroke="black" points="871.5,-825.25 871.5,-847.75 979.5,-847.75 979.5,-825.25 871.5,-825.25"/>
<text xml:space="preserve" text-anchor="start" x="899.62" y="-831.45" font-family="Times New Roman,Times,Liberation Serif,serif" font-size="14.00">save_zarr</text>
<polygon fill="none" stroke="black" points="979.5,-825.25 979.5,-847.75 1209,-847.75 1209,-825.25 979.5,-825.25"/>
<text xml:space="preserve" text-anchor="start" x="1082.25" y="-831.45" font-family="Times New Roman,Times,Liberation Serif,serif" font-size="14.00">bool</text>
<polygon fill="none" stroke="black" points="871.5,-802.75 871.5,-825.25 979.5,-825.25 979.5,-802.75 871.5,-802.75"/>
<text xml:space="preserve" text-anchor="start" x="889.88" y="-808.95" font-family="Times New Roman,Times,Liberation Serif,serif" font-size="14.00">save_parquet</text>
<polygon fill="none" stroke="black" points="979.5,-802.75 979.5,-825.25 1209,-825.25 1209,-802.75 979.5,-802.75"/>
<text xml:space="preserve" text-anchor="start" x="1082.25" y="-808.95" font-family="Times New Roman,Times,Liberation Serif,serif" font-size="14.00">bool</text>
<polygon fill="none" stroke="black" points="871.5,-780.25 871.5,-802.75 979.5,-802.75 979.5,-780.25 871.5,-780.25"/>
<text xml:space="preserve" text-anchor="start" x="898.5" y="-786.45" font-family="Times New Roman,Times,Liberation Serif,serif" font-size="14.00">save_lock</text>
<polygon fill="none" stroke="black" points="979.5,-780.25 979.5,-802.75 1209,-802.75 1209,-780.25 979.5,-780.25"/>
<text xml:space="preserve" text-anchor="start" x="1082.25" y="-786.45" font-family="Times New Roman,Times,Liberation Serif,serif" font-size="14.00">bool</text>
<polygon fill="none" stroke="black" points="871.5,-757.75 871.5,-780.25 979.5,-780.25 979.5,-757.75 871.5,-757.75"/>
<text xml:space="preserve" text-anchor="start" x="891" y="-763.95" font-family="Times New Roman,Times,Liberation Serif,serif" font-size="14.00">compression</text>
<polygon fill="none" stroke="black" points="979.5,-757.75 979.5,-780.25 1209,-780.25 1209,-757.75 979.5,-757.75"/>
<text xml:space="preserve" text-anchor="start" x="982.5" y="-763.95" font-family="Times New Roman,Times,Liberation Serif,serif" font-size="14.00">Literal[&#39;none&#39;, &#39;zstd&#39;, &#39;lz4&#39;, &#39;gzip&#39;, &#39;snappy&#39;]</text>
<polygon fill="none" stroke="black" points="871.5,-735.25 871.5,-757.75 979.5,-757.75 979.5,-735.25 871.5,-735.25"/>
<text xml:space="preserve" text-anchor="start" x="874.5" y="-741.45" font-family="Times New Roman,Times,Liberation Serif,serif" font-size="14.00">compression_level</text>
<polygon fill="none" stroke="black" points="979.5,-735.25 979.5,-757.75 1209,-757.75 1209,-735.25 979.5,-735.25"/>
<text xml:space="preserve" text-anchor="start" x="1087.12" y="-741.45" font-family="Times New Roman,Times,Liberation Serif,serif" font-size="14.00">int</text>
</a>
</g>
</g>
<!-- hydromodpy.simulation.planning.config.SimulationConfig -->
<g id="node2" class="node">
<title>hydromodpy.simulation.planning.config.SimulationConfig</title>
<g id="a_node2"><a xlink:title="hydromodpy.simulation.planning.config.SimulationConfig&#10;&#10;Minimal orchestration block declared under ``[simulation]``.&#10;">
<polygon fill="none" stroke="black" points="0,-1042.25 0,-1064.75 288,-1064.75 288,-1042.25 0,-1042.25"/>
<text xml:space="preserve" text-anchor="start" x="92.62" y="-1049.45" font-family="Times New Roman,Times,Liberation Serif,serif" font-weight="bold" font-size="14.00">SimulationConfig</text>
<polygon fill="none" stroke="black" points="0,-1019.75 0,-1042.25 111.75,-1042.25 111.75,-1019.75 0,-1019.75"/>
<text xml:space="preserve" text-anchor="start" x="40.88" y="-1025.95" font-family="Times New Roman,Times,Liberation Serif,serif" font-size="14.00">name</text>
<polygon fill="none" stroke="black" points="111.75,-1019.75 111.75,-1042.25 288,-1042.25 288,-1019.75 111.75,-1019.75"/>
<text xml:space="preserve" text-anchor="start" x="193.12" y="-1025.95" font-family="Times New Roman,Times,Liberation Serif,serif" font-size="14.00">str</text>
<polygon fill="none" stroke="black" points="0,-997.25 0,-1019.75 111.75,-1019.75 111.75,-997.25 0,-997.25"/>
<text xml:space="preserve" text-anchor="start" x="38.25" y="-1003.45" font-family="Times New Roman,Times,Liberation Serif,serif" font-size="14.00">run_id</text>
<polygon fill="none" stroke="black" points="111.75,-997.25 111.75,-1019.75 288,-1019.75 288,-997.25 111.75,-997.25"/>
<text xml:space="preserve" text-anchor="start" x="193.12" y="-1003.45" font-family="Times New Roman,Times,Liberation Serif,serif" font-size="14.00">str</text>
<polygon fill="none" stroke="black" points="0,-974.75 0,-997.25 111.75,-997.25 111.75,-974.75 0,-974.75"/>
<text xml:space="preserve" text-anchor="start" x="22.5" y="-980.95" font-family="Times New Roman,Times,Liberation Serif,serif" font-size="14.00">on_collision</text>
<polygon fill="none" stroke="black" points="111.75,-974.75 111.75,-997.25 288,-997.25 288,-974.75 111.75,-974.75"/>
<text xml:space="preserve" text-anchor="start" x="114.75" y="-980.95" font-family="Times New Roman,Times,Liberation Serif,serif" font-size="14.00">Literal[&#39;replace&#39;, &#39;fail&#39;, &#39;version&#39;]</text>
<polygon fill="none" stroke="black" points="0,-952.25 0,-974.75 111.75,-974.75 111.75,-952.25 0,-952.25"/>
<text xml:space="preserve" text-anchor="start" x="25.88" y="-958.45" font-family="Times New Roman,Times,Liberation Serif,serif" font-size="14.00">description</text>
<polygon fill="none" stroke="black" points="111.75,-952.25 111.75,-974.75 288,-974.75 288,-952.25 111.75,-952.25"/>
<text xml:space="preserve" text-anchor="start" x="193.12" y="-958.45" font-family="Times New Roman,Times,Liberation Serif,serif" font-size="14.00">str</text>
<polygon fill="none" stroke="black" points="0,-929.75 0,-952.25 111.75,-952.25 111.75,-929.75 0,-929.75"/>
<text xml:space="preserve" text-anchor="start" x="3" y="-935.95" font-family="Times New Roman,Times,Liberation Serif,serif" font-size="14.00">scientific_objective</text>
<polygon fill="none" stroke="black" points="111.75,-929.75 111.75,-952.25 288,-952.25 288,-929.75 111.75,-929.75"/>
<text xml:space="preserve" text-anchor="start" x="173.25" y="-935.95" font-family="Times New Roman,Times,Liberation Serif,serif" font-size="14.00">str | None</text>
<polygon fill="none" stroke="black" points="0,-907.25 0,-929.75 111.75,-929.75 111.75,-907.25 0,-907.25"/>
<text xml:space="preserve" text-anchor="start" x="17.62" y="-913.45" font-family="Times New Roman,Times,Liberation Serif,serif" font-size="14.00">contact_email</text>
<polygon fill="none" stroke="black" points="111.75,-907.25 111.75,-929.75 288,-929.75 288,-907.25 111.75,-907.25"/>
<text xml:space="preserve" text-anchor="start" x="173.25" y="-913.45" font-family="Times New Roman,Times,Liberation Serif,serif" font-size="14.00">str | None</text>
<polygon fill="none" stroke="black" points="0,-884.75 0,-907.25 111.75,-907.25 111.75,-884.75 0,-884.75"/>
<text xml:space="preserve" text-anchor="start" x="47.25" y="-890.95" font-family="Times New Roman,Times,Liberation Serif,serif" font-size="14.00">doi</text>
<polygon fill="none" stroke="black" points="111.75,-884.75 111.75,-907.25 288,-907.25 288,-884.75 111.75,-884.75"/>
<text xml:space="preserve" text-anchor="start" x="173.25" y="-890.95" font-family="Times New Roman,Times,Liberation Serif,serif" font-size="14.00">str | None</text>
<polygon fill="none" stroke="black" points="0,-862.25 0,-884.75 111.75,-884.75 111.75,-862.25 0,-862.25"/>
<text xml:space="preserve" text-anchor="start" x="8.25" y="-868.45" font-family="Times New Roman,Times,Liberation Serif,serif" font-size="14.00">study_area_name</text>
<polygon fill="none" stroke="black" points="111.75,-862.25 111.75,-884.75 288,-884.75 288,-862.25 111.75,-862.25"/>
<text xml:space="preserve" text-anchor="start" x="173.25" y="-868.45" font-family="Times New Roman,Times,Liberation Serif,serif" font-size="14.00">str | None</text>
<polygon fill="none" stroke="black" points="0,-839.75 0,-862.25 111.75,-862.25 111.75,-839.75 0,-839.75"/>
<text xml:space="preserve" text-anchor="start" x="33.75" y="-845.95" font-family="Times New Roman,Times,Liberation Serif,serif" font-size="14.00">outlet_x</text>
<polygon fill="none" stroke="black" points="111.75,-839.75 111.75,-862.25 288,-862.25 288,-839.75 111.75,-839.75"/>
<text xml:space="preserve" text-anchor="start" x="167.62" y="-845.95" font-family="Times New Roman,Times,Liberation Serif,serif" font-size="14.00">float | None</text>
<polygon fill="none" stroke="black" points="0,-817.25 0,-839.75 111.75,-839.75 111.75,-817.25 0,-817.25"/>
<text xml:space="preserve" text-anchor="start" x="33.75" y="-823.45" font-family="Times New Roman,Times,Liberation Serif,serif" font-size="14.00">outlet_y</text>
<polygon fill="none" stroke="black" points="111.75,-817.25 111.75,-839.75 288,-839.75 288,-817.25 111.75,-817.25"/>
<text xml:space="preserve" text-anchor="start" x="167.62" y="-823.45" font-family="Times New Roman,Times,Liberation Serif,serif" font-size="14.00">float | None</text>
<polygon fill="none" stroke="black" points="0,-794.75 0,-817.25 111.75,-817.25 111.75,-794.75 0,-794.75"/>
<text xml:space="preserve" text-anchor="start" x="43.5" y="-800.95" font-family="Times New Roman,Times,Liberation Serif,serif" font-size="14.00">time</text>
<polygon fill="none" stroke="black" points="111.75,-794.75 111.75,-817.25 288,-817.25 288,-794.75 111.75,-794.75"/>
<text xml:space="preserve" text-anchor="start" x="116.62" y="-800.95" font-family="Times New Roman,Times,Liberation Serif,serif" font-size="14.00">SimulationTimeConfig | None</text>
<polygon fill="none" stroke="black" points="0,-772.25 0,-794.75 111.75,-794.75 111.75,-772.25 0,-772.25"/>
<text xml:space="preserve" text-anchor="start" x="35.62" y="-778.45" font-family="Times New Roman,Times,Liberation Serif,serif" font-size="14.00">process</text>
<polygon fill="none" stroke="black" points="111.75,-772.25 111.75,-794.75 288,-794.75 288,-772.25 111.75,-772.25"/>
<text xml:space="preserve" text-anchor="start" x="117.75" y="-778.45" font-family="Times New Roman,Times,Liberation Serif,serif" font-size="14.00">list[SimulationProcessConfig]</text>
<polygon fill="none" stroke="black" points="0,-749.75 0,-772.25 111.75,-772.25 111.75,-749.75 0,-749.75"/>
<text xml:space="preserve" text-anchor="start" x="38.25" y="-755.95" font-family="Times New Roman,Times,Liberation Serif,serif" font-size="14.00">results</text>
<polygon fill="none" stroke="black" points="111.75,-749.75 111.75,-772.25 288,-772.25 288,-749.75 111.75,-749.75"/>
<text xml:space="preserve" text-anchor="start" x="161.25" y="-755.95" font-family="Times New Roman,Times,Liberation Serif,serif" font-size="14.00">ResultsConfig</text>
<polygon fill="none" stroke="black" points="0,-727.25 0,-749.75 111.75,-749.75 111.75,-727.25 0,-727.25"/>
<text xml:space="preserve" text-anchor="start" x="31.5" y="-733.45" font-family="Times New Roman,Times,Liberation Serif,serif" font-size="14.00">rng_seed</text>
<polygon fill="none" stroke="black" points="111.75,-727.25 111.75,-749.75 288,-749.75 288,-727.25 111.75,-727.25"/>
<text xml:space="preserve" text-anchor="start" x="172.88" y="-733.45" font-family="Times New Roman,Times,Liberation Serif,serif" font-size="14.00">int | None</text>
</a>
</g>
</g>
<!-- hydromodpy.simulation.planning.config.SimulationProcessConfig -->
<g id="node3" class="node">
<title>hydromodpy.simulation.planning.config.SimulationProcessConfig</title>
<g id="a_node3"><a xlink:title="hydromodpy.simulation.planning.config.SimulationProcessConfig&#10;&#10;One requested process entry under ``[[simulation.process]]``.&#10;">
<polygon fill="none" stroke="black" points="503.62,-772.75 503.62,-795.25 655.88,-795.25 655.88,-772.75 503.62,-772.75"/>
<text xml:space="preserve" text-anchor="start" x="506.62" y="-779.95" font-family="Times New Roman,Times,Liberation Serif,serif" font-weight="bold" font-size="14.00">SimulationProcessConfig</text>
<polygon fill="none" stroke="black" points="503.62,-750.25 503.62,-772.75 575.62,-772.75 575.62,-750.25 503.62,-750.25"/>
<text xml:space="preserve" text-anchor="start" x="534.38" y="-756.45" font-family="Times New Roman,Times,Liberation Serif,serif" font-size="14.00">id</text>
<polygon fill="none" stroke="black" points="575.62,-750.25 575.62,-772.75 655.88,-772.75 655.88,-750.25 575.62,-750.25"/>
<text xml:space="preserve" text-anchor="start" x="609" y="-756.45" font-family="Times New Roman,Times,Liberation Serif,serif" font-size="14.00">str</text>
<polygon fill="none" stroke="black" points="503.62,-727.75 503.62,-750.25 575.62,-750.25 575.62,-727.75 503.62,-727.75"/>
<text xml:space="preserve" text-anchor="start" x="528" y="-733.95" font-family="Times New Roman,Times,Liberation Serif,serif" font-size="14.00">type</text>
<polygon fill="none" stroke="black" points="575.62,-727.75 575.62,-750.25 655.88,-750.25 655.88,-727.75 575.62,-727.75"/>
<text xml:space="preserve" text-anchor="start" x="609" y="-733.95" font-family="Times New Roman,Times,Liberation Serif,serif" font-size="14.00">str</text>
<polygon fill="none" stroke="black" points="503.62,-705.25 503.62,-727.75 575.62,-727.75 575.62,-705.25 503.62,-705.25"/>
<text xml:space="preserve" text-anchor="start" x="520.5" y="-711.45" font-family="Times New Roman,Times,Liberation Serif,serif" font-size="14.00">solvers</text>
<polygon fill="none" stroke="black" points="575.62,-705.25 575.62,-727.75 655.88,-727.75 655.88,-705.25 575.62,-705.25"/>
<text xml:space="preserve" text-anchor="start" x="596.25" y="-711.45" font-family="Times New Roman,Times,Liberation Serif,serif" font-size="14.00">list[str]</text>
<polygon fill="none" stroke="black" points="503.62,-682.75 503.62,-705.25 575.62,-705.25 575.62,-682.75 503.62,-682.75"/>
<text xml:space="preserve" text-anchor="start" x="517.12" y="-688.95" font-family="Times New Roman,Times,Liberation Serif,serif" font-size="14.00">backend</text>
<polygon fill="none" stroke="black" points="575.62,-682.75 575.62,-705.25 655.88,-705.25 655.88,-682.75 575.62,-682.75"/>
<text xml:space="preserve" text-anchor="start" x="589.12" y="-688.95" font-family="Times New Roman,Times,Liberation Serif,serif" font-size="14.00">str | None</text>
</a>
</g>
</g>
<!-- hydromodpy.simulation.planning.config.SimulationConfig&#45;&gt;hydromodpy.simulation.planning.config.SimulationProcessConfig -->
<g id="edge1" class="edge">
<title>hydromodpy.simulation.planning.config.SimulationConfig:e&#45;&gt;hydromodpy.simulation.planning.config.SimulationProcessConfig:w</title>
<path fill="none" stroke="black" d="M297.8,-783.5C380.21,-783.53 407.51,-783.95 487.6,-784"/>
<polyline fill="none" stroke="black" points="288,-783.5 293,-783.5"/>
<polyline fill="none" stroke="black" points="293,-783.5 298,-783.5"/>
<polygon fill="black" stroke="black" points="492.29,-784 502.29,-788.5 497.63,-784 501.96,-784 501.96,-784 501.96,-784 497.63,-784 502.29,-779.5 492.29,-784"/>
<polyline fill="none" stroke="black" points="491.07,-784 486.07,-784"/>
</g>
<!-- hydromodpy.simulation.planning.config.SimulationTimeConfig -->
<g id="node4" class="node">
<title>hydromodpy.simulation.planning.config.SimulationTimeConfig</title>
<g id="a_node4"><a xlink:title="hydromodpy.simulation.planning.config.SimulationTimeConfig&#10;&#10;Canonical simulation time window and forcing&#45;coverage policy.&#10;">
<polygon fill="none" stroke="black" points="396,-966.25 396,-988.75 763.5,-988.75 763.5,-966.25 396,-966.25"/>
<text xml:space="preserve" text-anchor="start" x="513" y="-973.45" font-family="Times New Roman,Times,Liberation Serif,serif" font-weight="bold" font-size="14.00">SimulationTimeConfig</text>
<polygon fill="none" stroke="black" points="396,-943.75 396,-966.25 513,-966.25 513,-943.75 396,-943.75"/>
<text xml:space="preserve" text-anchor="start" x="415.88" y="-949.95" font-family="Times New Roman,Times,Liberation Serif,serif" font-size="14.00">start_datetime</text>
<polygon fill="none" stroke="black" points="513,-943.75 513,-966.25 763.5,-966.25 763.5,-943.75 513,-943.75"/>
<text xml:space="preserve" text-anchor="start" x="594.75" y="-949.95" font-family="Times New Roman,Times,Liberation Serif,serif" font-size="14.00">datetime | None</text>
<polygon fill="none" stroke="black" points="396,-921.25 396,-943.75 513,-943.75 513,-921.25 396,-921.25"/>
<text xml:space="preserve" text-anchor="start" x="417.75" y="-927.45" font-family="Times New Roman,Times,Liberation Serif,serif" font-size="14.00">end_datetime</text>
<polygon fill="none" stroke="black" points="513,-921.25 513,-943.75 763.5,-943.75 763.5,-921.25 513,-921.25"/>
<text xml:space="preserve" text-anchor="start" x="594.75" y="-927.45" font-family="Times New Roman,Times,Liberation Serif,serif" font-size="14.00">datetime | None</text>
<polygon fill="none" stroke="black" points="396,-898.75 396,-921.25 513,-921.25 513,-898.75 396,-898.75"/>
<text xml:space="preserve" text-anchor="start" x="425.62" y="-904.95" font-family="Times New Roman,Times,Liberation Serif,serif" font-size="14.00">step_value</text>
<polygon fill="none" stroke="black" points="513,-898.75 513,-921.25 763.5,-921.25 763.5,-898.75 513,-898.75"/>
<text xml:space="preserve" text-anchor="start" x="601.5" y="-904.95" font-family="Times New Roman,Times,Liberation Serif,serif" font-size="14.00">int | float | str</text>
<polygon fill="none" stroke="black" points="396,-876.25 396,-898.75 513,-898.75 513,-876.25 396,-876.25"/>
<text xml:space="preserve" text-anchor="start" x="429.75" y="-882.45" font-family="Times New Roman,Times,Liberation Serif,serif" font-size="14.00">step_unit</text>
<polygon fill="none" stroke="black" points="513,-876.25 513,-898.75 763.5,-898.75 763.5,-876.25 513,-876.25"/>
<text xml:space="preserve" text-anchor="start" x="516" y="-882.45" font-family="Times New Roman,Times,Liberation Serif,serif" font-size="14.00">Optional[Literal[&#39;hour&#39;, &#39;day&#39;, &#39;month&#39;, &#39;year&#39;]]</text>
<polygon fill="none" stroke="black" points="396,-853.75 396,-876.25 513,-876.25 513,-853.75 396,-853.75"/>
<text xml:space="preserve" text-anchor="start" x="399" y="-859.95" font-family="Times New Roman,Times,Liberation Serif,serif" font-size="14.00">substeps_per_period</text>
<polygon fill="none" stroke="black" points="513,-853.75 513,-876.25 763.5,-876.25 763.5,-853.75 513,-853.75"/>
<text xml:space="preserve" text-anchor="start" x="631.12" y="-859.95" font-family="Times New Roman,Times,Liberation Serif,serif" font-size="14.00">int</text>
<polygon fill="none" stroke="black" points="396,-831.25 396,-853.75 513,-853.75 513,-831.25 396,-831.25"/>
<text xml:space="preserve" text-anchor="start" x="409.88" y="-837.45" font-family="Times New Roman,Times,Liberation Serif,serif" font-size="14.00">coverage_policy</text>
<polygon fill="none" stroke="black" points="513,-831.25 513,-853.75 763.5,-853.75 763.5,-831.25 513,-831.25"/>
<text xml:space="preserve" text-anchor="start" x="557.62" y="-837.45" font-family="Times New Roman,Times,Liberation Serif,serif" font-size="14.00">Literal[&#39;error&#39;, &#39;warn&#39;, &#39;ignore&#39;]</text>
</a>
</g>
</g>
<!-- hydromodpy.simulation.planning.config.SimulationConfig&#45;&gt;hydromodpy.simulation.planning.config.SimulationTimeConfig -->
<g id="edge2" class="edge">
<title>hydromodpy.simulation.planning.config.SimulationConfig:e&#45;&gt;hydromodpy.simulation.planning.config.SimulationTimeConfig:w</title>
<path fill="none" stroke="black" d="M297.83,-806.76C368.01,-818.36 316.81,-958.27 381.46,-975.72"/>
<polyline fill="none" stroke="black" points="288,-806 292.98,-806.39"/>
<polyline fill="none" stroke="black" points="292.98,-806.39 297.97,-806.78"/>
<polyline fill="none" stroke="black" points="396,-977.5 391.04,-976.89"/>
<polygon fill="black" stroke="black" points="390.65,-971.81 389.44,-981.73 387.45,-981.49 388.67,-971.56 390.65,-971.81"/>
<polyline fill="none" stroke="black" points="391.04,-976.89 386.07,-976.28"/>
<polygon fill="black" stroke="black" points="385.69,-971.2 384.47,-981.13 382.49,-980.88 383.7,-970.96 385.69,-971.2"/>
<polyline fill="none" stroke="black" points="386.07,-976.28 381.11,-975.68"/>
</g>
<!-- hydromodpy.simulation.planning.results_config.ResultsConfig -->
<g id="node5" class="node">
<title>hydromodpy.simulation.planning.results_config.ResultsConfig</title>
<g id="a_node5"><a xlink:title="hydromodpy.simulation.planning.results_config.ResultsConfig&#10;&#10;Configuration for ``[simulation.results]``.&#10;&#10;Controls whether simulation outputs are stored in the SimulationCatalog,&#10;which derived variables are computed, and which export formats are&#10;produced automatically after each run.&#10;">
<polygon fill="none" stroke="black" points="477,-624.25 477,-646.75 682.5,-646.75 682.5,-624.25 477,-624.25"/>
<text xml:space="preserve" text-anchor="start" x="539.25" y="-631.45" font-family="Times New Roman,Times,Liberation Serif,serif" font-weight="bold" font-size="14.00">ResultsConfig</text>
<polygon fill="none" stroke="black" points="477,-601.75 477,-624.25 578.25,-624.25 578.25,-601.75 477,-601.75"/>
<text xml:space="preserve" text-anchor="start" x="497.62" y="-607.95" font-family="Times New Roman,Times,Liberation Serif,serif" font-size="14.00">persistence</text>
<polygon fill="none" stroke="black" points="578.25,-601.75 578.25,-624.25 682.5,-624.25 682.5,-601.75 578.25,-601.75"/>
<text xml:space="preserve" text-anchor="start" x="581.25" y="-607.95" font-family="Times New Roman,Times,Liberation Serif,serif" font-size="14.00">PersistenceConfig</text>
<polygon fill="none" stroke="black" points="477,-579.25 477,-601.75 578.25,-601.75 578.25,-579.25 477,-579.25"/>
<text xml:space="preserve" text-anchor="start" x="480" y="-585.45" font-family="Times New Roman,Times,Liberation Serif,serif" font-size="14.00">keep_solver_files</text>
<polygon fill="none" stroke="black" points="578.25,-579.25 578.25,-601.75 682.5,-601.75 682.5,-579.25 578.25,-579.25"/>
<text xml:space="preserve" text-anchor="start" x="618.38" y="-585.45" font-family="Times New Roman,Times,Liberation Serif,serif" font-size="14.00">bool</text>
<polygon fill="none" stroke="black" points="477,-556.75 477,-579.25 578.25,-579.25 578.25,-556.75 477,-556.75"/>
<text xml:space="preserve" text-anchor="start" x="488.62" y="-562.95" font-family="Times New Roman,Times,Liberation Serif,serif" font-size="14.00">solver_scratch</text>
<polygon fill="none" stroke="black" points="578.25,-556.75 578.25,-579.25 682.5,-579.25 682.5,-556.75 578.25,-556.75"/>
<text xml:space="preserve" text-anchor="start" x="623.62" y="-562.95" font-family="Times New Roman,Times,Liberation Serif,serif" font-size="14.00">str</text>
<polygon fill="none" stroke="black" points="477,-534.25 477,-556.75 578.25,-556.75 578.25,-534.25 477,-534.25"/>
<text xml:space="preserve" text-anchor="start" x="507.38" y="-540.45" font-family="Times New Roman,Times,Liberation Serif,serif" font-size="14.00">derived</text>
<polygon fill="none" stroke="black" points="578.25,-534.25 578.25,-556.75 682.5,-556.75 682.5,-534.25 578.25,-534.25"/>
<text xml:space="preserve" text-anchor="start" x="589.88" y="-540.45" font-family="Times New Roman,Times,Liberation Serif,serif" font-size="14.00">DerivedConfig</text>
<polygon fill="none" stroke="black" points="477,-511.75 477,-534.25 578.25,-534.25 578.25,-511.75 477,-511.75"/>
<text xml:space="preserve" text-anchor="start" x="509.25" y="-517.95" font-family="Times New Roman,Times,Liberation Serif,serif" font-size="14.00">budget</text>
<polygon fill="none" stroke="black" points="578.25,-511.75 578.25,-534.25 682.5,-534.25 682.5,-511.75 578.25,-511.75"/>
<text xml:space="preserve" text-anchor="start" x="592.12" y="-517.95" font-family="Times New Roman,Times,Liberation Serif,serif" font-size="14.00">BudgetConfig</text>
<polygon fill="none" stroke="black" points="477,-489.25 477,-511.75 578.25,-511.75 578.25,-489.25 477,-489.25"/>
<text xml:space="preserve" text-anchor="start" x="510.38" y="-495.45" font-family="Times New Roman,Times,Liberation Serif,serif" font-size="14.00">export</text>
<polygon fill="none" stroke="black" points="578.25,-489.25 578.25,-511.75 682.5,-511.75 682.5,-489.25 578.25,-489.25"/>
<text xml:space="preserve" text-anchor="start" x="593.25" y="-495.45" font-family="Times New Roman,Times,Liberation Serif,serif" font-size="14.00">ExportConfig</text>
</a>
</g>
</g>
<!-- hydromodpy.simulation.planning.config.SimulationConfig&#45;&gt;hydromodpy.simulation.planning.results_config.ResultsConfig -->
<g id="edge3" class="edge">
<title>hydromodpy.simulation.planning.config.SimulationConfig:e&#45;&gt;hydromodpy.simulation.planning.results_config.ResultsConfig:w</title>
<path fill="none" stroke="black" d="M297.88,-760.45C351.18,-754.2 343.93,-696.21 396,-665 423.81,-648.33 434.85,-638.59 461.19,-636.13"/>
<polyline fill="none" stroke="black" points="288,-761 292.99,-760.72"/>
<polyline fill="none" stroke="black" points="292.99,-760.72 297.98,-760.44"/>
<polyline fill="none" stroke="black" points="476,-635.5 471,-635.71"/>
<polygon fill="black" stroke="black" points="469.79,-630.76 470.22,-640.75 468.22,-640.83 467.8,-630.84 469.79,-630.76"/>
<polyline fill="none" stroke="black" points="471,-635.71 466.01,-635.92"/>
<polygon fill="black" stroke="black" points="464.8,-630.97 465.22,-640.96 463.22,-641.04 462.8,-631.05 464.8,-630.97"/>
<polyline fill="none" stroke="black" points="466.01,-635.92 461.01,-636.13"/>
</g>
<!-- hydromodpy.simulation.planning.results_config.ResultsConfig&#45;&gt;hydromodpy.core.config_kit.persistence.PersistenceConfig -->
<g id="edge5" class="edge">
<title>hydromodpy.simulation.planning.results_config.ResultsConfig:e&#45;&gt;hydromodpy.core.config_kit.persistence.PersistenceConfig:w</title>
<path fill="none" stroke="black" d="M693.3,-613.41C727.57,-616.42 737.58,-635.95 763.5,-665 831.53,-741.24 770.7,-868.07 856.72,-880.51"/>
<polyline fill="none" stroke="black" points="683.5,-613 688.5,-613.21"/>
<polyline fill="none" stroke="black" points="688.5,-613.21 693.49,-613.41"/>
<polyline fill="none" stroke="black" points="871.5,-881.5 866.51,-881.17"/>
<polygon fill="black" stroke="black" points="865.85,-876.11 865.18,-886.09 863.18,-885.95 863.85,-875.98 865.85,-876.11"/>
<polyline fill="none" stroke="black" points="866.51,-881.17 861.52,-880.83"/>
<polygon fill="black" stroke="black" points="860.86,-875.78 860.19,-885.75 858.19,-885.62 858.86,-875.64 860.86,-875.78"/>
<polyline fill="none" stroke="black" points="861.52,-880.83 856.53,-880.5"/>
</g>
<!-- hydromodpy.simulation.planning.results_config.BudgetConfig -->
<g id="node6" class="node">
<title>hydromodpy.simulation.planning.results_config.BudgetConfig</title>
<g id="a_node6"><a xlink:title="hydromodpy.simulation.planning.results_config.BudgetConfig&#10;&#10;Budget extraction configuration.&#10;">
<polygon fill="none" stroke="black" points="986.25,-370 986.25,-392.5 1094.25,-392.5 1094.25,-370 986.25,-370"/>
<text xml:space="preserve" text-anchor="start" x="1000.12" y="-377.2" font-family="Times New Roman,Times,Liberation Serif,serif" font-weight="bold" font-size="14.00">BudgetConfig</text>
<polygon fill="none" stroke="black" points="986.25,-347.5 986.25,-370 1064.25,-370 1064.25,-347.5 986.25,-347.5"/>
<text xml:space="preserve" text-anchor="start" x="989.25" y="-353.7" font-family="Times New Roman,Times,Liberation Serif,serif" font-size="14.00">spatial_fields</text>
<polygon fill="none" stroke="black" points="1064.25,-347.5 1064.25,-370 1094.25,-370 1094.25,-347.5 1064.25,-347.5"/>
<text xml:space="preserve" text-anchor="start" x="1067.25" y="-353.7" font-family="Times New Roman,Times,Liberation Serif,serif" font-size="14.00">bool</text>
</a>
</g>
</g>
<!-- hydromodpy.simulation.planning.results_config.ResultsConfig&#45;&gt;hydromodpy.simulation.planning.results_config.BudgetConfig -->
<g id="edge6" class="edge">
<title>hydromodpy.simulation.planning.results_config.ResultsConfig:e&#45;&gt;hydromodpy.simulation.planning.results_config.BudgetConfig:w</title>
<path fill="none" stroke="black" d="M693.41,-522.73C780.94,-517.81 784.94,-447.24 871.5,-411 914.81,-392.87 929.93,-383.3 970.46,-381.55"/>
<polyline fill="none" stroke="black" points="683.5,-523 688.5,-522.86"/>
<polyline fill="none" stroke="black" points="688.5,-522.86 693.5,-522.73"/>
<polyline fill="none" stroke="black" points="985.25,-381.25 980.25,-381.35"/>
<polygon fill="black" stroke="black" points="979.15,-376.37 979.35,-386.37 977.35,-386.41 977.15,-376.41 979.15,-376.37"/>
<polyline fill="none" stroke="black" points="980.25,-381.35 975.25,-381.45"/>
<polygon fill="black" stroke="black" points="974.15,-376.47 974.35,-386.47 972.35,-386.51 972.15,-376.51 974.15,-376.47"/>
<polyline fill="none" stroke="black" points="975.25,-381.45 970.25,-381.55"/>
</g>
<!-- hydromodpy.simulation.planning.results_config.DerivedConfig -->
<g id="node7" class="node">
<title>hydromodpy.simulation.planning.results_config.DerivedConfig</title>
<g id="a_node7"><a xlink:title="hydromodpy.simulation.planning.results_config.DerivedConfig&#10;&#10;Toggle flags for derived variable computation.&#10;">
<polygon fill="none" stroke="black" points="949.12,-676.5 949.12,-699 1131.38,-699 1131.38,-676.5 949.12,-676.5"/>
<text xml:space="preserve" text-anchor="start" x="997.88" y="-683.7" font-family="Times New Roman,Times,Liberation Serif,serif" font-weight="bold" font-size="14.00">DerivedConfig</text>
<polygon fill="none" stroke="black" points="949.12,-654 949.12,-676.5 1101.38,-676.5 1101.38,-654 949.12,-654"/>
<text xml:space="preserve" text-anchor="start" x="969" y="-660.2" font-family="Times New Roman,Times,Liberation Serif,serif" font-size="14.00">watertable_elevation</text>
<polygon fill="none" stroke="black" points="1101.38,-654 1101.38,-676.5 1131.38,-676.5 1131.38,-654 1101.38,-654"/>
<text xml:space="preserve" text-anchor="start" x="1104.38" y="-660.2" font-family="Times New Roman,Times,Liberation Serif,serif" font-size="14.00">bool</text>
<polygon fill="none" stroke="black" points="949.12,-631.5 949.12,-654 1101.38,-654 1101.38,-631.5 949.12,-631.5"/>
<text xml:space="preserve" text-anchor="start" x="978.75" y="-637.7" font-family="Times New Roman,Times,Liberation Serif,serif" font-size="14.00">watertable_depth</text>
<polygon fill="none" stroke="black" points="1101.38,-631.5 1101.38,-654 1131.38,-654 1131.38,-631.5 1101.38,-631.5"/>
<text xml:space="preserve" text-anchor="start" x="1104.38" y="-637.7" font-family="Times New Roman,Times,Liberation Serif,serif" font-size="14.00">bool</text>
<polygon fill="none" stroke="black" points="949.12,-609 949.12,-631.5 1101.38,-631.5 1101.38,-609 949.12,-609"/>
<text xml:space="preserve" text-anchor="start" x="986.62" y="-615.2" font-family="Times New Roman,Times,Liberation Serif,serif" font-size="14.00">seepage_areas</text>
<polygon fill="none" stroke="black" points="1101.38,-609 1101.38,-631.5 1131.38,-631.5 1131.38,-609 1101.38,-609"/>
<text xml:space="preserve" text-anchor="start" x="1104.38" y="-615.2" font-family="Times New Roman,Times,Liberation Serif,serif" font-size="14.00">bool</text>
<polygon fill="none" stroke="black" points="949.12,-586.5 949.12,-609 1101.38,-609 1101.38,-586.5 949.12,-586.5"/>
<text xml:space="preserve" text-anchor="start" x="976.88" y="-592.7" font-family="Times New Roman,Times,Liberation Serif,serif" font-size="14.00">groundwater_flux</text>
<polygon fill="none" stroke="black" points="1101.38,-586.5 1101.38,-609 1131.38,-609 1131.38,-586.5 1101.38,-586.5"/>
<text xml:space="preserve" text-anchor="start" x="1104.38" y="-592.7" font-family="Times New Roman,Times,Liberation Serif,serif" font-size="14.00">bool</text>
<polygon fill="none" stroke="black" points="949.12,-564 949.12,-586.5 1101.38,-586.5 1101.38,-564 949.12,-564"/>
<text xml:space="preserve" text-anchor="start" x="992.25" y="-570.2" font-family="Times New Roman,Times,Liberation Serif,serif" font-size="14.00">release_flux</text>
<polygon fill="none" stroke="black" points="1101.38,-564 1101.38,-586.5 1131.38,-586.5 1131.38,-564 1101.38,-564"/>
<text xml:space="preserve" text-anchor="start" x="1104.38" y="-570.2" font-family="Times New Roman,Times,Liberation Serif,serif" font-size="14.00">bool</text>
<polygon fill="none" stroke="black" points="949.12,-541.5 949.12,-564 1101.38,-564 1101.38,-541.5 949.12,-541.5"/>
<text xml:space="preserve" text-anchor="start" x="974.25" y="-547.7" font-family="Times New Roman,Times,Liberation Serif,serif" font-size="14.00">accumulation_flux</text>
<polygon fill="none" stroke="black" points="1101.38,-541.5 1101.38,-564 1131.38,-564 1131.38,-541.5 1101.38,-541.5"/>
<text xml:space="preserve" text-anchor="start" x="1104.38" y="-547.7" font-family="Times New Roman,Times,Liberation Serif,serif" font-size="14.00">bool</text>
<polygon fill="none" stroke="black" points="949.12,-519 949.12,-541.5 1101.38,-541.5 1101.38,-519 949.12,-519"/>
<text xml:space="preserve" text-anchor="start" x="952.12" y="-525.2" font-family="Times New Roman,Times,Liberation Serif,serif" font-size="14.00">release_accumulation_flux</text>
<polygon fill="none" stroke="black" points="1101.38,-519 1101.38,-541.5 1131.38,-541.5 1131.38,-519 1101.38,-519"/>
<text xml:space="preserve" text-anchor="start" x="1104.38" y="-525.2" font-family="Times New Roman,Times,Liberation Serif,serif" font-size="14.00">bool</text>
<polygon fill="none" stroke="black" points="949.12,-496.5 949.12,-519 1101.38,-519 1101.38,-496.5 949.12,-496.5"/>
<text xml:space="preserve" text-anchor="start" x="987" y="-502.7" font-family="Times New Roman,Times,Liberation Serif,serif" font-size="14.00">outflow_drain</text>
<polygon fill="none" stroke="black" points="1101.38,-496.5 1101.38,-519 1131.38,-519 1131.38,-496.5 1101.38,-496.5"/>
<text xml:space="preserve" text-anchor="start" x="1104.38" y="-502.7" font-family="Times New Roman,Times,Liberation Serif,serif" font-size="14.00">bool</text>
<polygon fill="none" stroke="black" points="949.12,-474 949.12,-496.5 1101.38,-496.5 1101.38,-474 949.12,-474"/>
<text xml:space="preserve" text-anchor="start" x="963.75" y="-480.2" font-family="Times New Roman,Times,Liberation Serif,serif" font-size="14.00">concentration_seepage</text>
<polygon fill="none" stroke="black" points="1101.38,-474 1101.38,-496.5 1131.38,-496.5 1131.38,-474 1101.38,-474"/>
<text xml:space="preserve" text-anchor="start" x="1104.38" y="-480.2" font-family="Times New Roman,Times,Liberation Serif,serif" font-size="14.00">bool</text>
<polygon fill="none" stroke="black" points="949.12,-451.5 949.12,-474 1101.38,-474 1101.38,-451.5 949.12,-451.5"/>
<text xml:space="preserve" text-anchor="start" x="986.62" y="-457.7" font-family="Times New Roman,Times,Liberation Serif,serif" font-size="14.00">mass_seepage</text>
<polygon fill="none" stroke="black" points="1101.38,-451.5 1101.38,-474 1131.38,-474 1131.38,-451.5 1101.38,-451.5"/>
<text xml:space="preserve" text-anchor="start" x="1104.38" y="-457.7" font-family="Times New Roman,Times,Liberation Serif,serif" font-size="14.00">bool</text>
<polygon fill="none" stroke="black" points="949.12,-429 949.12,-451.5 1101.38,-451.5 1101.38,-429 949.12,-429"/>
<text xml:space="preserve" text-anchor="start" x="973.5" y="-435.2" font-family="Times New Roman,Times,Liberation Serif,serif" font-size="14.00">mass_accumulated</text>
<polygon fill="none" stroke="black" points="1101.38,-429 1101.38,-451.5 1131.38,-451.5 1131.38,-429 1101.38,-429"/>
<text xml:space="preserve" text-anchor="start" x="1104.38" y="-435.2" font-family="Times New Roman,Times,Liberation Serif,serif" font-size="14.00">bool</text>
</a>
</g>
</g>
<!-- hydromodpy.simulation.planning.results_config.ResultsConfig&#45;&gt;hydromodpy.simulation.planning.results_config.DerivedConfig -->
<g id="edge7" class="edge">
<title>hydromodpy.simulation.planning.results_config.ResultsConfig:e&#45;&gt;hydromodpy.simulation.planning.results_config.DerivedConfig:w</title>
<path fill="none" stroke="black" d="M693.41,-545.77C812.16,-552.36 817.72,-677.39 933.45,-687.15"/>
<polyline fill="none" stroke="black" points="683.5,-545.5 688.5,-545.64"/>
<polyline fill="none" stroke="black" points="688.5,-545.64 693.5,-545.77"/>
<polyline fill="none" stroke="black" points="948.12,-687.75 943.13,-687.54"/>
<polygon fill="black" stroke="black" points="942.34,-682.51 941.92,-692.5 939.93,-692.42 940.34,-682.43 942.34,-682.51"/>
<polyline fill="none" stroke="black" points="943.13,-687.54 938.13,-687.34"/>
<polygon fill="black" stroke="black" points="937.34,-682.3 936.93,-692.29 934.93,-692.21 935.34,-682.22 937.34,-682.3"/>
<polyline fill="none" stroke="black" points="938.13,-687.34 933.14,-687.13"/>
</g>
<!-- hydromodpy.simulation.planning.results_config.ExportConfig -->
<g id="node8" class="node">
<title>hydromodpy.simulation.planning.results_config.ExportConfig</title>
<g id="a_node8"><a xlink:title="hydromodpy.simulation.planning.results_config.ExportConfig&#10;&#10;Automated export configuration.&#10;">
<polygon fill="none" stroke="black" points="931.88,-288.5 931.88,-311 1148.62,-311 1148.62,-288.5 931.88,-288.5"/>
<text xml:space="preserve" text-anchor="start" x="1000.5" y="-295.7" font-family="Times New Roman,Times,Liberation Serif,serif" font-weight="bold" font-size="14.00">ExportConfig</text>
<polygon fill="none" stroke="black" points="931.88,-266 931.88,-288.5 1018.12,-288.5 1018.12,-266 931.88,-266"/>
<text xml:space="preserve" text-anchor="start" x="958.12" y="-272.2" font-family="Times New Roman,Times,Liberation Serif,serif" font-size="14.00">netcdf</text>
<polygon fill="none" stroke="black" points="1018.12,-266 1018.12,-288.5 1148.62,-288.5 1148.62,-266 1018.12,-266"/>
<text xml:space="preserve" text-anchor="start" x="1071.38" y="-272.2" font-family="Times New Roman,Times,Liberation Serif,serif" font-size="14.00">bool</text>
<polygon fill="none" stroke="black" points="931.88,-243.5 931.88,-266 1018.12,-266 1018.12,-243.5 931.88,-243.5"/>
<text xml:space="preserve" text-anchor="start" x="934.88" y="-249.7" font-family="Times New Roman,Times,Liberation Serif,serif" font-size="14.00">csv_timeseries</text>
<polygon fill="none" stroke="black" points="1018.12,-243.5 1018.12,-266 1148.62,-266 1148.62,-243.5 1018.12,-243.5"/>
<text xml:space="preserve" text-anchor="start" x="1071.38" y="-249.7" font-family="Times New Roman,Times,Liberation Serif,serif" font-size="14.00">bool</text>
<polygon fill="none" stroke="black" points="931.88,-221 931.88,-243.5 1018.12,-243.5 1018.12,-221 931.88,-221"/>
<text xml:space="preserve" text-anchor="start" x="966.38" y="-227.2" font-family="Times New Roman,Times,Liberation Serif,serif" font-size="14.00">vtu</text>
<polygon fill="none" stroke="black" points="1018.12,-221 1018.12,-243.5 1148.62,-243.5 1148.62,-221 1018.12,-221"/>
<text xml:space="preserve" text-anchor="start" x="1071.38" y="-227.2" font-family="Times New Roman,Times,Liberation Serif,serif" font-size="14.00">bool</text>
<polygon fill="none" stroke="black" points="931.88,-198.5 931.88,-221 1018.12,-221 1018.12,-198.5 931.88,-198.5"/>
<text xml:space="preserve" text-anchor="start" x="957" y="-204.7" font-family="Times New Roman,Times,Liberation Serif,serif" font-size="14.00">geotiff</text>
<polygon fill="none" stroke="black" points="1018.12,-198.5 1018.12,-221 1148.62,-221 1148.62,-198.5 1018.12,-198.5"/>
<text xml:space="preserve" text-anchor="start" x="1071.38" y="-204.7" font-family="Times New Roman,Times,Liberation Serif,serif" font-size="14.00">bool</text>
<polygon fill="none" stroke="black" points="931.88,-176 931.88,-198.5 1018.12,-198.5 1018.12,-176 931.88,-176"/>
<text xml:space="preserve" text-anchor="start" x="950.62" y="-182.2" font-family="Times New Roman,Times,Liberation Serif,serif" font-size="14.00">shapefile</text>
<polygon fill="none" stroke="black" points="1018.12,-176 1018.12,-198.5 1148.62,-198.5 1148.62,-176 1018.12,-176"/>
<text xml:space="preserve" text-anchor="start" x="1071.38" y="-182.2" font-family="Times New Roman,Times,Liberation Serif,serif" font-size="14.00">bool</text>
<polygon fill="none" stroke="black" points="931.88,-153.5 931.88,-176 1018.12,-176 1018.12,-153.5 931.88,-153.5"/>
<text xml:space="preserve" text-anchor="start" x="946.88" y="-159.7" font-family="Times New Roman,Times,Liberation Serif,serif" font-size="14.00">output_dir</text>
<polygon fill="none" stroke="black" points="1018.12,-153.5 1018.12,-176 1148.62,-176 1148.62,-153.5 1018.12,-153.5"/>
<text xml:space="preserve" text-anchor="start" x="1056.75" y="-159.7" font-family="Times New Roman,Times,Liberation Serif,serif" font-size="14.00">str | None</text>
<polygon fill="none" stroke="black" points="931.88,-131 931.88,-153.5 1018.12,-153.5 1018.12,-131 931.88,-131"/>
<text xml:space="preserve" text-anchor="start" x="950.62" y="-137.2" font-family="Times New Roman,Times,Liberation Serif,serif" font-size="14.00">variables</text>
<polygon fill="none" stroke="black" points="1018.12,-131 1018.12,-153.5 1148.62,-153.5 1148.62,-131 1018.12,-131"/>
<text xml:space="preserve" text-anchor="start" x="1021.12" y="-137.2" font-family="Times New Roman,Times,Liberation Serif,serif" font-size="14.00">ExportVariablesConfig</text>
</a>
</g>
</g>
<!-- hydromodpy.simulation.planning.results_config.ResultsConfig&#45;&gt;hydromodpy.simulation.planning.results_config.ExportConfig -->
<g id="edge8" class="edge">
<title>hydromodpy.simulation.planning.results_config.ResultsConfig:e&#45;&gt;hydromodpy.simulation.planning.results_config.ExportConfig:w</title>
<path fill="none" stroke="black" d="M693.17,-500.17C818.67,-491.53 794.67,-313.71 916.16,-300.52"/>
<polyline fill="none" stroke="black" points="683.5,-500.5 688.5,-500.33"/>
<polyline fill="none" stroke="black" points="688.5,-500.33 693.49,-500.16"/>
<polyline fill="none" stroke="black" points="930.88,-299.75 925.88,-300.01"/>
<polygon fill="black" stroke="black" points="924.62,-295.07 925.15,-305.06 923.15,-305.16 922.62,-295.18 924.62,-295.07"/>
<polyline fill="none" stroke="black" points="925.88,-300.01 920.89,-300.27"/>
<polygon fill="black" stroke="black" points="919.63,-295.33 920.15,-305.32 918.15,-305.42 917.63,-295.44 919.63,-295.33"/>
<polyline fill="none" stroke="black" points="920.89,-300.27 915.9,-300.54"/>
</g>
<!-- hydromodpy.simulation.planning.results_config.ExportVariablesConfig -->
<g id="node9" class="node">
<title>hydromodpy.simulation.planning.results_config.ExportVariablesConfig</title>
<g id="a_node9"><a xlink:title="hydromodpy.simulation.planning.results_config.ExportVariablesConfig&#10;&#10;Which variables to include in automated exports.&#10;">
<polygon fill="none" stroke="black" points="1317,-131 1317,-153.5 1457.25,-153.5 1457.25,-131 1317,-131"/>
<text xml:space="preserve" text-anchor="start" x="1320" y="-138.2" font-family="Times New Roman,Times,Liberation Serif,serif" font-weight="bold" font-size="14.00">ExportVariablesConfig</text>
<polygon fill="none" stroke="black" points="1317,-108.5 1317,-131 1411.88,-131 1411.88,-108.5 1317,-108.5"/>
<text xml:space="preserve" text-anchor="start" x="1351.69" y="-114.7" font-family="Times New Roman,Times,Liberation Serif,serif" font-size="14.00">head</text>
<polygon fill="none" stroke="black" points="1411.88,-108.5 1411.88,-131 1457.25,-131 1457.25,-108.5 1411.88,-108.5"/>
<text xml:space="preserve" text-anchor="start" x="1422.56" y="-114.7" font-family="Times New Roman,Times,Liberation Serif,serif" font-size="14.00">bool</text>
<polygon fill="none" stroke="black" points="1317,-86 1317,-108.5 1411.88,-108.5 1411.88,-86 1317,-86"/>
<text xml:space="preserve" text-anchor="start" x="1327.69" y="-92.2" font-family="Times New Roman,Times,Liberation Serif,serif" font-size="14.00">concentration</text>
<polygon fill="none" stroke="black" points="1411.88,-86 1411.88,-108.5 1457.25,-108.5 1457.25,-86 1411.88,-86"/>
<text xml:space="preserve" text-anchor="start" x="1422.56" y="-92.2" font-family="Times New Roman,Times,Liberation Serif,serif" font-size="14.00">bool</text>
<polygon fill="none" stroke="black" points="1317,-63.5 1317,-86 1411.88,-86 1411.88,-63.5 1317,-63.5"/>
<text xml:space="preserve" text-anchor="start" x="1346.06" y="-69.7" font-family="Times New Roman,Times,Liberation Serif,serif" font-size="14.00">budget</text>
<polygon fill="none" stroke="black" points="1411.88,-63.5 1411.88,-86 1457.25,-86 1457.25,-63.5 1411.88,-63.5"/>
<text xml:space="preserve" text-anchor="start" x="1422.56" y="-69.7" font-family="Times New Roman,Times,Liberation Serif,serif" font-size="14.00">bool</text>
<polygon fill="none" stroke="black" points="1317,-41 1317,-63.5 1411.88,-63.5 1411.88,-41 1317,-41"/>
<text xml:space="preserve" text-anchor="start" x="1340.06" y="-47.2" font-family="Times New Roman,Times,Liberation Serif,serif" font-size="14.00">pathlines</text>
<polygon fill="none" stroke="black" points="1411.88,-41 1411.88,-63.5 1457.25,-63.5 1457.25,-41 1411.88,-41"/>
<text xml:space="preserve" text-anchor="start" x="1422.56" y="-47.2" font-family="Times New Roman,Times,Liberation Serif,serif" font-size="14.00">bool</text>
<polygon fill="none" stroke="black" points="1317,-18.5 1317,-41 1411.88,-41 1411.88,-18.5 1317,-18.5"/>
<text xml:space="preserve" text-anchor="start" x="1344.19" y="-24.7" font-family="Times New Roman,Times,Liberation Serif,serif" font-size="14.00">derived</text>
<polygon fill="none" stroke="black" points="1411.88,-18.5 1411.88,-41 1457.25,-41 1457.25,-18.5 1411.88,-18.5"/>
<text xml:space="preserve" text-anchor="start" x="1422.56" y="-24.7" font-family="Times New Roman,Times,Liberation Serif,serif" font-size="14.00">bool</text>
</a>
</g>
</g>
<!-- hydromodpy.simulation.planning.results_config.ExportConfig&#45;&gt;hydromodpy.simulation.planning.results_config.ExportVariablesConfig -->
<g id="edge4" class="edge">
<title>hydromodpy.simulation.planning.results_config.ExportConfig:e&#45;&gt;hydromodpy.simulation.planning.results_config.ExportVariablesConfig:w</title>
<path fill="none" stroke="black" d="M1159.32,-142.25C1220.99,-142.25 1242.8,-142.25 1302.36,-142.25"/>
<polyline fill="none" stroke="black" points="1149.62,-142.25 1154.62,-142.25"/>
<polyline fill="none" stroke="black" points="1154.62,-142.25 1159.62,-142.25"/>
<polyline fill="none" stroke="black" points="1317,-142.25 1312,-142.25"/>
<polygon fill="black" stroke="black" points="1311,-137.25 1311,-147.25 1309,-147.25 1309,-137.25 1311,-137.25"/>
<polyline fill="none" stroke="black" points="1312,-142.25 1307,-142.25"/>
<polygon fill="black" stroke="black" points="1306,-137.25 1306,-147.25 1304,-147.25 1304,-137.25 1306,-137.25"/>
<polyline fill="none" stroke="black" points="1307,-142.25 1302,-142.25"/>
</g>
</g>
</svg>
