<?xml version="1.0" encoding="UTF-8" standalone="no"?>
<!DOCTYPE svg PUBLIC "-//W3C//DTD SVG 1.1//EN"
 "http://www.w3.org/Graphics/SVG/1.1/DTD/svg11.dtd">
<!-- Generated by graphviz version 14.1.2 (20260126.1125)
 -->
<!-- Title: Entity Relationship Diagram created by erdantic Pages: 1 -->
<svg width="1440pt" height="1039pt"
 viewBox="0.00 0.00 1440.00 1039.00" xmlns="http://www.w3.org/2000/svg" xmlns:xlink="http://www.w3.org/1999/xlink">
<g id="graph0" class="graph" transform="scale(1 1) rotate(0) translate(4 1034.75)">
<title>Entity Relationship Diagram created by erdantic</title>
<polygon fill="white" stroke="none" points="-4,4 -4,-1034.75 1435.75,-1034.75 1435.75,4 -4,4"/>
<text xml:space="preserve" text-anchor="middle" x="715.88" y="-5.95" font-family="Times New Roman,Times,Liberation Serif,serif" font-size="9.00" fill="#a8a8a8">Created by erdantic v1.2.1 &lt;https://github.com/drivendataorg/erdantic&gt;</text>
<!-- hydromodpy.core.config_kit.persistence.PersistenceConfig -->
<g id="node1" class="node">
<title>hydromodpy.core.config_kit.persistence.PersistenceConfig</title>
<g id="a_node1"><a xlink:title="hydromodpy.core.config_kit.persistence.PersistenceConfig&#10;&#10;Orthogonal switch governing every persistence sink.&#10;&#10;Toggles are independent: disabling ``save_zarr`` does not silence the&#10;catalog, and vice versa. ``save_catalog`` is the master switch for the&#10;project DuckDB; when False, every write through&#10;:class:`Catalog` becomes a no&#45;op.&#10;">
<polygon fill="none" stroke="black" points="1094.25,-518.25 1094.25,-540.75 1431.75,-540.75 1431.75,-518.25 1094.25,-518.25"/>
<text xml:space="preserve" text-anchor="start" x="1211.25" y="-525.45" font-family="Times New Roman,Times,Liberation Serif,serif" font-weight="bold" font-size="14.00">PersistenceConfig</text>
<polygon fill="none" stroke="black" points="1094.25,-495.75 1094.25,-518.25 1202.25,-518.25 1202.25,-495.75 1094.25,-495.75"/>
<text xml:space="preserve" text-anchor="start" x="1113.38" y="-501.95" font-family="Times New Roman,Times,Liberation Serif,serif" font-size="14.00">save_catalog</text>
<polygon fill="none" stroke="black" points="1202.25,-495.75 1202.25,-518.25 1431.75,-518.25 1431.75,-495.75 1202.25,-495.75"/>
<text xml:space="preserve" text-anchor="start" x="1305" y="-501.95" font-family="Times New Roman,Times,Liberation Serif,serif" font-size="14.00">bool</text>
<polygon fill="none" stroke="black" points="1094.25,-473.25 1094.25,-495.75 1202.25,-495.75 1202.25,-473.25 1094.25,-473.25"/>
<text xml:space="preserve" text-anchor="start" x="1122.38" y="-479.45" font-family="Times New Roman,Times,Liberation Serif,serif" font-size="14.00">save_zarr</text>
<polygon fill="none" stroke="black" points="1202.25,-473.25 1202.25,-495.75 1431.75,-495.75 1431.75,-473.25 1202.25,-473.25"/>
<text xml:space="preserve" text-anchor="start" x="1305" y="-479.45" font-family="Times New Roman,Times,Liberation Serif,serif" font-size="14.00">bool</text>
<polygon fill="none" stroke="black" points="1094.25,-450.75 1094.25,-473.25 1202.25,-473.25 1202.25,-450.75 1094.25,-450.75"/>
<text xml:space="preserve" text-anchor="start" x="1112.62" y="-456.95" font-family="Times New Roman,Times,Liberation Serif,serif" font-size="14.00">save_parquet</text>
<polygon fill="none" stroke="black" points="1202.25,-450.75 1202.25,-473.25 1431.75,-473.25 1431.75,-450.75 1202.25,-450.75"/>
<text xml:space="preserve" text-anchor="start" x="1305" y="-456.95" font-family="Times New Roman,Times,Liberation Serif,serif" font-size="14.00">bool</text>
<polygon fill="none" stroke="black" points="1094.25,-428.25 1094.25,-450.75 1202.25,-450.75 1202.25,-428.25 1094.25,-428.25"/>
<text xml:space="preserve" text-anchor="start" x="1121.25" y="-434.45" font-family="Times New Roman,Times,Liberation Serif,serif" font-size="14.00">save_lock</text>
<polygon fill="none" stroke="black" points="1202.25,-428.25 1202.25,-450.75 1431.75,-450.75 1431.75,-428.25 1202.25,-428.25"/>
<text xml:space="preserve" text-anchor="start" x="1305" y="-434.45" font-family="Times New Roman,Times,Liberation Serif,serif" font-size="14.00">bool</text>
<polygon fill="none" stroke="black" points="1094.25,-405.75 1094.25,-428.25 1202.25,-428.25 1202.25,-405.75 1094.25,-405.75"/>
<text xml:space="preserve" text-anchor="start" x="1113.75" y="-411.95" font-family="Times New Roman,Times,Liberation Serif,serif" font-size="14.00">compression</text>
<polygon fill="none" stroke="black" points="1202.25,-405.75 1202.25,-428.25 1431.75,-428.25 1431.75,-405.75 1202.25,-405.75"/>
<text xml:space="preserve" text-anchor="start" x="1205.25" y="-411.95" font-family="Times New Roman,Times,Liberation Serif,serif" font-size="14.00">Literal[&#39;none&#39;, &#39;zstd&#39;, &#39;lz4&#39;, &#39;gzip&#39;, &#39;snappy&#39;]</text>
<polygon fill="none" stroke="black" points="1094.25,-383.25 1094.25,-405.75 1202.25,-405.75 1202.25,-383.25 1094.25,-383.25"/>
<text xml:space="preserve" text-anchor="start" x="1097.25" y="-389.45" font-family="Times New Roman,Times,Liberation Serif,serif" font-size="14.00">compression_level</text>
<polygon fill="none" stroke="black" points="1202.25,-383.25 1202.25,-405.75 1431.75,-405.75 1431.75,-383.25 1202.25,-383.25"/>
<text xml:space="preserve" text-anchor="start" x="1309.88" y="-389.45" font-family="Times New Roman,Times,Liberation Serif,serif" font-size="14.00">int</text>
</a>
</g>
</g>
<!-- hydromodpy.simulation.planning.config.FlowProcessConfig -->
<g id="node2" class="node">
<title>hydromodpy.simulation.planning.config.FlowProcessConfig</title>
<g id="a_node2"><a xlink:title="hydromodpy.simulation.planning.config.FlowProcessConfig&#10;&#10;``[[simulation.process]]`` entry for a flow process.&#10;">
<polygon fill="none" stroke="black" points="740.25,-814.5 740.25,-837 864.75,-837 864.75,-814.5 740.25,-814.5"/>
<text xml:space="preserve" text-anchor="start" x="747" y="-821.7" font-family="Times New Roman,Times,Liberation Serif,serif" font-weight="bold" font-size="14.00">FlowProcessConfig</text>
<polygon fill="none" stroke="black" points="740.25,-792 740.25,-814.5 784.5,-814.5 784.5,-792 740.25,-792"/>
<text xml:space="preserve" text-anchor="start" x="757.12" y="-798.2" font-family="Times New Roman,Times,Liberation Serif,serif" font-size="14.00">id</text>
<polygon fill="none" stroke="black" points="784.5,-792 784.5,-814.5 864.75,-814.5 864.75,-792 784.5,-792"/>
<text xml:space="preserve" text-anchor="start" x="817.88" y="-798.2" font-family="Times New Roman,Times,Liberation Serif,serif" font-size="14.00">str</text>
<polygon fill="none" stroke="black" points="740.25,-769.5 740.25,-792 784.5,-792 784.5,-769.5 740.25,-769.5"/>
<text xml:space="preserve" text-anchor="start" x="750.75" y="-775.7" font-family="Times New Roman,Times,Liberation Serif,serif" font-size="14.00">type</text>
<polygon fill="none" stroke="black" points="784.5,-769.5 784.5,-792 864.75,-792 864.75,-769.5 784.5,-769.5"/>
<text xml:space="preserve" text-anchor="start" x="787.5" y="-775.7" font-family="Times New Roman,Times,Liberation Serif,serif" font-size="14.00">Literal[&#39;flow&#39;]</text>
<polygon fill="none" stroke="black" points="740.25,-747 740.25,-769.5 784.5,-769.5 784.5,-747 740.25,-747"/>
<text xml:space="preserve" text-anchor="start" x="743.25" y="-753.2" font-family="Times New Roman,Times,Liberation Serif,serif" font-size="14.00">solvers</text>
<polygon fill="none" stroke="black" points="784.5,-747 784.5,-769.5 864.75,-769.5 864.75,-747 784.5,-747"/>
<text xml:space="preserve" text-anchor="start" x="805.12" y="-753.2" font-family="Times New Roman,Times,Liberation Serif,serif" font-size="14.00">list[str]</text>
</a>
</g>
</g>
<!-- hydromodpy.simulation.planning.config.MeshProcessConfig -->
<g id="node3" class="node">
<title>hydromodpy.simulation.planning.config.MeshProcessConfig</title>
<g id="a_node3"><a xlink:title="hydromodpy.simulation.planning.config.MeshProcessConfig&#10;&#10;``[[simulation.process]]`` entry for a mesh orchestration process.&#10;">
<polygon fill="none" stroke="black" points="721.12,-688.75 721.12,-711.25 883.88,-711.25 883.88,-688.75 721.12,-688.75"/>
<text xml:space="preserve" text-anchor="start" x="745.12" y="-695.95" font-family="Times New Roman,Times,Liberation Serif,serif" font-weight="bold" font-size="14.00">MeshProcessConfig</text>
<polygon fill="none" stroke="black" points="721.12,-666.25 721.12,-688.75 772.12,-688.75 772.12,-666.25 721.12,-666.25"/>
<text xml:space="preserve" text-anchor="start" x="741.38" y="-672.45" font-family="Times New Roman,Times,Liberation Serif,serif" font-size="14.00">id</text>
<polygon fill="none" stroke="black" points="772.12,-666.25 772.12,-688.75 883.88,-688.75 883.88,-666.25 772.12,-666.25"/>
<text xml:space="preserve" text-anchor="start" x="821.25" y="-672.45" font-family="Times New Roman,Times,Liberation Serif,serif" font-size="14.00">str</text>
<polygon fill="none" stroke="black" points="721.12,-643.75 721.12,-666.25 772.12,-666.25 772.12,-643.75 721.12,-643.75"/>
<text xml:space="preserve" text-anchor="start" x="735" y="-649.95" font-family="Times New Roman,Times,Liberation Serif,serif" font-size="14.00">type</text>
<polygon fill="none" stroke="black" points="772.12,-643.75 772.12,-666.25 883.88,-666.25 883.88,-643.75 772.12,-643.75"/>
<text xml:space="preserve" text-anchor="start" x="788.62" y="-649.95" font-family="Times New Roman,Times,Liberation Serif,serif" font-size="14.00">Literal[&#39;mesh&#39;]</text>
<polygon fill="none" stroke="black" points="721.12,-621.25 721.12,-643.75 772.12,-643.75 772.12,-621.25 721.12,-621.25"/>
<text xml:space="preserve" text-anchor="start" x="724.12" y="-627.45" font-family="Times New Roman,Times,Liberation Serif,serif" font-size="14.00">backend</text>
<polygon fill="none" stroke="black" points="772.12,-621.25 772.12,-643.75 883.88,-643.75 883.88,-621.25 772.12,-621.25"/>
<text xml:space="preserve" text-anchor="start" x="775.12" y="-627.45" font-family="Times New Roman,Times,Liberation Serif,serif" font-size="14.00">Literal[&#39;catchment&#39;]</text>
<polygon fill="none" stroke="black" points="721.12,-598.75 721.12,-621.25 772.12,-621.25 772.12,-598.75 721.12,-598.75"/>
<text xml:space="preserve" text-anchor="start" x="727.5" y="-604.95" font-family="Times New Roman,Times,Liberation Serif,serif" font-size="14.00">solvers</text>
<polygon fill="none" stroke="black" points="772.12,-598.75 772.12,-621.25 883.88,-621.25 883.88,-598.75 772.12,-598.75"/>
<text xml:space="preserve" text-anchor="start" x="808.5" y="-604.95" font-family="Times New Roman,Times,Liberation Serif,serif" font-size="14.00">list[str]</text>
</a>
</g>
</g>
<!-- hydromodpy.simulation.planning.config.SimulationConfig -->
<g id="node4" class="node">
<title>hydromodpy.simulation.planning.config.SimulationConfig</title>
<g id="a_node4"><a xlink:title="hydromodpy.simulation.planning.config.SimulationConfig&#10;&#10;Minimal orchestration block declared under ``[simulation]``.&#10;">
<polygon fill="none" stroke="black" points="0,-958.25 0,-980.75 510.75,-980.75 510.75,-958.25 0,-958.25"/>
<text xml:space="preserve" text-anchor="start" x="204" y="-965.45" font-family="Times New Roman,Times,Liberation Serif,serif" font-weight="bold" font-size="14.00">SimulationConfig</text>
<polygon fill="none" stroke="black" points="0,-935.75 0,-958.25 111.75,-958.25 111.75,-935.75 0,-935.75"/>
<text xml:space="preserve" text-anchor="start" x="40.88" y="-941.95" font-family="Times New Roman,Times,Liberation Serif,serif" font-size="14.00">name</text>
<polygon fill="none" stroke="black" points="111.75,-935.75 111.75,-958.25 510.75,-958.25 510.75,-935.75 111.75,-935.75"/>
<text xml:space="preserve" text-anchor="start" x="304.5" y="-941.95" font-family="Times New Roman,Times,Liberation Serif,serif" font-size="14.00">str</text>
<polygon fill="none" stroke="black" points="0,-913.25 0,-935.75 111.75,-935.75 111.75,-913.25 0,-913.25"/>
<text xml:space="preserve" text-anchor="start" x="45" y="-919.45" font-family="Times New Roman,Times,Liberation Serif,serif" font-size="14.00">tags</text>
<polygon fill="none" stroke="black" points="111.75,-913.25 111.75,-935.75 510.75,-935.75 510.75,-913.25 111.75,-913.25"/>
<text xml:space="preserve" text-anchor="start" x="291.75" y="-919.45" font-family="Times New Roman,Times,Liberation Serif,serif" font-size="14.00">list[str]</text>
<polygon fill="none" stroke="black" points="0,-890.75 0,-913.25 111.75,-913.25 111.75,-890.75 0,-890.75"/>
<text xml:space="preserve" text-anchor="start" x="33" y="-896.95" font-family="Times New Roman,Times,Liberation Serif,serif" font-size="14.00">if_exists</text>
<polygon fill="none" stroke="black" points="111.75,-890.75 111.75,-913.25 510.75,-913.25 510.75,-890.75 111.75,-890.75"/>
<text xml:space="preserve" text-anchor="start" x="226.12" y="-896.95" font-family="Times New Roman,Times,Liberation Serif,serif" font-size="14.00">Literal[&#39;replace&#39;, &#39;fail&#39;, &#39;version&#39;]</text>
<polygon fill="none" stroke="black" points="0,-868.25 0,-890.75 111.75,-890.75 111.75,-868.25 0,-868.25"/>
<text xml:space="preserve" text-anchor="start" x="25.88" y="-874.45" font-family="Times New Roman,Times,Liberation Serif,serif" font-size="14.00">description</text>
<polygon fill="none" stroke="black" points="111.75,-868.25 111.75,-890.75 510.75,-890.75 510.75,-868.25 111.75,-868.25"/>
<text xml:space="preserve" text-anchor="start" x="304.5" y="-874.45" font-family="Times New Roman,Times,Liberation Serif,serif" font-size="14.00">str</text>
<polygon fill="none" stroke="black" points="0,-845.75 0,-868.25 111.75,-868.25 111.75,-845.75 0,-845.75"/>
<text xml:space="preserve" text-anchor="start" x="3" y="-851.95" font-family="Times New Roman,Times,Liberation Serif,serif" font-size="14.00">scientific_objective</text>
<polygon fill="none" stroke="black" points="111.75,-845.75 111.75,-868.25 510.75,-868.25 510.75,-845.75 111.75,-845.75"/>
<text xml:space="preserve" text-anchor="start" x="284.62" y="-851.95" font-family="Times New Roman,Times,Liberation Serif,serif" font-size="14.00">str | None</text>
<polygon fill="none" stroke="black" points="0,-823.25 0,-845.75 111.75,-845.75 111.75,-823.25 0,-823.25"/>
<text xml:space="preserve" text-anchor="start" x="17.62" y="-829.45" font-family="Times New Roman,Times,Liberation Serif,serif" font-size="14.00">contact_email</text>
<polygon fill="none" stroke="black" points="111.75,-823.25 111.75,-845.75 510.75,-845.75 510.75,-823.25 111.75,-823.25"/>
<text xml:space="preserve" text-anchor="start" x="284.62" y="-829.45" font-family="Times New Roman,Times,Liberation Serif,serif" font-size="14.00">str | None</text>
<polygon fill="none" stroke="black" points="0,-800.75 0,-823.25 111.75,-823.25 111.75,-800.75 0,-800.75"/>
<text xml:space="preserve" text-anchor="start" x="47.25" y="-806.95" font-family="Times New Roman,Times,Liberation Serif,serif" font-size="14.00">doi</text>
<polygon fill="none" stroke="black" points="111.75,-800.75 111.75,-823.25 510.75,-823.25 510.75,-800.75 111.75,-800.75"/>
<text xml:space="preserve" text-anchor="start" x="284.62" y="-806.95" font-family="Times New Roman,Times,Liberation Serif,serif" font-size="14.00">str | None</text>
<polygon fill="none" stroke="black" points="0,-778.25 0,-800.75 111.75,-800.75 111.75,-778.25 0,-778.25"/>
<text xml:space="preserve" text-anchor="start" x="8.25" y="-784.45" font-family="Times New Roman,Times,Liberation Serif,serif" font-size="14.00">study_area_name</text>
<polygon fill="none" stroke="black" points="111.75,-778.25 111.75,-800.75 510.75,-800.75 510.75,-778.25 111.75,-778.25"/>
<text xml:space="preserve" text-anchor="start" x="284.62" y="-784.45" font-family="Times New Roman,Times,Liberation Serif,serif" font-size="14.00">str | None</text>
<polygon fill="none" stroke="black" points="0,-755.75 0,-778.25 111.75,-778.25 111.75,-755.75 0,-755.75"/>
<text xml:space="preserve" text-anchor="start" x="33.75" y="-761.95" font-family="Times New Roman,Times,Liberation Serif,serif" font-size="14.00">outlet_x</text>
<polygon fill="none" stroke="black" points="111.75,-755.75 111.75,-778.25 510.75,-778.25 510.75,-755.75 111.75,-755.75"/>
<text xml:space="preserve" text-anchor="start" x="279" y="-761.95" font-family="Times New Roman,Times,Liberation Serif,serif" font-size="14.00">float | None</text>
<polygon fill="none" stroke="black" points="0,-733.25 0,-755.75 111.75,-755.75 111.75,-733.25 0,-733.25"/>
<text xml:space="preserve" text-anchor="start" x="33.75" y="-739.45" font-family="Times New Roman,Times,Liberation Serif,serif" font-size="14.00">outlet_y</text>
<polygon fill="none" stroke="black" points="111.75,-733.25 111.75,-755.75 510.75,-755.75 510.75,-733.25 111.75,-733.25"/>
<text xml:space="preserve" text-anchor="start" x="279" y="-739.45" font-family="Times New Roman,Times,Liberation Serif,serif" font-size="14.00">float | None</text>
<polygon fill="none" stroke="black" points="0,-710.75 0,-733.25 111.75,-733.25 111.75,-710.75 0,-710.75"/>
<text xml:space="preserve" text-anchor="start" x="43.5" y="-716.95" font-family="Times New Roman,Times,Liberation Serif,serif" font-size="14.00">time</text>
<polygon fill="none" stroke="black" points="111.75,-710.75 111.75,-733.25 510.75,-733.25 510.75,-710.75 111.75,-710.75"/>
<text xml:space="preserve" text-anchor="start" x="228" y="-716.95" font-family="Times New Roman,Times,Liberation Serif,serif" font-size="14.00">SimulationTimeConfig | None</text>
<polygon fill="none" stroke="black" points="0,-688.25 0,-710.75 111.75,-710.75 111.75,-688.25 0,-688.25"/>
<text xml:space="preserve" text-anchor="start" x="35.62" y="-694.45" font-family="Times New Roman,Times,Liberation Serif,serif" font-size="14.00">process</text>
<polygon fill="none" stroke="black" points="111.75,-688.25 111.75,-710.75 510.75,-710.75 510.75,-688.25 111.75,-688.25"/>
<text xml:space="preserve" text-anchor="start" x="114.75" y="-694.45" font-family="Times New Roman,Times,Liberation Serif,serif" font-size="14.00">list[FlowProcessConfig | TransportProcessConfig | MeshProcessConfig]</text>
<polygon fill="none" stroke="black" points="0,-665.75 0,-688.25 111.75,-688.25 111.75,-665.75 0,-665.75"/>
<text xml:space="preserve" text-anchor="start" x="38.25" y="-671.95" font-family="Times New Roman,Times,Liberation Serif,serif" font-size="14.00">results</text>
<polygon fill="none" stroke="black" points="111.75,-665.75 111.75,-688.25 510.75,-688.25 510.75,-665.75 111.75,-665.75"/>
<text xml:space="preserve" text-anchor="start" x="272.62" y="-671.95" font-family="Times New Roman,Times,Liberation Serif,serif" font-size="14.00">ResultsConfig</text>
<polygon fill="none" stroke="black" points="0,-643.25 0,-665.75 111.75,-665.75 111.75,-643.25 0,-643.25"/>
<text xml:space="preserve" text-anchor="start" x="31.5" y="-649.45" font-family="Times New Roman,Times,Liberation Serif,serif" font-size="14.00">rng_seed</text>
<polygon fill="none" stroke="black" points="111.75,-643.25 111.75,-665.75 510.75,-665.75 510.75,-643.25 111.75,-643.25"/>
<text xml:space="preserve" text-anchor="start" x="284.25" y="-649.45" font-family="Times New Roman,Times,Liberation Serif,serif" font-size="14.00">int | None</text>
</a>
</g>
</g>
<!-- hydromodpy.simulation.planning.config.SimulationConfig&#45;&gt;hydromodpy.simulation.planning.config.FlowProcessConfig -->
<g id="edge1" class="edge">
<title>hydromodpy.simulation.planning.config.SimulationConfig:e&#45;&gt;hydromodpy.simulation.planning.config.FlowProcessConfig:w</title>
<path fill="none" stroke="black" d="M520.65,-699.82C621.6,-706.46 626.39,-814.62 723.83,-824.96"/>
<polyline fill="none" stroke="black" points="510.75,-699.5 515.75,-699.66"/>
<polyline fill="none" stroke="black" points="515.75,-699.66 520.74,-699.82"/>
<polygon fill="black" stroke="black" points="728.93,-825.22 738.69,-830.23 734.26,-825.49 738.58,-825.72 738.58,-825.72 738.58,-825.72 734.26,-825.49 739.15,-821.24 728.93,-825.22"/>
<polyline fill="none" stroke="black" points="727.71,-825.16 722.72,-824.9"/>
</g>
<!-- hydromodpy.simulation.planning.config.SimulationConfig&#45;&gt;hydromodpy.simulation.planning.config.MeshProcessConfig -->
<g id="edge2" class="edge">
<title>hydromodpy.simulation.planning.config.SimulationConfig:e&#45;&gt;hydromodpy.simulation.planning.config.MeshProcessConfig:w</title>
<path fill="none" stroke="black" d="M520.57,-699.5C600.6,-699.53 627.31,-699.95 705,-700"/>
<polyline fill="none" stroke="black" points="510.75,-699.5 515.75,-699.5"/>
<polyline fill="none" stroke="black" points="515.75,-699.5 520.75,-699.5"/>
<polygon fill="black" stroke="black" points="709.79,-700 719.79,-704.5 715.13,-700 719.46,-700 719.46,-700 719.46,-700 715.13,-700 719.79,-695.5 709.79,-700"/>
<polyline fill="none" stroke="black" points="708.57,-700 703.57,-699.99"/>
</g>
<!-- hydromodpy.simulation.planning.config.SimulationTimeConfig -->
<g id="node5" class="node">
<title>hydromodpy.simulation.planning.config.SimulationTimeConfig</title>
<g id="a_node5"><a xlink:title="hydromodpy.simulation.planning.config.SimulationTimeConfig&#10;&#10;Canonical simulation time window and forcing&#45;coverage policy.&#10;">
<polygon fill="none" stroke="black" points="618.75,-1008.25 618.75,-1030.75 986.25,-1030.75 986.25,-1008.25 618.75,-1008.25"/>
<text xml:space="preserve" text-anchor="start" x="735.75" y="-1015.45" font-family="Times New Roman,Times,Liberation Serif,serif" font-weight="bold" font-size="14.00">SimulationTimeConfig</text>
<polygon fill="none" stroke="black" points="618.75,-985.75 618.75,-1008.25 735.75,-1008.25 735.75,-985.75 618.75,-985.75"/>
<text xml:space="preserve" text-anchor="start" x="638.62" y="-991.95" font-family="Times New Roman,Times,Liberation Serif,serif" font-size="14.00">start_datetime</text>
<polygon fill="none" stroke="black" points="735.75,-985.75 735.75,-1008.25 986.25,-1008.25 986.25,-985.75 735.75,-985.75"/>
<text xml:space="preserve" text-anchor="start" x="817.5" y="-991.95" font-family="Times New Roman,Times,Liberation Serif,serif" font-size="14.00">datetime | None</text>
<polygon fill="none" stroke="black" points="618.75,-963.25 618.75,-985.75 735.75,-985.75 735.75,-963.25 618.75,-963.25"/>
<text xml:space="preserve" text-anchor="start" x="640.5" y="-969.45" font-family="Times New Roman,Times,Liberation Serif,serif" font-size="14.00">end_datetime</text>
<polygon fill="none" stroke="black" points="735.75,-963.25 735.75,-985.75 986.25,-985.75 986.25,-963.25 735.75,-963.25"/>
<text xml:space="preserve" text-anchor="start" x="817.5" y="-969.45" font-family="Times New Roman,Times,Liberation Serif,serif" font-size="14.00">datetime | None</text>
<polygon fill="none" stroke="black" points="618.75,-940.75 618.75,-963.25 735.75,-963.25 735.75,-940.75 618.75,-940.75"/>
<text xml:space="preserve" text-anchor="start" x="648.38" y="-946.95" font-family="Times New Roman,Times,Liberation Serif,serif" font-size="14.00">step_value</text>
<polygon fill="none" stroke="black" points="735.75,-940.75 735.75,-963.25 986.25,-963.25 986.25,-940.75 735.75,-940.75"/>
<text xml:space="preserve" text-anchor="start" x="824.25" y="-946.95" font-family="Times New Roman,Times,Liberation Serif,serif" font-size="14.00">int | float | str</text>
<polygon fill="none" stroke="black" points="618.75,-918.25 618.75,-940.75 735.75,-940.75 735.75,-918.25 618.75,-918.25"/>
<text xml:space="preserve" text-anchor="start" x="652.5" y="-924.45" font-family="Times New Roman,Times,Liberation Serif,serif" font-size="14.00">step_unit</text>
<polygon fill="none" stroke="black" points="735.75,-918.25 735.75,-940.75 986.25,-940.75 986.25,-918.25 735.75,-918.25"/>
<text xml:space="preserve" text-anchor="start" x="738.75" y="-924.45" font-family="Times New Roman,Times,Liberation Serif,serif" font-size="14.00">Optional[Literal[&#39;hour&#39;, &#39;day&#39;, &#39;month&#39;, &#39;year&#39;]]</text>
<polygon fill="none" stroke="black" points="618.75,-895.75 618.75,-918.25 735.75,-918.25 735.75,-895.75 618.75,-895.75"/>
<text xml:space="preserve" text-anchor="start" x="621.75" y="-901.95" font-family="Times New Roman,Times,Liberation Serif,serif" font-size="14.00">substeps_per_period</text>
<polygon fill="none" stroke="black" points="735.75,-895.75 735.75,-918.25 986.25,-918.25 986.25,-895.75 735.75,-895.75"/>
<text xml:space="preserve" text-anchor="start" x="853.88" y="-901.95" font-family="Times New Roman,Times,Liberation Serif,serif" font-size="14.00">int</text>
<polygon fill="none" stroke="black" points="618.75,-873.25 618.75,-895.75 735.75,-895.75 735.75,-873.25 618.75,-873.25"/>
<text xml:space="preserve" text-anchor="start" x="632.62" y="-879.45" font-family="Times New Roman,Times,Liberation Serif,serif" font-size="14.00">coverage_policy</text>
<polygon fill="none" stroke="black" points="735.75,-873.25 735.75,-895.75 986.25,-895.75 986.25,-873.25 735.75,-873.25"/>
<text xml:space="preserve" text-anchor="start" x="780.38" y="-879.45" font-family="Times New Roman,Times,Liberation Serif,serif" font-size="14.00">Literal[&#39;error&#39;, &#39;warn&#39;, &#39;ignore&#39;]</text>
</a>
</g>
</g>
<!-- hydromodpy.simulation.planning.config.SimulationConfig&#45;&gt;hydromodpy.simulation.planning.config.SimulationTimeConfig -->
<g id="edge3" class="edge">
<title>hydromodpy.simulation.planning.config.SimulationConfig:e&#45;&gt;hydromodpy.simulation.planning.config.SimulationTimeConfig:w</title>
<path fill="none" stroke="black" d="M520.5,-722.52C638.35,-735.81 493.71,-997.79 604,-1018.24"/>
<polyline fill="none" stroke="black" points="510.75,-722 515.74,-722.27"/>
<polyline fill="none" stroke="black" points="515.74,-722.27 520.74,-722.54"/>
<polyline fill="none" stroke="black" points="618.75,-1019.5 613.77,-1019.07"/>
<polygon fill="black" stroke="black" points="613.2,-1014.01 612.35,-1023.97 610.35,-1023.8 611.21,-1013.84 613.2,-1014.01"/>
<polyline fill="none" stroke="black" points="613.77,-1019.07 608.79,-1018.65"/>
<polygon fill="black" stroke="black" points="608.22,-1013.58 607.36,-1023.54 605.37,-1023.37 606.22,-1013.41 608.22,-1013.58"/>
<polyline fill="none" stroke="black" points="608.79,-1018.65 603.8,-1018.22"/>
</g>
<!-- hydromodpy.simulation.planning.config.TransportProcessConfig -->
<g id="node6" class="node">
<title>hydromodpy.simulation.planning.config.TransportProcessConfig</title>
<g id="a_node6"><a xlink:title="hydromodpy.simulation.planning.config.TransportProcessConfig&#10;&#10;``[[simulation.process]]`` entry for a transport process.&#10;">
<polygon fill="none" stroke="black" points="728.62,-540.5 728.62,-563 876.38,-563 876.38,-540.5 728.62,-540.5"/>
<text xml:space="preserve" text-anchor="start" x="732" y="-547.7" font-family="Times New Roman,Times,Liberation Serif,serif" font-weight="bold" font-size="14.00">TransportProcessConfig</text>
<polygon fill="none" stroke="black" points="728.62,-518 728.62,-540.5 772.88,-540.5 772.88,-518 728.62,-518"/>
<text xml:space="preserve" text-anchor="start" x="745.5" y="-524.2" font-family="Times New Roman,Times,Liberation Serif,serif" font-size="14.00">id</text>
<polygon fill="none" stroke="black" points="772.88,-518 772.88,-540.5 876.38,-540.5 876.38,-518 772.88,-518"/>
<text xml:space="preserve" text-anchor="start" x="817.88" y="-524.2" font-family="Times New Roman,Times,Liberation Serif,serif" font-size="14.00">str</text>
<polygon fill="none" stroke="black" points="728.62,-495.5 728.62,-518 772.88,-518 772.88,-495.5 728.62,-495.5"/>
<text xml:space="preserve" text-anchor="start" x="739.12" y="-501.7" font-family="Times New Roman,Times,Liberation Serif,serif" font-size="14.00">type</text>
<polygon fill="none" stroke="black" points="772.88,-495.5 772.88,-518 876.38,-518 876.38,-495.5 772.88,-495.5"/>
<text xml:space="preserve" text-anchor="start" x="775.88" y="-501.7" font-family="Times New Roman,Times,Liberation Serif,serif" font-size="14.00">Literal[&#39;transport&#39;]</text>
<polygon fill="none" stroke="black" points="728.62,-473 728.62,-495.5 772.88,-495.5 772.88,-473 728.62,-473"/>
<text xml:space="preserve" text-anchor="start" x="731.62" y="-479.2" font-family="Times New Roman,Times,Liberation Serif,serif" font-size="14.00">solvers</text>
<polygon fill="none" stroke="black" points="772.88,-473 772.88,-495.5 876.38,-495.5 876.38,-473 772.88,-473"/>
<text xml:space="preserve" text-anchor="start" x="805.12" y="-479.2" font-family="Times New Roman,Times,Liberation Serif,serif" font-size="14.00">list[str]</text>
</a>
</g>
</g>
<!-- hydromodpy.simulation.planning.config.SimulationConfig&#45;&gt;hydromodpy.simulation.planning.config.TransportProcessConfig -->
<g id="edge4" class="edge">
<title>hydromodpy.simulation.planning.config.SimulationConfig:e&#45;&gt;hydromodpy.simulation.planning.config.TransportProcessConfig:w</title>
<path fill="none" stroke="black" d="M520.53,-698.93C579.86,-691.65 560.86,-616.26 618.75,-581 656.86,-557.79 673.7,-552.72 712.33,-551.89"/>
<polyline fill="none" stroke="black" points="510.75,-699.5 515.74,-699.21"/>
<polyline fill="none" stroke="black" points="515.74,-699.21 520.73,-698.92"/>
<polygon fill="black" stroke="black" points="717.29,-551.84 727.33,-556.25 722.63,-551.8 726.96,-551.76 726.96,-551.76 726.96,-551.76 722.63,-551.8 727.25,-547.25 717.29,-551.84"/>
<polyline fill="none" stroke="black" points="716.07,-551.86 711.07,-551.9"/>
</g>
<!-- hydromodpy.simulation.planning.results_config.ResultsConfig -->
<g id="node7" class="node">
<title>hydromodpy.simulation.planning.results_config.ResultsConfig</title>
<g id="a_node7"><a xlink:title="hydromodpy.simulation.planning.results_config.ResultsConfig&#10;&#10;Configuration for ``[simulation.results]``.&#10;&#10;Controls whether simulation outputs are stored in the Catalog and&#10;which derived variables are computed. Automated export formats live in the&#10;top&#45;level ``[export]`` section (:class:`ExportConfig`), not here.&#10;">
<polygon fill="none" stroke="black" points="699.75,-414 699.75,-436.5 905.25,-436.5 905.25,-414 699.75,-414"/>
<text xml:space="preserve" text-anchor="start" x="762" y="-421.2" font-family="Times New Roman,Times,Liberation Serif,serif" font-weight="bold" font-size="14.00">ResultsConfig</text>
<polygon fill="none" stroke="black" points="699.75,-391.5 699.75,-414 801,-414 801,-391.5 699.75,-391.5"/>
<text xml:space="preserve" text-anchor="start" x="720.38" y="-397.7" font-family="Times New Roman,Times,Liberation Serif,serif" font-size="14.00">persistence</text>
<polygon fill="none" stroke="black" points="801,-391.5 801,-414 905.25,-414 905.25,-391.5 801,-391.5"/>
<text xml:space="preserve" text-anchor="start" x="804" y="-397.7" font-family="Times New Roman,Times,Liberation Serif,serif" font-size="14.00">PersistenceConfig</text>
<polygon fill="none" stroke="black" points="699.75,-369 699.75,-391.5 801,-391.5 801,-369 699.75,-369"/>
<text xml:space="preserve" text-anchor="start" x="702.75" y="-375.2" font-family="Times New Roman,Times,Liberation Serif,serif" font-size="14.00">keep_solver_files</text>
<polygon fill="none" stroke="black" points="801,-369 801,-391.5 905.25,-391.5 905.25,-369 801,-369"/>
<text xml:space="preserve" text-anchor="start" x="841.12" y="-375.2" font-family="Times New Roman,Times,Liberation Serif,serif" font-size="14.00">bool</text>
<polygon fill="none" stroke="black" points="699.75,-346.5 699.75,-369 801,-369 801,-346.5 699.75,-346.5"/>
<text xml:space="preserve" text-anchor="start" x="711.38" y="-352.7" font-family="Times New Roman,Times,Liberation Serif,serif" font-size="14.00">solver_scratch</text>
<polygon fill="none" stroke="black" points="801,-346.5 801,-369 905.25,-369 905.25,-346.5 801,-346.5"/>
<text xml:space="preserve" text-anchor="start" x="846.38" y="-352.7" font-family="Times New Roman,Times,Liberation Serif,serif" font-size="14.00">str</text>
<polygon fill="none" stroke="black" points="699.75,-324 699.75,-346.5 801,-346.5 801,-324 699.75,-324"/>
<text xml:space="preserve" text-anchor="start" x="730.12" y="-330.2" font-family="Times New Roman,Times,Liberation Serif,serif" font-size="14.00">derived</text>
<polygon fill="none" stroke="black" points="801,-324 801,-346.5 905.25,-346.5 905.25,-324 801,-324"/>
<text xml:space="preserve" text-anchor="start" x="812.62" y="-330.2" font-family="Times New Roman,Times,Liberation Serif,serif" font-size="14.00">DerivedConfig</text>
<polygon fill="none" stroke="black" points="699.75,-301.5 699.75,-324 801,-324 801,-301.5 699.75,-301.5"/>
<text xml:space="preserve" text-anchor="start" x="732" y="-307.7" font-family="Times New Roman,Times,Liberation Serif,serif" font-size="14.00">budget</text>
<polygon fill="none" stroke="black" points="801,-301.5 801,-324 905.25,-324 905.25,-301.5 801,-301.5"/>
<text xml:space="preserve" text-anchor="start" x="814.88" y="-307.7" font-family="Times New Roman,Times,Liberation Serif,serif" font-size="14.00">BudgetConfig</text>
</a>
</g>
</g>
<!-- hydromodpy.simulation.planning.config.SimulationConfig&#45;&gt;hydromodpy.simulation.planning.results_config.ResultsConfig -->
<g id="edge5" class="edge">
<title>hydromodpy.simulation.planning.config.SimulationConfig:e&#45;&gt;hydromodpy.simulation.planning.results_config.ResultsConfig:w</title>
<path fill="none" stroke="black" d="M520.48,-676.57C615.45,-667.81 540.04,-526.44 618.75,-455 642.89,-433.09 656.61,-426.87 684.06,-425.55"/>
<polyline fill="none" stroke="black" points="510.75,-677 515.75,-676.78"/>
<polyline fill="none" stroke="black" points="515.75,-676.78 520.74,-676.56"/>
<polyline fill="none" stroke="black" points="698.75,-425.25 693.75,-425.35"/>
<polygon fill="black" stroke="black" points="692.65,-420.37 692.85,-430.37 690.85,-430.41 690.65,-420.41 692.65,-420.37"/>
<polyline fill="none" stroke="black" points="693.75,-425.35 688.75,-425.45"/>
<polygon fill="black" stroke="black" points="687.65,-420.48 687.85,-430.47 685.85,-430.51 685.65,-420.52 687.65,-420.48"/>
<polyline fill="none" stroke="black" points="688.75,-425.45 683.75,-425.56"/>
</g>
<!-- hydromodpy.simulation.planning.results_config.ResultsConfig&#45;&gt;hydromodpy.core.config_kit.persistence.PersistenceConfig -->
<g id="edge6" class="edge">
<title>hydromodpy.simulation.planning.results_config.ResultsConfig:e&#45;&gt;hydromodpy.core.config_kit.persistence.PersistenceConfig:w</title>
<path fill="none" stroke="black" d="M916.19,-403.18C1001.39,-410.83 997.64,-517.12 1079.46,-528.51"/>
<polyline fill="none" stroke="black" points="906.25,-402.75 911.25,-402.97"/>
<polyline fill="none" stroke="black" points="911.25,-402.97 916.24,-403.19"/>
<polyline fill="none" stroke="black" points="1094.25,-529.5 1089.26,-529.17"/>
<polygon fill="black" stroke="black" points="1088.6,-524.11 1087.93,-534.09 1085.93,-533.96 1086.6,-523.98 1088.6,-524.11"/>
<polyline fill="none" stroke="black" points="1089.26,-529.17 1084.27,-528.83"/>
<polygon fill="black" stroke="black" points="1083.61,-523.78 1082.94,-533.76 1080.95,-533.62 1081.61,-523.64 1083.61,-523.78"/>
<polyline fill="none" stroke="black" points="1084.27,-528.83 1079.28,-528.5"/>
</g>
<!-- hydromodpy.simulation.planning.results_config.BudgetConfig -->
<g id="node8" class="node">
<title>hydromodpy.simulation.planning.results_config.BudgetConfig</title>
<g id="a_node8"><a xlink:title="hydromodpy.simulation.planning.results_config.BudgetConfig&#10;&#10;Budget extraction configuration.&#10;">
<polygon fill="none" stroke="black" points="1209,-41 1209,-63.5 1317,-63.5 1317,-41 1209,-41"/>
<text xml:space="preserve" text-anchor="start" x="1222.88" y="-48.2" font-family="Times New Roman,Times,Liberation Serif,serif" font-weight="bold" font-size="14.00">BudgetConfig</text>
<polygon fill="none" stroke="black" points="1209,-18.5 1209,-41 1287,-41 1287,-18.5 1209,-18.5"/>
<text xml:space="preserve" text-anchor="start" x="1212" y="-24.7" font-family="Times New Roman,Times,Liberation Serif,serif" font-size="14.00">spatial_fields</text>
<polygon fill="none" stroke="black" points="1287,-18.5 1287,-41 1317,-41 1317,-18.5 1287,-18.5"/>
<text xml:space="preserve" text-anchor="start" x="1290" y="-24.7" font-family="Times New Roman,Times,Liberation Serif,serif" font-size="14.00">bool</text>
</a>
</g>
</g>
<!-- hydromodpy.simulation.planning.results_config.ResultsConfig&#45;&gt;hydromodpy.simulation.planning.results_config.BudgetConfig -->
<g id="edge7" class="edge">
<title>hydromodpy.simulation.planning.results_config.ResultsConfig:e&#45;&gt;hydromodpy.simulation.planning.results_config.BudgetConfig:w</title>
<path fill="none" stroke="black" d="M915.99,-312.44C1036.12,-304.66 985.31,-150.58 1094.25,-81 1133.73,-55.78 1152,-52.67 1193.12,-52.3"/>
<polyline fill="none" stroke="black" points="906.25,-312.75 911.25,-312.59"/>
<polyline fill="none" stroke="black" points="911.25,-312.59 916.25,-312.44"/>
<polyline fill="none" stroke="black" points="1208,-52.25 1203,-52.27"/>
<polygon fill="black" stroke="black" points="1201.98,-47.27 1202.02,-57.27 1200.02,-57.28 1199.98,-47.28 1201.98,-47.27"/>
<polyline fill="none" stroke="black" points="1203,-52.27 1198,-52.28"/>
<polygon fill="black" stroke="black" points="1196.98,-47.29 1197.02,-57.29 1195.02,-57.29 1194.98,-47.29 1196.98,-47.29"/>
<polyline fill="none" stroke="black" points="1198,-52.28 1193,-52.3"/>
</g>
<!-- hydromodpy.simulation.planning.results_config.DerivedConfig -->
<g id="node9" class="node">
<title>hydromodpy.simulation.planning.results_config.DerivedConfig</title>
<g id="a_node9"><a xlink:title="hydromodpy.simulation.planning.results_config.DerivedConfig&#10;&#10;Toggle flags for derived variable computation.&#10;&#10;There is no ``groundwater_flux`` flag: no backend stores the intercell&#10;face flows it would need. MODFLOW 6 filters FLOW&#45;JA&#45;FACE out of the&#10;per&#45;cell budget (it is an antisymmetric vector record, not a scalar&#10;stress term), Boussinesq has no face record at all, and the derivation&#10;could only ever fail after the solve. The flag was removed with its&#10;computation rather than kept as a run&#45;killing option.&#10;">
<polygon fill="none" stroke="black" points="1171.88,-324.25 1171.88,-346.75 1354.12,-346.75 1354.12,-324.25 1171.88,-324.25"/>
<text xml:space="preserve" text-anchor="start" x="1220.62" y="-331.45" font-family="Times New Roman,Times,Liberation Serif,serif" font-weight="bold" font-size="14.00">DerivedConfig</text>
<polygon fill="none" stroke="black" points="1171.88,-301.75 1171.88,-324.25 1324.12,-324.25 1324.12,-301.75 1171.88,-301.75"/>
<text xml:space="preserve" text-anchor="start" x="1191.75" y="-307.95" font-family="Times New Roman,Times,Liberation Serif,serif" font-size="14.00">watertable_elevation</text>
<polygon fill="none" stroke="black" points="1324.12,-301.75 1324.12,-324.25 1354.12,-324.25 1354.12,-301.75 1324.12,-301.75"/>
<text xml:space="preserve" text-anchor="start" x="1327.12" y="-307.95" font-family="Times New Roman,Times,Liberation Serif,serif" font-size="14.00">bool</text>
<polygon fill="none" stroke="black" points="1171.88,-279.25 1171.88,-301.75 1324.12,-301.75 1324.12,-279.25 1171.88,-279.25"/>
<text xml:space="preserve" text-anchor="start" x="1201.5" y="-285.45" font-family="Times New Roman,Times,Liberation Serif,serif" font-size="14.00">watertable_depth</text>
<polygon fill="none" stroke="black" points="1324.12,-279.25 1324.12,-301.75 1354.12,-301.75 1354.12,-279.25 1324.12,-279.25"/>
<text xml:space="preserve" text-anchor="start" x="1327.12" y="-285.45" font-family="Times New Roman,Times,Liberation Serif,serif" font-size="14.00">bool</text>
<polygon fill="none" stroke="black" points="1171.88,-256.75 1171.88,-279.25 1324.12,-279.25 1324.12,-256.75 1171.88,-256.75"/>
<text xml:space="preserve" text-anchor="start" x="1209.38" y="-262.95" font-family="Times New Roman,Times,Liberation Serif,serif" font-size="14.00">seepage_areas</text>
<polygon fill="none" stroke="black" points="1324.12,-256.75 1324.12,-279.25 1354.12,-279.25 1354.12,-256.75 1324.12,-256.75"/>
<text xml:space="preserve" text-anchor="start" x="1327.12" y="-262.95" font-family="Times New Roman,Times,Liberation Serif,serif" font-size="14.00">bool</text>
<polygon fill="none" stroke="black" points="1171.88,-234.25 1171.88,-256.75 1324.12,-256.75 1324.12,-234.25 1171.88,-234.25"/>
<text xml:space="preserve" text-anchor="start" x="1215" y="-240.45" font-family="Times New Roman,Times,Liberation Serif,serif" font-size="14.00">release_flux</text>
<polygon fill="none" stroke="black" points="1324.12,-234.25 1324.12,-256.75 1354.12,-256.75 1354.12,-234.25 1324.12,-234.25"/>
<text xml:space="preserve" text-anchor="start" x="1327.12" y="-240.45" font-family="Times New Roman,Times,Liberation Serif,serif" font-size="14.00">bool</text>
<polygon fill="none" stroke="black" points="1171.88,-211.75 1171.88,-234.25 1324.12,-234.25 1324.12,-211.75 1171.88,-211.75"/>
<text xml:space="preserve" text-anchor="start" x="1197" y="-217.95" font-family="Times New Roman,Times,Liberation Serif,serif" font-size="14.00">accumulation_flux</text>
<polygon fill="none" stroke="black" points="1324.12,-211.75 1324.12,-234.25 1354.12,-234.25 1354.12,-211.75 1324.12,-211.75"/>
<text xml:space="preserve" text-anchor="start" x="1327.12" y="-217.95" font-family="Times New Roman,Times,Liberation Serif,serif" font-size="14.00">bool</text>
<polygon fill="none" stroke="black" points="1171.88,-189.25 1171.88,-211.75 1324.12,-211.75 1324.12,-189.25 1171.88,-189.25"/>
<text xml:space="preserve" text-anchor="start" x="1174.88" y="-195.45" font-family="Times New Roman,Times,Liberation Serif,serif" font-size="14.00">release_accumulation_flux</text>
<polygon fill="none" stroke="black" points="1324.12,-189.25 1324.12,-211.75 1354.12,-211.75 1354.12,-189.25 1324.12,-189.25"/>
<text xml:space="preserve" text-anchor="start" x="1327.12" y="-195.45" font-family="Times New Roman,Times,Liberation Serif,serif" font-size="14.00">bool</text>
<polygon fill="none" stroke="black" points="1171.88,-166.75 1171.88,-189.25 1324.12,-189.25 1324.12,-166.75 1171.88,-166.75"/>
<text xml:space="preserve" text-anchor="start" x="1209.75" y="-172.95" font-family="Times New Roman,Times,Liberation Serif,serif" font-size="14.00">outflow_drain</text>
<polygon fill="none" stroke="black" points="1324.12,-166.75 1324.12,-189.25 1354.12,-189.25 1354.12,-166.75 1324.12,-166.75"/>
<text xml:space="preserve" text-anchor="start" x="1327.12" y="-172.95" font-family="Times New Roman,Times,Liberation Serif,serif" font-size="14.00">bool</text>
<polygon fill="none" stroke="black" points="1171.88,-144.25 1171.88,-166.75 1324.12,-166.75 1324.12,-144.25 1171.88,-144.25"/>
<text xml:space="preserve" text-anchor="start" x="1186.5" y="-150.45" font-family="Times New Roman,Times,Liberation Serif,serif" font-size="14.00">concentration_seepage</text>
<polygon fill="none" stroke="black" points="1324.12,-144.25 1324.12,-166.75 1354.12,-166.75 1354.12,-144.25 1324.12,-144.25"/>
<text xml:space="preserve" text-anchor="start" x="1327.12" y="-150.45" font-family="Times New Roman,Times,Liberation Serif,serif" font-size="14.00">bool</text>
<polygon fill="none" stroke="black" points="1171.88,-121.75 1171.88,-144.25 1324.12,-144.25 1324.12,-121.75 1171.88,-121.75"/>
<text xml:space="preserve" text-anchor="start" x="1209.38" y="-127.95" font-family="Times New Roman,Times,Liberation Serif,serif" font-size="14.00">mass_seepage</text>
<polygon fill="none" stroke="black" points="1324.12,-121.75 1324.12,-144.25 1354.12,-144.25 1354.12,-121.75 1324.12,-121.75"/>
<text xml:space="preserve" text-anchor="start" x="1327.12" y="-127.95" font-family="Times New Roman,Times,Liberation Serif,serif" font-size="14.00">bool</text>
<polygon fill="none" stroke="black" points="1171.88,-99.25 1171.88,-121.75 1324.12,-121.75 1324.12,-99.25 1171.88,-99.25"/>
<text xml:space="preserve" text-anchor="start" x="1196.25" y="-105.45" font-family="Times New Roman,Times,Liberation Serif,serif" font-size="14.00">mass_accumulated</text>
<polygon fill="none" stroke="black" points="1324.12,-99.25 1324.12,-121.75 1354.12,-121.75 1354.12,-99.25 1324.12,-99.25"/>
<text xml:space="preserve" text-anchor="start" x="1327.12" y="-105.45" font-family="Times New Roman,Times,Liberation Serif,serif" font-size="14.00">bool</text>
</a>
</g>
</g>
<!-- hydromodpy.simulation.planning.results_config.ResultsConfig&#45;&gt;hydromodpy.simulation.planning.results_config.DerivedConfig -->
<g id="edge8" class="edge">
<title>hydromodpy.simulation.planning.results_config.ResultsConfig:e&#45;&gt;hydromodpy.simulation.planning.results_config.DerivedConfig:w</title>
<path fill="none" stroke="black" d="M916.03,-335.25C1020.68,-335.26 1053.65,-335.48 1155.96,-335.5"/>
<polyline fill="none" stroke="black" points="906.25,-335.25 911.25,-335.25"/>
<polyline fill="none" stroke="black" points="911.25,-335.25 916.25,-335.25"/>
<polyline fill="none" stroke="black" points="1170.88,-335.5 1165.88,-335.5"/>
<polygon fill="black" stroke="black" points="1164.88,-330.5 1164.87,-340.5 1162.87,-340.5 1162.88,-330.5 1164.88,-330.5"/>
<polyline fill="none" stroke="black" points="1165.88,-335.5 1160.88,-335.5"/>
<polygon fill="black" stroke="black" points="1159.88,-330.5 1159.87,-340.5 1157.87,-340.5 1157.88,-330.5 1159.88,-330.5"/>
<polyline fill="none" stroke="black" points="1160.88,-335.5 1155.88,-335.5"/>
</g>
</g>
</svg>
