<?xml version="1.0" encoding="UTF-8" standalone="no"?>
<!DOCTYPE svg PUBLIC "-//W3C//DTD SVG 1.1//EN"
 "http://www.w3.org/Graphics/SVG/1.1/DTD/svg11.dtd">
<!-- Generated by graphviz version 14.1.4 (20260321.0153)
 -->
<!-- Title: Entity Relationship Diagram created by erdantic Pages: 1 -->
<svg width="736pt" height="1134pt"
 viewBox="0.00 0.00 736.00 1134.00" xmlns="http://www.w3.org/2000/svg" xmlns:xlink="http://www.w3.org/1999/xlink">
<g id="graph0" class="graph" transform="scale(1 1) rotate(0) translate(4 1129.5)">
<title>Entity Relationship Diagram created by erdantic</title>
<polygon fill="white" stroke="none" points="-4,4 -4,-1129.5 732.25,-1129.5 732.25,4 -4,4"/>
<text xml:space="preserve" text-anchor="middle" x="364.12" y="-5.95" font-family="Times New Roman,Times,Liberation Serif,serif" font-size="9.00" fill="#a8a8a8">Created by erdantic v1.2.1 &lt;https://github.com/drivendataorg/erdantic&gt;</text>
<!-- hydromodpy.analysis.testbed.config.TestbedCatalogConfig -->
<g id="node1" class="node">
<title>hydromodpy.analysis.testbed.config.TestbedCatalogConfig</title>
<g id="a_node1"><a xlink:title="hydromodpy.analysis.testbed.config.TestbedCatalogConfig&#10;&#10;Catalog source used to generate testbed variants.&#10;">
<polygon fill="none" stroke="black" points="435,-810.5 435,-833 728.25,-833 728.25,-810.5 435,-810.5"/>
<text xml:space="preserve" text-anchor="start" x="517.12" y="-817.7" font-family="Times New Roman,Times,Liberation Serif,serif" font-weight="bold" font-size="14.00">TestbedCatalogConfig</text>
<polygon fill="none" stroke="black" points="435,-788 435,-810.5 597.75,-810.5 597.75,-788 435,-788"/>
<text xml:space="preserve" text-anchor="start" x="504.75" y="-794.75" font-family="Times New Roman,Times,Liberation Serif,serif" font-size="14.00">path</text>
<polygon fill="none" stroke="black" points="597.75,-788 597.75,-810.5 728.25,-810.5 728.25,-788 597.75,-788"/>
<text xml:space="preserve" text-anchor="start" x="651" y="-794.75" font-family="Times New Roman,Times,Liberation Serif,serif" font-size="14.00">Path</text>
<polygon fill="none" stroke="black" points="435,-765.5 435,-788 597.75,-788 597.75,-765.5 435,-765.5"/>
<text xml:space="preserve" text-anchor="start" x="498" y="-772.25" font-family="Times New Roman,Times,Liberation Serif,serif" font-size="14.00">format</text>
<polygon fill="none" stroke="black" points="597.75,-765.5 597.75,-788 728.25,-788 728.25,-765.5 597.75,-765.5"/>
<text xml:space="preserve" text-anchor="start" x="656.25" y="-772.25" font-family="Times New Roman,Times,Liberation Serif,serif" font-size="14.00">str</text>
<polygon fill="none" stroke="black" points="435,-743 435,-765.5 597.75,-765.5 597.75,-743 435,-743"/>
<text xml:space="preserve" text-anchor="start" x="495.38" y="-749.75" font-family="Times New Roman,Times,Liberation Serif,serif" font-size="14.00">id_field</text>
<polygon fill="none" stroke="black" points="597.75,-743 597.75,-765.5 728.25,-765.5 728.25,-743 597.75,-743"/>
<text xml:space="preserve" text-anchor="start" x="656.25" y="-749.75" font-family="Times New Roman,Times,Liberation Serif,serif" font-size="14.00">str</text>
<polygon fill="none" stroke="black" points="435,-720.5 435,-743 597.75,-743 597.75,-720.5 435,-720.5"/>
<text xml:space="preserve" text-anchor="start" x="487.5" y="-727.25" font-family="Times New Roman,Times,Liberation Serif,serif" font-size="14.00">label_field</text>
<polygon fill="none" stroke="black" points="597.75,-720.5 597.75,-743 728.25,-743 728.25,-720.5 597.75,-720.5"/>
<text xml:space="preserve" text-anchor="start" x="636.38" y="-727.25" font-family="Times New Roman,Times,Liberation Serif,serif" font-size="14.00">str | None</text>
<polygon fill="none" stroke="black" points="435,-698 435,-720.5 597.75,-720.5 597.75,-698 435,-698"/>
<text xml:space="preserve" text-anchor="start" x="489.75" y="-704.75" font-family="Times New Roman,Times,Liberation Serif,serif" font-size="14.00">axis_field</text>
<polygon fill="none" stroke="black" points="597.75,-698 597.75,-720.5 728.25,-720.5 728.25,-698 597.75,-698"/>
<text xml:space="preserve" text-anchor="start" x="636.38" y="-704.75" font-family="Times New Roman,Times,Liberation Serif,serif" font-size="14.00">str | None</text>
<polygon fill="none" stroke="black" points="435,-675.5 435,-698 597.75,-698 597.75,-675.5 435,-675.5"/>
<text xml:space="preserve" text-anchor="start" x="479.62" y="-682.25" font-family="Times New Roman,Times,Liberation Serif,serif" font-size="14.00">enabled_field</text>
<polygon fill="none" stroke="black" points="597.75,-675.5 597.75,-698 728.25,-698 728.25,-675.5 597.75,-675.5"/>
<text xml:space="preserve" text-anchor="start" x="636.38" y="-682.25" font-family="Times New Roman,Times,Liberation Serif,serif" font-size="14.00">str | None</text>
<polygon fill="none" stroke="black" points="435,-653 435,-675.5 597.75,-675.5 597.75,-653 435,-653"/>
<text xml:space="preserve" text-anchor="start" x="489.75" y="-659.75" font-family="Times New Roman,Times,Liberation Serif,serif" font-size="14.00">tags_field</text>
<polygon fill="none" stroke="black" points="597.75,-653 597.75,-675.5 728.25,-675.5 728.25,-653 597.75,-653"/>
<text xml:space="preserve" text-anchor="start" x="636.38" y="-659.75" font-family="Times New Roman,Times,Liberation Serif,serif" font-size="14.00">str | None</text>
<polygon fill="none" stroke="black" points="435,-630.5 435,-653 597.75,-653 597.75,-630.5 435,-630.5"/>
<text xml:space="preserve" text-anchor="start" x="475.5" y="-637.25" font-family="Times New Roman,Times,Liberation Serif,serif" font-size="14.00">required_fields</text>
<polygon fill="none" stroke="black" points="597.75,-630.5 597.75,-653 728.25,-653 728.25,-630.5 597.75,-630.5"/>
<text xml:space="preserve" text-anchor="start" x="629.25" y="-637.25" font-family="Times New Roman,Times,Liberation Serif,serif" font-size="14.00">tuple[str, ...]</text>
<polygon fill="none" stroke="black" points="435,-608 435,-630.5 597.75,-630.5 597.75,-608 435,-608"/>
<text xml:space="preserve" text-anchor="start" x="486.38" y="-614.75" font-family="Times New Roman,Times,Liberation Serif,serif" font-size="14.00">path_fields</text>
<polygon fill="none" stroke="black" points="597.75,-608 597.75,-630.5 728.25,-630.5 728.25,-608 597.75,-608"/>
<text xml:space="preserve" text-anchor="start" x="629.25" y="-614.75" font-family="Times New Roman,Times,Liberation Serif,serif" font-size="14.00">tuple[str, ...]</text>
<polygon fill="none" stroke="black" points="435,-585.5 435,-608 597.75,-608 597.75,-585.5 435,-585.5"/>
<text xml:space="preserve" text-anchor="start" x="480" y="-592.25" font-family="Times New Roman,Times,Liberation Serif,serif" font-size="14.00">tag_separator</text>
<polygon fill="none" stroke="black" points="597.75,-585.5 597.75,-608 728.25,-608 728.25,-585.5 597.75,-585.5"/>
<text xml:space="preserve" text-anchor="start" x="656.25" y="-592.25" font-family="Times New Roman,Times,Liberation Serif,serif" font-size="14.00">str</text>
<polygon fill="none" stroke="black" points="435,-563 435,-585.5 597.75,-585.5 597.75,-563 435,-563"/>
<text xml:space="preserve" text-anchor="start" x="483.38" y="-569.75" font-family="Times New Roman,Times,Liberation Serif,serif" font-size="14.00">field_equals</text>
<polygon fill="none" stroke="black" points="597.75,-563 597.75,-585.5 728.25,-585.5 728.25,-563 597.75,-563"/>
<text xml:space="preserve" text-anchor="start" x="600.75" y="-569.75" font-family="Times New Roman,Times,Liberation Serif,serif" font-size="14.00">tuple[tuple[str, str], ...]</text>
<polygon fill="none" stroke="black" points="435,-540.5 435,-563 597.75,-563 597.75,-540.5 435,-540.5"/>
<text xml:space="preserve" text-anchor="start" x="505.5" y="-547.25" font-family="Times New Roman,Times,Liberation Serif,serif" font-size="14.00">tags</text>
<polygon fill="none" stroke="black" points="597.75,-540.5 597.75,-563 728.25,-563 728.25,-540.5 597.75,-540.5"/>
<text xml:space="preserve" text-anchor="start" x="629.25" y="-547.25" font-family="Times New Roman,Times,Liberation Serif,serif" font-size="14.00">tuple[str, ...]</text>
<polygon fill="none" stroke="black" points="435,-518 435,-540.5 597.75,-540.5 597.75,-518 435,-518"/>
<text xml:space="preserve" text-anchor="start" x="481.12" y="-524.75" font-family="Times New Roman,Times,Liberation Serif,serif" font-size="14.00">exclude_tags</text>
<polygon fill="none" stroke="black" points="597.75,-518 597.75,-540.5 728.25,-540.5 728.25,-518 597.75,-518"/>
<text xml:space="preserve" text-anchor="start" x="629.25" y="-524.75" font-family="Times New Roman,Times,Liberation Serif,serif" font-size="14.00">tuple[str, ...]</text>
<polygon fill="none" stroke="black" points="435,-495.5 435,-518 597.75,-518 597.75,-495.5 435,-495.5"/>
<text xml:space="preserve" text-anchor="start" x="470.62" y="-502.25" font-family="Times New Roman,Times,Liberation Serif,serif" font-size="14.00">include_disabled</text>
<polygon fill="none" stroke="black" points="597.75,-495.5 597.75,-518 728.25,-518 728.25,-495.5 597.75,-495.5"/>
<text xml:space="preserve" text-anchor="start" x="651" y="-502.25" font-family="Times New Roman,Times,Liberation Serif,serif" font-size="14.00">bool</text>
<polygon fill="none" stroke="black" points="435,-473 435,-495.5 597.75,-495.5 597.75,-473 435,-473"/>
<text xml:space="preserve" text-anchor="start" x="503.25" y="-479.75" font-family="Times New Roman,Times,Liberation Serif,serif" font-size="14.00">limit</text>
<polygon fill="none" stroke="black" points="597.75,-473 597.75,-495.5 728.25,-495.5 728.25,-473 597.75,-473"/>
<text xml:space="preserve" text-anchor="start" x="636" y="-479.75" font-family="Times New Roman,Times,Liberation Serif,serif" font-size="14.00">int | None</text>
<polygon fill="none" stroke="black" points="435,-450.5 435,-473 597.75,-473 597.75,-450.5 435,-450.5"/>
<text xml:space="preserve" text-anchor="start" x="456.75" y="-457.25" font-family="Times New Roman,Times,Liberation Serif,serif" font-size="14.00">source_manifest_path</text>
<polygon fill="none" stroke="black" points="597.75,-450.5 597.75,-473 728.25,-473 728.25,-450.5 597.75,-450.5"/>
<text xml:space="preserve" text-anchor="start" x="631.12" y="-457.25" font-family="Times New Roman,Times,Liberation Serif,serif" font-size="14.00">Path | None</text>
<polygon fill="none" stroke="black" points="435,-428 435,-450.5 597.75,-450.5 597.75,-428 435,-428"/>
<text xml:space="preserve" text-anchor="start" x="438" y="-434.75" font-family="Times New Roman,Times,Liberation Serif,serif" font-size="14.00">source_manifest_output_key</text>
<polygon fill="none" stroke="black" points="597.75,-428 597.75,-450.5 728.25,-450.5 728.25,-428 597.75,-428"/>
<text xml:space="preserve" text-anchor="start" x="636.38" y="-434.75" font-family="Times New Roman,Times,Liberation Serif,serif" font-size="14.00">str | None</text>
</a>
</g>
</g>
<!-- hydromodpy.analysis.testbed.config.TestbedCatalogVariantConfig -->
<g id="node2" class="node">
<title>hydromodpy.analysis.testbed.config.TestbedCatalogVariantConfig</title>
<g id="a_node2"><a xlink:title="hydromodpy.analysis.testbed.config.TestbedCatalogVariantConfig&#10;&#10;One variant&#45;generation rule applied to rows from a testbed catalog.&#10;">
<polygon fill="none" stroke="black" points="472.5,-369.75 472.5,-392.25 690.75,-392.25 690.75,-369.75 472.5,-369.75"/>
<text xml:space="preserve" text-anchor="start" x="495" y="-376.95" font-family="Times New Roman,Times,Liberation Serif,serif" font-weight="bold" font-size="14.00">TestbedCatalogVariantConfig</text>
<polygon fill="none" stroke="black" points="472.5,-347.25 472.5,-369.75 560.25,-369.75 560.25,-347.25 472.5,-347.25"/>
<text xml:space="preserve" text-anchor="start" x="484.12" y="-354" font-family="Times New Roman,Times,Liberation Serif,serif" font-size="14.00">id_template</text>
<polygon fill="none" stroke="black" points="560.25,-347.25 560.25,-369.75 690.75,-369.75 690.75,-347.25 560.25,-347.25"/>
<text xml:space="preserve" text-anchor="start" x="598.88" y="-354" font-family="Times New Roman,Times,Liberation Serif,serif" font-size="14.00">str | None</text>
<polygon fill="none" stroke="black" points="472.5,-324.75 472.5,-347.25 560.25,-347.25 560.25,-324.75 472.5,-324.75"/>
<text xml:space="preserve" text-anchor="start" x="476.25" y="-331.5" font-family="Times New Roman,Times,Liberation Serif,serif" font-size="14.00">label_template</text>
<polygon fill="none" stroke="black" points="560.25,-324.75 560.25,-347.25 690.75,-347.25 690.75,-324.75 560.25,-324.75"/>
<text xml:space="preserve" text-anchor="start" x="598.88" y="-331.5" font-family="Times New Roman,Times,Liberation Serif,serif" font-size="14.00">str | None</text>
<polygon fill="none" stroke="black" points="472.5,-302.25 472.5,-324.75 560.25,-324.75 560.25,-302.25 472.5,-302.25"/>
<text xml:space="preserve" text-anchor="start" x="478.5" y="-309" font-family="Times New Roman,Times,Liberation Serif,serif" font-size="14.00">axis_template</text>
<polygon fill="none" stroke="black" points="560.25,-302.25 560.25,-324.75 690.75,-324.75 690.75,-302.25 560.25,-302.25"/>
<text xml:space="preserve" text-anchor="start" x="598.88" y="-309" font-family="Times New Roman,Times,Liberation Serif,serif" font-size="14.00">str | None</text>
<polygon fill="none" stroke="black" points="472.5,-279.75 472.5,-302.25 560.25,-302.25 560.25,-279.75 472.5,-279.75"/>
<text xml:space="preserve" text-anchor="start" x="495.38" y="-286.5" font-family="Times New Roman,Times,Liberation Serif,serif" font-size="14.00">enabled</text>
<polygon fill="none" stroke="black" points="560.25,-279.75 560.25,-302.25 690.75,-302.25 690.75,-279.75 560.25,-279.75"/>
<text xml:space="preserve" text-anchor="start" x="613.5" y="-286.5" font-family="Times New Roman,Times,Liberation Serif,serif" font-size="14.00">bool</text>
<polygon fill="none" stroke="black" points="472.5,-257.25 472.5,-279.75 560.25,-279.75 560.25,-257.25 472.5,-257.25"/>
<text xml:space="preserve" text-anchor="start" x="496.12" y="-264" font-family="Times New Roman,Times,Liberation Serif,serif" font-size="14.00">overlay</text>
<polygon fill="none" stroke="black" points="560.25,-257.25 560.25,-279.75 690.75,-279.75 690.75,-257.25 560.25,-257.25"/>
<text xml:space="preserve" text-anchor="start" x="589.5" y="-264" font-family="Times New Roman,Times,Liberation Serif,serif" font-size="14.00">dict[str, Any]</text>
<polygon fill="none" stroke="black" points="472.5,-234.75 472.5,-257.25 560.25,-257.25 560.25,-234.75 472.5,-234.75"/>
<text xml:space="preserve" text-anchor="start" x="475.5" y="-241.5" font-family="Times New Roman,Times,Liberation Serif,serif" font-size="14.00">required_fields</text>
<polygon fill="none" stroke="black" points="560.25,-234.75 560.25,-257.25 690.75,-257.25 690.75,-234.75 560.25,-234.75"/>
<text xml:space="preserve" text-anchor="start" x="591.75" y="-241.5" font-family="Times New Roman,Times,Liberation Serif,serif" font-size="14.00">tuple[str, ...]</text>
<polygon fill="none" stroke="black" points="472.5,-212.25 472.5,-234.75 560.25,-234.75 560.25,-212.25 472.5,-212.25"/>
<text xml:space="preserve" text-anchor="start" x="483.38" y="-219" font-family="Times New Roman,Times,Liberation Serif,serif" font-size="14.00">field_equals</text>
<polygon fill="none" stroke="black" points="560.25,-212.25 560.25,-234.75 690.75,-234.75 690.75,-212.25 560.25,-212.25"/>
<text xml:space="preserve" text-anchor="start" x="563.25" y="-219" font-family="Times New Roman,Times,Liberation Serif,serif" font-size="14.00">tuple[tuple[str, str], ...]</text>
<polygon fill="none" stroke="black" points="472.5,-189.75 472.5,-212.25 560.25,-212.25 560.25,-189.75 472.5,-189.75"/>
<text xml:space="preserve" text-anchor="start" x="505.5" y="-196.5" font-family="Times New Roman,Times,Liberation Serif,serif" font-size="14.00">tags</text>
<polygon fill="none" stroke="black" points="560.25,-189.75 560.25,-212.25 690.75,-212.25 690.75,-189.75 560.25,-189.75"/>
<text xml:space="preserve" text-anchor="start" x="591.75" y="-196.5" font-family="Times New Roman,Times,Liberation Serif,serif" font-size="14.00">tuple[str, ...]</text>
<polygon fill="none" stroke="black" points="472.5,-167.25 472.5,-189.75 560.25,-189.75 560.25,-167.25 472.5,-167.25"/>
<text xml:space="preserve" text-anchor="start" x="481.12" y="-174" font-family="Times New Roman,Times,Liberation Serif,serif" font-size="14.00">exclude_tags</text>
<polygon fill="none" stroke="black" points="560.25,-167.25 560.25,-189.75 690.75,-189.75 690.75,-167.25 560.25,-167.25"/>
<text xml:space="preserve" text-anchor="start" x="591.75" y="-174" font-family="Times New Roman,Times,Liberation Serif,serif" font-size="14.00">tuple[str, ...]</text>
<polygon fill="none" stroke="black" points="472.5,-144.75 472.5,-167.25 560.25,-167.25 560.25,-144.75 472.5,-144.75"/>
<text xml:space="preserve" text-anchor="start" x="503.25" y="-151.5" font-family="Times New Roman,Times,Liberation Serif,serif" font-size="14.00">limit</text>
<polygon fill="none" stroke="black" points="560.25,-144.75 560.25,-167.25 690.75,-167.25 690.75,-144.75 560.25,-144.75"/>
<text xml:space="preserve" text-anchor="start" x="598.5" y="-151.5" font-family="Times New Roman,Times,Liberation Serif,serif" font-size="14.00">int | None</text>
</a>
</g>
</g>
<!-- hydromodpy.analysis.testbed.config.TestbedConfig -->
<g id="node3" class="node">
<title>hydromodpy.analysis.testbed.config.TestbedConfig</title>
<g id="a_node3"><a xlink:title="hydromodpy.analysis.testbed.config.TestbedConfig&#10;&#10;Validated configuration for one method testbed.&#10;">
<polygon fill="none" stroke="black" points="0,-1103 0,-1125.5 327,-1125.5 327,-1103 0,-1103"/>
<text xml:space="preserve" text-anchor="start" x="121.5" y="-1110.2" font-family="Times New Roman,Times,Liberation Serif,serif" font-weight="bold" font-size="14.00">TestbedConfig</text>
<polygon fill="none" stroke="black" points="0,-1080.5 0,-1103 105.75,-1103 105.75,-1080.5 0,-1080.5"/>
<text xml:space="preserve" text-anchor="start" x="20.62" y="-1087.25" font-family="Times New Roman,Times,Liberation Serif,serif" font-size="14.00">config_path</text>
<polygon fill="none" stroke="black" points="105.75,-1080.5 105.75,-1103 327,-1103 327,-1080.5 105.75,-1080.5"/>
<text xml:space="preserve" text-anchor="start" x="204.38" y="-1087.25" font-family="Times New Roman,Times,Liberation Serif,serif" font-size="14.00">Path</text>
<polygon fill="none" stroke="black" points="0,-1058 0,-1080.5 105.75,-1080.5 105.75,-1058 0,-1058"/>
<text xml:space="preserve" text-anchor="start" x="30" y="-1064.75" font-family="Times New Roman,Times,Liberation Serif,serif" font-size="14.00">base_dir</text>
<polygon fill="none" stroke="black" points="105.75,-1058 105.75,-1080.5 327,-1080.5 327,-1058 105.75,-1058"/>
<text xml:space="preserve" text-anchor="start" x="204.38" y="-1064.75" font-family="Times New Roman,Times,Liberation Serif,serif" font-size="14.00">Path</text>
<polygon fill="none" stroke="black" points="0,-1035.5 0,-1058 105.75,-1058 105.75,-1035.5 0,-1035.5"/>
<text xml:space="preserve" text-anchor="start" x="47.62" y="-1042.25" font-family="Times New Roman,Times,Liberation Serif,serif" font-size="14.00">id</text>
<polygon fill="none" stroke="black" points="105.75,-1035.5 105.75,-1058 327,-1058 327,-1035.5 105.75,-1035.5"/>
<text xml:space="preserve" text-anchor="start" x="209.62" y="-1042.25" font-family="Times New Roman,Times,Liberation Serif,serif" font-size="14.00">str</text>
<polygon fill="none" stroke="black" points="0,-1013 0,-1035.5 105.75,-1035.5 105.75,-1013 0,-1013"/>
<text xml:space="preserve" text-anchor="start" x="34.88" y="-1019.75" font-family="Times New Roman,Times,Liberation Serif,serif" font-size="14.00">profile</text>
<polygon fill="none" stroke="black" points="105.75,-1013 105.75,-1035.5 327,-1035.5 327,-1013 105.75,-1013"/>
<text xml:space="preserve" text-anchor="start" x="209.62" y="-1019.75" font-family="Times New Roman,Times,Liberation Serif,serif" font-size="14.00">str</text>
<polygon fill="none" stroke="black" points="0,-990.5 0,-1013 105.75,-1013 105.75,-990.5 0,-990.5"/>
<text xml:space="preserve" text-anchor="start" x="33.75" y="-997.25" font-family="Times New Roman,Times,Liberation Serif,serif" font-size="14.00">subject</text>
<polygon fill="none" stroke="black" points="105.75,-990.5 105.75,-1013 327,-1013 327,-990.5 105.75,-990.5"/>
<text xml:space="preserve" text-anchor="start" x="209.62" y="-997.25" font-family="Times New Roman,Times,Liberation Serif,serif" font-size="14.00">str</text>
<polygon fill="none" stroke="black" points="0,-968 0,-990.5 105.75,-990.5 105.75,-968 0,-968"/>
<text xml:space="preserve" text-anchor="start" x="31.5" y="-974.75" font-family="Times New Roman,Times,Liberation Serif,serif" font-size="14.00">purpose</text>
<polygon fill="none" stroke="black" points="105.75,-968 105.75,-990.5 327,-990.5 327,-968 105.75,-968"/>
<text xml:space="preserve" text-anchor="start" x="209.62" y="-974.75" font-family="Times New Roman,Times,Liberation Serif,serif" font-size="14.00">str</text>
<polygon fill="none" stroke="black" points="0,-945.5 0,-968 105.75,-968 105.75,-945.5 0,-945.5"/>
<text xml:space="preserve" text-anchor="start" x="21.38" y="-952.25" font-family="Times New Roman,Times,Liberation Serif,serif" font-size="14.00">output_root</text>
<polygon fill="none" stroke="black" points="105.75,-945.5 105.75,-968 327,-968 327,-945.5 105.75,-945.5"/>
<text xml:space="preserve" text-anchor="start" x="204.38" y="-952.25" font-family="Times New Roman,Times,Liberation Serif,serif" font-size="14.00">Path</text>
<polygon fill="none" stroke="black" points="0,-923 0,-945.5 105.75,-945.5 105.75,-923 0,-923"/>
<text xml:space="preserve" text-anchor="start" x="32.25" y="-929.75" font-family="Times New Roman,Times,Liberation Serif,serif" font-size="14.00">execute</text>
<polygon fill="none" stroke="black" points="105.75,-923 105.75,-945.5 327,-945.5 327,-923 105.75,-923"/>
<text xml:space="preserve" text-anchor="start" x="204.38" y="-929.75" font-family="Times New Roman,Times,Liberation Serif,serif" font-size="14.00">bool</text>
<polygon fill="none" stroke="black" points="0,-900.5 0,-923 105.75,-923 105.75,-900.5 0,-900.5"/>
<text xml:space="preserve" text-anchor="start" x="3" y="-907.25" font-family="Times New Roman,Times,Liberation Serif,serif" font-size="14.00">continue_on_error</text>
<polygon fill="none" stroke="black" points="105.75,-900.5 105.75,-923 327,-923 327,-900.5 105.75,-900.5"/>
<text xml:space="preserve" text-anchor="start" x="204.38" y="-907.25" font-family="Times New Roman,Times,Liberation Serif,serif" font-size="14.00">bool</text>
<polygon fill="none" stroke="black" points="0,-878 0,-900.5 105.75,-900.5 105.75,-878 0,-878"/>
<text xml:space="preserve" text-anchor="start" x="5.25" y="-884.75" font-family="Times New Roman,Times,Liberation Serif,serif" font-size="14.00">base_config_path</text>
<polygon fill="none" stroke="black" points="105.75,-878 105.75,-900.5 327,-900.5 327,-878 105.75,-878"/>
<text xml:space="preserve" text-anchor="start" x="184.5" y="-884.75" font-family="Times New Roman,Times,Liberation Serif,serif" font-size="14.00">Path | None</text>
<polygon fill="none" stroke="black" points="0,-855.5 0,-878 105.75,-878 105.75,-855.5 0,-855.5"/>
<text xml:space="preserve" text-anchor="start" x="35.25" y="-862.25" font-family="Times New Roman,Times,Liberation Serif,serif" font-size="14.00">runner</text>
<polygon fill="none" stroke="black" points="105.75,-855.5 105.75,-878 327,-878 327,-855.5 105.75,-855.5"/>
<text xml:space="preserve" text-anchor="start" x="156.75" y="-862.25" font-family="Times New Roman,Times,Liberation Serif,serif" font-size="14.00">TestbedRunnerConfig</text>
<polygon fill="none" stroke="black" points="0,-833 0,-855.5 105.75,-855.5 105.75,-833 0,-833"/>
<text xml:space="preserve" text-anchor="start" x="31.5" y="-839.75" font-family="Times New Roman,Times,Liberation Serif,serif" font-size="14.00">variants</text>
<polygon fill="none" stroke="black" points="105.75,-833 105.75,-855.5 327,-855.5 327,-833 105.75,-833"/>
<text xml:space="preserve" text-anchor="start" x="129.75" y="-839.75" font-family="Times New Roman,Times,Liberation Serif,serif" font-size="14.00">tuple[TestbedVariantConfig, ...]</text>
<polygon fill="none" stroke="black" points="0,-810.5 0,-833 105.75,-833 105.75,-810.5 0,-810.5"/>
<text xml:space="preserve" text-anchor="start" x="33.38" y="-817.25" font-family="Times New Roman,Times,Liberation Serif,serif" font-size="14.00">catalog</text>
<polygon fill="none" stroke="black" points="105.75,-810.5 105.75,-833 327,-833 327,-810.5 105.75,-810.5"/>
<text xml:space="preserve" text-anchor="start" x="135.75" y="-817.25" font-family="Times New Roman,Times,Liberation Serif,serif" font-size="14.00">TestbedCatalogConfig | None</text>
<polygon fill="none" stroke="black" points="0,-788 0,-810.5 105.75,-810.5 105.75,-788 0,-788"/>
<text xml:space="preserve" text-anchor="start" x="8.62" y="-794.75" font-family="Times New Roman,Times,Liberation Serif,serif" font-size="14.00">catalog_variants</text>
<polygon fill="none" stroke="black" points="105.75,-788 105.75,-810.5 327,-810.5 327,-788 105.75,-788"/>
<text xml:space="preserve" text-anchor="start" x="108.75" y="-794.75" font-family="Times New Roman,Times,Liberation Serif,serif" font-size="14.00">tuple[TestbedCatalogVariantConfig, ...]</text>
<polygon fill="none" stroke="black" points="0,-765.5 0,-788 105.75,-788 105.75,-765.5 0,-765.5"/>
<text xml:space="preserve" text-anchor="start" x="32.62" y="-772.25" font-family="Times New Roman,Times,Liberation Serif,serif" font-size="14.00">metrics</text>
<polygon fill="none" stroke="black" points="105.75,-765.5 105.75,-788 327,-788 327,-765.5 105.75,-765.5"/>
<text xml:space="preserve" text-anchor="start" x="130.88" y="-772.25" font-family="Times New Roman,Times,Liberation Serif,serif" font-size="14.00">tuple[TestbedMetricConfig, ...]</text>
</a>
</g>
</g>
<!-- hydromodpy.analysis.testbed.config.TestbedConfig&#45;&gt;hydromodpy.analysis.testbed.config.TestbedCatalogConfig -->
<g id="edge1" class="edge">
<title>hydromodpy.analysis.testbed.config.TestbedConfig:e&#45;&gt;hydromodpy.analysis.testbed.config.TestbedCatalogConfig:w</title>
<path fill="none" stroke="black" d="M336.87,-821.75C372.07,-821.75 386.8,-821.75 420.08,-821.75"/>
<polyline fill="none" stroke="black" points="327,-821.75 332,-821.75"/>
<polyline fill="none" stroke="black" points="332,-821.75 337,-821.75"/>
<polyline fill="none" stroke="black" points="435,-821.75 430,-821.75"/>
<polygon fill="black" stroke="black" points="429,-816.75 429,-826.75 427,-826.75 427,-816.75 429,-816.75"/>
<polyline fill="none" stroke="black" points="430,-821.75 425,-821.75"/>
<polygon fill="black" stroke="black" points="424,-816.75 424,-826.75 422,-826.75 422,-816.75 424,-816.75"/>
<polyline fill="none" stroke="black" points="425,-821.75 420,-821.75"/>
</g>
<!-- hydromodpy.analysis.testbed.config.TestbedConfig&#45;&gt;hydromodpy.analysis.testbed.config.TestbedCatalogVariantConfig -->
<g id="edge2" class="edge">
<title>hydromodpy.analysis.testbed.config.TestbedConfig:e&#45;&gt;hydromodpy.analysis.testbed.config.TestbedCatalogVariantConfig:w</title>
<path fill="none" stroke="black" d="M336.96,-798.87C510.02,-785.08 291.37,-403.55 456.1,-381.95"/>
<polyline fill="none" stroke="black" points="327,-799.25 332,-799.06"/>
<polyline fill="none" stroke="black" points="332,-799.06 336.99,-798.87"/>
<polygon fill="black" stroke="black" points="461.19,-381.64 471.44,-385.51 466.51,-381.31 470.83,-381.04 470.83,-381.04 470.83,-381.04 466.51,-381.31 470.89,-376.53 461.19,-381.64"/>
<polyline fill="none" stroke="black" points="459.97,-381.71 454.98,-382.02"/>
</g>
<!-- hydromodpy.analysis.testbed.config.TestbedMetricConfig -->
<g id="node4" class="node">
<title>hydromodpy.analysis.testbed.config.TestbedMetricConfig</title>
<g id="a_node4"><a xlink:title="hydromodpy.analysis.testbed.config.TestbedMetricConfig&#10;&#10;One metric extracted from a child&#45;runner summary.&#10;">
<polygon fill="none" stroke="black" points="516.75,-86 516.75,-108.5 646.5,-108.5 646.5,-86 516.75,-86"/>
<text xml:space="preserve" text-anchor="start" x="519.75" y="-93.2" font-family="Times New Roman,Times,Liberation Serif,serif" font-weight="bold" font-size="14.00">TestbedMetricConfig</text>
<polygon fill="none" stroke="black" points="516.75,-63.5 516.75,-86 592.12,-86 592.12,-63.5 516.75,-63.5"/>
<text xml:space="preserve" text-anchor="start" x="539.44" y="-70.25" font-family="Times New Roman,Times,Liberation Serif,serif" font-size="14.00">name</text>
<polygon fill="none" stroke="black" points="592.12,-63.5 592.12,-86 646.5,-86 646.5,-63.5 592.12,-63.5"/>
<text xml:space="preserve" text-anchor="start" x="612.56" y="-70.25" font-family="Times New Roman,Times,Liberation Serif,serif" font-size="14.00">str</text>
<polygon fill="none" stroke="black" points="516.75,-41 516.75,-63.5 592.12,-63.5 592.12,-41 516.75,-41"/>
<text xml:space="preserve" text-anchor="start" x="536.81" y="-47.75" font-family="Times New Roman,Times,Liberation Serif,serif" font-size="14.00">source</text>
<polygon fill="none" stroke="black" points="592.12,-41 592.12,-63.5 646.5,-63.5 646.5,-41 592.12,-41"/>
<text xml:space="preserve" text-anchor="start" x="612.56" y="-47.75" font-family="Times New Roman,Times,Liberation Serif,serif" font-size="14.00">str</text>
<polygon fill="none" stroke="black" points="516.75,-18.5 516.75,-41 592.12,-41 592.12,-18.5 516.75,-18.5"/>
<text xml:space="preserve" text-anchor="start" x="531.94" y="-25.25" font-family="Times New Roman,Times,Liberation Serif,serif" font-size="14.00">required</text>
<polygon fill="none" stroke="black" points="592.12,-18.5 592.12,-41 646.5,-41 646.5,-18.5 592.12,-18.5"/>
<text xml:space="preserve" text-anchor="start" x="607.31" y="-25.25" font-family="Times New Roman,Times,Liberation Serif,serif" font-size="14.00">bool</text>
</a>
</g>
</g>
<!-- hydromodpy.analysis.testbed.config.TestbedConfig&#45;&gt;hydromodpy.analysis.testbed.config.TestbedMetricConfig -->
<g id="edge3" class="edge">
<title>hydromodpy.analysis.testbed.config.TestbedConfig:e&#45;&gt;hydromodpy.analysis.testbed.config.TestbedMetricConfig:w</title>
<path fill="none" stroke="black" d="M336.85,-775.88C467.41,-751.78 343.51,-236.47 435,-126.5 455.88,-101.4 472.2,-97.84 500.37,-97.33"/>
<polyline fill="none" stroke="black" points="327,-776.75 331.98,-776.31"/>
<polyline fill="none" stroke="black" points="331.98,-776.31 336.96,-775.87"/>
<polygon fill="black" stroke="black" points="505.42,-97.31 515.44,-101.75 510.75,-97.28 515.08,-97.25 515.08,-97.25 515.08,-97.25 510.75,-97.28 515.39,-92.75 505.42,-97.31"/>
<polyline fill="none" stroke="black" points="504.2,-97.31 499.2,-97.34"/>
</g>
<!-- hydromodpy.analysis.testbed.config.TestbedRunnerConfig -->
<g id="node5" class="node">
<title>hydromodpy.analysis.testbed.config.TestbedRunnerConfig</title>
<g id="a_node5"><a xlink:title="hydromodpy.analysis.testbed.config.TestbedRunnerConfig&#10;&#10;Child&#45;runner selection for one testbed.&#10;">
<polygon fill="none" stroke="black" points="514.5,-1084.75 514.5,-1107.25 648.75,-1107.25 648.75,-1084.75 514.5,-1084.75"/>
<text xml:space="preserve" text-anchor="start" x="517.5" y="-1091.95" font-family="Times New Roman,Times,Liberation Serif,serif" font-weight="bold" font-size="14.00">TestbedRunnerConfig</text>
<polygon fill="none" stroke="black" points="514.5,-1062.25 514.5,-1084.75 599.25,-1084.75 599.25,-1062.25 514.5,-1062.25"/>
<text xml:space="preserve" text-anchor="start" x="545.25" y="-1069" font-family="Times New Roman,Times,Liberation Serif,serif" font-size="14.00">type</text>
<polygon fill="none" stroke="black" points="599.25,-1062.25 599.25,-1084.75 648.75,-1084.75 648.75,-1062.25 599.25,-1062.25"/>
<text xml:space="preserve" text-anchor="start" x="617.25" y="-1069" font-family="Times New Roman,Times,Liberation Serif,serif" font-size="14.00">str</text>
<polygon fill="none" stroke="black" points="514.5,-1039.75 514.5,-1062.25 599.25,-1062.25 599.25,-1039.75 514.5,-1039.75"/>
<text xml:space="preserve" text-anchor="start" x="527.25" y="-1046.5" font-family="Times New Roman,Times,Liberation Serif,serif" font-size="14.00">no_display</text>
<polygon fill="none" stroke="black" points="599.25,-1039.75 599.25,-1062.25 648.75,-1062.25 648.75,-1039.75 599.25,-1039.75"/>
<text xml:space="preserve" text-anchor="start" x="612" y="-1046.5" font-family="Times New Roman,Times,Liberation Serif,serif" font-size="14.00">bool</text>
</a>
</g>
</g>
<!-- hydromodpy.analysis.testbed.config.TestbedConfig&#45;&gt;hydromodpy.analysis.testbed.config.TestbedRunnerConfig -->
<g id="edge4" class="edge">
<title>hydromodpy.analysis.testbed.config.TestbedConfig:e&#45;&gt;hydromodpy.analysis.testbed.config.TestbedRunnerConfig:w</title>
<path fill="none" stroke="black" d="M336.96,-867.22C449.65,-878.21 390.95,-1078.52 498.73,-1094.93"/>
<polyline fill="none" stroke="black" points="327,-866.75 331.99,-866.99"/>
<polyline fill="none" stroke="black" points="331.99,-866.99 336.99,-867.22"/>
<polyline fill="none" stroke="black" points="513.5,-1096 508.51,-1095.64"/>
<polygon fill="black" stroke="black" points="507.88,-1090.58 507.16,-1100.55 505.16,-1100.41 505.88,-1090.44 507.88,-1090.58"/>
<polyline fill="none" stroke="black" points="508.51,-1095.64 503.53,-1095.28"/>
<polygon fill="black" stroke="black" points="502.89,-1090.22 502.17,-1100.19 500.17,-1100.05 500.89,-1090.08 502.89,-1090.22"/>
<polyline fill="none" stroke="black" points="503.53,-1095.28 498.54,-1094.92"/>
</g>
<!-- hydromodpy.analysis.testbed.config.TestbedVariantConfig -->
<g id="node6" class="node">
<title>hydromodpy.analysis.testbed.config.TestbedVariantConfig</title>
<g id="a_node6"><a xlink:title="hydromodpy.analysis.testbed.config.TestbedVariantConfig&#10;&#10;One concrete testbed variant.&#10;">
<polygon fill="none" stroke="black" points="514.5,-981.5 514.5,-1004 648.75,-1004 648.75,-981.5 514.5,-981.5"/>
<text xml:space="preserve" text-anchor="start" x="517.5" y="-988.7" font-family="Times New Roman,Times,Liberation Serif,serif" font-weight="bold" font-size="14.00">TestbedVariantConfig</text>
<polygon fill="none" stroke="black" points="514.5,-959 514.5,-981.5 566.62,-981.5 566.62,-959 514.5,-959"/>
<text xml:space="preserve" text-anchor="start" x="535.31" y="-965.75" font-family="Times New Roman,Times,Liberation Serif,serif" font-size="14.00">id</text>
<polygon fill="none" stroke="black" points="566.62,-959 566.62,-981.5 648.75,-981.5 648.75,-959 566.62,-959"/>
<text xml:space="preserve" text-anchor="start" x="600.94" y="-965.75" font-family="Times New Roman,Times,Liberation Serif,serif" font-size="14.00">str</text>
<polygon fill="none" stroke="black" points="514.5,-936.5 514.5,-959 566.62,-959 566.62,-936.5 514.5,-936.5"/>
<text xml:space="preserve" text-anchor="start" x="527.44" y="-943.25" font-family="Times New Roman,Times,Liberation Serif,serif" font-size="14.00">label</text>
<polygon fill="none" stroke="black" points="566.62,-936.5 566.62,-959 648.75,-959 648.75,-936.5 566.62,-936.5"/>
<text xml:space="preserve" text-anchor="start" x="600.94" y="-943.25" font-family="Times New Roman,Times,Liberation Serif,serif" font-size="14.00">str</text>
<polygon fill="none" stroke="black" points="514.5,-914 514.5,-936.5 566.62,-936.5 566.62,-914 514.5,-914"/>
<text xml:space="preserve" text-anchor="start" x="529.69" y="-920.75" font-family="Times New Roman,Times,Liberation Serif,serif" font-size="14.00">axis</text>
<polygon fill="none" stroke="black" points="566.62,-914 566.62,-936.5 648.75,-936.5 648.75,-914 566.62,-914"/>
<text xml:space="preserve" text-anchor="start" x="581.06" y="-920.75" font-family="Times New Roman,Times,Liberation Serif,serif" font-size="14.00">str | None</text>
<polygon fill="none" stroke="black" points="514.5,-891.5 514.5,-914 566.62,-914 566.62,-891.5 514.5,-891.5"/>
<text xml:space="preserve" text-anchor="start" x="519.56" y="-898.25" font-family="Times New Roman,Times,Liberation Serif,serif" font-size="14.00">enabled</text>
<polygon fill="none" stroke="black" points="566.62,-891.5 566.62,-914 648.75,-914 648.75,-891.5 566.62,-891.5"/>
<text xml:space="preserve" text-anchor="start" x="595.69" y="-898.25" font-family="Times New Roman,Times,Liberation Serif,serif" font-size="14.00">bool</text>
<polygon fill="none" stroke="black" points="514.5,-869 514.5,-891.5 566.62,-891.5 566.62,-869 514.5,-869"/>
<text xml:space="preserve" text-anchor="start" x="520.31" y="-875.75" font-family="Times New Roman,Times,Liberation Serif,serif" font-size="14.00">overlay</text>
<polygon fill="none" stroke="black" points="566.62,-869 566.62,-891.5 648.75,-891.5 648.75,-869 566.62,-869"/>
<text xml:space="preserve" text-anchor="start" x="571.69" y="-875.75" font-family="Times New Roman,Times,Liberation Serif,serif" font-size="14.00">dict[str, Any]</text>
</a>
</g>
</g>
<!-- hydromodpy.analysis.testbed.config.TestbedConfig&#45;&gt;hydromodpy.analysis.testbed.config.TestbedVariantConfig -->
<g id="edge5" class="edge">
<title>hydromodpy.analysis.testbed.config.TestbedConfig:e&#45;&gt;hydromodpy.analysis.testbed.config.TestbedVariantConfig:w</title>
<path fill="none" stroke="black" d="M336.84,-844.7C426.46,-853.19 412.8,-978.44 498.27,-991.63"/>
<polyline fill="none" stroke="black" points="327,-844.25 331.99,-844.48"/>
<polyline fill="none" stroke="black" points="331.99,-844.48 336.99,-844.71"/>
<polygon fill="black" stroke="black" points="503.19,-991.99 512.84,-997.21 508.51,-992.38 512.83,-992.7 512.83,-992.7 512.83,-992.7 508.51,-992.38 513.5,-988.24 503.19,-991.99"/>
<polyline fill="none" stroke="black" points="501.98,-991.9 496.99,-991.54"/>
</g>
</g>
</svg>
