$MeshFormat
2.2 0 8
$EndMeshFormat
$Nodes
256
1 350000.000000 6710000.000000 0.0
2 350666.666667 6710000.000000 0.0
3 351333.333333 6710000.000000 0.0
4 352000.000000 6710000.000000 0.0
5 352666.666667 6710000.000000 0.0
6 353333.333333 6710000.000000 0.0
7 354000.000000 6710000.000000 0.0
8 354666.666667 6710000.000000 0.0
9 355333.333333 6710000.000000 0.0
10 356000.000000 6710000.000000 0.0
11 356666.666667 6710000.000000 0.0
12 357333.333333 6710000.000000 0.0
13 358000.000000 6710000.000000 0.0
14 358666.666667 6710000.000000 0.0
15 359333.333333 6710000.000000 0.0
16 360000.000000 6710000.000000 0.0
17 350000.000000 6710666.666667 0.0
18 350666.666667 6710666.666667 0.0
19 351333.333333 6710666.666667 0.0
20 352000.000000 6710666.666667 0.0
21 352666.666667 6710666.666667 0.0
22 353333.333333 6710666.666667 0.0
23 354000.000000 6710666.666667 0.0
24 354666.666667 6710666.666667 0.0
25 355333.333333 6710666.666667 0.0
26 356000.000000 6710666.666667 0.0
27 356666.666667 6710666.666667 0.0
28 357333.333333 6710666.666667 0.0
29 358000.000000 6710666.666667 0.0
30 358666.666667 6710666.666667 0.0
31 359333.333333 6710666.666667 0.0
32 360000.000000 6710666.666667 0.0
33 350000.000000 6711333.333333 0.0
34 350666.666667 6711333.333333 0.0
35 351333.333333 6711333.333333 0.0
36 352000.000000 6711333.333333 0.0
37 352666.666667 6711333.333333 0.0
38 353333.333333 6711333.333333 0.0
39 354000.000000 6711333.333333 0.0
40 354666.666667 6711333.333333 0.0
41 355333.333333 6711333.333333 0.0
42 356000.000000 6711333.333333 0.0
43 356666.666667 6711333.333333 0.0
44 357333.333333 6711333.333333 0.0
45 358000.000000 6711333.333333 0.0
46 358666.666667 6711333.333333 0.0
47 359333.333333 6711333.333333 0.0
48 360000.000000 6711333.333333 0.0
49 350000.000000 6712000.000000 0.0
50 350666.666667 6712000.000000 0.0
51 351333.333333 6712000.000000 0.0
52 352000.000000 6712000.000000 0.0
53 352666.666667 6712000.000000 0.0
54 353333.333333 6712000.000000 0.0
55 354000.000000 6712000.000000 0.0
56 354666.666667 6712000.000000 0.0
57 355333.333333 6712000.000000 0.0
58 356000.000000 6712000.000000 0.0
59 356666.666667 6712000.000000 0.0
60 357333.333333 6712000.000000 0.0
61 358000.000000 6712000.000000 0.0
62 358666.666667 6712000.000000 0.0
63 359333.333333 6712000.000000 0.0
64 360000.000000 6712000.000000 0.0
65 350000.000000 6712666.666667 0.0
66 350666.666667 6712666.666667 0.0
67 351333.333333 6712666.666667 0.0
68 352000.000000 6712666.666667 0.0
69 352666.666667 6712666.666667 0.0
70 353333.333333 6712666.666667 0.0
71 354000.000000 6712666.666667 0.0
72 354666.666667 6712666.666667 0.0
73 355333.333333 6712666.666667 0.0
74 356000.000000 6712666.666667 0.0
75 356666.666667 6712666.666667 0.0
76 357333.333333 6712666.666667 0.0
77 358000.000000 6712666.666667 0.0
78 358666.666667 6712666.666667 0.0
79 359333.333333 6712666.666667 0.0
80 360000.000000 6712666.666667 0.0
81 350000.000000 6713333.333333 0.0
82 350666.666667 6713333.333333 0.0
83 351333.333333 6713333.333333 0.0
84 352000.000000 6713333.333333 0.0
85 352666.666667 6713333.333333 0.0
86 353333.333333 6713333.333333 0.0
87 354000.000000 6713333.333333 0.0
88 354666.666667 6713333.333333 0.0
89 355333.333333 6713333.333333 0.0
90 356000.000000 6713333.333333 0.0
91 356666.666667 6713333.333333 0.0
92 357333.333333 6713333.333333 0.0
93 358000.000000 6713333.333333 0.0
94 358666.666667 6713333.333333 0.0
95 359333.333333 6713333.333333 0.0
96 360000.000000 6713333.333333 0.0
97 350000.000000 6714000.000000 0.0
98 350666.666667 6714000.000000 0.0
99 351333.333333 6714000.000000 0.0
100 352000.000000 6714000.000000 0.0
101 352666.666667 6714000.000000 0.0
102 353333.333333 6714000.000000 0.0
103 354000.000000 6714000.000000 0.0
104 354666.666667 6714000.000000 0.0
105 355333.333333 6714000.000000 0.0
106 356000.000000 6714000.000000 0.0
107 356666.666667 6714000.000000 0.0
108 357333.333333 6714000.000000 0.0
109 358000.000000 6714000.000000 0.0
110 358666.666667 6714000.000000 0.0
111 359333.333333 6714000.000000 0.0
112 360000.000000 6714000.000000 0.0
113 350000.000000 6714666.666667 0.0
114 350666.666667 6714666.666667 0.0
115 351333.333333 6714666.666667 0.0
116 352000.000000 6714666.666667 0.0
117 352666.666667 6714666.666667 0.0
118 353333.333333 6714666.666667 0.0
119 354000.000000 6714666.666667 0.0
120 354666.666667 6714666.666667 0.0
121 355333.333333 6714666.666667 0.0
122 356000.000000 6714666.666667 0.0
123 356666.666667 6714666.666667 0.0
124 357333.333333 6714666.666667 0.0
125 358000.000000 6714666.666667 0.0
126 358666.666667 6714666.666667 0.0
127 359333.333333 6714666.666667 0.0
128 360000.000000 6714666.666667 0.0
129 350000.000000 6715333.333333 0.0
130 350666.666667 6715333.333333 0.0
131 351333.333333 6715333.333333 0.0
132 352000.000000 6715333.333333 0.0
133 352666.666667 6715333.333333 0.0
134 353333.333333 6715333.333333 0.0
135 354000.000000 6715333.333333 0.0
136 354666.666667 6715333.333333 0.0
137 355333.333333 6715333.333333 0.0
138 356000.000000 6715333.333333 0.0
139 356666.666667 6715333.333333 0.0
140 357333.333333 6715333.333333 0.0
141 358000.000000 6715333.333333 0.0
142 358666.666667 6715333.333333 0.0
143 359333.333333 6715333.333333 0.0
144 360000.000000 6715333.333333 0.0
145 350000.000000 6716000.000000 0.0
146 350666.666667 6716000.000000 0.0
147 351333.333333 6716000.000000 0.0
148 352000.000000 6716000.000000 0.0
149 352666.666667 6716000.000000 0.0
150 353333.333333 6716000.000000 0.0
151 354000.000000 6716000.000000 0.0
152 354666.666667 6716000.000000 0.0
153 355333.333333 6716000.000000 0.0
154 356000.000000 6716000.000000 0.0
155 356666.666667 6716000.000000 0.0
156 357333.333333 6716000.000000 0.0
157 358000.000000 6716000.000000 0.0
158 358666.666667 6716000.000000 0.0
159 359333.333333 6716000.000000 0.0
160 360000.000000 6716000.000000 0.0
161 350000.000000 6716666.666667 0.0
162 350666.666667 6716666.666667 0.0
163 351333.333333 6716666.666667 0.0
164 352000.000000 6716666.666667 0.0
165 352666.666667 6716666.666667 0.0
166 353333.333333 6716666.666667 0.0
167 354000.000000 6716666.666667 0.0
168 354666.666667 6716666.666667 0.0
169 355333.333333 6716666.666667 0.0
170 356000.000000 6716666.666667 0.0
171 356666.666667 6716666.666667 0.0
172 357333.333333 6716666.666667 0.0
173 358000.000000 6716666.666667 0.0
174 358666.666667 6716666.666667 0.0
175 359333.333333 6716666.666667 0.0
176 360000.000000 6716666.666667 0.0
177 350000.000000 6717333.333333 0.0
178 350666.666667 6717333.333333 0.0
179 351333.333333 6717333.333333 0.0
180 352000.000000 6717333.333333 0.0
181 352666.666667 6717333.333333 0.0
182 353333.333333 6717333.333333 0.0
183 354000.000000 6717333.333333 0.0
184 354666.666667 6717333.333333 0.0
185 355333.333333 6717333.333333 0.0
186 356000.000000 6717333.333333 0.0
187 356666.666667 6717333.333333 0.0
188 357333.333333 6717333.333333 0.0
189 358000.000000 6717333.333333 0.0
190 358666.666667 6717333.333333 0.0
191 359333.333333 6717333.333333 0.0
192 360000.000000 6717333.333333 0.0
193 350000.000000 6718000.000000 0.0
194 350666.666667 6718000.000000 0.0
195 351333.333333 6718000.000000 0.0
196 352000.000000 6718000.000000 0.0
197 352666.666667 6718000.000000 0.0
198 353333.333333 6718000.000000 0.0
199 354000.000000 6718000.000000 0.0
200 354666.666667 6718000.000000 0.0
201 355333.333333 6718000.000000 0.0
202 356000.000000 6718000.000000 0.0
203 356666.666667 6718000.000000 0.0
204 357333.333333 6718000.000000 0.0
205 358000.000000 6718000.000000 0.0
206 358666.666667 6718000.000000 0.0
207 359333.333333 6718000.000000 0.0
208 360000.000000 6718000.000000 0.0
209 350000.000000 6718666.666667 0.0
210 350666.666667 6718666.666667 0.0
211 351333.333333 6718666.666667 0.0
212 352000.000000 6718666.666667 0.0
213 352666.666667 6718666.666667 0.0
214 353333.333333 6718666.666667 0.0
215 354000.000000 6718666.666667 0.0
216 354666.666667 6718666.666667 0.0
217 355333.333333 6718666.666667 0.0
218 356000.000000 6718666.666667 0.0
219 356666.666667 6718666.666667 0.0
220 357333.333333 6718666.666667 0.0
221 358000.000000 6718666.666667 0.0
222 358666.666667 6718666.666667 0.0
223 359333.333333 6718666.666667 0.0
224 360000.000000 6718666.666667 0.0
225 350000.000000 6719333.333333 0.0
226 350666.666667 6719333.333333 0.0
227 351333.333333 6719333.333333 0.0
228 352000.000000 6719333.333333 0.0
229 352666.666667 6719333.333333 0.0
230 353333.333333 6719333.333333 0.0
231 354000.000000 6719333.333333 0.0
232 354666.666667 6719333.333333 0.0
233 355333.333333 6719333.333333 0.0
234 356000.000000 6719333.333333 0.0
235 356666.666667 6719333.333333 0.0
236 357333.333333 6719333.333333 0.0
237 358000.000000 6719333.333333 0.0
238 358666.666667 6719333.333333 0.0
239 359333.333333 6719333.333333 0.0
240 360000.000000 6719333.333333 0.0
241 350000.000000 6720000.000000 0.0
242 350666.666667 6720000.000000 0.0
243 351333.333333 6720000.000000 0.0
244 352000.000000 6720000.000000 0.0
245 352666.666667 6720000.000000 0.0
246 353333.333333 6720000.000000 0.0
247 354000.000000 6720000.000000 0.0
248 354666.666667 6720000.000000 0.0
249 355333.333333 6720000.000000 0.0
250 356000.000000 6720000.000000 0.0
251 356666.666667 6720000.000000 0.0
252 357333.333333 6720000.000000 0.0
253 358000.000000 6720000.000000 0.0
254 358666.666667 6720000.000000 0.0
255 359333.333333 6720000.000000 0.0
256 360000.000000 6720000.000000 0.0
$EndNodes
$Elements
450
1 2 0 1 2 18
2 2 0 1 18 17
3 2 0 2 3 19
4 2 0 2 19 18
5 2 0 3 4 20
6 2 0 3 20 19
7 2 0 4 5 21
8 2 0 4 21 20
9 2 0 5 6 22
10 2 0 5 22 21
11 2 0 6 7 23
12 2 0 6 23 22
13 2 0 7 8 24
14 2 0 7 24 23
15 2 0 8 9 25
16 2 0 8 25 24
17 2 0 9 10 26
18 2 0 9 26 25
19 2 0 10 11 27
20 2 0 10 27 26
21 2 0 11 12 28
22 2 0 11 28 27
23 2 0 12 13 29
24 2 0 12 29 28
25 2 0 13 14 30
26 2 0 13 30 29
27 2 0 14 15 31
28 2 0 14 31 30
29 2 0 15 16 32
30 2 0 15 32 31
31 2 0 17 18 34
32 2 0 17 34 33
33 2 0 18 19 35
34 2 0 18 35 34
35 2 0 19 20 36
36 2 0 19 36 35
37 2 0 20 21 37
38 2 0 20 37 36
39 2 0 21 22 38
40 2 0 21 38 37
41 2 0 22 23 39
42 2 0 22 39 38
43 2 0 23 24 40
44 2 0 23 40 39
45 2 0 24 25 41
46 2 0 24 41 40
47 2 0 25 26 42
48 2 0 25 42 41
49 2 0 26 27 43
50 2 0 26 43 42
51 2 0 27 28 44
52 2 0 27 44 43
53 2 0 28 29 45
54 2 0 28 45 44
55 2 0 29 30 46
56 2 0 29 46 45
57 2 0 30 31 47
58 2 0 30 47 46
59 2 0 31 32 48
60 2 0 31 48 47
61 2 0 33 34 50
62 2 0 33 50 49
63 2 0 34 35 51
64 2 0 34 51 50
65 2 0 35 36 52
66 2 0 35 52 51
67 2 0 36 37 53
68 2 0 36 53 52
69 2 0 37 38 54
70 2 0 37 54 53
71 2 0 38 39 55
72 2 0 38 55 54
73 2 0 39 40 56
74 2 0 39 56 55
75 2 0 40 41 57
76 2 0 40 57 56
77 2 0 41 42 58
78 2 0 41 58 57
79 2 0 42 43 59
80 2 0 42 59 58
81 2 0 43 44 60
82 2 0 43 60 59
83 2 0 44 45 61
84 2 0 44 61 60
85 2 0 45 46 62
86 2 0 45 62 61
87 2 0 46 47 63
88 2 0 46 63 62
89 2 0 47 48 64
90 2 0 47 64 63
91 2 0 49 50 66
92 2 0 49 66 65
93 2 0 50 51 67
94 2 0 50 67 66
95 2 0 51 52 68
96 2 0 51 68 67
97 2 0 52 53 69
98 2 0 52 69 68
99 2 0 53 54 70
100 2 0 53 70 69
101 2 0 54 55 71
102 2 0 54 71 70
103 2 0 55 56 72
104 2 0 55 72 71
105 2 0 56 57 73
106 2 0 56 73 72
107 2 0 57 58 74
108 2 0 57 74 73
109 2 0 58 59 75
110 2 0 58 75 74
111 2 0 59 60 76
112 2 0 59 76 75
113 2 0 60 61 77
114 2 0 60 77 76
115 2 0 61 62 78
116 2 0 61 78 77
117 2 0 62 63 79
118 2 0 62 79 78
119 2 0 63 64 80
120 2 0 63 80 79
121 2 0 65 66 82
122 2 0 65 82 81
123 2 0 66 67 83
124 2 0 66 83 82
125 2 0 67 68 84
126 2 0 67 84 83
127 2 0 68 69 85
128 2 0 68 85 84
129 2 0 69 70 86
130 2 0 69 86 85
131 2 0 70 71 87
132 2 0 70 87 86
133 2 0 71 72 88
134 2 0 71 88 87
135 2 0 72 73 89
136 2 0 72 89 88
137 2 0 73 74 90
138 2 0 73 90 89
139 2 0 74 75 91
140 2 0 74 91 90
141 2 0 75 76 92
142 2 0 75 92 91
143 2 0 76 77 93
144 2 0 76 93 92
145 2 0 77 78 94
146 2 0 77 94 93
147 2 0 78 79 95
148 2 0 78 95 94
149 2 0 79 80 96
150 2 0 79 96 95
151 2 0 81 82 98
152 2 0 81 98 97
153 2 0 82 83 99
154 2 0 82 99 98
155 2 0 83 84 100
156 2 0 83 100 99
157 2 0 84 85 101
158 2 0 84 101 100
159 2 0 85 86 102
160 2 0 85 102 101
161 2 0 86 87 103
162 2 0 86 103 102
163 2 0 87 88 104
164 2 0 87 104 103
165 2 0 88 89 105
166 2 0 88 105 104
167 2 0 89 90 106
168 2 0 89 106 105
169 2 0 90 91 107
170 2 0 90 107 106
171 2 0 91 92 108
172 2 0 91 108 107
173 2 0 92 93 109
174 2 0 92 109 108
175 2 0 93 94 110
176 2 0 93 110 109
177 2 0 94 95 111
178 2 0 94 111 110
179 2 0 95 96 112
180 2 0 95 112 111
181 2 0 97 98 114
182 2 0 97 114 113
183 2 0 98 99 115
184 2 0 98 115 114
185 2 0 99 100 116
186 2 0 99 116 115
187 2 0 100 101 117
188 2 0 100 117 116
189 2 0 101 102 118
190 2 0 101 118 117
191 2 0 102 103 119
192 2 0 102 119 118
193 2 0 103 104 120
194 2 0 103 120 119
195 2 0 104 105 121
196 2 0 104 121 120
197 2 0 105 106 122
198 2 0 105 122 121
199 2 0 106 107 123
200 2 0 106 123 122
201 2 0 107 108 124
202 2 0 107 124 123
203 2 0 108 109 125
204 2 0 108 125 124
205 2 0 109 110 126
206 2 0 109 126 125
207 2 0 110 111 127
208 2 0 110 127 126
209 2 0 111 112 128
210 2 0 111 128 127
211 2 0 113 114 130
212 2 0 113 130 129
213 2 0 114 115 131
214 2 0 114 131 130
215 2 0 115 116 132
216 2 0 115 132 131
217 2 0 116 117 133
218 2 0 116 133 132
219 2 0 117 118 134
220 2 0 117 134 133
221 2 0 118 119 135
222 2 0 118 135 134
223 2 0 119 120 136
224 2 0 119 136 135
225 2 0 120 121 137
226 2 0 120 137 136
227 2 0 121 122 138
228 2 0 121 138 137
229 2 0 122 123 139
230 2 0 122 139 138
231 2 0 123 124 140
232 2 0 123 140 139
233 2 0 124 125 141
234 2 0 124 141 140
235 2 0 125 126 142
236 2 0 125 142 141
237 2 0 126 127 143
238 2 0 126 143 142
239 2 0 127 128 144
240 2 0 127 144 143
241 2 0 129 130 146
242 2 0 129 146 145
243 2 0 130 131 147
244 2 0 130 147 146
245 2 0 131 132 148
246 2 0 131 148 147
247 2 0 132 133 149
248 2 0 132 149 148
249 2 0 133 134 150
250 2 0 133 150 149
251 2 0 134 135 151
252 2 0 134 151 150
253 2 0 135 136 152
254 2 0 135 152 151
255 2 0 136 137 153
256 2 0 136 153 152
257 2 0 137 138 154
258 2 0 137 154 153
259 2 0 138 139 155
260 2 0 138 155 154
261 2 0 139 140 156
262 2 0 139 156 155
263 2 0 140 141 157
264 2 0 140 157 156
265 2 0 141 142 158
266 2 0 141 158 157
267 2 0 142 143 159
268 2 0 142 159 158
269 2 0 143 144 160
270 2 0 143 160 159
271 2 0 145 146 162
272 2 0 145 162 161
273 2 0 146 147 163
274 2 0 146 163 162
275 2 0 147 148 164
276 2 0 147 164 163
277 2 0 148 149 165
278 2 0 148 165 164
279 2 0 149 150 166
280 2 0 149 166 165
281 2 0 150 151 167
282 2 0 150 167 166
283 2 0 151 152 168
284 2 0 151 168 167
285 2 0 152 153 169
286 2 0 152 169 168
287 2 0 153 154 170
288 2 0 153 170 169
289 2 0 154 155 171
290 2 0 154 171 170
291 2 0 155 156 172
292 2 0 155 172 171
293 2 0 156 157 173
294 2 0 156 173 172
295 2 0 157 158 174
296 2 0 157 174 173
297 2 0 158 159 175
298 2 0 158 175 174
299 2 0 159 160 176
300 2 0 159 176 175
301 2 0 161 162 178
302 2 0 161 178 177
303 2 0 162 163 179
304 2 0 162 179 178
305 2 0 163 164 180
306 2 0 163 180 179
307 2 0 164 165 181
308 2 0 164 181 180
309 2 0 165 166 182
310 2 0 165 182 181
311 2 0 166 167 183
312 2 0 166 183 182
313 2 0 167 168 184
314 2 0 167 184 183
315 2 0 168 169 185
316 2 0 168 185 184
317 2 0 169 170 186
318 2 0 169 186 185
319 2 0 170 171 187
320 2 0 170 187 186
321 2 0 171 172 188
322 2 0 171 188 187
323 2 0 172 173 189
324 2 0 172 189 188
325 2 0 173 174 190
326 2 0 173 190 189
327 2 0 174 175 191
328 2 0 174 191 190
329 2 0 175 176 192
330 2 0 175 192 191
331 2 0 177 178 194
332 2 0 177 194 193
333 2 0 178 179 195
334 2 0 178 195 194
335 2 0 179 180 196
336 2 0 179 196 195
337 2 0 180 181 197
338 2 0 180 197 196
339 2 0 181 182 198
340 2 0 181 198 197
341 2 0 182 183 199
342 2 0 182 199 198
343 2 0 183 184 200
344 2 0 183 200 199
345 2 0 184 185 201
346 2 0 184 201 200
347 2 0 185 186 202
348 2 0 185 202 201
349 2 0 186 187 203
350 2 0 186 203 202
351 2 0 187 188 204
352 2 0 187 204 203
353 2 0 188 189 205
354 2 0 188 205 204
355 2 0 189 190 206
356 2 0 189 206 205
357 2 0 190 191 207
358 2 0 190 207 206
359 2 0 191 192 208
360 2 0 191 208 207
361 2 0 193 194 210
362 2 0 193 210 209
363 2 0 194 195 211
364 2 0 194 211 210
365 2 0 195 196 212
366 2 0 195 212 211
367 2 0 196 197 213
368 2 0 196 213 212
369 2 0 197 198 214
370 2 0 197 214 213
371 2 0 198 199 215
372 2 0 198 215 214
373 2 0 199 200 216
374 2 0 199 216 215
375 2 0 200 201 217
376 2 0 200 217 216
377 2 0 201 202 218
378 2 0 201 218 217
379 2 0 202 203 219
380 2 0 202 219 218
381 2 0 203 204 220
382 2 0 203 220 219
383 2 0 204 205 221
384 2 0 204 221 220
385 2 0 205 206 222
386 2 0 205 222 221
387 2 0 206 207 223
388 2 0 206 223 222
389 2 0 207 208 224
390 2 0 207 224 223
391 2 0 209 210 226
392 2 0 209 226 225
393 2 0 210 211 227
394 2 0 210 227 226
395 2 0 211 212 228
396 2 0 211 228 227
397 2 0 212 213 229
398 2 0 212 229 228
399 2 0 213 214 230
400 2 0 213 230 229
401 2 0 214 215 231
402 2 0 214 231 230
403 2 0 215 216 232
404 2 0 215 232 231
405 2 0 216 217 233
406 2 0 216 233 232
407 2 0 217 218 234
408 2 0 217 234 233
409 2 0 218 219 235
410 2 0 218 235 234
411 2 0 219 220 236
412 2 0 219 236 235
413 2 0 220 221 237
414 2 0 220 237 236
415 2 0 221 222 238
416 2 0 221 238 237
417 2 0 222 223 239
418 2 0 222 239 238
419 2 0 223 224 240
420 2 0 223 240 239
421 2 0 225 226 242
422 2 0 225 242 241
423 2 0 226 227 243
424 2 0 226 243 242
425 2 0 227 228 244
426 2 0 227 244 243
427 2 0 228 229 245
428 2 0 228 245 244
429 2 0 229 230 246
430 2 0 229 246 245
431 2 0 230 231 247
432 2 0 230 247 246
433 2 0 231 232 248
434 2 0 231 248 247
435 2 0 232 233 249
436 2 0 232 249 248
437 2 0 233 234 250
438 2 0 233 250 249
439 2 0 234 235 251
440 2 0 234 251 250
441 2 0 235 236 252
442 2 0 235 252 251
443 2 0 236 237 253
444 2 0 236 253 252
445 2 0 237 238 254
446 2 0 237 254 253
447 2 0 238 239 255
448 2 0 238 255 254
449 2 0 239 240 256
450 2 0 239 256 255
$EndElements
