$MeshFormat
2.2 0 8
$EndMeshFormat
$PhysicalNames
4
1 2 "boundary::domain"
1 3 "geology::active_interfaces"
1 4 "river::trace"
2 1 "zone::domain"
$EndPhysicalNames
$Nodes
228
1 429562.5 6738412.5 0
2 429562.5 6745087.5 0
3 435487.5 6745087.5 0
4 435487.5 6738412.5 0
5 433494.8084573961 6741042.999791884 0
6 433214.9429438741 6741362.679623125 0
7 432854.7896923286 6741482.861491305 0
8 432734.5472000335 6741443.079992956 0
9 432614.0995422193 6741293.477663589 0
10 432613.7538974713 6741093.82140691 0
11 432773.3529356432 6740804.211212956 0
12 433133.1897422778 6740524.344738298 0
13 433493.4425808255 6740404.16199407 0
14 433613.8439693481 6740523.885623473 0
15 431775 6740700 0
16 431850 6740700 0
17 431925 6740775 0
18 431925 6740850 0
19 432000 6740925 0
20 432075 6741000 0
21 432075 6741075 0
22 432075 6741150 0
23 432075 6741225 0
24 432000 6741300 0
25 431925 6741300 0
26 431850 6741300 0
27 431775 6741225 0
28 431700 6741225 0
29 431625 6741300 0
30 431550 6741300 0
31 431475 6741300 0
32 431475 6741375 0
33 431400 6741450 0
34 431400 6741525 0
35 431475 6741600 0
36 431550 6741675 0
37 431550 6741750 0
38 431550 6741825 0
39 431475 6741900 0
40 431400 6741975 0
41 431325 6741975 0
42 431250 6741975 0
43 431175 6741975 0
44 431100 6741900 0
45 431025 6741900 0
46 430950 6741900 0
47 430875 6741825 0
48 430800 6741825 0
49 430725 6741750 0
50 430650 6741675 0
51 430612.5 6741637.5 0
52 433125 6742425 0
53 433050 6742500 0
54 432975 6742575 0
55 432900 6742575 0
56 432825 6742575 0
57 432750 6742575 0
58 432675 6742575 0
59 432600 6742500 0
60 432525 6742425 0
61 432450 6742425 0
62 432375 6742350 0
63 432375 6742275 0
64 432375 6742200 0
65 432300 6742125 0
66 432225 6742125 0
67 432150 6742125 0
68 432075 6742125 0
69 432000 6742050 0
70 431925 6741975 0
71 431925 6741900 0
72 431850 6741825 0
73 431775 6741825 0
74 431700 6741750 0
75 431625 6741825 0
76 432600 6742725 0
77 432600 6742650 0
78 432600 6742575 0
79 434750.8759337903 6743143.99489042 0
80 434750.5073973109 6742958.205541605 0
81 434910.1589579955 6742638.615309202 0
82 434984.4471049368 6742547.645989436 0
83 429562.5 6740319.146252709 0
84 429562.5 6741771.299130587 0
85 429562.5 6743192.847710038 0
86 431537.5 6745087.5 0
87 433512.5 6745087.5 0
88 435487.5 6743418.75 0
89 435487.5 6741750 0
90 435487.5 6740081.25 0
91 433730.2809552748 6738412.5 0
92 432319.6708674349 6738412.5 0
93 431107.4018642528 6738412.5 0
94 431205.6980124658 6743398.507128402 0
95 430629.4461086536 6740649.00874765 0
96 431925 6742875 0
97 430962.5518931213 6741163.799249186 0
98 433803.9305996811 6743432.194872263 0
99 434033.3204582553 6742400.262072806 0
100 432974.1433379059 6743002.426299703 0
101 432880.5741161051 6742158.817224832 0
102 432319.8421015359 6741673.19586762 0
103 432372.3644948851 6740659.01897684 0
104 431662.6699983375 6742361.557284931 0
105 431549.9436961639 6740884.064675721 0
106 431030.3571428572 6741487.5 0
107 432299.5985688713 6742764.182332984 0
108 431985.308396802 6741554.047489567 0
109 430954.431451365 6742178.338442179 0
110 432112.5 6742387.5 0
111 431696.0317145861 6742121.988173534 0
112 431782.0242120205 6741027.695584465 0
113 431235.3482697427 6741675 0
114 431706.700932978 6741577.59724674 0
115 431812.5 6739500.333925951 0
116 433180.082880931 6739342.083871463 0
117 432766.0354538022 6742748.128872308 0
118 432526.0873895132 6742285.086528104 0
119 432417.4422931741 6741200.745292727 0
120 431921.0751825286 6741122.982496472 0
121 431801.9351582651 6740009.183464999 0
122 430173.3853959776 6742449.539862075 0
123 434649.5752939386 6740909.137974574 0
124 433451.5253125391 6742826.525312539 0
125 434507.8880346383 6742221.665355819 0
126 433635.8622602149 6741960.164514581 0
127 431258.4899074785 6742368.551510915 0
128 434417.4441145394 6739533.842986384 0
129 432403.3417025125 6744031.760002638 0
130 431801.1613180307 6740822.793376698 0
131 431737.5 6741337.5 0
132 431587.5 6741187.5 0
133 431555.2937248395 6741419.650575138 0
134 431316.7631035948 6741338.50577618 0
135 431212.5 6741862.5 0
136 431036.347350195 6741987.581573413 0
137 431020.1522689821 6741784.151785715 0
138 430868.25480026 6741945.361669266 0
139 432712.5 6742462.5 0
140 432502.6887175325 6742538.717532467 0
141 432262.5 6742237.5 0
142 431791.1354067206 6741939.242079294 0
143 430283.5083862679 6741958.607356959 0
144 430076.1148275005 6741110.884313262 0
145 434121.3318986975 6742976.95217663 0
146 434215.0998515098 6744119.578579416 0
147 432332.5383355581 6743266.061018538 0
148 432480.7840094362 6742023.103684129 0
149 430593.75 6741956.25 0
150 431272.1923972917 6740329.810302795 0
151 430590.2388678595 6739331.726691571 0
152 432055.3262196681 6740819.151862601 0
153 432015.7638299742 6740591.468149963 0
154 431777.1267193708 6740386.715397469 0
155 431441.9573738039 6741717.624817784 0
156 431587.5 6741937.5 0
157 431362.5 6741862.5 0
158 430840.2513445485 6741693.271683673 0
159 430771.3075972062 6741498.262866783 0
160 432930.6176469465 6742464.964812306 0
161 432091.3726874678 6742007.319914573 0
162 431818.931047362 6741712.518264821 0
163 430669.3111165406 6742930.972932148 0
164 433330.8635598242 6743912.502321279 0
165 432704.5645475152 6741725.024470154 0
166 434514.1314997732 6742661.864611537 0
167 432688.5503108659 6740323.914345025 0
168 433157.069612871 6741788.981489259 0
169 433969.6107353001 6740925.469141477 0
170 432216.071495765 6741377.945741556 0
171 433137.959210786 6740009.273338766 0
172 433106.1607732034 6742739.317365563 0
173 430201.9080352774 6741552.958236263 0
174 430696.9249831339 6743960.811284749 0
175 431619.866822163 6741727.51620779 0
176 433461.8761839419 6742390.773709426 0
177 434871.6239948604 6743854.950459784 0
178 434211.2234878358 6741700.279856923 0
179 432262.5 6741975 0
180 431883.3506504205 6742220.098783857 0
181 433651.714270554 6741471.509192023 0
182 434951.5193906797 6741988.906905265 0
183 430542.3047436265 6741268.735568858 0
184 432395.6080641771 6739798.134689893 0
185 432251.2915324997 6741037.5 0
186 431363.7704121507 6742844.153536433 0
187 432021.4852596633 6741775.893440756 0
188 432365.355172734 6742525.483310909 0
189 431695.7270813441 6741855.348415859 0
190 432601.2002559258 6742945.533393417 0
191 432924.3899274853 6742702.478756262 0
192 434773.6289976047 6742411.739634252 0
193 431254.9569478594 6739710.000449702 0
194 431291.1856665253 6739102.314298517 0
195 431276.4937032389 6741495.201155236 0
196 430610.2267863548 6742337.392443463 0
197 431384.9865986048 6742140.333752143 0
198 431201.9648273105 6742096.128212187 0
199 432502.0232643993 6741467.355324636 0
200 434376.5499490811 6743429.879256621 0
201 432308.3901274268 6739196.939829946 0
202 431812.3982054141 6743413.836937319 0
203 431563.4206347315 6744003.927889845 0
204 431767.829705128 6738924.917610883 0
205 434496.4374159475 6743051.604561211 0
206 430690.3876451562 6740044.708639028 0
207 431877.2541947092 6741419.087794847 0
208 432818.1090086043 6743422.804713091 0
209 433275.7143637109 6743319.290703775 0
210 432452.34375 6742687.5 0
211 431549.3593084243 6740604.512615289 0
212 433252.0764346265 6742144.74738762 0
213 433194.9270449474 6742576.102731255 0
214 430986.9743679775 6742550.646067415 0
215 431333.5252884332 6741106.867552872 0
216 431807.5411212916 6740568.882501802 0
217 432500.97632503 6740906.47207101 0
218 431185.6621407875 6740783.293883603 0
219 431883.0692718877 6742087.836068964 0
220 433780.2798265241 6740235.407847173 0
221 432184.9675535731 6741177.698505714 0
222 432175.224762923 6740294.739170698 0
223 431513.8234312099 6741348.662643785 0
224 431586.2167055408 6741781.879051947 0
225 432665.1725756337 6742641.354812051 0
226 432849.4002180612 6741197.842878169 0
227 433140.3153148587 6740904.768756346 0
228 433375.1200129412 6740680.032180814 0
$EndNodes
$Elements
530
1 1 2 2 1 1 83
2 1 2 2 1 83 84
3 1 2 2 1 84 85
4 1 2 2 1 85 2
5 1 2 2 2 2 86
6 1 2 2 2 86 87
7 1 2 2 2 87 3
8 1 2 2 3 3 88
9 1 2 2 3 88 89
10 1 2 2 3 89 90
11 1 2 2 3 90 4
12 1 2 2 4 4 91
13 1 2 2 4 91 92
14 1 2 2 4 92 93
15 1 2 2 4 93 1
16 1 2 3 5 5 6
17 1 2 3 6 6 7
18 1 2 3 7 7 8
19 1 2 3 8 8 9
20 1 2 3 9 9 10
21 1 2 3 10 10 11
22 1 2 3 11 11 12
23 1 2 3 12 12 13
24 1 2 3 13 13 14
25 1 2 3 14 14 5
26 1 2 4 15 15 16
27 1 2 4 16 16 17
28 1 2 4 17 17 18
29 1 2 4 18 18 19
30 1 2 4 19 19 20
31 1 2 4 20 20 21
32 1 2 4 21 21 22
33 1 2 4 22 22 23
34 1 2 4 23 23 24
35 1 2 4 24 24 25
36 1 2 4 25 25 26
37 1 2 4 26 26 27
38 1 2 4 27 27 28
39 1 2 4 28 28 29
40 1 2 4 29 29 30
41 1 2 4 30 30 31
42 1 2 4 31 31 32
43 1 2 4 32 32 33
44 1 2 4 33 33 34
45 1 2 4 34 34 35
46 1 2 4 35 35 36
47 1 2 4 36 36 37
48 1 2 4 37 37 38
49 1 2 4 38 38 39
50 1 2 4 39 39 40
51 1 2 4 40 40 41
52 1 2 4 41 41 42
53 1 2 4 42 42 43
54 1 2 4 43 43 44
55 1 2 4 44 44 45
56 1 2 4 45 45 46
57 1 2 4 46 46 47
58 1 2 4 47 47 48
59 1 2 4 48 48 49
60 1 2 4 49 49 50
61 1 2 4 50 50 51
62 1 2 4 51 52 53
63 1 2 4 52 53 54
64 1 2 4 53 54 55
65 1 2 4 54 55 56
66 1 2 4 55 56 57
67 1 2 4 56 57 58
68 1 2 4 57 58 59
69 1 2 4 58 59 60
70 1 2 4 59 60 61
71 1 2 4 60 61 62
72 1 2 4 61 62 63
73 1 2 4 62 63 64
74 1 2 4 63 64 65
75 1 2 4 64 65 66
76 1 2 4 65 66 67
77 1 2 4 66 67 68
78 1 2 4 67 68 69
79 1 2 4 68 69 70
80 1 2 4 69 70 71
81 1 2 4 70 71 72
82 1 2 4 71 72 73
83 1 2 4 72 73 74
84 1 2 4 73 74 75
85 1 2 4 74 75 38
86 1 2 4 75 76 77
87 1 2 4 76 77 78
88 1 2 4 77 78 59
89 1 2 3 78 79 80
90 1 2 3 79 80 81
91 1 2 3 80 81 82
92 2 2 1 1 1 151 93
93 2 2 1 1 76 210 190
94 2 2 1 1 18 112 19
95 2 2 1 1 101 160 52
96 2 2 1 1 68 110 67
97 2 2 1 1 129 203 86
98 2 2 1 1 64 148 65
99 2 2 1 1 34 133 33
100 2 2 1 1 70 161 71
101 2 2 1 1 85 163 122
102 2 2 1 1 52 212 101
103 2 2 1 1 24 170 23
104 2 2 1 1 84 144 83
105 2 2 1 1 51 173 143
106 2 2 1 1 13 171 12
107 2 2 1 1 85 122 84
108 2 2 1 1 5 169 14
109 2 2 1 1 86 203 174
110 2 2 1 1 95 206 83
111 2 2 1 1 52 213 176
112 2 2 1 1 17 153 16
113 2 2 1 1 36 114 35
114 2 2 1 1 163 196 122
115 2 2 1 1 87 129 86
116 2 2 1 1 143 149 51
117 2 2 1 1 33 133 32
118 2 2 1 1 59 139 60
119 2 2 1 1 110 180 104
120 2 2 1 1 178 182 123
121 2 2 1 1 81 166 80
122 2 2 1 1 88 177 3
123 2 2 1 1 124 145 99
124 2 2 1 1 35 133 34
125 2 2 1 1 84 173 144
126 2 2 1 1 54 213 53
127 2 2 1 1 3 146 87
128 2 2 1 1 49 158 50
129 2 2 1 1 20 185 152
130 2 2 1 1 138 149 109
131 2 2 1 1 40 197 156
132 2 2 1 1 51 183 173
133 2 2 1 1 50 159 51
134 2 2 1 1 190 210 107
135 2 2 1 1 69 219 68
136 2 2 1 1 151 194 93
137 2 2 1 1 61 118 62
138 2 2 1 1 27 112 28
139 2 2 1 1 95 183 97
140 2 2 1 1 60 118 61
141 2 2 1 1 62 118 63
142 2 2 1 1 49 149 48
143 2 2 1 1 123 182 89
144 2 2 1 1 99 178 126
145 2 2 1 1 98 145 124
146 2 2 1 1 106 195 134
147 2 2 1 1 23 120 24
148 2 2 1 1 164 208 129
149 2 2 1 1 146 164 87
150 2 2 1 1 20 152 19
151 2 2 1 1 34 155 35
152 2 2 1 1 40 156 39
153 2 2 1 1 69 161 70
154 2 2 1 1 24 120 25
155 2 2 1 1 159 183 51
156 2 2 1 1 92 201 116
157 2 2 1 1 105 130 15
158 2 2 1 1 2 174 85
159 2 2 1 1 123 220 169
160 2 2 1 1 171 220 116
161 2 2 1 1 20 120 21
162 2 2 1 1 22 120 23
163 2 2 1 1 99 176 124
164 2 2 1 1 144 183 95
165 2 2 1 1 125 178 99
166 2 2 1 1 125 182 178
167 2 2 1 1 92 116 91
168 2 2 1 1 12 167 11
169 2 2 1 1 86 174 2
170 2 2 1 1 3 177 146
171 2 2 1 1 176 212 52
172 2 2 1 1 83 144 95
173 2 2 1 1 19 120 20
174 2 2 1 1 52 160 53
175 2 2 1 1 7 168 6
176 2 2 1 1 146 200 98
177 2 2 1 1 56 191 55
178 2 2 1 1 96 110 104
179 2 2 1 1 15 216 211
180 2 2 1 1 42 198 41
181 2 2 1 1 25 120 26
182 2 2 1 1 147 190 107
183 2 2 1 1 26 120 27
184 2 2 1 1 25 207 24
185 2 2 1 1 202 203 129
186 2 2 1 1 93 204 92
187 2 2 1 1 103 217 11
188 2 2 1 1 5 181 169
189 2 2 1 1 171 184 167
190 2 2 1 1 161 187 71
191 2 2 1 1 85 174 163
192 2 2 1 1 22 221 21
193 2 2 1 1 15 211 105
194 2 2 1 1 38 155 39
195 2 2 1 1 57 117 56
196 2 2 1 1 63 118 64
197 2 2 1 1 169 181 178
198 2 2 1 1 186 202 96
199 2 2 1 1 163 174 94
200 2 2 1 1 127 186 104
201 2 2 1 1 91 128 4
202 2 2 1 1 122 143 84
203 2 2 1 1 134 215 97
204 2 2 1 1 104 186 96
205 2 2 1 1 94 186 163
206 2 2 1 1 124 172 100
207 2 2 1 1 33 195 34
208 2 2 1 1 62 188 61
209 2 2 1 1 10 119 9
210 2 2 1 1 115 194 193
211 2 2 1 1 96 147 107
212 2 2 1 1 71 187 72
213 2 2 1 1 94 202 186
214 2 2 1 1 121 193 150
215 2 2 1 1 115 193 121
216 2 2 1 1 11 167 103
217 2 2 1 1 143 173 84
218 2 2 1 1 178 181 126
219 2 2 1 1 21 185 20
220 2 2 1 1 6 181 5
221 2 2 1 1 150 206 95
222 2 2 1 1 135 137 44
223 2 2 1 1 46 138 136
224 2 2 1 1 169 220 14
225 2 2 1 1 121 184 115
226 2 2 1 1 107 188 110
227 2 2 1 1 193 206 150
228 2 2 1 1 13 220 171
229 2 2 1 1 116 128 91
230 2 2 1 1 168 181 6
231 2 2 1 1 12 171 167
232 2 2 1 1 41 197 40
233 2 2 1 1 126 176 99
234 2 2 1 1 147 202 129
235 2 2 1 1 76 190 117
236 2 2 1 1 94 203 202
237 2 2 1 1 193 194 151
238 2 2 1 1 30 132 31
239 2 2 1 1 37 155 38
240 2 2 1 1 41 135 42
241 2 2 1 1 44 137 45
242 2 2 1 1 46 136 45
243 2 2 1 1 55 160 56
244 2 2 1 1 56 139 57
245 2 2 1 1 58 225 57
246 2 2 1 1 63 141 62
247 2 2 1 1 67 141 66
248 2 2 1 1 66 161 67
249 2 2 1 1 76 225 77
250 2 2 1 1 78 140 77
251 2 2 1 1 139 160 101
252 2 2 1 1 24 207 108
253 2 2 1 1 21 120 22
254 2 2 1 1 60 139 118
255 2 2 1 1 149 196 109
256 2 2 1 1 106 134 97
257 2 2 1 1 100 209 124
258 2 2 1 1 129 208 147
259 2 2 1 1 184 201 115
260 2 2 1 1 79 177 88
261 2 2 1 1 169 178 123
262 2 2 1 1 145 166 99
263 2 2 1 1 128 220 123
264 2 2 1 1 108 170 24
265 2 2 1 1 107 110 96
266 2 2 1 1 150 211 154
267 2 2 1 1 98 200 145
268 2 2 1 1 153 222 154
269 2 2 1 1 4 128 90
270 2 2 1 1 150 154 121
271 2 2 1 1 90 128 123
272 2 2 1 1 179 187 161
273 2 2 1 1 96 202 147
274 2 2 1 1 116 220 128
275 2 2 1 1 194 204 93
276 2 2 1 1 8 165 7
277 2 2 1 1 68 180 110
278 2 2 1 1 182 192 82
279 2 2 1 1 14 220 13
280 2 2 1 1 54 191 172
281 2 2 1 1 118 139 101
282 2 2 1 1 152 185 103
283 2 2 1 1 116 184 171
284 2 2 1 1 143 196 149
285 2 2 1 1 95 218 150
286 2 2 1 1 55 191 54
287 2 2 1 1 65 179 66
288 2 2 1 1 176 213 124
289 2 2 1 1 165 168 7
290 2 2 1 1 115 204 194
291 2 2 1 1 118 148 64
292 2 2 1 1 211 216 154
293 2 2 1 1 172 213 54
294 2 2 1 1 148 179 65
295 2 2 1 1 124 209 98
296 2 2 1 1 62 141 110
297 2 2 1 1 110 141 67
298 2 2 1 1 77 210 76
299 2 2 1 1 156 197 111
300 2 2 1 1 43 198 42
301 2 2 1 1 170 221 23
302 2 2 1 1 112 120 19
303 2 2 1 1 127 214 186
304 2 2 1 1 132 215 31
305 2 2 1 1 151 206 193
306 2 2 1 1 97 183 159
307 2 2 1 1 26 207 25
308 2 2 1 1 97 218 95
309 2 2 1 1 114 133 35
310 2 2 1 1 10 217 119
311 2 2 1 1 101 212 168
312 2 2 1 1 121 222 184
313 2 2 1 1 184 222 167
314 2 2 1 1 34 195 113
315 2 2 1 1 11 217 10
316 2 2 1 1 153 216 16
317 2 2 1 1 110 188 62
318 2 2 1 1 152 153 17
319 2 2 1 1 48 149 138
320 2 2 1 1 16 216 15
321 2 2 1 1 158 159 50
322 2 2 1 1 112 132 28
323 2 2 1 1 56 160 139
324 2 2 1 1 116 201 184
325 2 2 1 1 82 192 81
326 2 2 1 1 53 213 52
327 2 2 1 1 201 204 115
328 2 2 1 1 126 181 168
329 2 2 1 1 23 221 22
330 2 2 1 1 102 187 179
331 2 2 1 1 172 191 100
332 2 2 1 1 113 155 34
333 2 2 1 1 154 222 121
334 2 2 1 1 70 219 69
335 2 2 1 1 124 213 172
336 2 2 1 1 106 137 113
337 2 2 1 1 164 209 208
338 2 2 1 1 79 205 200
339 2 2 1 1 18 130 112
340 2 2 1 1 36 175 114
341 2 2 1 1 119 199 9
342 2 2 1 1 31 215 134
343 2 2 1 1 112 130 105
344 2 2 1 1 27 120 112
345 2 2 1 1 103 222 153
346 2 2 1 1 68 219 180
347 2 2 1 1 111 197 104
348 2 2 1 1 99 166 125
349 2 2 1 1 208 209 100
350 2 2 1 1 9 199 8
351 2 2 1 1 102 179 148
352 2 2 1 1 186 214 163
353 2 2 1 1 79 200 177
354 2 2 1 1 122 196 143
355 2 2 1 1 215 218 97
356 2 2 1 1 92 204 201
357 2 2 1 1 167 222 103
358 2 2 1 1 74 162 114
359 2 2 1 1 114 175 74
360 2 2 1 1 97 159 106
361 2 2 1 1 16 130 17
362 2 2 1 1 27 131 26
363 2 2 1 1 29 131 28
364 2 2 1 1 28 132 29
365 2 2 1 1 32 134 33
366 2 2 1 1 43 135 44
367 2 2 1 1 44 136 43
368 2 2 1 1 46 137 47
369 2 2 1 1 47 138 46
370 2 2 1 1 58 139 59
371 2 2 1 1 60 140 59
372 2 2 1 1 65 141 64
373 2 2 1 1 72 142 71
374 2 2 1 1 196 214 109
375 2 2 1 1 109 214 127
376 2 2 1 1 57 225 117
377 2 2 1 1 117 225 76
378 2 2 1 1 119 217 185
379 2 2 1 1 104 197 127
380 2 2 1 1 190 208 100
381 2 2 1 1 108 187 102
382 2 2 1 1 113 195 106
383 2 2 1 1 127 198 109
384 2 2 1 1 105 218 215
385 2 2 1 1 126 212 176
386 2 2 1 1 134 195 33
387 2 2 1 1 113 137 135
388 2 2 1 1 103 153 152
389 2 2 1 1 163 214 196
390 2 2 1 1 106 158 137
391 2 2 1 1 80 205 79
392 2 2 1 1 173 183 144
393 2 2 1 1 147 208 190
394 2 2 1 1 166 205 80
395 2 2 1 1 211 218 105
396 2 2 1 1 185 217 103
397 2 2 1 1 81 192 166
398 2 2 1 1 102 170 108
399 2 2 1 1 61 188 140
400 2 2 1 1 117 191 56
401 2 2 1 1 15 130 16
402 2 2 1 1 17 130 18
403 2 2 1 1 18 152 17
404 2 2 1 1 28 131 27
405 2 2 1 1 29 132 30
406 2 2 1 1 30 133 29
407 2 2 1 1 31 134 32
408 2 2 1 1 36 155 37
409 2 2 1 1 38 156 75
410 2 2 1 1 40 157 41
411 2 2 1 1 42 135 43
412 2 2 1 1 45 136 44
413 2 2 1 1 45 137 46
414 2 2 1 1 48 138 47
415 2 2 1 1 47 158 48
416 2 2 1 1 54 160 55
417 2 2 1 1 57 139 58
418 2 2 1 1 59 140 78
419 2 2 1 1 61 140 60
420 2 2 1 1 64 141 63
421 2 2 1 1 66 141 65
422 2 2 1 1 67 161 68
423 2 2 1 1 71 142 70
424 2 2 1 1 73 142 72
425 2 2 1 1 72 162 73
426 2 2 1 1 19 152 18
427 2 2 1 1 35 155 36
428 2 2 1 1 39 156 38
429 2 2 1 1 39 157 40
430 2 2 1 1 48 158 49
431 2 2 1 1 53 160 54
432 2 2 1 1 68 161 69
433 2 2 1 1 73 162 74
434 2 2 1 1 72 187 162
435 2 2 1 1 101 168 165
436 2 2 1 1 148 165 102
437 2 2 1 1 150 218 211
438 2 2 1 1 168 212 126
439 2 2 1 1 101 148 118
440 2 2 1 1 21 221 185
441 2 2 1 1 41 198 197
442 2 2 1 1 170 199 119
443 2 2 1 1 117 190 100
444 2 2 1 1 155 157 39
445 2 2 1 1 180 219 111
446 2 2 1 1 136 138 109
447 2 2 1 1 105 132 112
448 2 2 1 1 136 198 43
449 2 2 1 1 125 192 182
450 2 2 1 1 8 199 165
451 2 2 1 1 106 159 158
452 2 2 1 1 131 207 26
453 2 2 1 1 145 205 166
454 2 2 1 1 100 191 117
455 2 2 1 1 154 216 153
456 2 2 1 1 105 215 132
457 2 2 1 1 119 221 170
458 2 2 1 1 142 219 70
459 2 2 1 1 66 179 161
460 2 2 1 1 140 210 77
461 2 2 1 1 74 175 75
462 2 2 1 1 188 210 140
463 2 2 1 1 101 165 148
464 2 2 1 1 29 133 131
465 2 2 1 1 41 157 135
466 2 2 1 1 137 158 47
467 2 2 1 1 73 189 142
468 2 2 1 1 156 189 75
469 2 2 1 1 200 205 145
470 2 2 1 1 142 189 156
471 2 2 1 1 114 162 108
472 2 2 1 1 104 180 111
473 2 2 1 1 165 199 102
474 2 2 1 1 177 200 146
475 2 2 1 1 109 198 136
476 2 2 1 1 142 156 111
477 2 2 1 1 108 207 114
478 2 2 1 1 74 189 73
479 2 2 1 1 75 189 74
480 2 2 1 1 107 210 188
481 2 2 1 1 162 187 108
482 2 2 1 1 102 199 170
483 2 2 1 1 37 175 36
484 2 2 1 1 166 192 125
485 2 2 1 1 114 207 131
486 2 2 1 1 131 133 114
487 2 2 1 1 111 219 142
488 2 2 1 1 113 157 155
489 2 2 1 1 197 198 127
490 2 2 1 1 135 157 113
491 2 2 1 1 185 221 119
492 2 2 1 1 30 223 133
493 2 2 1 1 133 223 32
494 2 2 1 1 175 224 75
495 2 2 1 1 31 223 30
496 2 2 1 1 32 223 31
497 2 2 1 1 38 224 37
498 2 2 1 1 75 224 38
499 2 2 1 1 78 225 58
500 2 2 1 1 77 225 78
501 2 2 1 1 37 224 175
502 2 2 1 1 88 89 82
503 2 2 1 1 89 182 82
504 2 2 1 1 83 151 1
505 2 2 1 1 50 149 49
506 2 2 1 1 51 149 50
507 2 2 1 1 78 58 59
508 2 2 1 1 79 88 80
509 2 2 1 1 80 88 81
510 2 2 1 1 81 88 82
511 2 2 1 1 83 206 151
512 2 2 1 1 87 164 129
513 2 2 1 1 90 123 89
514 2 2 1 1 174 203 94
515 2 2 1 1 98 164 146
516 2 2 1 1 98 209 164
517 2 2 1 2 5 228 14
518 2 2 1 2 11 226 10
519 2 2 1 2 12 227 11
520 2 2 1 2 6 227 5
521 2 2 1 2 7 226 6
522 2 2 1 2 13 228 12
523 2 2 1 2 9 226 8
524 2 2 1 2 8 226 7
525 2 2 1 2 10 226 9
526 2 2 1 2 226 227 6
527 2 2 1 2 11 227 226
528 2 2 1 2 14 228 13
529 2 2 1 2 227 228 5
530 2 2 1 2 12 228 227
$EndElements
