$MeshFormat
2.2 0 8
$EndMeshFormat
$PhysicalNames
4
1 2 "boundary::domain"
1 3 "geology::active_interfaces"
1 4 "river::trace"
2 1 "zone::domain"
$EndPhysicalNames
$Nodes
262
1 307912.5 6680437.5 0
2 307912.5 6687037.5 0
3 313462.5 6687037.5 0
4 313462.5 6680437.5 0
5 311250 6682350 0
6 311175 6682425 0
7 311175 6682500 0
8 311100 6682575 0
9 311025 6682575 0
10 310950 6682650 0
11 310875 6682725 0
12 310800 6682725 0
13 310725 6682725 0
14 310650 6682800 0
15 310575 6682800 0
16 310500 6682875 0
17 310425 6682875 0
18 310350 6682950 0
19 310275 6682950 0
20 310200 6682950 0
21 310200 6683025 0
22 310200 6683100 0
23 310200 6683175 0
24 310125 6683250 0
25 310050 6683325 0
26 309975 6683400 0
27 310050 6683475 0
28 310050 6683550 0
29 309975 6683550 0
30 309900 6683625 0
31 309900 6683700 0
32 309825 6683775 0
33 309750 6683850 0
34 309750 6683925 0
35 309675 6684000 0
36 309675 6684075 0
37 309600 6684075 0
38 309525 6684150 0
39 309450 6684150 0
40 309450 6684225 0
41 309450 6684300 0
42 309375 6684375 0
43 309375 6684450 0
44 309375 6684525 0
45 309300 6684600 0
46 309300 6684675 0
47 309300 6684750 0
48 309300 6684825 0
49 309300 6684900 0
50 309375 6684975 0
51 309375 6685050 0
52 309375 6685125 0
53 309450 6685200 0
54 309450 6685275 0
55 309525 6685350 0
56 309450 6685425 0
57 309525 6685500 0
58 309525 6685575 0
59 309525 6685650 0
60 309525 6685725 0
61 309487.5 6685762.5 0
62 311100 6683700 0
63 311025 6683625 0
64 310950 6683625 0
65 310875 6683550 0
66 310800 6683475 0
67 310725 6683400 0
68 310650 6683400 0
69 310575 6683400 0
70 310500 6683325 0
71 310425 6683325 0
72 310350 6683250 0
73 310275 6683250 0
74 310275 6684900 0
75 310275 6684975 0
76 310200 6685050 0
77 310200 6685125 0
78 310125 6685200 0
79 310050 6685200 0
80 309975 6685275 0
81 309900 6685275 0
82 309825 6685350 0
83 309750 6685350 0
84 309675 6685350 0
85 309600 6685350 0
86 308287.3073342915 6685425.990932208 0
87 309040.5733271226 6685664.723229152 0
88 311448.4328679041 6686003.858575716 0
89 307912.5 6682031.680016318 0
90 307912.5 6683234.503141567 0
91 307912.5 6684451.665427675 0
92 307912.5 6685606.034949121 0
93 309762.5 6687037.5 0
94 311612.5 6687037.5 0
95 313462.5 6685183.972768271 0
96 313462.5 6683688.43905164 0
97 313462.5 6682240.873999882 0
98 311985.4057989002 6680437.5 0
99 310845.2882901576 6680437.5 0
100 309566.9710571368 6680437.5 0
101 308719.8118036628 6685563.064404786 0
102 309341.5557697203 6685707.115147472 0
103 309642.538212318 6685749.507065793 0
104 309943.5206549157 6685791.898984114 0
105 310244.5030975133 6685834.290902434 0
106 310545.485540111 6685876.682820754 0
107 310846.4679827087 6685919.074739074 0
108 311147.4504253064 6685961.466657395 0
109 310500 6681900 0
110 308902.909667274 6683194.286557331 0
111 311694.4364768758 6683116.25447979 0
112 310564.7975894485 6684143.243525429 0
113 311430.7306393152 6684769.750709538 0
114 309853.9510541058 6684562.44655757 0
115 311233.6180295984 6683106.731630181 0
116 309337.5 6683737.5 0
117 309688.997496332 6682932.375797761 0
118 309806.5793159369 6684948.547287336 0
119 310725 6682350 0
120 310331.344267401 6683645.938078697 0
121 310696.7067088896 6683106.862958889 0
122 310786.770608896 6685270.481877679 0
123 308501.8023795476 6684837.055183652 0
124 310195.9940215523 6682664.727757963 0
125 309699.4254898522 6684338.103490591 0
126 309183.9743299035 6684184.751532611 0
127 309597.9114118923 6684651.380635179 0
128 309112.5 6685087.5 0
129 309597.6974144921 6685224.818410917 0
130 309712.5 6685537.5 0
131 310170.3639355954 6685538.440903773 0
132 310301.25 6683088.75 0
133 310189.6988600641 6683397.351742292 0
134 309825 6683475 0
135 311958.0764307682 6684087.397880048 0
136 310077.5221717979 6684318.315454008 0
137 309476.0080645161 6681996.169354838 0
138 311642.6219483099 6682621.098429293 0
139 311975.7931298823 6681605.155961968 0
140 311259.3724240666 6681484.379293222 0
141 308896.7283755444 6684804.723183574 0
142 308980.9046136923 6686492.142097389 0
143 310661.0508171603 6683838.94918284 0
144 311026.1479591837 6682464.413265307 0
145 310762.5 6682837.5 0
146 310620.6997084548 6682663.811953353 0
147 310611.27250403 6682909.543894857 0
148 310455.6834105584 6682755.65908964 0
149 310462.5 6682987.5 0
150 310316.9462386851 6682857.5644746 0
151 310031.2657112335 6683662.864679783 0
152 309608.0357142857 6683890.178571428 0
153 309797.1605055045 6684067.64901291 0
154 309604.8694279081 6684170.464643357 0
155 309487.5 6684037.5 0
156 309337.5 6684262.5 0
157 309474.4731532392 6684452.243278139 0
158 309292.7877289472 6684433.53593323 0
159 309394.2692235902 6684645.160559045 0
160 309412.5 6684862.5 0
161 309262.5 6685012.5 0
162 309485.385380656 6685064.374050843 0
163 309337.5 6685237.5 0
164 310612.5 6683287.5 0
165 310462.5 6683437.5 0
166 310462.5 6683212.5 0
167 310338.9238545775 6683384.298303498 0
168 310150.7119424927 6684938.05111778 0
169 310343.5326246916 6685087.871182521 0
170 310586.1221578371 6684910.529012368 0
171 310067.1130369185 6685089.156915016 0
172 310097.0019552958 6685320.848116659 0
173 309931.0320588092 6685170.867367059 0
174 309941.9377948839 6685414.918950768 0
175 309783.6155413198 6685238.461866473 0
176 311082.9495067692 6682221.177482363 0
177 310031.25 6683906.25 0
178 309632.0512476318 6683650.972216493 0
179 311320.5451073847 6682473.974114891 0
180 311306.25 6682706.25 0
181 311041.9631118528 6682698.213111852 0
182 310837.5 6682612.5 0
183 310087.5 6683137.5 0
184 309794.0021408912 6683668.632909165 0
185 309857.2248761586 6683883.113763923 0
186 309419.9981358511 6685548.12595293 0
187 309457.5348582101 6685677.948317566 0
188 310956.1077628738 6683745.705423672 0
189 311229.5079671855 6684276.023901557 0
190 310970.3125 6683504.6875 0
191 310950.3451299435 6683292.15153717 0
192 311231.25 6683493.75 0
193 310669.4709061109 6683526.406777908 0
194 311551.1672764384 6685290.072049003 0
195 312246.4641083083 6685778.225629219 0
196 309657.6622142635 6686399.196900426 0
197 309226.6395460102 6686030.239220559 0
198 311807.0582962435 6682154.433241773 0
199 308582.890946397 6685974.242119031 0
200 308676.3157894737 6683767.105263158 0
201 311432.570545249 6683853.470458693 0
202 310229.0758402683 6686426.622915894 0
203 310742.8235334328 6686550.386903304 0
204 310319.6759752018 6685313.500219451 0
205 309581.25 6685418.75 0
206 312770.8878353746 6682868.990919468 0
207 312414.5820490913 6683446.975477231 0
208 311413.9132904935 6681988.187561314 0
209 308699.3577126787 6682415.040228738 0
210 308914.80953735 6681426.344972073 0
211 309615.6139544395 6686006.21839743 0
212 309954.6008316689 6681289.929559264 0
213 309793.3364290161 6682548.303358771 0
214 309586.0076424636 6685647.401413159 0
215 309108.1520171795 6684613.660873731 0
216 310427.7067045291 6684645.403720757 0
217 310037.5868534673 6682970.608770213 0
218 308725.0227432889 6684390.637661626 0
219 312468.6859230884 6682193.887114787 0
220 311353.0228914127 6686363.234866172 0
221 310634.1492581228 6686227.455686973 0
222 309882.8970165172 6683221.210373584 0
223 311045.4303275621 6685596.125923926 0
224 312751.996663403 6684217.12643894 0
225 309516.194765821 6683307.988047115 0
226 310197.424715016 6683268.087935573 0
227 309975 6683475 0
228 309401.7857142857 6685341.428571428 0
229 308944.2455083603 6685383.824682241 0
230 309147.9716388517 6684787.5 0
231 310007.823322163 6686097.761474394 0
232 309309.7338798895 6682723.308384534 0
233 311486.8277284863 6682317.538669454 0
234 310332.2074116357 6686092.56276009 0
235 310944.7828181967 6686204.323770584 0
236 310906.6936854646 6684644.069258923 0
237 310661.3613835452 6681299.043242349 0
238 308743.7325669011 6685183.69306441 0
239 310822.325897229 6683657.212276883 0
240 311032.1039454887 6683945.750937233 0
241 310948.7830015096 6681834.997207346 0
242 312077.1032568207 6686435.209146703 0
243 311747.1610920933 6681047.471706948 0
244 312406.4872224205 6681021.258860692 0
245 312807.2991340081 6681538.395488076 0
246 310066.174715016 6683399.337935573 0
247 310057.4898911256 6682139.438338473 0
248 309256.0198069175 6685424.402197903 0
249 310098.5785314771 6684718.794022908 0
250 312133.0454214973 6682733.60661039 0
251 310465.4477009346 6685586.485432063 0
252 310988.0711115297 6682941.010343148 0
253 310411.9357292304 6684928.717405021 0
254 310737.9204320425 6685649.7701587 0
255 311869.9429597115 6683580.205943363 0
256 312233.4891863722 6684887.75757917 0
257 311487.7890011038 6685725.949767052 0
258 310425.2111547138 6682430.933167579 0
259 310244.0625 6683003.4375 0
260 310012.5 6683512.5 0
261 309609.1071428572 6684015.535714285 0
262 309495.9738855816 6684199.092928671 0
$EndNodes
$Elements
612
1 1 2 2 1 1 89
2 1 2 2 1 89 90
3 1 2 2 1 90 91
4 1 2 2 1 91 92
5 1 2 2 1 92 2
6 1 2 2 2 2 93
7 1 2 2 2 93 94
8 1 2 2 2 94 3
9 1 2 2 3 3 95
10 1 2 2 3 95 96
11 1 2 2 3 96 97
12 1 2 2 3 97 4
13 1 2 2 4 4 98
14 1 2 2 4 98 99
15 1 2 2 4 99 100
16 1 2 2 4 100 1
17 1 2 4 5 5 6
18 1 2 4 6 6 7
19 1 2 4 7 7 8
20 1 2 4 8 8 9
21 1 2 4 9 9 10
22 1 2 4 10 10 11
23 1 2 4 11 11 12
24 1 2 4 12 12 13
25 1 2 4 13 13 14
26 1 2 4 14 14 15
27 1 2 4 15 15 16
28 1 2 4 16 16 17
29 1 2 4 17 17 18
30 1 2 4 18 18 19
31 1 2 4 19 19 20
32 1 2 4 20 20 21
33 1 2 4 21 21 22
34 1 2 4 22 22 23
35 1 2 4 23 23 24
36 1 2 4 24 24 25
37 1 2 4 25 25 26
38 1 2 4 26 26 27
39 1 2 4 27 27 28
40 1 2 4 28 28 29
41 1 2 4 29 29 30
42 1 2 4 30 30 31
43 1 2 4 31 31 32
44 1 2 4 32 32 33
45 1 2 4 33 33 34
46 1 2 4 34 34 35
47 1 2 4 35 35 36
48 1 2 4 36 36 37
49 1 2 4 37 37 38
50 1 2 4 38 38 39
51 1 2 4 39 39 40
52 1 2 4 40 40 41
53 1 2 4 41 41 42
54 1 2 4 42 42 43
55 1 2 4 43 43 44
56 1 2 4 44 44 45
57 1 2 4 45 45 46
58 1 2 4 46 46 47
59 1 2 4 47 47 48
60 1 2 4 48 48 49
61 1 2 4 49 49 50
62 1 2 4 50 50 51
63 1 2 4 51 51 52
64 1 2 4 52 52 53
65 1 2 4 53 53 54
66 1 2 4 54 54 55
67 1 2 4 55 55 56
68 1 2 4 56 56 57
69 1 2 4 57 57 58
70 1 2 4 58 58 59
71 1 2 4 59 59 60
72 1 2 4 60 60 61
73 1 2 4 61 62 63
74 1 2 4 62 63 64
75 1 2 4 63 64 65
76 1 2 4 64 65 66
77 1 2 4 65 66 67
78 1 2 4 66 67 68
79 1 2 4 67 68 69
80 1 2 4 68 69 70
81 1 2 4 69 70 71
82 1 2 4 70 71 72
83 1 2 4 71 72 73
84 1 2 4 72 73 23
85 1 2 4 73 74 75
86 1 2 4 74 75 76
87 1 2 4 75 76 77
88 1 2 4 76 77 78
89 1 2 4 77 78 79
90 1 2 4 78 79 80
91 1 2 4 79 80 81
92 1 2 4 80 81 82
93 1 2 4 81 82 83
94 1 2 4 82 83 84
95 1 2 4 83 84 85
96 1 2 4 84 85 55
97 1 2 3 85 86 101
98 1 2 3 85 101 87
99 1 2 4 86 87 102
100 1 2 4 86 102 103
101 1 2 4 86 103 104
102 1 2 4 86 104 105
103 1 2 4 86 105 106
104 1 2 4 86 106 107
105 1 2 4 86 107 108
106 1 2 4 86 108 88
107 2 2 1 1 139 208 198
108 2 2 1 1 140 208 139
109 2 2 1 1 135 189 113
110 2 2 1 1 28 133 27
111 2 2 1 1 61 211 103
112 2 2 1 1 206 207 96
113 2 2 1 1 140 243 99
114 2 2 1 1 99 237 140
115 2 2 1 1 126 215 158
116 2 2 1 1 110 209 90
117 2 2 1 1 124 217 20
118 2 2 1 1 39 155 126
119 2 2 1 1 8 180 7
120 2 2 1 1 62 201 192
121 2 2 1 1 212 237 99
122 2 2 1 1 90 200 110
123 2 2 1 1 2 199 92
124 2 2 1 1 112 240 143
125 2 2 1 1 87 199 197
126 2 2 1 1 104 130 103
127 2 2 1 1 138 250 198
128 2 2 1 1 66 191 67
129 2 2 1 1 78 204 77
130 2 2 1 1 201 255 192
131 2 2 1 1 189 240 112
132 2 2 1 1 91 200 90
133 2 2 1 1 91 218 200
134 2 2 1 1 101 199 87
135 2 2 1 1 116 200 126
136 2 2 1 1 55 129 54
137 2 2 1 1 194 256 113
138 2 2 1 1 62 240 201
139 2 2 1 1 198 250 219
140 2 2 1 1 195 257 88
141 2 2 1 1 122 194 113
142 2 2 1 1 54 129 53
143 2 2 1 1 85 129 55
144 2 2 1 1 83 130 82
145 2 2 1 1 137 247 212
146 2 2 1 1 102 248 87
147 2 2 1 1 5 176 6
148 2 2 1 1 62 192 63
149 2 2 1 1 113 236 122
150 2 2 1 1 213 217 124
151 2 2 1 1 198 233 138
152 2 2 1 1 139 243 140
153 2 2 1 1 135 224 207
154 2 2 1 1 168 249 118
155 2 2 1 1 144 182 9
156 2 2 1 1 97 206 96
157 2 2 1 1 136 249 216
158 2 2 1 1 5 208 176
159 2 2 1 1 212 247 109
160 2 2 1 1 9 182 10
161 2 2 1 1 11 181 10
162 2 2 1 1 32 185 31
163 2 2 1 1 32 184 33
164 2 2 1 1 135 201 189
165 2 2 1 1 74 253 216
166 2 2 1 1 211 231 104
167 2 2 1 1 192 255 111
168 2 2 1 1 202 231 196
169 2 2 1 1 209 232 137
170 2 2 1 1 98 244 4
171 2 2 1 1 104 231 105
172 2 2 1 1 5 233 208
173 2 2 1 1 104 174 130
174 2 2 1 1 122 236 170
175 2 2 1 1 110 232 209
176 2 2 1 1 3 242 94
177 2 2 1 1 143 240 188
178 2 2 1 1 96 224 95
179 2 2 1 1 118 171 168
180 2 2 1 1 28 151 120
181 2 2 1 1 110 200 116
182 2 2 1 1 90 209 89
183 2 2 1 1 94 220 203
184 2 2 1 1 99 243 98
185 2 2 1 1 25 222 26
186 2 2 1 1 24 183 25
187 2 2 1 1 65 190 66
188 2 2 1 1 66 193 65
189 2 2 1 1 97 219 206
190 2 2 1 1 46 230 47
191 2 2 1 1 48 230 49
192 2 2 1 1 113 256 135
193 2 2 1 1 216 249 74
194 2 2 1 1 197 211 61
195 2 2 1 1 112 236 189
196 2 2 1 1 117 217 213
197 2 2 1 1 176 241 119
198 2 2 1 1 108 220 88
199 2 2 1 1 106 221 107
200 2 2 1 1 45 215 46
201 2 2 1 1 100 212 99
202 2 2 1 1 206 250 207
203 2 2 1 1 207 250 111
204 2 2 1 1 200 218 126
205 2 2 1 1 131 174 104
206 2 2 1 1 108 223 107
207 2 2 1 1 111 255 207
208 2 2 1 1 207 255 135
209 2 2 1 1 194 257 195
210 2 2 1 1 111 180 115
211 2 2 1 1 120 177 112
212 2 2 1 1 58 130 57
213 2 2 1 1 84 130 83
214 2 2 1 1 84 129 85
215 2 2 1 1 137 232 213
216 2 2 1 1 121 164 67
217 2 2 1 1 115 192 111
218 2 2 1 1 1 210 100
219 2 2 1 1 169 204 122
220 2 2 1 1 224 256 95
221 2 2 1 1 207 224 96
222 2 2 1 1 109 237 212
223 2 2 1 1 118 173 171
224 2 2 1 1 105 131 104
225 2 2 1 1 120 133 28
226 2 2 1 1 95 195 3
227 2 2 1 1 126 218 215
228 2 2 1 1 138 180 111
229 2 2 1 1 109 241 237
230 2 2 1 1 126 155 116
231 2 2 1 1 219 250 206
232 2 2 1 1 213 247 137
233 2 2 1 1 244 245 4
234 2 2 1 1 137 212 210
235 2 2 1 1 237 241 140
236 2 2 1 1 188 239 143
237 2 2 1 1 117 232 225
238 2 2 1 1 136 216 112
239 2 2 1 1 122 223 194
240 2 2 1 1 122 170 169
241 2 2 1 1 13 182 146
242 2 2 1 1 36 154 153
243 2 2 1 1 156 158 42
244 2 2 1 1 44 159 157
245 2 2 1 1 50 162 160
246 2 2 1 1 161 163 52
247 2 2 1 1 165 193 69
248 2 2 1 1 179 233 5
249 2 2 1 1 89 210 1
250 2 2 1 1 216 236 112
251 2 2 1 1 106 251 105
252 2 2 1 1 123 218 91
253 2 2 1 1 73 132 23
254 2 2 1 1 141 238 128
255 2 2 1 1 186 248 102
256 2 2 1 1 198 219 139
257 2 2 1 1 130 174 82
258 2 2 1 1 142 199 2
259 2 2 1 1 114 249 136
260 2 2 1 1 29 134 30
261 2 2 1 1 97 245 219
262 2 2 1 1 49 230 161
263 2 2 1 1 65 239 64
264 2 2 1 1 118 249 114
265 2 2 1 1 219 245 139
266 2 2 1 1 12 145 11
267 2 2 1 1 12 182 13
268 2 2 1 1 19 150 20
269 2 2 1 1 21 183 22
270 2 2 1 1 39 156 40
271 2 2 1 1 41 262 40
272 2 2 1 1 42 158 43
273 2 2 1 1 44 157 43
274 2 2 1 1 47 159 46
275 2 2 1 1 48 160 47
276 2 2 1 1 51 162 50
277 2 2 1 1 51 161 52
278 2 2 1 1 67 164 68
279 2 2 1 1 69 193 68
280 2 2 1 1 83 175 84
281 2 2 1 1 107 235 108
282 2 2 1 1 105 234 106
283 2 2 1 1 220 242 88
284 2 2 1 1 151 177 120
285 2 2 1 1 11 252 181
286 2 2 1 1 225 232 110
287 2 2 1 1 116 225 110
288 2 2 1 1 181 252 180
289 2 2 1 1 67 191 121
290 2 2 1 1 135 256 224
291 2 2 1 1 88 257 108
292 2 2 1 1 231 234 105
293 2 2 1 1 101 238 86
294 2 2 1 1 188 240 62
295 2 2 1 1 125 157 127
296 2 2 1 1 137 210 209
297 2 2 1 1 210 212 100
298 2 2 1 1 112 143 120
299 2 2 1 1 87 229 101
300 2 2 1 1 19 132 18
301 2 2 1 1 22 132 21
302 2 2 1 1 23 132 22
303 2 2 1 1 72 132 73
304 2 2 1 1 119 241 109
305 2 2 1 1 20 150 124
306 2 2 1 1 126 156 39
307 2 2 1 1 197 199 142
308 2 2 1 1 215 218 141
309 2 2 1 1 213 232 117
310 2 2 1 1 128 238 229
311 2 2 1 1 170 253 169
312 2 2 1 1 145 252 11
313 2 2 1 1 223 254 107
314 2 2 1 1 109 258 119
315 2 2 1 1 108 235 220
316 2 2 1 1 221 235 107
317 2 2 1 1 106 234 221
318 2 2 1 1 74 249 168
319 2 2 1 1 112 177 136
320 2 2 1 1 107 254 106
321 2 2 1 1 114 127 118
322 2 2 1 1 47 230 48
323 2 2 1 1 124 247 213
324 2 2 1 1 190 191 66
325 2 2 1 1 108 257 223
326 2 2 1 1 190 192 191
327 2 2 1 1 201 240 189
328 2 2 1 1 20 217 21
329 2 2 1 1 26 222 134
330 2 2 1 1 125 154 41
331 2 2 1 1 75 253 74
332 2 2 1 1 41 157 125
333 2 2 1 1 93 202 196
334 2 2 1 1 195 242 3
335 2 2 1 1 189 236 113
336 2 2 1 1 105 251 131
337 2 2 1 1 128 248 163
338 2 2 1 1 58 187 59
339 2 2 1 1 85 205 84
340 2 2 1 1 196 231 211
341 2 2 1 1 170 236 216
342 2 2 1 1 25 133 24
343 2 2 1 1 139 244 243
344 2 2 1 1 120 193 165
345 2 2 1 1 59 214 58
346 2 2 1 1 180 252 115
347 2 2 1 1 183 222 25
348 2 2 1 1 154 262 41
349 2 2 1 1 195 256 194
350 2 2 1 1 143 193 120
351 2 2 1 1 119 182 144
352 2 2 1 1 86 199 101
353 2 2 1 1 87 248 229
354 2 2 1 1 6 176 144
355 2 2 1 1 7 180 179
356 2 2 1 1 8 181 180
357 2 2 1 1 31 177 151
358 2 2 1 1 33 178 152
359 2 2 1 1 63 192 190
360 2 2 1 1 179 180 138
361 2 2 1 1 203 221 202
362 2 2 1 1 208 241 176
363 2 2 1 1 178 225 116
364 2 2 1 1 146 182 119
365 2 2 1 1 204 251 122
366 2 2 1 1 47 160 159
367 2 2 1 1 138 233 179
368 2 2 1 1 61 187 102
369 2 2 1 1 111 250 138
370 2 2 1 1 77 204 169
371 2 2 1 1 172 204 78
372 2 2 1 1 144 176 119
373 2 2 1 1 31 185 177
374 2 2 1 1 33 184 178
375 2 2 1 1 139 245 244
376 2 2 1 1 123 238 141
377 2 2 1 1 153 154 125
378 2 2 1 1 136 153 125
379 2 2 1 1 216 253 170
380 2 2 1 1 247 258 109
381 2 2 1 1 141 218 123
382 2 2 1 1 93 196 142
383 2 2 1 1 229 238 101
384 2 2 1 1 209 210 89
385 2 2 1 1 229 248 128
386 2 2 1 1 116 155 152
387 2 2 1 1 125 127 114
388 2 2 1 1 94 242 220
389 2 2 1 1 124 258 247
390 2 2 1 1 193 239 65
391 2 2 1 1 143 239 193
392 2 2 1 1 135 255 201
393 2 2 1 1 222 225 134
394 2 2 1 1 160 162 118
395 2 2 1 1 126 158 156
396 2 2 1 1 157 159 127
397 2 2 1 1 134 225 178
398 2 2 1 1 106 254 251
399 2 2 1 1 119 258 146
400 2 2 1 1 146 258 148
401 2 2 1 1 158 215 45
402 2 2 1 1 95 256 195
403 2 2 1 1 130 214 103
404 2 2 1 1 191 192 115
405 2 2 1 1 122 254 223
406 2 2 1 1 7 144 8
407 2 2 1 1 14 145 13
408 2 2 1 1 13 146 14
409 2 2 1 1 16 147 15
410 2 2 1 1 15 148 16
411 2 2 1 1 18 149 17
412 2 2 1 1 17 150 18
413 2 2 1 1 30 151 29
414 2 2 1 1 34 152 35
415 2 2 1 1 35 153 34
416 2 2 1 1 38 154 37
417 2 2 1 1 37 155 38
418 2 2 1 1 41 156 42
419 2 2 1 1 42 157 41
420 2 2 1 1 44 158 45
421 2 2 1 1 45 159 44
422 2 2 1 1 50 160 49
423 2 2 1 1 49 161 50
424 2 2 1 1 53 162 52
425 2 2 1 1 52 163 53
426 2 2 1 1 69 164 70
427 2 2 1 1 70 165 69
428 2 2 1 1 71 166 72
429 2 2 1 1 72 167 71
430 2 2 1 1 75 168 76
431 2 2 1 1 76 169 75
432 2 2 1 1 77 171 78
433 2 2 1 1 80 172 79
434 2 2 1 1 79 173 80
435 2 2 1 1 82 174 81
436 2 2 1 1 81 175 82
437 2 2 1 1 140 241 208
438 2 2 1 1 121 252 145
439 2 2 1 1 127 160 118
440 2 2 1 1 177 185 153
441 2 2 1 1 251 254 122
442 2 2 1 1 208 233 198
443 2 2 1 1 161 230 128
444 2 2 1 1 191 252 121
445 2 2 1 1 148 258 124
446 2 2 1 1 152 178 116
447 2 2 1 1 217 222 183
448 2 2 1 1 114 136 125
449 2 2 1 1 128 230 141
450 2 2 1 1 221 234 202
451 2 2 1 1 88 242 195
452 2 2 1 1 243 244 98
453 2 2 1 1 215 230 46
454 2 2 1 1 149 166 121
455 2 2 1 1 64 239 188
456 2 2 1 1 117 225 222
457 2 2 1 1 228 248 56
458 2 2 1 1 58 214 130
459 2 2 1 1 6 144 7
460 2 2 1 1 7 179 6
461 2 2 1 1 8 144 9
462 2 2 1 1 9 181 8
463 2 2 1 1 11 182 12
464 2 2 1 1 13 145 12
465 2 2 1 1 14 146 15
466 2 2 1 1 15 147 14
467 2 2 1 1 16 148 17
468 2 2 1 1 17 149 16
469 2 2 1 1 18 150 19
470 2 2 1 1 22 183 23
471 2 2 1 1 29 151 28
472 2 2 1 1 31 151 30
473 2 2 1 1 30 184 31
474 2 2 1 1 33 152 34
475 2 2 1 1 34 185 33
476 2 2 1 1 36 153 35
477 2 2 1 1 37 154 36
478 2 2 1 1 38 155 39
479 2 2 1 1 40 156 41
480 2 2 1 1 43 157 42
481 2 2 1 1 43 158 44
482 2 2 1 1 46 159 45
483 2 2 1 1 49 160 48
484 2 2 1 1 50 161 51
485 2 2 1 1 52 162 51
486 2 2 1 1 53 163 54
487 2 2 1 1 57 186 58
488 2 2 1 1 64 188 63
489 2 2 1 1 63 190 64
490 2 2 1 1 68 193 67
491 2 2 1 1 68 164 69
492 2 2 1 1 71 165 70
493 2 2 1 1 70 166 71
494 2 2 1 1 73 167 72
495 2 2 1 1 74 168 75
496 2 2 1 1 77 169 76
497 2 2 1 1 76 171 77
498 2 2 1 1 78 171 79
499 2 2 1 1 79 172 78
500 2 2 1 1 80 173 81
501 2 2 1 1 81 174 80
502 2 2 1 1 82 175 83
503 2 2 1 1 6 179 5
504 2 2 1 1 10 181 9
505 2 2 1 1 10 182 11
506 2 2 1 1 23 183 24
507 2 2 1 1 31 184 32
508 2 2 1 1 33 185 32
509 2 2 1 1 56 186 57
510 2 2 1 1 63 188 62
511 2 2 1 1 64 190 65
512 2 2 1 1 67 193 66
513 2 2 1 1 84 205 130
514 2 2 1 1 92 199 86
515 2 2 1 1 56 248 186
516 2 2 1 1 84 175 129
517 2 2 1 1 202 234 231
518 2 2 1 1 120 167 133
519 2 2 1 1 134 184 30
520 2 2 1 1 220 235 203
521 2 2 1 1 203 235 221
522 2 2 1 1 223 257 194
523 2 2 1 1 131 251 204
524 2 2 1 1 172 174 131
525 2 2 1 1 196 197 142
526 2 2 1 1 118 175 173
527 2 2 1 1 128 163 161
528 2 2 1 1 165 167 120
529 2 2 1 1 196 211 197
530 2 2 1 1 130 205 57
531 2 2 1 1 136 177 153
532 2 2 1 1 169 253 75
533 2 2 1 1 129 162 53
534 2 2 1 1 117 222 217
535 2 2 1 1 178 184 134
536 2 2 1 1 103 214 60
537 2 2 1 1 121 166 164
538 2 2 1 1 21 217 183
539 2 2 1 1 147 149 121
540 2 2 1 1 145 147 121
541 2 2 1 1 56 205 55
542 2 2 1 1 57 205 56
543 2 2 1 1 115 252 191
544 2 2 1 1 14 147 145
545 2 2 1 1 146 148 15
546 2 2 1 1 16 149 147
547 2 2 1 1 148 150 17
548 2 2 1 1 153 185 34
549 2 2 1 1 152 261 35
550 2 2 1 1 37 261 155
551 2 2 1 1 38 262 154
552 2 2 1 1 163 228 54
553 2 2 1 1 164 166 70
554 2 2 1 1 71 167 165
555 2 2 1 1 168 171 76
556 2 2 1 1 171 173 79
557 2 2 1 1 80 174 172
558 2 2 1 1 173 175 81
559 2 2 1 1 131 204 172
560 2 2 1 1 102 187 186
561 2 2 1 1 132 149 18
562 2 2 1 1 19 259 132
563 2 2 1 1 132 259 21
564 2 2 1 1 72 166 132
565 2 2 1 1 132 166 149
566 2 2 1 1 23 226 73
567 2 2 1 1 54 228 55
568 2 2 1 1 133 246 27
569 2 2 1 1 29 227 134
570 2 2 1 1 133 167 73
571 2 2 1 1 73 226 133
572 2 2 1 1 129 175 118
573 2 2 1 1 124 150 148
574 2 2 1 1 159 160 127
575 2 2 1 1 186 187 58
576 2 2 1 1 163 248 228
577 2 2 1 1 155 261 152
578 2 2 1 1 133 226 24
579 2 2 1 1 25 246 133
580 2 2 1 1 134 227 26
581 2 2 1 1 118 162 129
582 2 2 1 1 24 226 23
583 2 2 1 1 26 227 27
584 2 2 1 1 27 246 26
585 2 2 1 1 55 228 56
586 2 2 1 1 59 187 60
587 2 2 1 1 60 187 61
588 2 2 1 1 26 246 25
589 2 2 1 1 55 205 85
590 2 2 1 1 60 214 59
591 2 2 1 1 141 230 215
592 2 2 1 1 20 259 19
593 2 2 1 1 21 259 20
594 2 2 1 1 27 260 28
595 2 2 1 1 28 260 29
596 2 2 1 1 35 261 36
597 2 2 1 1 36 261 37
598 2 2 1 1 39 262 38
599 2 2 1 1 40 262 39
600 2 2 1 1 227 260 27
601 2 2 1 1 29 260 227
602 2 2 1 1 93 142 2
603 2 2 1 1 4 245 97
604 2 2 1 1 86 91 92
605 2 2 1 1 94 203 93
606 2 2 1 1 93 203 202
607 2 2 1 1 60 61 103
608 2 2 1 1 102 197 61
609 2 2 1 1 86 123 91
610 2 2 1 1 86 238 123
611 2 2 1 1 87 197 102
612 2 2 1 1 103 211 104
$EndElements
