$MeshFormat
2.2 0 8
$EndMeshFormat
$PhysicalNames
4
1 2 "boundary::domain"
1 3 "geology::active_interfaces"
1 4 "river::trace"
2 1 "zone::domain"
$EndPhysicalNames
$Nodes
209
1 150262.5 6857362.5 0
2 150262.5 6863812.5 0
3 156487.5 6863812.5 0
4 156487.5 6857362.5 0
5 154391.3179139125 6861716.317913912 0
6 154425 6861750 0
7 154425 6861825 0
8 154500 6861900 0
9 154500 6861975 0
10 154500 6861993.22945957 0
11 154058.3395986796 6861910.927716747 0
12 154350 6861675 0
13 154350 6861600 0
14 154275 6861525 0
15 154212.0089143917 6861462.008914391 0
16 154782.301969455 6861487.806547017 0
17 153225 6859275 0
18 153225 6859350 0
19 153150 6859425 0
20 153150 6859500 0
21 153150 6859575 0
22 153075 6859650 0
23 153075 6859725 0
24 153075 6859800 0
25 153150 6859875 0
26 153150 6859950 0
27 153225 6860025 0
28 153225 6860100 0
29 153300 6860175 0
30 153375 6860250 0
31 153375 6860325 0
32 153375 6860400 0
33 153375 6860475 0
34 152325 6860100 0
35 152400 6860175 0
36 152475 6860175 0
37 152550 6860250 0
38 152625 6860175 0
39 152700 6860175 0
40 152775 6860250 0
41 152850 6860325 0
42 152925 6860325 0
43 153000 6860400 0
44 153075 6860475 0
45 153150 6860400 0
46 153225 6860400 0
47 153300 6860400 0
48 150661.9510575751 6860004.616355485 0
49 150838.8791918119 6859974.39448011 0
50 151271.5576260248 6859693.01437223 0
51 151104.0069204665 6859173.083849312 0
52 151219.7330396171 6858972.785860605 0
53 151415.8260304353 6858812.220237551 0
54 151733.6197937125 6858811.480268167 0
55 152249.7040249077 6858800.161708321 0
56 152643.4488149695 6858599.141461548 0
57 152719.398980571 6858398.761497196 0
58 152672.3115137843 6857958.817443529 0
59 152595.1447215245 6857803.155767196 0
60 150685.2583150596 6861222.297657184 0
61 151406.3995592932 6861335.095078093 0
62 152856.9861521214 6862612.86339737 0
63 153048.987362862 6862500.625082681 0
64 153597.3425726793 6862563.00115159 0
65 153826.355846871 6862632.625916268 0
66 154136.499404932 6862812.432203368 0
67 154397.7354225058 6863062.485105371 0
68 154679.8739143852 6863414.506388261 0
69 154893.6192569174 6863439.438792785 0
70 153115.4788748813 6863102.890418648 0
71 153345.612098533 6863014.728226283 0
72 153558.9269954434 6863434.409018198 0
73 154036.2315365993 6863451.738795325 0
74 154243.0403366118 6863363.631742207 0
75 150262.5 6859203.293794732 0
76 150262.5 6860610.01366043 0
77 150262.5 6861988.853213235 0
78 151818.75 6863812.5 0
79 153375 6863812.5 0
80 154931.25 6863812.5 0
81 156487.5 6862200 0
82 156487.5 6860587.5 0
83 156487.5 6858975 0
84 154718.5447963315 6857362.5 0
85 153375.0032853704 6857362.5 0
86 152031.5178907193 6857362.5 0
87 154279.1697993398 6861952.078588158 0
88 154224.828756296 6861813.62281533 0
89 154497.1554419233 6861474.907730703 0
90 154586.8099416838 6861602.062230464 0
91 153961.0243286228 6859578.653585185 0
92 152486.4034955407 6861114.90199852 0
93 152548.8615169397 6859600.61507369 0
94 155059.4448640683 6862010.880842106 0
95 152737.5 6860737.5 0
96 152692.9826441961 6859078.622887572 0
97 153513.00032027 6859599.935262492 0
98 152848.3688322272 6859443.347592252 0
99 152875 6860000 0
100 153265.8374477566 6858643.328562686 0
101 153509.1941000989 6861298.332366852 0
102 154296.6823146497 6860658.522687517 0
103 151873.5684529661 6860732.610626612 0
104 152034.9081544744 6858212.143924147 0
105 153079.6875 6860273.4375 0
106 153243.5530658886 6859724.550887751 0
107 152643.3673469388 6860414.540816327 0
108 153628.9772727273 6859921.022727272 0
109 153225 6860587.5 0
110 154512.0540330615 6862585.679299729 0
111 152460.216450898 6861839.850061221 0
112 154096.1342679372 6862321.210194265 0
113 155480.4520853836 6862986.733224374 0
114 152395.3482159076 6860598.88390691 0
115 154836.5692786556 6862999.842966024 0
116 153849.9751082743 6860362.5 0
117 153849.9264705882 6859026.838235294 0
118 153458.6886186489 6861876.048698045 0
119 153238.8910770605 6858162.624705503 0
120 151808.6010243461 6859561.623087293 0
121 150877.503359643 6860635.817119081 0
122 154244.3466383917 6861631.410730037 0
123 151507.4795270792 6859166.453869442 0
124 153881.4610471374 6861599.619791803 0
125 153073.0826411977 6859306.15871445 0
126 153268.7933408798 6859498.140878607 0
127 153042.3502104893 6859512.429472386 0
128 153037.5 6859912.5 0
129 153272.2200157079 6859917.545773507 0
130 153101.0534115249 6860063.83640373 0
131 153263.0208333333 6860298.4375 0
132 153774.4582858012 6863060.806880151 0
133 154578.5260188064 6861789.864671554 0
134 150862.7753271177 6859537.784533553 0
135 154662.7898230983 6861947.963224798 0
136 153357.9537802312 6860079.888374693 0
137 152446.9019307669 6860037.552445928 0
138 152440.2606771128 6860304.053973065 0
139 152672.7263937645 6860279.27240138 0
140 152887.5 6860212.5 0
141 152888.5449756556 6860455.384115423 0
142 154670.3105334827 6860918.154357846 0
143 151723.5201598154 6862600.842763532 0
144 155330.6153165227 6859681.64348458 0
145 153324.2761470834 6862750.50357299 0
146 153894.5171266102 6860940.24532086 0
147 154949.520704848 6858541.881476647 0
148 152562.8284434968 6863149.718962374 0
149 151269.0858337503 6860300.885340002 0
150 155758.6153589475 6861365.057455858 0
151 155522.3113110099 6860637.102373718 0
152 153450 6859312.5 0
153 152915.5089510729 6859732.654682036 0
154 152665.8960569685 6859985.11745738 0
155 151752.44202532 6858268.047008259 0
156 150894.1477578529 6858375.136874353 0
157 153011.6751918722 6857711.894927522 0
158 155084.506757266 6861094.783580013 0
159 152224.8729716013 6860315.760711482 0
160 151902.0076370606 6860006.271225399 0
161 154611.7441753212 6859865.024731824 0
162 154507.0996305336 6859236.075381592 0
163 154326.3625651177 6861140.708644169 0
164 153521.0775740146 6860229.318516994 0
165 152408.9426173798 6858209.497895249 0
166 153496.8749333992 6860728.62452351 0
167 154279.2115084065 6858187.330815375 0
168 154114.8035063906 6863136.976420802 0
169 153348.8506925754 6862306.006950426 0
170 154413.2063904571 6862218.867868642 0
171 152822.4542757106 6862170.825736611 0
172 152281.7307692308 6859782.692307692 0
173 153075.3345445567 6858988.976614903 0
174 153397.688981327 6858989.487125693 0
175 153761.3098635551 6862299.06564839 0
176 153498.8212692814 6860420.073840084 0
177 151143.5251011349 6861773.907013285 0
178 152117.5684714874 6859257.378457454 0
179 152552.5595975471 6860124.533980661 0
180 152915.7386207281 6858165.540005321 0
181 151848.9388699414 6861566.201256878 0
182 150781.983888556 6860305.145391022 0
183 154104.2098963173 6861691.893609902 0
184 154829.3940946398 6860432.991359462 0
185 153074.5578873611 6860986.662392048 0
186 152936.4163403527 6858595.601452855 0
187 154322.102117321 6858705.307370263 0
188 154706.9551403525 6862200.638394219 0
189 153076.171875 6860387.109375 0
190 155037.9942887007 6862496.569311298 0
191 155533.0219052135 6862106.941023947 0
192 152968.5858047097 6861547.770208883 0
193 153001.7045454546 6860728.977272728 0
194 153712.0488975594 6858507.826540694 0
195 155173.4624803028 6861631.682541301 0
196 154672.1274534489 6861223.27217195 0
197 150836.3172836278 6858991.201647703 0
198 151985.7953172077 6858538.326208334 0
199 151308.8898332382 6860817.432475497 0
200 154807.2225162358 6861745.043342873 0
201 153573.6089901936 6862804.333149456 0
202 153948.7298420234 6861283.531182953 0
203 153046.6908534908 6862835.807281 0
204 154196.2995490392 6860136.45251521 0
205 152166.5019821563 6857912.055383625 0
206 153722.5624594334 6857882.446164848 0
207 153328.2552083333 6860355.859375 0
208 154444.6114548796 6861606.983264612 0
209 154372.386974204 6861849.602325405 0
$EndNodes
$Elements
486
1 1 2 2 1 1 75
2 1 2 2 1 75 76
3 1 2 2 1 76 77
4 1 2 2 1 77 2
5 1 2 2 2 2 78
6 1 2 2 2 78 79
7 1 2 2 2 79 80
8 1 2 2 2 80 3
9 1 2 2 3 3 81
10 1 2 2 3 81 82
11 1 2 2 3 82 83
12 1 2 2 3 83 4
13 1 2 2 4 4 84
14 1 2 2 4 84 85
15 1 2 2 4 85 86
16 1 2 2 4 86 1
17 1 2 4 5 5 6
18 1 2 4 6 6 7
19 1 2 4 7 7 8
20 1 2 4 8 8 9
21 1 2 4 9 9 10
22 1 2 4 10 10 87
23 1 2 4 10 87 11
24 1 2 4 11 11 88
25 1 2 4 11 88 5
26 1 2 4 12 5 12
27 1 2 4 13 12 13
28 1 2 4 14 13 14
29 1 2 4 15 14 15
30 1 2 4 16 15 89
31 1 2 4 16 89 16
32 1 2 4 17 16 90
33 1 2 4 17 90 5
34 1 2 4 18 17 18
35 1 2 4 19 18 19
36 1 2 4 20 19 20
37 1 2 4 21 20 21
38 1 2 4 22 21 22
39 1 2 4 23 22 23
40 1 2 4 24 23 24
41 1 2 4 25 24 25
42 1 2 4 26 25 26
43 1 2 4 27 26 27
44 1 2 4 28 27 28
45 1 2 4 29 28 29
46 1 2 4 30 29 30
47 1 2 4 31 30 31
48 1 2 4 32 31 32
49 1 2 4 33 32 33
50 1 2 4 34 34 35
51 1 2 4 35 35 36
52 1 2 4 36 36 37
53 1 2 4 37 37 38
54 1 2 4 38 38 39
55 1 2 4 39 39 40
56 1 2 4 40 40 41
57 1 2 4 41 41 42
58 1 2 4 42 42 43
59 1 2 4 43 43 44
60 1 2 4 44 44 45
61 1 2 4 45 45 46
62 1 2 4 46 46 47
63 1 2 4 47 47 33
64 1 2 3 48 48 49
65 1 2 3 49 49 50
66 1 2 3 50 50 51
67 1 2 3 51 51 52
68 1 2 3 52 52 53
69 1 2 3 53 53 54
70 1 2 3 54 54 55
71 1 2 3 55 55 56
72 1 2 3 56 56 57
73 1 2 3 57 57 58
74 1 2 3 58 58 59
75 1 2 3 59 60 61
76 1 2 3 60 62 63
77 1 2 3 61 63 64
78 1 2 3 62 64 65
79 1 2 3 63 65 66
80 1 2 3 64 66 67
81 1 2 3 65 67 68
82 1 2 3 66 68 69
83 1 2 3 67 70 71
84 1 2 3 68 71 72
85 1 2 3 69 73 74
86 1 2 3 70 74 68
87 2 2 1 1 55 96 56
88 2 2 1 1 150 195 191
89 2 2 1 1 49 149 50
90 2 2 1 1 93 178 172
91 2 2 1 1 11 124 118
92 2 2 1 1 16 200 195
93 2 2 1 1 56 165 55
94 2 2 1 1 30 164 136
95 2 2 1 1 23 153 24
96 2 2 1 1 59 165 58
97 2 2 1 1 2 143 77
98 2 2 1 1 11 112 87
99 2 2 1 1 158 196 16
100 2 2 1 1 84 147 4
101 2 2 1 1 67 110 66
102 2 2 1 1 66 112 65
103 2 2 1 1 96 178 93
104 2 2 1 1 144 162 161
105 2 2 1 1 85 206 84
106 2 2 1 1 118 175 11
107 2 2 1 1 1 156 86
108 2 2 1 1 31 164 30
109 2 2 1 1 50 123 51
110 2 2 1 1 70 148 79
111 2 2 1 1 76 182 48
112 2 2 1 1 144 184 151
113 2 2 1 1 83 144 82
114 2 2 1 1 4 147 83
115 2 2 1 1 92 114 103
116 2 2 1 1 58 165 57
117 2 2 1 1 143 177 77
118 2 2 1 1 159 160 103
119 2 2 1 1 149 160 50
120 2 2 1 1 83 147 144
121 2 2 1 1 9 135 8
122 2 2 1 1 89 163 15
123 2 2 1 1 91 152 97
124 2 2 1 1 161 184 144
125 2 2 1 1 34 159 35
126 2 2 1 1 68 115 67
127 2 2 1 1 57 165 56
128 2 2 1 1 55 178 96
129 2 2 1 1 110 112 66
130 2 2 1 1 118 192 171
131 2 2 1 1 50 160 120
132 2 2 1 1 16 195 158
133 2 2 1 1 172 178 120
134 2 2 1 1 51 123 52
135 2 2 1 1 57 180 58
136 2 2 1 1 39 154 38
137 2 2 1 1 18 152 17
138 2 2 1 1 22 153 23
139 2 2 1 1 82 150 81
140 2 2 1 1 34 160 159
141 2 2 1 1 151 158 150
142 2 2 1 1 147 162 144
143 2 2 1 1 155 205 86
144 2 2 1 1 69 115 68
145 2 2 1 1 163 202 15
146 2 2 1 1 28 131 29
147 2 2 1 1 30 136 29
148 2 2 1 1 40 140 39
149 2 2 1 1 40 139 41
150 2 2 1 1 11 183 124
151 2 2 1 1 116 176 166
152 2 2 1 1 10 135 9
153 2 2 1 1 166 176 33
154 2 2 1 1 34 172 160
155 2 2 1 1 103 160 149
156 2 2 1 1 117 152 91
157 2 2 1 1 73 132 72
158 2 2 1 1 81 113 3
159 2 2 1 1 103 181 92
160 2 2 1 1 68 80 69
161 2 2 1 1 161 162 91
162 2 2 1 1 32 176 31
163 2 2 1 1 62 171 143
164 2 2 1 1 158 184 142
165 2 2 1 1 109 166 33
166 2 2 1 1 150 191 81
167 2 2 1 1 87 170 10
168 2 2 1 1 82 151 150
169 2 2 1 1 91 162 117
170 2 2 1 1 110 170 112
171 2 2 1 1 61 181 103
172 2 2 1 1 43 141 44
173 2 2 1 1 151 184 158
174 2 2 1 1 79 148 78
175 2 2 1 1 50 134 49
176 2 2 1 1 47 109 33
177 2 2 1 1 25 106 24
178 2 2 1 1 22 106 21
179 2 2 1 1 51 134 50
180 2 2 1 1 52 123 53
181 2 2 1 1 177 181 61
182 2 2 1 1 72 132 71
183 2 2 1 1 45 109 46
184 2 2 1 1 46 109 47
185 2 2 1 1 23 106 22
186 2 2 1 1 24 106 23
187 2 2 1 1 171 192 111
188 2 2 1 1 104 205 155
189 2 2 1 1 96 186 56
190 2 2 1 1 11 175 112
191 2 2 1 1 101 192 118
192 2 2 1 1 65 132 66
193 2 2 1 1 84 206 167
194 2 2 1 1 169 171 63
195 2 2 1 1 54 178 55
196 2 2 1 1 146 163 102
197 2 2 1 1 103 199 61
198 2 2 1 1 86 205 59
199 2 2 1 1 118 124 101
200 2 2 1 1 17 173 125
201 2 2 1 1 61 199 60
202 2 2 1 1 78 143 2
203 2 2 1 1 124 202 101
204 2 2 1 1 7 133 6
205 2 2 1 1 53 123 54
206 2 2 1 1 120 123 50
207 2 2 1 1 111 192 92
208 2 2 1 1 44 109 45
209 2 2 1 1 93 98 96
210 2 2 1 1 60 199 121
211 2 2 1 1 60 121 76
212 2 2 1 1 91 204 161
213 2 2 1 1 17 174 173
214 2 2 1 1 24 153 128
215 2 2 1 1 6 133 90
216 2 2 1 1 15 183 122
217 2 2 1 1 43 105 42
218 2 2 1 1 152 174 17
219 2 2 1 1 141 193 44
220 2 2 1 1 54 155 53
221 2 2 1 1 95 114 92
222 2 2 1 1 8 133 7
223 2 2 1 1 112 170 87
224 2 2 1 1 170 188 10
225 2 2 1 1 53 156 52
226 2 2 1 1 67 115 110
227 2 2 1 1 55 198 54
228 2 2 1 1 137 172 34
229 2 2 1 1 97 108 91
230 2 2 1 1 49 182 149
231 2 2 1 1 124 183 15
232 2 2 1 1 16 196 89
233 2 2 1 1 63 171 62
234 2 2 1 1 125 127 19
235 2 2 1 1 116 166 146
236 2 2 1 1 184 204 102
237 2 2 1 1 161 204 184
238 2 2 1 1 118 171 169
239 2 2 1 1 15 122 14
240 2 2 1 1 15 202 124
241 2 2 1 1 114 159 103
242 2 2 1 1 116 204 108
243 2 2 1 1 51 197 134
244 2 2 1 1 142 196 158
245 2 2 1 1 84 167 147
246 2 2 1 1 102 163 142
247 2 2 1 1 19 127 20
248 2 2 1 1 21 126 20
249 2 2 1 1 46 131 45
250 2 2 1 1 81 191 113
251 2 2 1 1 162 187 117
252 2 2 1 1 116 146 102
253 2 2 1 1 101 202 146
254 2 2 1 1 58 157 59
255 2 2 1 1 117 194 174
256 2 2 1 1 165 198 55
257 2 2 1 1 146 202 163
258 2 2 1 1 10 188 135
259 2 2 1 1 33 176 32
260 2 2 1 1 92 181 111
261 2 2 1 1 106 126 21
262 2 2 1 1 100 194 119
263 2 2 1 1 90 200 16
264 2 2 1 1 108 164 116
265 2 2 1 1 195 200 94
266 2 2 1 1 174 194 100
267 2 2 1 1 106 108 97
268 2 2 1 1 146 166 101
269 2 2 1 1 149 199 103
270 2 2 1 1 106 129 108
271 2 2 1 1 12 122 88
272 2 2 1 1 143 171 111
273 2 2 1 1 37 138 107
274 2 2 1 1 109 185 166
275 2 2 1 1 107 114 95
276 2 2 1 1 191 195 94
277 2 2 1 1 117 174 152
278 2 2 1 1 111 181 143
279 2 2 1 1 194 206 119
280 2 2 1 1 187 194 117
281 2 2 1 1 92 185 95
282 2 2 1 1 108 204 91
283 2 2 1 1 113 190 115
284 2 2 1 1 142 184 102
285 2 2 1 1 92 192 185
286 2 2 1 1 39 140 99
287 2 2 1 1 173 186 96
288 2 2 1 1 74 168 73
289 2 2 1 1 98 125 96
290 2 2 1 1 109 193 185
291 2 2 1 1 166 185 101
292 2 2 1 1 135 188 94
293 2 2 1 1 136 164 108
294 2 2 1 1 154 179 38
295 2 2 1 1 125 173 96
296 2 2 1 1 115 190 110
297 2 2 1 1 52 197 51
298 2 2 1 1 89 196 163
299 2 2 1 1 167 194 187
300 2 2 1 1 121 199 149
301 2 2 1 1 137 154 93
302 2 2 1 1 44 193 109
303 2 2 1 1 65 175 64
304 2 2 1 1 99 154 39
305 2 2 1 1 167 187 147
306 2 2 1 1 190 191 94
307 2 2 1 1 35 159 138
308 2 2 1 1 88 183 11
309 2 2 1 1 112 175 65
310 2 2 1 1 158 195 150
311 2 2 1 1 129 136 108
312 2 2 1 1 167 206 194
313 2 2 1 1 188 190 94
314 2 2 1 1 73 168 132
315 2 2 1 1 126 152 18
316 2 2 1 1 127 153 22
317 2 2 1 1 64 175 169
318 2 2 1 1 143 181 177
319 2 2 1 1 123 178 54
320 2 2 1 1 93 172 137
321 2 2 1 1 119 186 100
322 2 2 1 1 64 201 65
323 2 2 1 1 110 188 170
324 2 2 1 1 67 168 74
325 2 2 1 1 121 182 76
326 2 2 1 1 147 187 162
327 2 2 1 1 31 176 164
328 2 2 1 1 185 192 101
329 2 2 1 1 143 148 62
330 2 2 1 1 160 172 120
331 2 2 1 1 56 186 57
332 2 2 1 1 77 177 60
333 2 2 1 1 107 141 41
334 2 2 1 1 107 138 114
335 2 2 1 1 8 135 133
336 2 2 1 1 185 193 95
337 2 2 1 1 57 186 180
338 2 2 1 1 102 204 116
339 2 2 1 1 134 197 75
340 2 2 1 1 59 205 165
341 2 2 1 1 148 203 62
342 2 2 1 1 155 156 53
343 2 2 1 1 133 200 90
344 2 2 1 1 113 191 190
345 2 2 1 1 70 203 148
346 2 2 1 1 105 131 28
347 2 2 1 1 60 177 61
348 2 2 1 1 48 182 49
349 2 2 1 1 41 139 107
350 2 2 1 1 110 190 188
351 2 2 1 1 180 186 119
352 2 2 1 1 107 139 37
353 2 2 1 1 132 201 71
354 2 2 1 1 18 125 19
355 2 2 1 1 19 126 18
356 2 2 1 1 21 127 22
357 2 2 1 1 24 128 25
358 2 2 1 1 27 129 26
359 2 2 1 1 26 130 27
360 2 2 1 1 54 198 155
361 2 2 1 1 66 168 67
362 2 2 1 1 65 201 132
363 2 2 1 1 95 193 141
364 2 2 1 1 153 154 99
365 2 2 1 1 95 141 107
366 2 2 1 1 58 180 157
367 2 2 1 1 169 175 118
368 2 2 1 1 149 182 121
369 2 2 1 1 94 200 135
370 2 2 1 1 93 153 98
371 2 2 1 1 13 122 12
372 2 2 1 1 14 122 13
373 2 2 1 1 45 131 105
374 2 2 1 1 128 153 99
375 2 2 1 1 119 206 157
376 2 2 1 1 71 203 70
377 2 2 1 1 120 178 123
378 2 2 1 1 130 140 105
379 2 2 1 1 132 168 66
380 2 2 1 1 99 140 130
381 2 2 1 1 17 125 18
382 2 2 1 1 20 126 19
383 2 2 1 1 20 127 21
384 2 2 1 1 25 128 26
385 2 2 1 1 26 129 25
386 2 2 1 1 27 130 28
387 2 2 1 1 28 136 27
388 2 2 1 1 30 131 31
389 2 2 1 1 36 137 35
390 2 2 1 1 35 138 36
391 2 2 1 1 38 139 39
392 2 2 1 1 42 140 41
393 2 2 1 1 41 141 42
394 2 2 1 1 47 131 46
395 2 2 1 1 105 140 42
396 2 2 1 1 29 136 28
397 2 2 1 1 29 131 30
398 2 2 1 1 35 137 34
399 2 2 1 1 36 138 37
400 2 2 1 1 37 139 38
401 2 2 1 1 39 139 40
402 2 2 1 1 41 140 40
403 2 2 1 1 42 141 43
404 2 2 1 1 104 198 165
405 2 2 1 1 62 203 63
406 2 2 1 1 25 129 106
407 2 2 1 1 122 183 88
408 2 2 1 1 98 127 125
409 2 2 1 1 137 179 154
410 2 2 1 1 157 206 85
411 2 2 1 1 163 196 142
412 2 2 1 1 28 130 105
413 2 2 1 1 156 197 52
414 2 2 1 1 93 154 153
415 2 2 1 1 173 174 100
416 2 2 1 1 105 189 45
417 2 2 1 1 43 189 105
418 2 2 1 1 164 176 116
419 2 2 1 1 135 200 133
420 2 2 1 1 97 126 106
421 2 2 1 1 100 186 173
422 2 2 1 1 138 159 114
423 2 2 1 1 155 198 104
424 2 2 1 1 128 130 26
425 2 2 1 1 27 136 129
426 2 2 1 1 36 179 137
427 2 2 1 1 145 201 64
428 2 2 1 1 71 201 145
429 2 2 1 1 78 148 143
430 2 2 1 1 157 180 119
431 2 2 1 1 99 130 128
432 2 2 1 1 97 152 126
433 2 2 1 1 98 153 127
434 2 2 1 1 165 205 104
435 2 2 1 1 37 179 36
436 2 2 1 1 38 179 37
437 2 2 1 1 45 189 44
438 2 2 1 1 145 203 71
439 2 2 1 1 63 203 145
440 2 2 1 1 44 189 43
441 2 2 1 1 131 207 31
442 2 2 1 1 47 207 131
443 2 2 1 1 31 207 32
444 2 2 1 1 32 207 47
445 2 2 1 1 75 156 1
446 2 2 1 1 6 90 5
447 2 2 1 1 75 76 48
448 2 2 1 1 59 157 86
449 2 2 1 1 76 77 60
450 2 2 1 1 63 145 64
451 2 2 1 1 64 169 63
452 2 2 1 1 74 80 68
453 2 2 1 1 73 80 74
454 2 2 1 1 79 80 73
455 2 2 1 1 75 197 156
456 2 2 1 1 86 157 85
457 2 2 1 1 3 113 80
458 2 2 1 1 5 12 88
459 2 2 1 1 47 33 32
460 2 2 1 1 49 134 48
461 2 2 1 1 48 134 75
462 2 2 1 1 68 67 74
463 2 2 1 1 80 113 69
464 2 2 1 1 113 115 69
465 2 2 1 1 71 70 72
466 2 2 1 1 70 79 72
467 2 2 1 1 72 79 73
468 2 2 1 1 144 151 82
469 2 2 1 1 86 156 155
470 2 2 1 2 5 208 90
471 2 2 1 2 89 208 13
472 2 2 1 2 13 208 12
473 2 2 1 2 12 208 5
474 2 2 1 2 90 208 89
475 2 2 1 2 89 14 15
476 2 2 1 2 89 16 90
477 2 2 1 2 13 14 89
478 2 2 1 3 11 87 88
479 2 2 1 3 9 209 87
480 2 2 1 3 7 209 8
481 2 2 1 3 88 209 5
482 2 2 1 3 6 209 7
483 2 2 1 3 5 209 6
484 2 2 1 3 87 209 88
485 2 2 1 3 10 9 87
486 2 2 1 3 8 209 9
$EndElements
