# vtk DataFile Version 2.0
Watershed boundary
ASCII
DATASET POLYDATA
POINTS 149 float
265912.5 6785537.5 131.4
265937.5 6785537.5 131.0
265937.5 6785512.5 131.3
265962.5 6785512.5 130.8
265962.5 6785487.5 130.5
266037.5 6785487.5 129.8
266037.5 6785462.5 129.8
266062.5 6785462.5 129.7
266062.5 6785437.5 129.4
266087.5 6785437.5 129.1
266087.5 6785412.5 128.8
266112.5 6785412.5 128.4
266112.5 6785387.5 128.0
266137.5 6785387.5 127.6
266137.5 6785362.5 127.1
266187.5 6785362.5 126.3
266187.5 6785337.5 126.2
266237.5 6785337.5 124.9
266237.5 6785312.5 125.2
266337.5 6785312.5 123.5
266337.5 6785287.5 123.5
266362.5 6785287.5 123.4
266362.5 6785262.5 123.3
266437.5 6785262.5 123.9
266437.5 6785212.5 123.9
266462.5 6785212.5 124.0
266462.5 6785162.5 123.8
266487.5 6785162.5 123.8
266487.5 6785137.5 123.7
266512.5 6785137.5 123.7
266512.5 6785112.5 123.7
266587.5 6785112.5 123.8
266587.5 6784987.5 124.7
266612.5 6784987.5 124.7
266612.5 6784937.5 125.2
266762.5 6784937.5 126.5
266762.5 6784812.5 126.7
266787.5 6784812.5 126.7
266787.5 6784712.5 127.6
266762.5 6784712.5 127.5
266762.5 6784637.5 127.7
266787.5 6784637.5 127.8
266787.5 6784612.5 128.1
266812.5 6784612.5 128.3
266812.5 6784562.5 128.8
266787.5 6784562.5 128.8
266787.5 6784412.5 129.7
266812.5 6784412.5 129.8
266812.5 6784362.5 130.1
266787.5 6784362.5 130.0
266787.5 6784262.5 130.8
266762.5 6784262.5 131.0
266762.5 6784237.5 131.1
266737.5 6784237.5 131.1
266737.5 6784212.5 131.2
266687.5 6784212.5 131.2
266687.5 6784162.5 131.6
266662.5 6784162.5 131.6
266662.5 6784137.5 131.6
266587.5 6784137.5 131.3
266587.5 6784112.5 131.2
266437.5 6784112.5 129.5
266437.5 6784137.5 129.3
266412.5 6784137.5 129.0
266412.5 6784162.5 128.7
266387.5 6784162.5 128.1
266387.5 6784187.5 127.6
266287.5 6784187.5 126.8
266287.5 6784162.5 127.0
266237.5 6784162.5 126.5
266237.5 6784112.5 126.7
266187.5 6784112.5 126.1
266187.5 6784137.5 125.9
266112.5 6784137.5 124.2
266112.5 6784162.5 123.7
266087.5 6784162.5 122.9
266087.5 6784187.5 122.5
265962.5 6784187.5 119.2
265962.5 6784162.5 119.4
265887.5 6784162.5 116.3
265887.5 6784187.5 115.9
265562.5 6784187.5 101.7
265562.5 6784212.5 102.2
265537.5 6784212.5 102.7
265537.5 6784237.5 103.3
265512.5 6784237.5 103.7
265512.5 6784262.5 104.5
265487.5 6784262.5 105.1
265487.5 6784287.5 106.1
265462.5 6784287.5 106.5
265462.5 6784312.5 107.4
265437.5 6784312.5 108.0
265437.5 6784337.5 109.2
265412.5 6784337.5 110.2
265412.5 6784362.5 111.4
265387.5 6784362.5 111.9
265387.5 6784387.5 112.1
265337.5 6784387.5 113.8
265337.5 6784412.5 114.3
265312.5 6784412.5 114.7
265312.5 6784437.5 115.3
265287.5 6784437.5 115.6
265287.5 6784462.5 116.3
265262.5 6784462.5 116.7
265262.5 6784487.5 117.2
265237.5 6784487.5 117.5
265237.5 6784512.5 117.8
265212.5 6784512.5 118.0
265212.5 6784587.5 118.2
265237.5 6784587.5 118.5
265237.5 6784612.5 118.9
265262.5 6784612.5 119.1
265262.5 6784662.5 119.9
265287.5 6784662.5 120.0
265287.5 6784687.5 120.3
265312.5 6784687.5 120.5
265312.5 6784712.5 120.8
265337.5 6784712.5 121.0
265337.5 6784912.5 124.8
265362.5 6784912.5 124.6
265362.5 6784937.5 125.3
265387.5 6784937.5 125.4
265387.5 6785012.5 126.4
265412.5 6785012.5 126.5
265412.5 6785037.5 126.8
265437.5 6785037.5 127.5
265437.5 6785112.5 128.5
265462.5 6785112.5 128.9
265462.5 6785137.5 129.2
265487.5 6785137.5 129.5
265487.5 6785162.5 129.9
265512.5 6785162.5 130.0
265512.5 6785212.5 130.8
265537.5 6785212.5 131.1
265537.5 6785262.5 132.3
265562.5 6785262.5 132.3
265562.5 6785337.5 132.8
265537.5 6785337.5 132.8
265537.5 6785362.5 132.8
265562.5 6785362.5 132.9
265562.5 6785387.5 132.7
265612.5 6785387.5 132.9
265612.5 6785412.5 133.0
265637.5 6785412.5 133.0
265637.5 6785462.5 132.9
265662.5 6785462.5 133.0
265662.5 6785512.5 133.2
265912.5 6785512.5 131.7
265912.5 6785537.5 131.4

LINES 149 150
149 0 1 2 3 4 5 6 7 8 9 10 11 12 13 14 15 16 17 18 19 20 21 22 23 24 25 26 27 28 29 30 31 32 33 34 35 36 37 38 39 40 41 42 43 44 45 46 47 48 49 50 51 52 53 54 55 56 57 58 59 60 61 62 63 64 65 66 67 68 69 70 71 72 73 74 75 76 77 78 79 80 81 82 83 84 85 86 87 88 89 90 91 92 93 94 95 96 97 98 99 100 101 102 103 104 105 106 107 108 109 110 111 112 113 114 115 116 117 118 119 120 121 122 123 124 125 126 127 128 129 130 131 132 133 134 135 136 137 138 139 140 141 142 143 144 145 146 147 148 
