$MeshFormat
2.2 0 8
$EndMeshFormat
$PhysicalNames
4
1 2 "boundary::domain"
1 3 "river::trace"
1 4 "watershed::boundary"
2 1 "zone::domain"
$EndPhysicalNames
$Nodes
296
1 461737.5 6863512.5 0
2 461737.5 6870037.5 0
3 469462.5 6870037.5 0
4 469462.5 6863512.5 0
5 465797.5 6868772.5 0
6 465412.5 6869072.5 0
7 464507.7860326318 6868846.319212643 0
8 463752.5 6868097.5 0
9 462933.6731656764 6868396.738795325 0
10 462703.2612046749 6867858.673165676 0
11 463602.5 6867552.5 0
12 467357.7860326318 6864478.680787357 0
13 468418.0557023302 6864779.185303876 0
14 468195.2301045336 6865918.843932842 0
15 467447.5 6866222.5 0
16 466322.5 6867497.5 0
17 466547.5 6867937.5 0
18 466366.1790365451 6868899.014016347 0
19 467700 6865725 0
20 467625 6865800 0
21 467550 6865875 0
22 467475 6865875 0
23 467400 6865875 0
24 467325 6865950 0
25 467250 6866025 0
26 467175 6866025 0
27 467100 6866100 0
28 467025 6866175 0
29 467025 6866250 0
30 467025 6866325 0
31 467025 6866400 0
32 467025 6866475 0
33 467025 6866550 0
34 466950 6866625 0
35 466875 6866700 0
36 466800 6866700 0
37 466725 6866775 0
38 466650 6866850 0
39 466575 6866850 0
40 466500 6866925 0
41 466500 6867000 0
42 466425 6867075 0
43 466350 6867150 0
44 466275 6867225 0
45 466200 6867300 0
46 466125 6867375 0
47 466050 6867450 0
48 465975 6867525 0
49 465900 6867600 0
50 465900 6867675 0
51 465825 6867750 0
52 465900 6867825 0
53 465900 6867900 0
54 465825 6867975 0
55 465825 6868050 0
56 465900 6868125 0
57 465900 6868200 0
58 465900 6868275 0
59 465900 6868350 0
60 465900 6868425 0
61 465900 6868500 0
62 465975 6868575 0
63 466050 6868575 0
64 466125 6868650 0
65 466200 6868725 0
66 466275 6868800 0
67 466275 6868837.5 0
68 465900 6866100 0
69 465825 6866175 0
70 465750 6866175 0
71 465675 6866250 0
72 465600 6866325 0
73 465525 6866400 0
74 465525 6866475 0
75 465600 6866550 0
76 465675 6866625 0
77 465750 6866700 0
78 465825 6866775 0
79 465900 6866850 0
80 465975 6866925 0
81 465975 6867000 0
82 466050 6867075 0
83 466125 6867150 0
84 466200 6867225 0
85 464100 6867750 0
86 464175 6867825 0
87 464250 6867900 0
88 464325 6867900 0
89 464400 6867975 0
90 464475 6868050 0
91 464550 6868125 0
92 464625 6868200 0
93 464700 6868275 0
94 464775 6868350 0
95 464775 6868425 0
96 464850 6868500 0
97 464925 6868500 0
98 465000 6868500 0
99 465075 6868575 0
100 465150 6868575 0
101 465225 6868650 0
102 465300 6868575 0
103 465375 6868575 0
104 465450 6868500 0
105 465525 6868425 0
106 465600 6868425 0
107 465675 6868425 0
108 465750 6868425 0
109 465825 6868500 0
110 461737.5 6865143.75 0
111 461737.5 6866775 0
112 461737.5 6868406.25 0
113 463668.75 6870037.5 0
114 465600 6870037.5 0
115 467531.25 6870037.5 0
116 469462.5 6868406.25 0
117 469462.5 6866775 0
118 469462.5 6865143.75 0
119 467531.25 6863512.5 0
120 465600 6863512.5 0
121 463668.75 6863512.5 0
122 464971.6211895397 6868962.279178751 0
123 464195.3445140242 6868536.552843543 0
124 463947.0815296026 6868290.415506837 0
125 463479.5577218921 6868197.246265109 0
126 463206.6154437842 6868296.992530216 0
127 462818.4671851756 6868127.7059805 0
128 463003.0074697832 6867756.615443784 0
129 463302.7537348917 6867654.557721892 0
130 463864.9412125006 6867337.683649351 0
131 464219.8381531599 6867047.189389998 0
132 464702.2792328837 6866652.296258839 0
133 465144.8110613375 6866290.070099583 0
134 465489.559482208 6866007.882721473 0
135 465829.4289228114 6865729.688941495 0
136 466262.1612955499 6865375.483943608 0
137 466741.7297389109 6864982.942155267 0
138 467095.7884702663 6864693.133996477 0
139 467622.8534500563 6864553.806916486 0
140 467887.920867481 6864628.933045616 0
141 468152.9882849056 6864704.059174746 0
142 468362.349302881 6865064.099961118 0
143 468306.6429034319 6865349.01461836 0
144 468250.9365039828 6865633.9292756 0
145 467859.4723564501 6866055.196443838 0
146 467200.0574900174 6866502.934844647 0
147 466998.2830152262 6866731.612582744 0
148 466788.6020614859 6866969.250996983 0
149 466558.8896925295 6867229.5916818 0
150 466425.3148878757 6867698.560225179 0
151 466472.1849809771 6868336.8826475 0
152 466413.6391301044 6868647.341268172 0
153 466104.08971487 6868840.707009062 0
154 467869.0175619184 6867840.61945662 0
155 463160.059025464 6866744.249266036 0
156 463730.206397706 6868910.268068681 0
157 467012.1559563019 6867537.108478211 0
158 463605.2827924113 6865144.550157954 0
159 467435.2943827478 6868970.314934541 0
160 466171.9642187548 6869426.712973434 0
161 468951.4520023493 6865622.990609675 0
162 465317.0239425188 6864662.246447313 0
163 467922.2039513282 6864002.79052276 0
164 468491.3555427605 6866816.110575506 0
165 466557.9627828397 6864459.641047146 0
166 462427.2209473763 6868531.620310351 0
167 466996.4254166927 6868177.323106743 0
168 466591.5169180845 6867514.215665013 0
169 464804.3742545054 6865635.931593798 0
170 463699.4208861606 6868333.886448891 0
171 464098.3666916849 6866244.843333325 0
172 463887.6955896144 6868598.586468165 0
173 463526.6711359578 6868486.705073219 0
174 467458.30549802 6866834.416672318 0
175 463032.9481557858 6868956.760682542 0
176 462640.0980871422 6867181.951127258 0
177 468475.6111843983 6864310.374099221 0
178 462703.125 6864328.125 0
179 466714.582635791 6867772.941495029 0
180 465150.9596876312 6867763.914245226 0
181 465425.3681765707 6867301.339250455 0
182 466426.7701926794 6866296.525968467 0
183 467044.5288587945 6865637.690061807 0
184 464435.9932211328 6867512.063114057 0
185 465225 6868237.5 0
186 466101.1878892561 6866517.352542363 0
187 465498.3837953787 6868090.00898484 0
188 466746.1291045707 6866460.895948627 0
189 465787.5 6867262.5 0
190 467408.3928535595 6865623.978742328 0
191 466237.5 6866893.649781341 0
192 466077.9749497333 6868395.979789732 0
193 464946.2018140589 6868335.175736962 0
194 466243.9556737397 6867960.350821909 0
195 465821.0072306219 6866448.390036401 0
196 467709.1014784088 6865095.597426309 0
197 466209.387520935 6867693.682440139 0
198 464149.0066932776 6868162.559039057 0
199 464484.3625036882 6868476.568748156 0
200 466613.8568315018 6866946.576110634 0
201 465948.4745849828 6868010.560734438 0
202 465787.5 6868162.5 0
203 465787.5 6868312.5 0
204 465865.5214675829 6868605.564207692 0
205 464936.5168266374 6868630.826083118 0
206 465136.9574020084 6868465.739390994 0
207 465712.5 6868537.5 0
208 463949.4143251484 6867961.508551993 0
209 466703.8735620523 6865886.101567488 0
210 467171.7998603954 6866312.572474108 0
211 465258.4613378159 6866816.538662184 0
212 464868.8962428696 6868045.876325012 0
213 464737.8169111559 6867710.936138502 0
214 465996.9454486133 6868705.571067209 0
215 467516.1179740021 6865771.132633206 0
216 467440.9788099775 6865982.611760533 0
217 467216.7724921672 6865900.363670388 0
218 467170.6142657708 6866158.581782015 0
219 466916.4804237856 6866534.174493578 0
220 466822.7328571612 6866791.729274331 0
221 466613.9362139343 6866712.099615633 0
222 466380.325255102 6866978.911967483 0
223 466237.2331935764 6867104.971951747 0
224 466064.3415178572 6867252.176339285 0
225 466012.5 6867637.5 0
226 465787.5 6867637.5 0
227 465768.7878133366 6867868.75 0
228 465760.3872342522 6866035.635763717 0
229 465772.761876451 6866292.97928212 0
230 465645.5384438675 6866445.195616932 0
231 465857.944606414 6866972.521865889 0
232 465609.375 6866915.625 0
233 466094.6475197527 6866978.143799295 0
234 464280.6032692997 6867769.904401523 0
235 464299.9101156166 6868023.170703288 0
236 464662.5 6868387.5 0
237 465328.1547619047 6868721.547619048 0
238 465332.8314616681 6868466.803987587 0
239 465544.2261904762 6868539.107142857 0
240 467916.1272235147 6865739.251482345 0
241 465308.1697113569 6866437.5 0
242 466280.3523013226 6865822.854374394 0
243 466830.27969629 6866193.642030514 0
244 466235.3553440027 6868574.502194028 0
245 466314.5122143799 6867317.962545925 0
246 467414.6149382998 6864802.446653896 0
247 465832.6530612245 6868391.326530612 0
248 464700.8923967795 6868609.915167009 0
249 466392.1875 6866742.1875 0
250 463258.3183369023 6867994.97328762 0
251 465133.5502834778 6868747.158457236 0
252 463861.4209090195 6867655.828342577 0
253 463600.9235754077 6867873.444881313 0
254 466088.0849053686 6866787.894599204 0
255 467665.6139428131 6865926.887544525 0
256 465511.1961597909 6866689.800174857 0
257 465526.6237890678 6866197.95036959 0
258 466308.6883472042 6868691.311652795 0
259 466177.5320201852 6867478.322351894 0
260 464847.2452457643 6867257.753865609 0
261 464127.1327941855 6867512.111482917 0
262 466538.5545607434 6867086.689782163 0
263 466063.2271699189 6868186.253427655 0
264 467221.1375641898 6865210.318981903 0
265 467109.783014343 6866434.918927823 0
266 466016.3311113797 6867825.299142355 0
267 466000.2441447661 6866271.590702499 0
268 467013.6363727577 6865988.256761457 0
269 465930.7662222759 6867742.559828471 0
270 465228.9577727353 6868546.508675716 0
271 464800.3711509898 6868231.221723139 0
272 466734.4744559362 6866870.430030609 0
273 467989.5552603653 6865402.690324315 0
274 465681.731164008 6867997.300934085 0
275 465585.4103516698 6867736.557001304 0
276 464396.9462609438 6868224.835904864 0
277 468092.0485583826 6865129.90490044 0
278 467962.4982143214 6864878.744853336 0
279 465815.625 6867440.625 0
280 464469.6596787312 6867840.671329222 0
281 466693.585384436 6865427.336588905 0
282 467719.3977897135 6864791.905779129 0
283 465897.6880484874 6866641.081426966 0
284 464621.0621387928 6867995.413965456 0
285 466106.2561564515 6868734.335493505 0
286 465645.5639658964 6868306.66816414 0
287 465537.0810657596 6868723.875566893 0
288 465946.9572248542 6867112.439641035 0
289 468210.4700943858 6864905.941505599 0
290 464124.0021555117 6867955.144095546 0
291 466927.981537441 6866360.618745453 0
292 463044.0163202644 6868114.605207489 0
293 467657.3857300064 6865466.139492867 0
294 466143.1318558651 6866072.68395172 0
295 465982.6600628503 6865952.172606265 0
296 465841.5306122449 6868448.265306123 0
$EndNodes
$Elements
726
1 1 2 2 1 1 110
2 1 2 2 1 110 111
3 1 2 2 1 111 112
4 1 2 2 1 112 2
5 1 2 2 2 2 113
6 1 2 2 2 113 114
7 1 2 2 2 114 115
8 1 2 2 2 115 3
9 1 2 2 3 3 116
10 1 2 2 3 116 117
11 1 2 2 3 117 118
12 1 2 2 3 118 4
13 1 2 2 4 4 119
14 1 2 2 4 119 120
15 1 2 2 4 120 121
16 1 2 2 4 121 1
17 1 2 4 5 5 6
18 1 2 4 6 6 122
19 1 2 4 6 122 7
20 1 2 4 7 7 123
21 1 2 4 7 123 124
22 1 2 4 7 124 8
23 1 2 4 8 8 125
24 1 2 4 8 125 126
25 1 2 4 8 126 9
26 1 2 4 9 9 127
27 1 2 4 9 127 10
28 1 2 4 10 10 128
29 1 2 4 10 128 129
30 1 2 4 10 129 11
31 1 2 4 11 11 130
32 1 2 4 11 130 131
33 1 2 4 11 131 132
34 1 2 4 11 132 133
35 1 2 4 11 133 134
36 1 2 4 11 134 135
37 1 2 4 11 135 136
38 1 2 4 11 136 137
39 1 2 4 11 137 138
40 1 2 4 11 138 12
41 1 2 4 12 12 139
42 1 2 4 12 139 140
43 1 2 4 12 140 141
44 1 2 4 12 141 13
45 1 2 4 13 13 142
46 1 2 4 13 142 143
47 1 2 4 13 143 144
48 1 2 4 13 144 14
49 1 2 4 14 14 145
50 1 2 4 14 145 15
51 1 2 4 15 15 146
52 1 2 4 15 146 147
53 1 2 4 15 147 148
54 1 2 4 15 148 149
55 1 2 4 15 149 16
56 1 2 4 16 16 150
57 1 2 4 16 150 17
58 1 2 4 17 17 151
59 1 2 4 17 151 152
60 1 2 4 17 152 18
61 1 2 4 18 18 153
62 1 2 4 18 153 5
63 1 2 3 19 19 20
64 1 2 3 20 20 21
65 1 2 3 21 21 22
66 1 2 3 22 22 23
67 1 2 3 23 23 24
68 1 2 3 24 24 25
69 1 2 3 25 25 26
70 1 2 3 26 26 27
71 1 2 3 27 27 28
72 1 2 3 28 28 29
73 1 2 3 29 29 30
74 1 2 3 30 30 31
75 1 2 3 31 31 32
76 1 2 3 32 32 33
77 1 2 3 33 33 34
78 1 2 3 34 34 35
79 1 2 3 35 35 36
80 1 2 3 36 36 37
81 1 2 3 37 37 38
82 1 2 3 38 38 39
83 1 2 3 39 39 40
84 1 2 3 40 40 41
85 1 2 3 41 41 42
86 1 2 3 42 42 43
87 1 2 3 43 43 44
88 1 2 3 44 44 45
89 1 2 3 45 45 46
90 1 2 3 46 46 47
91 1 2 3 47 47 48
92 1 2 3 48 48 49
93 1 2 3 49 49 50
94 1 2 3 50 50 51
95 1 2 3 51 51 52
96 1 2 3 52 52 53
97 1 2 3 53 53 54
98 1 2 3 54 54 55
99 1 2 3 55 55 56
100 1 2 3 56 56 57
101 1 2 3 57 57 58
102 1 2 3 58 58 59
103 1 2 3 59 59 60
104 1 2 3 60 60 61
105 1 2 3 61 61 62
106 1 2 3 62 62 63
107 1 2 3 63 63 64
108 1 2 3 64 64 65
109 1 2 3 65 65 66
110 1 2 3 66 66 67
111 1 2 3 67 68 69
112 1 2 3 68 69 70
113 1 2 3 69 70 71
114 1 2 3 70 71 72
115 1 2 3 71 72 73
116 1 2 3 72 73 74
117 1 2 3 73 74 75
118 1 2 3 74 75 76
119 1 2 3 75 76 77
120 1 2 3 76 77 78
121 1 2 3 77 78 79
122 1 2 3 78 79 80
123 1 2 3 79 80 81
124 1 2 3 80 81 82
125 1 2 3 81 82 83
126 1 2 3 82 83 84
127 1 2 3 83 84 45
128 1 2 3 84 85 86
129 1 2 3 85 86 87
130 1 2 3 86 87 88
131 1 2 3 87 88 89
132 1 2 3 88 89 90
133 1 2 3 89 90 91
134 1 2 3 90 91 92
135 1 2 3 91 92 93
136 1 2 3 92 93 94
137 1 2 3 93 94 95
138 1 2 3 94 95 96
139 1 2 3 95 96 97
140 1 2 3 96 97 98
141 1 2 3 97 98 99
142 1 2 3 98 99 100
143 1 2 3 99 100 101
144 1 2 3 100 101 102
145 1 2 3 101 102 103
146 1 2 3 102 103 104
147 1 2 3 103 104 105
148 1 2 3 104 105 106
149 1 2 3 105 106 107
150 1 2 3 106 107 108
151 1 2 3 107 108 109
152 1 2 3 108 109 61
153 2 2 1 1 118 177 13
154 2 2 1 1 116 159 3
155 2 2 1 1 3 159 115
156 2 2 1 1 120 165 119
157 2 2 1 1 18 159 152
158 2 2 1 1 137 165 136
159 2 2 1 1 166 175 9
160 2 2 1 1 12 165 138
161 2 2 1 1 111 155 110
162 2 2 1 1 15 174 145
163 2 2 1 1 119 165 12
164 2 2 1 1 155 158 110
165 2 2 1 1 133 169 132
166 2 2 1 1 131 155 130
167 2 2 1 1 136 162 135
168 2 2 1 1 7 156 113
169 2 2 1 1 123 172 7
170 2 2 1 1 135 169 134
171 2 2 1 1 18 160 159
172 2 2 1 1 152 167 151
173 2 2 1 1 112 176 111
174 2 2 1 1 118 161 117
175 2 2 1 1 158 178 110
176 2 2 1 1 145 164 14
177 2 2 1 1 112 166 10
178 2 2 1 1 163 177 4
179 2 2 1 1 4 177 118
180 2 2 1 1 154 159 116
181 2 2 1 1 2 166 112
182 2 2 1 1 146 174 15
183 2 2 1 1 5 160 153
184 2 2 1 1 148 174 147
185 2 2 1 1 117 164 116
186 2 2 1 1 11 155 129
187 2 2 1 1 121 162 120
188 2 2 1 1 130 155 11
189 2 2 1 1 155 171 158
190 2 2 1 1 129 176 128
191 2 2 1 1 138 165 137
192 2 2 1 1 1 178 121
193 2 2 1 1 6 160 5
194 2 2 1 1 158 162 121
195 2 2 1 1 143 161 142
196 2 2 1 1 14 161 144
197 2 2 1 1 142 161 118
198 2 2 1 1 14 164 161
199 2 2 1 1 139 163 12
200 2 2 1 1 12 163 119
201 2 2 1 1 132 171 131
202 2 2 1 1 116 164 154
203 2 2 1 1 151 167 17
204 2 2 1 1 134 169 133
205 2 2 1 1 16 168 149
206 2 2 1 1 126 173 125
207 2 2 1 1 9 175 126
208 2 2 1 1 153 160 18
209 2 2 1 1 10 166 127
210 2 2 1 1 114 160 6
211 2 2 1 1 125 170 8
212 2 2 1 1 8 170 124
213 2 2 1 1 110 178 1
214 2 2 1 1 147 174 146
215 2 2 1 1 111 176 155
216 2 2 1 1 141 177 140
217 2 2 1 1 136 165 162
218 2 2 1 1 159 160 115
219 2 2 1 1 149 157 148
220 2 2 1 1 128 176 10
221 2 2 1 1 144 161 143
222 2 2 1 1 150 168 16
223 2 2 1 1 7 172 156
224 2 2 1 1 121 178 158
225 2 2 1 1 140 163 139
226 2 2 1 1 162 169 135
227 2 2 1 1 169 171 132
228 2 2 1 1 126 175 173
229 2 2 1 1 125 173 170
230 2 2 1 1 159 167 152
231 2 2 1 1 161 164 117
232 2 2 1 1 158 169 162
233 2 2 1 1 145 174 164
234 2 2 1 1 127 166 9
235 2 2 1 1 131 171 155
236 2 2 1 1 157 174 148
237 2 2 1 1 13 177 141
238 2 2 1 1 149 168 157
239 2 2 1 1 167 179 17
240 2 2 1 1 155 176 129
241 2 2 1 1 154 167 159
242 2 2 1 1 170 173 172
243 2 2 1 1 162 165 120
244 2 2 1 1 124 172 123
245 2 2 1 1 157 167 154
246 2 2 1 1 173 175 156
247 2 2 1 1 154 174 157
248 2 2 1 1 140 177 163
249 2 2 1 1 158 171 169
250 2 2 1 1 17 179 150
251 2 2 1 1 170 172 124
252 2 2 1 1 157 179 167
253 2 2 1 1 164 174 154
254 2 2 1 1 150 179 168
255 2 2 1 1 172 173 156
256 2 2 1 1 168 179 157
257 2 2 1 1 119 163 4
258 2 2 1 1 115 160 114
259 2 2 1 1 113 175 2
260 2 2 1 1 2 175 166
261 2 2 1 1 122 114 6
262 2 2 1 1 122 7 113
263 2 2 1 1 10 176 112
264 2 2 1 1 118 13 142
265 2 2 1 1 113 114 122
266 2 2 1 1 156 175 113
267 2 2 1 2 75 256 74
268 2 2 1 2 23 217 190
269 2 2 1 2 10 128 127
270 2 2 1 2 28 268 27
271 2 2 1 2 15 255 145
272 2 2 1 2 28 218 29
273 2 2 1 2 36 219 35
274 2 2 1 2 128 292 127
275 2 2 1 2 77 256 76
276 2 2 1 2 73 257 72
277 2 2 1 2 71 257 70
278 2 2 1 2 213 260 180
279 2 2 1 2 63 244 64
280 2 2 1 2 135 228 134
281 2 2 1 2 19 293 240
282 2 2 1 2 78 283 79
283 2 2 1 2 76 283 77
284 2 2 1 2 275 279 226
285 2 2 1 2 132 241 211
286 2 2 1 2 43 245 44
287 2 2 1 2 45 259 46
288 2 2 1 2 57 263 58
289 2 2 1 2 92 276 91
290 2 2 1 2 95 193 96
291 2 2 1 2 61 192 62
292 2 2 1 2 134 257 133
293 2 2 1 2 48 279 47
294 2 2 1 2 19 255 20
295 2 2 1 2 89 280 90
296 2 2 1 2 91 284 92
297 2 2 1 2 94 193 95
298 2 2 1 2 96 193 97
299 2 2 1 2 58 192 59
300 2 2 1 2 60 192 61
301 2 2 1 2 62 192 63
302 2 2 1 2 151 194 17
303 2 2 1 2 96 248 95
304 2 2 1 2 149 245 43
305 2 2 1 2 29 243 28
306 2 2 1 2 242 295 135
307 2 2 1 2 78 232 77
308 2 2 1 2 85 261 234
309 2 2 1 2 241 257 73
310 2 2 1 2 24 217 23
311 2 2 1 2 24 216 25
312 2 2 1 2 27 218 28
313 2 2 1 2 35 219 34
314 2 2 1 2 37 221 36
315 2 2 1 2 104 239 103
316 2 2 1 2 104 238 105
317 2 2 1 2 92 271 93
318 2 2 1 2 122 248 205
319 2 2 1 2 25 216 15
320 2 2 1 2 264 293 190
321 2 2 1 2 86 290 85
322 2 2 1 2 74 241 73
323 2 2 1 2 105 238 185
324 2 2 1 2 132 260 131
325 2 2 1 2 243 268 28
326 2 2 1 2 15 218 25
327 2 2 1 2 40 249 39
328 2 2 1 2 237 251 101
329 2 2 1 2 29 210 30
330 2 2 1 2 147 35 34
331 2 2 1 2 74 256 241
332 2 2 1 2 7 248 122
333 2 2 1 2 36 221 188
334 2 2 1 2 17 194 150
335 2 2 1 2 180 260 181
336 2 2 1 2 6 251 237
337 2 2 1 2 192 263 151
338 2 2 1 2 42 262 43
339 2 2 1 2 20 215 19
340 2 2 1 2 43 222 42
341 2 2 1 2 47 224 46
342 2 2 1 2 47 225 48
343 2 2 1 2 71 229 72
344 2 2 1 2 75 230 76
345 2 2 1 2 79 231 78
346 2 2 1 2 83 224 82
347 2 2 1 2 82 233 83
348 2 2 1 2 85 234 86
349 2 2 1 2 90 235 89
350 2 2 1 2 93 236 92
351 2 2 1 2 70 257 228
352 2 2 1 2 240 255 19
353 2 2 1 2 131 260 184
354 2 2 1 2 136 242 135
355 2 2 1 2 184 260 213
356 2 2 1 2 205 248 96
357 2 2 1 2 122 251 6
358 2 2 1 2 79 254 80
359 2 2 1 2 100 251 99
360 2 2 1 2 131 261 130
361 2 2 1 2 18 258 152
362 2 2 1 2 105 286 106
363 2 2 1 2 185 187 105
364 2 2 1 2 221 249 182
365 2 2 1 2 181 275 180
366 2 2 1 2 208 252 85
367 2 2 1 2 216 255 15
368 2 2 1 2 250 292 128
369 2 2 1 2 152 244 151
370 2 2 1 2 56 263 57
371 2 2 1 2 30 291 29
372 2 2 1 2 8 253 208
373 2 2 1 2 151 244 192
374 2 2 1 2 196 293 264
375 2 2 1 2 68 267 69
376 2 2 1 2 181 279 275
377 2 2 1 2 27 268 26
378 2 2 1 2 148 262 200
379 2 2 1 2 97 193 98
380 2 2 1 2 59 192 60
381 2 2 1 2 76 256 75
382 2 2 1 2 188 221 182
383 2 2 1 2 21 255 216
384 2 2 1 2 101 251 100
385 2 2 1 2 183 264 190
386 2 2 1 2 124 198 123
387 2 2 1 2 137 281 136
388 2 2 1 2 151 263 194
389 2 2 1 2 189 224 47
390 2 2 1 2 145 240 14
391 2 2 1 2 212 213 180
392 2 2 1 2 123 199 7
393 2 2 1 2 92 236 199
394 2 2 1 2 242 281 209
395 2 2 1 2 196 264 246
396 2 2 1 2 51 275 226
397 2 2 1 2 227 275 51
398 2 2 1 2 125 253 8
399 2 2 1 2 208 253 252
400 2 2 1 2 8 208 124
401 2 2 1 2 187 286 105
402 2 2 1 2 211 260 132
403 2 2 1 2 182 249 186
404 2 2 1 2 205 251 122
405 2 2 1 2 199 276 92
406 2 2 1 2 47 279 189
407 2 2 1 2 52 266 53
408 2 2 1 2 184 261 131
409 2 2 1 2 139 246 12
410 2 2 1 2 43 262 149
411 2 2 1 2 12 246 138
412 2 2 1 2 21 216 22
413 2 2 1 2 23 215 22
414 2 2 1 2 32 219 31
415 2 2 1 2 58 203 57
416 2 2 1 2 97 205 96
417 2 2 1 2 107 207 106
418 2 2 1 2 107 203 108
419 2 2 1 2 133 257 241
420 2 2 1 2 49 279 48
421 2 2 1 2 246 282 196
422 2 2 1 2 20 255 21
423 2 2 1 2 88 280 89
424 2 2 1 2 126 250 125
425 2 2 1 2 187 275 274
426 2 2 1 2 249 254 186
427 2 2 1 2 19 215 190
428 2 2 1 2 182 242 209
429 2 2 1 2 77 283 78
430 2 2 1 2 55 274 54
431 2 2 1 2 190 293 19
432 2 2 1 2 252 253 11
433 2 2 1 2 63 214 62
434 2 2 1 2 150 197 16
435 2 2 1 2 192 244 63
436 2 2 1 2 136 281 242
437 2 2 1 2 129 250 128
438 2 2 1 2 194 197 150
439 2 2 1 2 91 276 90
440 2 2 1 2 190 215 23
441 2 2 1 2 92 284 212
442 2 2 1 2 11 253 129
443 2 2 1 2 228 295 68
444 2 2 1 2 239 287 103
445 2 2 1 2 212 271 92
446 2 2 1 2 198 276 123
447 2 2 1 2 138 264 137
448 2 2 1 2 209 243 182
449 2 2 1 2 30 265 31
450 2 2 1 2 32 265 33
451 2 2 1 2 189 279 181
452 2 2 1 2 123 276 199
453 2 2 1 2 90 284 91
454 2 2 1 2 252 261 85
455 2 2 1 2 141 278 140
456 2 2 1 2 64 214 63
457 2 2 1 2 14 240 144
458 2 2 1 2 144 273 143
459 2 2 1 2 143 277 142
460 2 2 1 2 82 288 81
461 2 2 1 2 103 287 237
462 2 2 1 2 237 287 6
463 2 2 1 2 240 293 273
464 2 2 1 2 231 232 78
465 2 2 1 2 190 217 183
466 2 2 1 2 130 252 11
467 2 2 1 2 140 282 139
468 2 2 1 2 124 208 198
469 2 2 1 2 93 271 94
470 2 2 1 2 147 220 35
471 2 2 1 2 189 232 231
472 2 2 1 2 145 255 240
473 2 2 1 2 188 219 36
474 2 2 1 2 231 288 189
475 2 2 1 2 44 245 45
476 2 2 1 2 106 286 107
477 2 2 1 2 72 257 71
478 2 2 1 2 193 212 185
479 2 2 1 2 267 294 182
480 2 2 1 2 142 289 13
481 2 2 1 2 232 256 77
482 2 2 1 2 228 257 134
483 2 2 1 2 58 263 192
484 2 2 1 2 127 292 9
485 2 2 1 2 186 267 182
486 2 2 1 2 9 292 126
487 2 2 1 2 87 290 86
488 2 2 1 2 68 294 267
489 2 2 1 2 181 260 211
490 2 2 1 2 33 265 146
491 2 2 1 2 31 291 30
492 2 2 1 2 135 295 228
493 2 2 1 2 13 289 141
494 2 2 1 2 193 271 212
495 2 2 1 2 250 253 125
496 2 2 1 2 64 244 65
497 2 2 1 2 234 261 184
498 2 2 1 2 183 281 264
499 2 2 1 2 195 283 76
500 2 2 1 2 68 295 294
501 2 2 1 2 79 283 254
502 2 2 1 2 126 292 250
503 2 2 1 2 245 259 45
504 2 2 1 2 264 281 137
505 2 2 1 2 180 275 187
506 2 2 1 2 241 256 211
507 2 2 1 2 280 284 90
508 2 2 1 2 208 290 198
509 2 2 1 2 181 232 189
510 2 2 1 2 85 290 208
511 2 2 1 2 95 248 236
512 2 2 1 2 5 287 207
513 2 2 1 2 199 248 7
514 2 2 1 2 29 218 210
515 2 2 1 2 90 276 235
516 2 2 1 2 129 253 250
517 2 2 1 2 209 281 183
518 2 2 1 2 246 264 138
519 2 2 1 2 180 187 185
520 2 2 1 2 277 289 142
521 2 2 1 2 139 282 246
522 2 2 1 2 224 288 82
523 2 2 1 2 222 249 40
524 2 2 1 2 80 254 233
525 2 2 1 2 39 249 221
526 2 2 1 2 29 291 243
527 2 2 1 2 184 280 234
528 2 2 1 2 211 232 181
529 2 2 1 2 47 259 225
530 2 2 1 2 141 289 278
531 2 2 1 2 46 259 47
532 2 2 1 2 240 273 144
533 2 2 1 2 209 268 243
534 2 2 1 2 274 275 227
535 2 2 1 2 273 277 143
536 2 2 1 2 211 256 232
537 2 2 1 2 182 294 242
538 2 2 1 2 69 267 229
539 2 2 1 2 210 265 30
540 2 2 1 2 43 223 222
541 2 2 1 2 229 230 72
542 2 2 1 2 83 233 223
543 2 2 1 2 217 268 183
544 2 2 1 2 201 263 56
545 2 2 1 2 26 268 217
546 2 2 1 2 39 200 40
547 2 2 1 2 53 201 54
548 2 2 1 2 54 227 53
549 2 2 1 2 55 201 56
550 2 2 1 2 56 202 55
551 2 2 1 2 62 204 61
552 2 2 1 2 99 205 98
553 2 2 1 2 98 206 99
554 2 2 1 2 109 207 108
555 2 2 1 2 213 280 184
556 2 2 1 2 197 259 16
557 2 2 1 2 278 282 140
558 2 2 1 2 185 212 180
559 2 2 1 2 193 206 98
560 2 2 1 2 52 269 266
561 2 2 1 2 65 258 66
562 2 2 1 2 5 207 204
563 2 2 1 2 76 230 195
564 2 2 1 2 189 288 224
565 2 2 1 2 130 261 252
566 2 2 1 2 278 289 277
567 2 2 1 2 53 266 201
568 2 2 1 2 183 268 209
569 2 2 1 2 226 279 49
570 2 2 1 2 234 280 88
571 2 2 1 2 153 285 65
572 2 2 1 2 22 215 21
573 2 2 1 2 22 216 23
574 2 2 1 2 26 217 25
575 2 2 1 2 25 218 26
576 2 2 1 2 33 219 32
577 2 2 1 2 35 220 36
578 2 2 1 2 38 200 39
579 2 2 1 2 39 221 38
580 2 2 1 2 40 200 41
581 2 2 1 2 41 222 40
582 2 2 1 2 84 223 44
583 2 2 1 2 45 224 84
584 2 2 1 2 49 225 50
585 2 2 1 2 50 226 49
586 2 2 1 2 53 227 52
587 2 2 1 2 54 201 55
588 2 2 1 2 57 202 56
589 2 2 1 2 59 203 58
590 2 2 1 2 61 204 109
591 2 2 1 2 70 228 69
592 2 2 1 2 69 229 70
593 2 2 1 2 73 230 74
594 2 2 1 2 81 231 80
595 2 2 1 2 80 233 81
596 2 2 1 2 87 234 88
597 2 2 1 2 88 235 87
598 2 2 1 2 95 236 94
599 2 2 1 2 98 205 97
600 2 2 1 2 99 206 100
601 2 2 1 2 103 237 102
602 2 2 1 2 102 238 103
603 2 2 1 2 106 239 105
604 2 2 1 2 108 207 107
605 2 2 1 2 273 293 196
606 2 2 1 2 41 262 42
607 2 2 1 2 21 215 20
608 2 2 1 2 23 216 24
609 2 2 1 2 25 217 24
610 2 2 1 2 26 218 27
611 2 2 1 2 34 219 33
612 2 2 1 2 36 220 37
613 2 2 1 2 38 221 37
614 2 2 1 2 42 222 41
615 2 2 1 2 44 223 43
616 2 2 1 2 46 224 45
617 2 2 1 2 48 225 49
618 2 2 1 2 51 226 50
619 2 2 1 2 52 227 51
620 2 2 1 2 69 228 68
621 2 2 1 2 70 229 71
622 2 2 1 2 72 230 73
623 2 2 1 2 74 230 75
624 2 2 1 2 80 231 79
625 2 2 1 2 81 233 82
626 2 2 1 2 83 223 84
627 2 2 1 2 84 224 83
628 2 2 1 2 86 234 87
629 2 2 1 2 89 235 88
630 2 2 1 2 94 236 93
631 2 2 1 2 102 237 101
632 2 2 1 2 103 238 104
633 2 2 1 2 105 239 104
634 2 2 1 2 207 287 239
635 2 2 1 2 191 254 249
636 2 2 1 2 54 274 227
637 2 2 1 2 202 274 55
638 2 2 1 2 182 243 188
639 2 2 1 2 99 251 205
640 2 2 1 2 212 284 213
641 2 2 1 2 210 218 15
642 2 2 1 2 81 288 231
643 2 2 1 2 94 271 193
644 2 2 1 2 194 266 197
645 2 2 1 2 196 282 278
646 2 2 1 2 108 296 109
647 2 2 1 2 196 277 273
648 2 2 1 2 185 238 206
649 2 2 1 2 235 290 87
650 2 2 1 2 229 267 195
651 2 2 1 2 185 206 193
652 2 2 1 2 146 265 210
653 2 2 1 2 201 266 194
654 2 2 1 2 16 259 245
655 2 2 1 2 107 286 203
656 2 2 1 2 62 214 204
657 2 2 1 2 194 263 201
658 2 2 1 2 219 291 31
659 2 2 1 2 37 272 38
660 2 2 1 2 266 269 225
661 2 2 1 2 31 265 32
662 2 2 1 2 196 278 277
663 2 2 1 2 200 262 41
664 2 2 1 2 225 269 50
665 2 2 1 2 57 203 202
666 2 2 1 2 206 270 100
667 2 2 1 2 102 270 238
668 2 2 1 2 207 239 106
669 2 2 1 2 204 207 109
670 2 2 1 2 195 267 186
671 2 2 1 2 238 270 206
672 2 2 1 2 204 214 5
673 2 2 1 2 38 272 200
674 2 2 1 2 222 223 191
675 2 2 1 2 223 233 191
676 2 2 1 2 254 283 186
677 2 2 1 2 198 290 235
678 2 2 1 2 236 248 199
679 2 2 1 2 65 285 64
680 2 2 1 2 186 283 195
681 2 2 1 2 200 272 148
682 2 2 1 2 294 295 242
683 2 2 1 2 225 259 197
684 2 2 1 2 50 269 51
685 2 2 1 2 51 269 52
686 2 2 1 2 100 270 101
687 2 2 1 2 101 270 102
688 2 2 1 2 197 266 225
689 2 2 1 2 187 274 202
690 2 2 1 2 233 254 191
691 2 2 1 2 191 249 222
692 2 2 1 2 202 286 187
693 2 2 1 2 235 276 198
694 2 2 1 2 244 258 65
695 2 2 1 2 64 285 214
696 2 2 1 2 195 230 229
697 2 2 1 2 148 272 220
698 2 2 1 2 243 291 188
699 2 2 1 2 60 247 59
700 2 2 1 2 203 286 202
701 2 2 1 2 214 285 153
702 2 2 1 2 213 284 280
703 2 2 1 2 152 258 244
704 2 2 1 2 220 272 37
705 2 2 1 2 188 291 219
706 2 2 1 2 59 247 203
707 2 2 1 2 203 247 108
708 2 2 1 2 247 296 108
709 2 2 1 2 61 296 60
710 2 2 1 2 109 296 61
711 2 2 1 2 60 296 247
712 2 2 1 2 6 287 5
713 2 2 1 2 5 214 153
714 2 2 1 2 146 210 15
715 2 2 1 2 16 245 149
716 2 2 1 2 66 258 18
717 2 2 1 2 153 67 18
718 2 2 1 2 147 33 146
719 2 2 1 2 148 220 147
720 2 2 1 2 149 262 148
721 2 2 1 2 18 67 66
722 2 2 1 2 147 34 33
723 2 2 1 2 45 84 44
724 2 2 1 2 65 66 153
725 2 2 1 2 66 67 153
726 2 2 1 2 133 241 132
$EndElements
